<?xml version="1.0" encoding="UTF-8"?>
<svg id="Ebene_2" data-name="Ebene 2" xmlns="http://www.w3.org/2000/svg" viewBox="0 0 1500 1100">
  <defs>
    <style>
      .cls-1 {
        fill: #004aad;
      }

      .cls-2 {
        fill: #a6a6a6;
      }

      .cls-3 {
        fill: #fff;
      }

      .cls-4 {
        fill: #5271ff;
      }

      .cls-5 {
        fill: #5ce1e6;
      }

      .cls-6 {
        fill: #38b6ff;
      }
    </style>
  </defs>
  <g>
    <path class="cls-1" d="M750,95.05c8.03,0,16.06.21,24.08.64,8.02.43,16.03,1.06,24.01,1.91,7.99.85,15.95,1.91,23.88,3.18s15.82,2.75,23.68,4.44c7.85,1.69,15.66,3.58,23.41,5.69,7.76,2.1,15.44,4.41,23.07,6.92s15.19,5.22,22.68,8.13c7.48,2.91,14.89,6.02,22.21,9.32s14.55,6.8,21.69,10.48c7.14,3.68,14.17,7.55,21.1,11.61,6.93,4.06,13.76,8.3,20.46,12.72,6.71,4.42,13.29,9.01,19.76,13.78s12.8,9.7,19.01,14.81,12.27,10.36,18.19,15.79c5.93,5.42,11.7,11,17.33,16.73,5.63,5.73,11.1,11.6,16.42,17.63,5.32,6.02,10.47,12.18,15.46,18.47,4.99,6.3,9.81,12.71,14.46,19.27,4.65,6.55,9.13,13.21,13.43,20s8.41,13.68,12.35,20.68c3.93,7.01,7.68,14.1,11.23,21.31s6.92,14.49,10.09,21.88c3.17,7.38,6.15,14.84,8.92,22.38,2.78,7.54,5.35,15.14,7.72,22.82,2.37,7.67,4.54,15.41,6.51,23.19s3.72,15.63,5.27,23.51,2.89,15.8,4.02,23.75,2.05,15.93,2.76,23.93,1.2,16.02,1.48,24.04c.28,8.03.35,16.06.21,24.09-.15,8.03-.5,16.05-1.07,24.07-.57,8.01-1.35,16-2.34,23.97l-225.73-28.08c.49-3.98.89-7.98,1.17-11.98.29-4.01.46-8.02.54-12.04.07-4.02.04-8.03-.1-12.04-.15-4.02-.39-8.02-.74-12.02s-.81-7.99-1.38-11.96c-.57-3.98-1.23-7.94-2.01-11.88-.77-3.94-1.65-7.85-2.63-11.75-.98-3.9-2.07-7.76-3.26-11.6-1.19-3.83-2.47-7.64-3.86-11.41-1.39-3.77-2.88-7.5-4.46-11.19-1.58-3.69-3.27-7.34-5.04-10.94-1.78-3.6-3.65-7.15-5.62-10.66-1.96-3.5-4.03-6.95-6.17-10.34-2.15-3.4-4.39-6.73-6.71-10-2.33-3.28-4.73-6.48-7.23-9.64-2.49-3.15-5.07-6.22-7.73-9.23-2.66-3.01-5.4-5.95-8.21-8.81-2.82-2.86-5.7-5.65-8.67-8.36s-5.99-5.34-9.09-7.9c-3.1-2.55-6.27-5.02-9.51-7.4-3.23-2.39-6.52-4.68-9.88-6.89s-6.77-4.33-10.23-6.35c-3.46-2.03-6.98-3.97-10.55-5.81-3.57-1.84-7.18-3.59-10.84-5.24s-7.36-3.21-11.1-4.66-7.53-2.81-11.34-4.06c-3.82-1.26-7.66-2.41-11.54-3.46-3.88-1.05-7.78-2-11.7-2.84s-7.88-1.58-11.84-2.22c-3.97-.64-7.95-1.17-11.94-1.59-3.99-.42-7.99-.74-12.01-.95s-8.02-.32-12.04-.32V95.05Z"/>
    <path class="cls-4" d="M1201.47,606.15c-.72,5.77-1.55,11.52-2.48,17.25s-1.98,11.45-3.14,17.14-2.42,11.36-3.8,17.01c-1.37,5.65-2.85,11.27-4.44,16.85s-3.28,11.15-5.08,16.67c-1.8,5.53-3.71,11.01-5.72,16.46-2.02,5.45-4.13,10.86-6.35,16.23s-4.54,10.69-6.96,15.97c-2.42,5.28-4.94,10.52-7.57,15.7s-5.34,10.32-8.17,15.4c-2.82,5.08-5.73,10.1-8.75,15.07-3.01,4.97-6.12,9.88-9.32,14.72-3.2,4.85-6.49,9.64-9.88,14.36-3.38,4.72-6.85,9.38-10.42,13.97-3.56,4.59-7.21,9.11-10.95,13.56s-7.56,8.83-11.46,13.13c-3.91,4.3-7.89,8.53-11.95,12.68-4.07,4.15-8.21,8.22-12.43,12.21-4.22,3.99-8.52,7.9-12.89,11.73s-8.81,7.57-13.33,11.23-9.1,7.22-13.75,10.71c-4.65,3.48-9.36,6.88-14.15,10.17-4.78,3.3-9.63,6.51-14.53,9.63-4.9,3.12-9.86,6.14-14.89,9.06-5.02,2.93-10.09,5.76-15.22,8.48-5.13,2.73-10.31,5.36-15.54,7.9-5.23,2.54-10.51,4.97-15.83,7.3s-10.69,4.56-16.09,6.68-10.85,4.15-16.34,6.06-11.01,3.73-16.56,5.43c-5.56,1.7-11.14,3.3-16.76,4.79-5.61,1.49-11.26,2.88-16.93,4.15s-11.36,2.44-17.07,3.49c-5.71,1.06-11.44,2.01-17.19,2.84s-11.51,1.56-17.29,2.18c-5.78.61-11.56,1.12-17.36,1.52s-11.6.68-17.41.85-11.61.23-17.43.18c-5.81-.05-11.61-.21-17.42-.48-5.81-.27-11.6-.66-17.39-1.15s-11.57-1.1-17.33-1.81c-5.77-.72-11.52-1.55-17.25-2.48-5.73-.94-11.45-1.98-17.14-3.14-5.69-1.15-11.36-2.42-17.01-3.79-5.65-1.37-11.26-2.85-16.85-4.44s-11.15-3.28-16.67-5.08c-5.52-1.8-11.01-3.71-16.46-5.72-5.45-2.01-10.86-4.13-16.23-6.34s-10.7-4.54-15.98-6.96c-5.28-2.42-10.51-4.94-15.7-7.57-5.18-2.62-10.31-5.34-15.4-8.16-5.08-2.82-10.1-5.73-15.07-8.74-4.97-3.02-9.88-6.12-14.72-9.32-4.85-3.2-9.64-6.49-14.36-9.88-4.72-3.39-9.38-6.86-13.97-10.42-4.59-3.56-9.11-7.21-13.56-10.95-4.45-3.73-8.83-7.55-13.13-11.45-4.3-3.91-8.53-7.89-12.68-11.95-4.15-4.06-8.22-8.21-12.22-12.43s-7.9-8.52-11.73-12.89c-3.83-4.37-7.57-8.81-11.23-13.33-3.66-4.51-7.23-9.09-10.71-13.74-3.48-4.65-6.88-9.36-10.18-14.15s-6.51-9.63-9.63-14.53l191.98-122.02c3.12,4.91,6.42,9.68,9.91,14.33,3.48,4.66,7.14,9.17,10.97,13.54,3.83,4.38,7.82,8.59,11.97,12.66,4.16,4.07,8.46,7.97,12.91,11.7,4.45,3.74,9.04,7.3,13.77,10.68,4.72,3.39,9.57,6.58,14.54,9.6,4.97,3.01,10.05,5.83,15.23,8.45s10.46,5.04,15.84,7.26c5.37,2.22,10.82,4.23,16.34,6.03s11.11,3.39,16.76,4.76c5.65,1.38,11.34,2.53,17.08,3.47s11.5,1.65,17.29,2.15,11.59.77,17.4.82c5.81.05,11.62-.13,17.42-.52,5.8-.4,11.58-1.01,17.33-1.85s11.46-1.9,17.13-3.17c5.67-1.28,11.29-2.77,16.84-4.47,5.55-1.71,11.04-3.62,16.45-5.75,5.41-2.13,10.73-4.45,15.96-6.99,5.23-2.53,10.36-5.26,15.38-8.19s9.92-6.04,14.71-9.34c4.78-3.3,9.43-6.78,13.95-10.44,4.52-3.66,8.89-7.48,13.11-11.48,4.22-3.99,8.29-8.14,12.19-12.45,3.91-4.3,7.64-8.75,11.2-13.34,3.56-4.59,6.95-9.31,10.15-14.16,3.2-4.85,6.21-9.82,9.03-14.9,2.82-5.08,5.45-10.26,7.87-15.55,2.42-5.28,4.64-10.65,6.66-16.1,2.01-5.45,3.81-10.97,5.4-16.57,1.59-5.59,2.96-11.23,4.12-16.93,1.16-5.7,2.09-11.43,2.81-17.2l225.73,28.08Z"/>
    <path class="cls-6" d="M366.04,794.03c-6.24-9.82-12.09-19.86-17.56-30.13s-10.54-20.72-15.2-31.38-8.92-21.47-12.76-32.45c-3.84-10.98-7.25-22.09-10.23-33.33-2.98-11.24-5.53-22.58-7.65-34.02-2.11-11.44-3.79-22.94-5.02-34.51-1.23-11.56-2.02-23.16-2.36-34.79-.34-11.63-.24-23.25.31-34.87l227.22,10.72c-.55,11.64-.2,23.24,1.03,34.83s3.34,23.01,6.33,34.27c2.99,11.26,6.82,22.22,11.49,32.89,4.67,10.67,10.14,20.92,16.38,30.76l-191.98,122.02Z"/>
    <path class="cls-5" d="M295.56,528.55c.62-13.11,1.8-26.18,3.55-39.19,1.75-13.01,4.06-25.92,6.93-38.73s6.28-25.47,10.25-37.99c3.96-12.52,8.46-24.83,13.49-36.96,5.03-12.13,10.58-24.01,16.64-35.66,6.06-11.65,12.61-23.01,19.66-34.09,7.05-11.08,14.55-21.83,22.53-32.27,7.97-10.43,16.39-20.49,25.23-30.19l168.08,153.27c-4.42,4.85-8.63,9.88-12.61,15.1-3.98,5.21-7.74,10.59-11.27,16.13-3.52,5.54-6.8,11.22-9.83,17.04-3.03,5.83-5.8,11.77-8.32,17.83s-4.76,12.22-6.74,18.48c-1.98,6.26-3.69,12.59-5.13,18.99-1.43,6.41-2.59,12.86-3.46,19.37-.88,6.51-1.46,13.04-1.78,19.59l-227.22-10.72Z"/>
    <path class="cls-2" d="M413.83,243.46c5.31-5.82,10.77-11.51,16.38-17.05s11.35-10.93,17.24-16.17,11.9-10.33,18.05-15.26,12.43-9.69,18.82-14.3,12.91-9.04,19.54-13.3c6.63-4.27,13.36-8.35,20.2-12.27,6.84-3.92,13.78-7.65,20.81-11.2s14.16-6.92,21.36-10.1c7.21-3.18,14.5-6.18,21.86-8.98,7.36-2.8,14.8-5.42,22.3-7.83s15.06-4.64,22.68-6.67c7.61-2.02,15.28-3.85,22.99-5.48,7.71-1.63,15.46-3.05,23.24-4.28s15.6-2.24,23.44-3.06,15.69-1.43,23.56-1.84,15.75-.61,23.63-.61l.02,227.47c-7.89,0-15.75.41-23.59,1.23s-15.63,2.04-23.34,3.67c-7.72,1.63-15.33,3.65-22.83,6.07-7.51,2.42-14.87,5.22-22.08,8.41-7.21,3.18-14.24,6.73-21.09,10.65-6.85,3.92-13.47,8.18-19.88,12.79-6.4,4.6-12.55,9.53-18.44,14.78-5.89,5.24-11.49,10.78-16.81,16.61l-168.08-153.27Z"/>
  </g>
  <g>
    <path class="cls-3" d="M1059.08,950.39h-6.29v20.95h-4.67v-20.95h-6.29v-3.82h17.24v3.82Z"/>
    <path class="cls-3" d="M1066.8,971.34h-4.45l.04-18.63h4.41v3.31c.86-2.3,2.43-3.46,4.7-3.46.51,0,.93.04,1.25.11v4.26c-.56-.24-1.19-.37-1.87-.37-1.2,0-2.18.49-2.94,1.47-.76.98-1.14,2.21-1.14,3.67v9.63Z"/>
    <path class="cls-3" d="M1091.35,971.34h-4.45v-3.05c-.98,2.16-2.89,3.23-5.73,3.23-1.89,0-3.36-.54-4.41-1.62-1.05-1.08-1.58-2.61-1.58-4.59v-12.61h4.41v11.58c0,1.18.29,2.07.86,2.68.58.61,1.37.92,2.37.92,1.27,0,2.27-.43,3-1.29.72-.86,1.08-2.16,1.08-3.9v-10h4.45v18.63ZM1081.42,947.78c0,.73-.25,1.35-.74,1.84-.49.49-1.1.74-1.84.74s-1.38-.24-1.87-.74c-.49-.49-.74-1.1-.74-1.84s.25-1.31.74-1.8,1.11-.74,1.87-.74,1.35.25,1.84.74.74,1.09.74,1.8ZM1090.35,947.78c0,.73-.25,1.35-.74,1.84-.49.49-1.12.74-1.87.74s-1.35-.24-1.86-.74c-.5-.49-.75-1.1-.75-1.84s.25-1.31.75-1.8,1.12-.74,1.86-.74,1.38.25,1.87.74.74,1.09.74,1.8Z"/>
    <path class="cls-3" d="M1122.55,971.34h-4.45v-11.43c0-2.5-.96-3.75-2.87-3.75-.96,0-1.81.42-2.55,1.25s-1.12,2.14-1.12,3.93v10h-4.45v-11.43c0-2.5-.96-3.75-2.87-3.75-.96,0-1.81.42-2.57,1.25-.76.83-1.14,2.14-1.14,3.93v10h-4.41v-18.63h4.41v2.94c1.05-2.11,2.81-3.16,5.26-3.16,2.72,0,4.48,1.18,5.29,3.53.49-1.13,1.22-2,2.21-2.61.98-.61,2.09-.92,3.34-.92,1.89,0,3.34.57,4.37,1.71,1.03,1.14,1.54,2.76,1.54,4.87v12.28Z"/>
    <path class="cls-3" d="M1153.53,971.34h-4.45v-11.43c0-2.5-.96-3.75-2.87-3.75-.96,0-1.81.42-2.55,1.25s-1.12,2.14-1.12,3.93v10h-4.45v-11.43c0-2.5-.96-3.75-2.87-3.75-.96,0-1.81.42-2.57,1.25-.76.83-1.14,2.14-1.14,3.93v10h-4.41v-18.63h4.41v2.94c1.05-2.11,2.81-3.16,5.26-3.16,2.72,0,4.48,1.18,5.29,3.53.49-1.13,1.22-2,2.21-2.61.98-.61,2.09-.92,3.34-.92,1.89,0,3.34.57,4.37,1.71,1.03,1.14,1.54,2.76,1.54,4.87v12.28Z"/>
    <path class="cls-3" d="M1172.31,970.31c-1.3.81-3.17,1.21-5.62,1.21-2.96,0-5.31-.88-7.02-2.65-1.71-1.76-2.57-4.04-2.57-6.84,0-2.96.81-5.29,2.43-6.98s3.64-2.54,6.06-2.54,4.35.74,5.77,2.21c1.42,1.47,2.13,3.62,2.13,6.43,0,.69-.09,1.57-.26,2.65h-11.69c.32,1.35.99,2.38,2,3.09,1.02.71,2.28,1.07,3.8,1.07,1.96,0,3.61-.49,4.96-1.47v3.82ZM1165.69,955.98c-1.05,0-1.97.39-2.74,1.16s-1.27,1.89-1.49,3.36h7.83v-.55c-.05-1.2-.37-2.16-.97-2.88-.6-.72-1.48-1.08-2.63-1.08Z"/>
    <path class="cls-3" d="M1181.94,971.34h-4.45l.04-18.63h4.41v3.31c.86-2.3,2.43-3.46,4.7-3.46.51,0,.93.04,1.25.11v4.26c-.56-.24-1.19-.37-1.87-.37-1.2,0-2.18.49-2.94,1.47-.76.98-1.14,2.21-1.14,3.67v9.63Z"/>
    <path class="cls-3" d="M1200.79,970.9c-.86.42-1.96.62-3.31.62-4.02,0-6.03-2.03-6.03-6.1v-9.41h-2.79v-3.31h2.79v-4.48h4.41v4.48h4.63v3.31h-4.63v9.48c0,.78.21,1.38.62,1.78.42.4.99.61,1.73.61.93,0,1.79-.26,2.57-.77v3.79Z"/>
    <path class="cls-3" d="M1218.65,970.31c-1.3.81-3.17,1.21-5.62,1.21-2.96,0-5.31-.88-7.02-2.65-1.71-1.76-2.57-4.04-2.57-6.84,0-2.96.81-5.29,2.43-6.98s3.64-2.54,6.06-2.54,4.35.74,5.77,2.21c1.42,1.47,2.13,3.62,2.13,6.43,0,.69-.09,1.57-.26,2.65h-11.69c.32,1.35.99,2.38,2,3.09,1.02.71,2.28,1.07,3.8,1.07,1.96,0,3.61-.49,4.96-1.47v3.82ZM1212.04,955.98c-1.05,0-1.97.39-2.74,1.16s-1.27,1.89-1.49,3.36h7.83v-.55c-.05-1.2-.37-2.16-.97-2.88-.6-.72-1.48-1.08-2.63-1.08Z"/>
    <path class="cls-3" d="M1228.91,947.12c0,.76-.26,1.4-.77,1.91s-1.14.77-1.88.77-1.36-.26-1.87-.77-.77-1.15-.77-1.91.26-1.36.77-1.87,1.14-.77,1.87-.77,1.36.26,1.88.77.77,1.14.77,1.87ZM1228.46,971.34h-4.41v-18.63h4.41v18.63Z"/>
    <path class="cls-3" d="M1238.02,971.34h-4.41v-25.98h4.41v25.98Z"/>
    <path class="cls-3" d="M1257.21,970.31c-1.3.81-3.17,1.21-5.62,1.21-2.96,0-5.31-.88-7.02-2.65-1.71-1.76-2.57-4.04-2.57-6.84,0-2.96.81-5.29,2.43-6.98s3.64-2.54,6.06-2.54,4.35.74,5.77,2.21c1.42,1.47,2.13,3.62,2.13,6.43,0,.69-.09,1.57-.26,2.65h-11.69c.32,1.35.99,2.38,2,3.09,1.02.71,2.28,1.07,3.8,1.07,1.96,0,3.61-.49,4.96-1.47v3.82ZM1250.59,955.98c-1.05,0-1.97.39-2.74,1.16s-1.27,1.89-1.49,3.36h7.83v-.55c-.05-1.2-.37-2.16-.97-2.88-.6-.72-1.48-1.08-2.63-1.08Z"/>
    <path class="cls-3" d="M1132.32,1008.83c0,1.96-.69,3.59-2.06,4.89-1.37,1.3-3.31,1.95-5.81,1.95-2.3,0-4.3-.4-5.99-1.21v-2.9c1.81.96,3.79,1.43,5.92,1.43,1.57,0,2.79-.4,3.66-1.21.87-.81,1.3-1.86,1.3-3.16s-.48-2.3-1.45-3-2.36-1.05-4.17-1.05h-1.54v-2.54h1.54c1.37,0,2.53-.39,3.47-1.16s1.42-1.81,1.42-3.11-.4-2.28-1.21-2.94c-.81-.66-1.92-.99-3.34-.99-1.69,0-3.31.5-4.85,1.51v-2.83c1.42-.91,3.06-1.36,4.92-1.36,2.38,0,4.22.61,5.53,1.82,1.31,1.21,1.97,2.71,1.97,4.5,0,1.3-.33,2.46-.97,3.49-.65,1.03-1.61,1.8-2.89,2.32,1.4.32,2.5.96,3.33,1.93s1.23,2.17,1.23,3.62Z"/>
    <path class="cls-3" d="M1151.18,1001.73c0,4.36-.88,7.79-2.63,10.27-1.75,2.49-4.37,3.73-7.85,3.73-1.42,0-2.81-.23-4.15-.7v-2.87c1.27.56,2.62.84,4.04.84,4.43,0,6.96-2.78,7.57-8.34-1.23,1.45-3.04,2.17-5.44,2.17-1.96,0-3.65-.72-5.07-2.15-1.42-1.43-2.13-3.33-2.13-5.68s.67-4.17,2.02-5.66c1.35-1.49,3.18-2.24,5.51-2.24,2.69,0,4.72,1,6.08,3.01,1.36,2.01,2.04,4.55,2.04,7.61ZM1143.46,1004.27c2.01,0,3.63-.78,4.85-2.35v-.18c0-2.33-.41-4.23-1.23-5.72-.82-1.48-2.14-2.22-3.95-2.22-1.4,0-2.51.46-3.34,1.4-.83.93-1.25,2.21-1.25,3.82s.44,2.99,1.32,3.9c.88.91,2.08,1.36,3.6,1.36Z"/>
    <path class="cls-3" d="M1166.17,996.51c0,1.62-.58,3-1.73,4.13-1.15,1.14-2.52,1.71-4.12,1.71s-2.96-.57-4.1-1.71c-1.14-1.14-1.71-2.52-1.71-4.13s.57-2.96,1.71-4.1c1.14-1.14,2.5-1.71,4.1-1.71s2.96.57,4.12,1.71c1.15,1.14,1.73,2.51,1.73,4.1ZM1158.01,994.2c-.64.64-.96,1.41-.96,2.32s.32,1.68.96,2.33c.64.65,1.41.97,2.32.97s1.68-.33,2.33-.97.97-1.43.97-2.33-.33-1.68-.97-2.32c-.65-.64-1.43-.96-2.33-.96s-1.68.32-2.32.96ZM1163.05,1015.48h-2.76l13.12-24.48h2.83l-13.19,24.48ZM1180.34,1005.78c1.14,1.15,1.71,2.52,1.71,4.12s-.57,2.96-1.71,4.1c-1.14,1.14-2.51,1.71-4.1,1.71s-2.99-.57-4.12-1.71c-1.13-1.14-1.69-2.5-1.69-4.1s.56-3,1.69-4.13c1.13-1.14,2.5-1.71,4.12-1.71s2.96.58,4.1,1.73ZM1173.91,1007.56c-.65.65-.97,1.43-.97,2.33s.32,1.68.97,2.32c.65.64,1.43.96,2.33.96s1.68-.32,2.33-.96c.65-.64.97-1.41.97-2.32s-.32-1.68-.96-2.33-1.42-.97-2.35-.97-1.69.33-2.33.97Z"/>
  </g>
  <g>
    <path class="cls-3" d="M679.81,517.67c-4.07,2.92-9.15,4.37-15.24,4.37-7.07,0-12.78-2.05-17.13-6.16-4.35-4.11-6.53-9.7-6.53-16.77s2.24-12.46,6.73-16.7c4.48-4.24,10.15-6.36,17-6.36,5.08,0,9.43.95,13.06,2.85v8.55c-4.07-2.43-8.37-3.65-12.92-3.65s-8.06,1.39-10.8,4.18c-2.74,2.78-4.11,6.5-4.11,11.13s1.34,8.45,4.01,11.17c2.67,2.72,6.35,4.08,11.04,4.08,2.3,0,4.53-.4,6.69-1.19v-10.54h-8.22v-7.16h16.44v21.47h-.07l.07.73Z"/>
    <path class="cls-3" d="M713.95,519.66c-2.34,1.46-5.72,2.19-10.14,2.19-5.35,0-9.57-1.59-12.66-4.77-3.09-3.18-4.64-7.29-4.64-12.33,0-5.35,1.46-9.54,4.37-12.59,2.92-3.05,6.56-4.57,10.94-4.57s7.84,1.33,10.41,3.98c2.56,2.65,3.84,6.52,3.84,11.6,0,1.24-.16,2.83-.46,4.77h-21.08c.57,2.43,1.78,4.29,3.61,5.57,1.83,1.28,4.12,1.92,6.86,1.92,3.54,0,6.52-.88,8.95-2.65v6.89ZM702.02,493.81c-1.9,0-3.55.7-4.94,2.09-1.39,1.39-2.29,3.41-2.68,6.06h14.12v-.99c-.09-2.16-.67-3.9-1.76-5.2-1.08-1.3-2.66-1.96-4.74-1.96Z"/>
    <path class="cls-3" d="M745.29,511.84c0,3.14-1.13,5.59-3.38,7.36-2.25,1.77-5.26,2.65-9.01,2.65-4.15,0-7.51-.68-10.07-2.05v-7.29c2.96,1.99,6.16,2.98,9.61,2.98,1.46,0,2.59-.28,3.41-.83.82-.55,1.23-1.31,1.23-2.29,0-.57-.13-1.09-.4-1.56-.26-.46-.77-.92-1.52-1.36-.75-.44-1.34-.76-1.76-.96-.42-.2-1.25-.56-2.49-1.09-.13-.04-.23-.09-.3-.13-.07-.04-.17-.09-.3-.13-.13-.04-.24-.09-.33-.13-4.9-2.21-7.36-5.39-7.36-9.54,0-3.09,1.17-5.52,3.51-7.29,2.34-1.77,5.28-2.65,8.82-2.65s6.23.49,8.48,1.46v7.03c-2.21-1.33-4.97-1.99-8.29-1.99-1.37,0-2.44.3-3.21.89-.77.6-1.16,1.36-1.16,2.29,0,.35.05.69.17.99.11.31.31.61.6.9.29.29.56.54.83.76.26.22.64.45,1.13.7.49.24.91.45,1.26.63.35.18.84.4,1.46.66.62.27,1.1.49,1.46.66,2.34,1.15,4.2,2.43,5.57,3.84,1.37,1.41,2.05,3.25,2.05,5.5Z"/>
    <path class="cls-3" d="M769.15,517.47c-1.55,2.87-4.46,4.31-8.75,4.31-3.18,0-5.71-.93-7.59-2.78s-2.82-4.2-2.82-7.03c0-3.18,1.19-5.68,3.58-7.49,2.39-1.81,5.83-2.72,10.34-2.72h4.91v-2.05c0-1.86-.49-3.27-1.46-4.24-.97-.97-2.63-1.46-4.97-1.46-3.58,0-6.87.99-9.88,2.98v-7.36c2.52-1.55,6.14-2.32,10.87-2.32,9.1,0,13.65,4.24,13.65,12.73v21.47h-7.89v-4.04ZM763.19,515.88c1.77,0,3.15-.52,4.14-1.56.99-1.04,1.49-2.4,1.49-4.08v-3.18h-4.11c-2.08,0-3.67.43-4.77,1.29s-1.66,1.96-1.66,3.28c0,2.83,1.63,4.24,4.91,4.24Z"/>
    <path class="cls-3" d="M832.91,521.52h-8.02v-20.61c0-4.51-1.72-6.76-5.17-6.76-1.72,0-3.26.75-4.61,2.25-1.35,1.5-2.02,3.87-2.02,7.09v18.03h-8.02v-20.61c0-4.51-1.72-6.76-5.17-6.76-1.72,0-3.27.75-4.64,2.25-1.37,1.5-2.05,3.87-2.05,7.09v18.03h-7.95v-33.6h7.95v5.3c1.9-3.8,5.06-5.7,9.48-5.7,4.9,0,8.09,2.12,9.54,6.36.88-2.03,2.21-3.6,3.98-4.71,1.77-1.1,3.78-1.66,6.03-1.66,3.4,0,6.03,1.03,7.89,3.08,1.86,2.05,2.78,4.98,2.78,8.78v22.14Z"/>
    <path class="cls-3" d="M859.69,520.72c-1.55.75-3.54,1.13-5.96,1.13-7.25,0-10.87-3.67-10.87-11v-16.97h-5.04v-5.96h5.04v-8.09h7.95v8.09h8.35v5.96h-8.35v17.1c0,1.41.38,2.49,1.13,3.21.75.73,1.79,1.09,3.12,1.09,1.68,0,3.22-.46,4.64-1.39v6.83Z"/>
    <path class="cls-3" d="M677.56,601.05h-5.57l17.96-38.77h-22.73v-4.57h28.3v4.57l-17.96,38.77Z"/>
    <path class="cls-3" d="M724.09,601.05h-5.17v-10.54h-19.82v-4.57l16.5-28.23h8.48v28.23h6.43v4.57h-6.43v10.54ZM704.4,585.94h14.51v-25.12l-14.51,25.12Z"/>
    <path class="cls-3" d="M743.24,601.05h-5.57l17.96-38.77h-22.73v-4.57h28.3v4.57l-17.96,38.77Z"/>
    <path class="cls-3" d="M789.77,601.05h-5.17v-10.54h-19.82v-4.57l16.5-28.23h8.48v28.23h6.43v4.57h-6.43v10.54ZM770.08,585.94h14.51v-25.12l-14.51,25.12Z"/>
    <path class="cls-3" d="M825.56,601.05h-5.17v-10.54h-19.82v-4.57l16.5-28.23h8.48v28.23h6.43v4.57h-6.43v10.54ZM805.87,585.94h14.51v-25.12l-14.51,25.12Z"/>
  </g>
  <g>
    <path class="cls-3" d="M1167.8,206.15h-4.63v-24.77h5.26l5.95,10.33c.98,1.69,1.86,3.26,2.63,4.72.77,1.46,1.29,2.49,1.56,3.11l.4.92c-.2-2.03-.29-4.95-.29-8.75v-10.33h4.67v24.77h-5.29l-6.03-10.29c-.96-1.62-1.82-3.17-2.59-4.65s-1.3-2.55-1.6-3.22l-.44-1.03c.27,2.33.4,5.28.4,8.86v10.33Z"/>
    <path class="cls-3" d="M1204.26,206.15h-4.45v-3.05c-.98,2.16-2.89,3.23-5.73,3.23-1.89,0-3.36-.54-4.41-1.62-1.05-1.08-1.58-2.61-1.58-4.59v-12.61h4.41v11.58c0,1.18.29,2.07.86,2.68.58.61,1.37.92,2.37.92,1.27,0,2.27-.43,3-1.29.72-.86,1.08-2.16,1.08-3.9v-10h4.45v18.63Z"/>
    <path class="cls-3" d="M1219.32,205.71c-.86.42-1.96.62-3.31.62-4.02,0-6.03-2.03-6.03-6.1v-9.41h-2.79v-3.31h2.79v-4.48h4.41v4.48h4.63v3.31h-4.63v9.48c0,.78.21,1.38.62,1.78.42.4.99.61,1.73.61.93,0,1.79-.26,2.57-.77v3.79Z"/>
    <path class="cls-3" d="M1236.3,206.15h-14.19v-3.27l8.64-11.83h-8.31v-3.53h13.38v3.09l-8.67,11.98h9.15v3.56Z"/>
    <path class="cls-3" d="M1244.79,206.15h-4.41v-25.98h4.41v25.98Z"/>
    <path class="cls-3" d="M1259.46,203.91c-.86,1.59-2.48,2.39-4.85,2.39-1.76,0-3.17-.51-4.21-1.54-1.04-1.03-1.56-2.33-1.56-3.9,0-1.76.66-3.15,1.99-4.15,1.32-1,3.23-1.51,5.73-1.51h2.72v-1.14c0-1.03-.27-1.81-.81-2.35s-1.46-.81-2.76-.81c-1.98,0-3.81.55-5.48,1.65v-4.08c1.4-.86,3.41-1.29,6.03-1.29,5.05,0,7.57,2.35,7.57,7.06v11.91h-4.37v-2.24ZM1256.15,203.03c.98,0,1.75-.29,2.3-.86.55-.58.83-1.33.83-2.26v-1.76h-2.28c-1.15,0-2.03.24-2.65.72-.61.48-.92,1.08-.92,1.82,0,1.57.91,2.35,2.72,2.35Z"/>
    <path class="cls-3" d="M1280.55,200.78c0,1.74-.62,3.1-1.87,4.08-1.25.98-2.92,1.47-5,1.47-2.3,0-4.17-.38-5.59-1.14v-4.04c1.64,1.1,3.42,1.65,5.33,1.65.81,0,1.44-.15,1.89-.46s.68-.73.68-1.27c0-.32-.07-.61-.22-.86-.15-.26-.43-.51-.85-.75-.42-.25-.74-.42-.97-.53-.23-.11-.69-.31-1.38-.61-.07-.02-.13-.05-.17-.07s-.09-.05-.17-.07c-.07-.02-.13-.05-.18-.07-2.72-1.22-4.08-2.99-4.08-5.29,0-1.71.65-3.06,1.95-4.04,1.3-.98,2.93-1.47,4.89-1.47s3.46.27,4.7.81v3.9c-1.23-.74-2.76-1.1-4.59-1.1-.76,0-1.35.17-1.78.5-.43.33-.64.75-.64,1.27,0,.2.03.38.09.55.06.17.17.34.33.5s.31.3.46.42c.15.12.36.25.62.39s.5.25.7.35c.2.1.47.22.81.37.34.15.61.27.81.37,1.3.64,2.33,1.35,3.09,2.13s1.14,1.8,1.14,3.05Z"/>
    <path class="cls-3" d="M1294.37,205.71c-.86.42-1.96.62-3.31.62-4.02,0-6.03-2.03-6.03-6.1v-9.41h-2.79v-3.31h2.79v-4.48h4.41v4.48h4.63v3.31h-4.63v9.48c0,.78.21,1.38.62,1.78.42.4.99.61,1.73.61.93,0,1.79-.26,2.57-.77v3.79Z"/>
    <path class="cls-3" d="M1211.75,250.25h-15.18v-2.46c7.59-5.73,11.39-10.51,11.39-14.33,0-1.52-.44-2.69-1.32-3.51-.88-.82-2.07-1.23-3.57-1.23-1.94,0-3.85.72-5.73,2.17v-2.9c1.74-1.35,3.74-2.02,5.99-2.02s3.97.62,5.44,1.87c1.47,1.25,2.21,3.03,2.21,5.33,0,4.34-3.47,9.19-10.4,14.55h11.17v2.54Z"/>
    <path class="cls-3" d="M1219.51,250.25h-3.09l9.96-21.5h-12.61v-2.54h15.69v2.54l-9.96,21.5Z"/>
    <path class="cls-3" d="M1243.36,231.33c0,1.62-.58,3-1.73,4.13-1.15,1.14-2.52,1.71-4.12,1.71s-2.96-.57-4.1-1.71c-1.14-1.14-1.71-2.52-1.71-4.13s.57-2.96,1.71-4.1c1.14-1.14,2.5-1.71,4.1-1.71s2.96.57,4.12,1.71c1.15,1.14,1.73,2.51,1.73,4.1ZM1235.2,229.01c-.64.64-.96,1.41-.96,2.32s.32,1.68.96,2.33c.64.65,1.41.97,2.32.97s1.68-.33,2.33-.97.97-1.43.97-2.33-.33-1.68-.97-2.32c-.65-.64-1.43-.96-2.33-.96s-1.68.32-2.32.96ZM1240.24,250.29h-2.76l13.12-24.48h2.83l-13.19,24.48ZM1257.53,240.59c1.14,1.15,1.71,2.52,1.71,4.12s-.57,2.96-1.71,4.1c-1.14,1.14-2.51,1.71-4.1,1.71s-2.99-.57-4.12-1.71c-1.13-1.14-1.69-2.5-1.69-4.1s.56-3,1.69-4.13c1.13-1.14,2.5-1.71,4.12-1.71s2.96.58,4.1,1.73ZM1251.1,242.37c-.65.65-.97,1.43-.97,2.33s.32,1.68.97,2.32c.65.64,1.43.96,2.33.96s1.68-.32,2.33-.96c.65-.64.97-1.41.97-2.32s-.32-1.68-.96-2.33-1.42-.97-2.35-.97-1.69.33-2.33.97Z"/>
  </g>
  <g>
    <path class="cls-3" d="M449.11,45.79c0,3.21-.86,5.65-2.59,7.33-1.73,1.68-4.1,2.52-7.11,2.52s-5.29-.83-7.04-2.48c-1.75-1.65-2.63-4.02-2.63-7.11v-15.51h4.63v15.47c0,1.89.46,3.25,1.4,4.1.93.84,2.14,1.27,3.64,1.27,3.38,0,5.07-1.85,5.07-5.55v-15.29h4.63v15.25Z"/>
    <path class="cls-3" d="M470.09,55.31h-4.41v-11.47c0-1.22-.29-2.15-.88-2.77s-1.38-.94-2.39-.94c-1.15,0-2.12.45-2.9,1.34-.79.89-1.18,2.17-1.18,3.84v10h-4.41v-18.63h4.41v3.2c1.05-2.28,2.96-3.42,5.73-3.42,1.86,0,3.33.56,4.41,1.69s1.62,2.72,1.62,4.78v12.39Z"/>
    <path class="cls-3" d="M479.17,55.31h-4.45v-25.98h4.45v10.18c1.3-2.06,3.16-3.09,5.59-3.09s4.25.86,5.75,2.59c1.51,1.73,2.26,4.06,2.26,7,0,2.65-.72,4.9-2.15,6.76-1.43,1.86-3.38,2.79-5.83,2.79s-4.33-1.04-5.62-3.12v2.87ZM479.17,45.83c0,1.94.44,3.41,1.32,4.43.88,1.02,1.99,1.53,3.31,1.53s2.34-.53,3.2-1.58c.86-1.05,1.29-2.43,1.29-4.12,0-1.86-.44-3.31-1.3-4.36-.87-1.04-1.94-1.56-3.22-1.56-1.2,0-2.27.47-3.2,1.42-.93.94-1.4,2.36-1.4,4.24Z"/>
    <path class="cls-3" d="M510.77,54.28c-1.3.81-3.17,1.21-5.62,1.21-2.96,0-5.31-.88-7.02-2.65-1.71-1.76-2.57-4.04-2.57-6.84,0-2.96.81-5.29,2.43-6.98s3.64-2.54,6.06-2.54,4.35.74,5.77,2.21c1.42,1.47,2.13,3.62,2.13,6.43,0,.69-.09,1.57-.26,2.65h-11.69c.32,1.35.99,2.38,2,3.09,1.02.71,2.28,1.07,3.8,1.07,1.96,0,3.61-.49,4.96-1.47v3.82ZM504.16,39.95c-1.05,0-1.97.39-2.74,1.16s-1.27,1.89-1.49,3.36h7.83v-.55c-.05-1.2-.37-2.16-.97-2.88-.6-.72-1.48-1.08-2.63-1.08Z"/>
    <path class="cls-3" d="M520.4,55.31h-4.41v-25.54h4.41v15.66l6.58-8.75h5.15l-6.84,8.89,6.98,9.74h-5.18l-6.69-9.63v9.63Z"/>
    <path class="cls-3" d="M544.88,53.07c-.86,1.59-2.48,2.39-4.85,2.39-1.76,0-3.17-.51-4.21-1.54-1.04-1.03-1.56-2.33-1.56-3.9,0-1.76.66-3.15,1.99-4.15,1.32-1,3.23-1.51,5.73-1.51h2.72v-1.14c0-1.03-.27-1.81-.81-2.35s-1.46-.81-2.76-.81c-1.98,0-3.81.55-5.48,1.65v-4.08c1.4-.86,3.41-1.29,6.03-1.29,5.05,0,7.57,2.35,7.57,7.06v11.91h-4.37v-2.24ZM541.57,52.19c.98,0,1.75-.29,2.3-.86.55-.58.83-1.33.83-2.26v-1.76h-2.28c-1.15,0-2.03.24-2.65.72-.61.48-.92,1.08-.92,1.82,0,1.57.91,2.35,2.72,2.35Z"/>
    <path class="cls-3" d="M569.98,55.31h-4.41v-11.47c0-1.22-.29-2.15-.88-2.77s-1.38-.94-2.39-.94c-1.15,0-2.12.45-2.9,1.34-.79.89-1.18,2.17-1.18,3.84v10h-4.41v-18.63h4.41v3.2c1.05-2.28,2.96-3.42,5.73-3.42,1.86,0,3.33.56,4.41,1.69s1.62,2.72,1.62,4.78v12.39Z"/>
    <path class="cls-3" d="M590.74,55.31h-4.41v-11.47c0-1.22-.29-2.15-.88-2.77s-1.38-.94-2.39-.94c-1.15,0-2.12.45-2.9,1.34-.79.89-1.18,2.17-1.18,3.84v10h-4.41v-18.63h4.41v3.2c1.05-2.28,2.96-3.42,5.73-3.42,1.86,0,3.33.56,4.41,1.69s1.62,2.72,1.62,4.78v12.39Z"/>
    <path class="cls-3" d="M605.63,54.87c-.86.42-1.96.62-3.31.62-4.02,0-6.03-2.03-6.03-6.1v-9.41h-2.79v-3.31h2.79v-4.48h4.41v4.48h4.63v3.31h-4.63v9.48c0,.78.21,1.38.62,1.78.42.4.99.61,1.73.61.93,0,1.79-.26,2.57-.77v3.79Z"/>
    <path class="cls-3" d="M500.74,99.41h-15.18v-2.46c7.59-5.73,11.39-10.51,11.39-14.33,0-1.52-.44-2.69-1.32-3.51-.88-.82-2.07-1.23-3.57-1.23-1.94,0-3.85.72-5.73,2.17v-2.9c1.74-1.35,3.74-2.02,5.99-2.02s3.97.62,5.44,1.87c1.47,1.25,2.21,3.03,2.21,5.33,0,4.34-3.47,9.19-10.4,14.55h11.17v2.54Z"/>
    <path class="cls-3" d="M508.5,99.41h-3.09l9.96-21.5h-12.61v-2.54h15.69v2.54l-9.96,21.5Z"/>
    <path class="cls-3" d="M532.35,80.49c0,1.62-.58,3-1.73,4.13-1.15,1.14-2.52,1.71-4.12,1.71s-2.96-.57-4.1-1.71c-1.14-1.14-1.71-2.52-1.71-4.13s.57-2.96,1.71-4.1c1.14-1.14,2.5-1.71,4.1-1.71s2.96.57,4.12,1.71c1.15,1.14,1.73,2.51,1.73,4.1ZM524.19,78.17c-.64.64-.96,1.41-.96,2.32s.32,1.68.96,2.33c.64.65,1.41.97,2.32.97s1.68-.33,2.33-.97.97-1.43.97-2.33-.33-1.68-.97-2.32c-.65-.64-1.43-.96-2.33-.96s-1.68.32-2.32.96ZM529.22,99.45h-2.76l13.12-24.48h2.83l-13.19,24.48ZM546.51,89.75c1.14,1.15,1.71,2.52,1.71,4.12s-.57,2.96-1.71,4.1c-1.14,1.14-2.51,1.71-4.1,1.71s-2.99-.57-4.12-1.71c-1.13-1.14-1.69-2.5-1.69-4.1s.56-3,1.69-4.13c1.13-1.14,2.5-1.71,4.12-1.71s2.96.58,4.1,1.73ZM540.08,91.53c-.65.65-.97,1.43-.97,2.33s.32,1.68.97,2.32c.65.64,1.43.96,2.33.96s1.68-.32,2.33-.96c.65-.64.97-1.41.97-2.32s-.32-1.68-.96-2.33-1.42-.97-2.35-.97-1.69.33-2.33.97Z"/>
  </g>
  <g>
    <path class="cls-3" d="M80.44,686.29h-4.63v-24.77h7.64c2.82,0,5.03.71,6.63,2.13,1.6,1.42,2.41,3.32,2.41,5.7-.02,1.76-.45,3.25-1.29,4.46s-1.97,2.11-3.42,2.7l6.36,9.78h-5.55l-5.62-9.04h-2.54v9.04ZM83.45,665.35h-3.01v8.08h3.09c1.42,0,2.49-.36,3.2-1.08.71-.72,1.07-1.73,1.07-3.03s-.37-2.25-1.12-2.94c-.75-.69-1.82-1.03-3.22-1.03Z"/>
    <path class="cls-3" d="M106.97,684.05c-.86,1.59-2.48,2.39-4.85,2.39-1.76,0-3.17-.51-4.21-1.54-1.04-1.03-1.56-2.33-1.56-3.9,0-1.76.66-3.15,1.99-4.15,1.32-1,3.23-1.51,5.73-1.51h2.72v-1.14c0-1.03-.27-1.81-.81-2.35s-1.46-.81-2.76-.81c-1.98,0-3.81.55-5.48,1.65v-4.08c1.4-.86,3.41-1.29,6.03-1.29,5.05,0,7.57,2.35,7.57,7.06v11.91h-4.37v-2.24ZM103.66,683.17c.98,0,1.75-.29,2.3-.86.55-.58.83-1.33.83-2.26v-1.76h-2.28c-1.15,0-2.03.24-2.65.72-.61.48-.92,1.08-.92,1.82,0,1.57.91,2.35,2.72,2.35Z"/>
    <path class="cls-3" d="M120.31,686.29h-4.41v-25.54h4.41v15.66l6.58-8.75h5.15l-6.84,8.89,6.98,9.74h-5.18l-6.69-9.63v9.63Z"/>
    <path class="cls-3" d="M149.31,685.26c-1.3.81-3.17,1.21-5.62,1.21-2.96,0-5.31-.88-7.02-2.65-1.71-1.76-2.57-4.04-2.57-6.84,0-2.96.81-5.29,2.43-6.98s3.64-2.54,6.06-2.54,4.35.74,5.77,2.21c1.42,1.47,2.13,3.62,2.13,6.43,0,.69-.09,1.57-.26,2.65h-11.69c.32,1.35.99,2.38,2,3.09,1.02.71,2.28,1.07,3.8,1.07,1.96,0,3.61-.49,4.96-1.47v3.82ZM142.69,670.93c-1.05,0-1.97.39-2.74,1.16s-1.27,1.89-1.49,3.36h7.83v-.55c-.05-1.2-.37-2.16-.97-2.88-.6-.72-1.48-1.08-2.63-1.08Z"/>
    <path class="cls-3" d="M164.82,685.85c-.86.42-1.96.62-3.31.62-4.02,0-6.03-2.03-6.03-6.1v-9.41h-2.79v-3.31h2.79v-4.48h4.41v4.48h4.63v3.31h-4.63v9.48c0,.78.21,1.38.62,1.78.42.4.99.61,1.73.61.93,0,1.79-.26,2.57-.77v3.79Z"/>
    <path class="cls-3" d="M182.68,685.26c-1.3.81-3.17,1.21-5.62,1.21-2.96,0-5.31-.88-7.02-2.65-1.71-1.76-2.57-4.04-2.57-6.84,0-2.96.81-5.29,2.43-6.98s3.64-2.54,6.06-2.54,4.35.74,5.77,2.21c1.42,1.47,2.13,3.62,2.13,6.43,0,.69-.09,1.57-.26,2.65h-11.69c.32,1.35.99,2.38,2,3.09,1.02.71,2.28,1.07,3.8,1.07,1.96,0,3.61-.49,4.96-1.47v3.82ZM176.06,670.93c-1.05,0-1.97.39-2.74,1.16s-1.27,1.89-1.49,3.36h7.83v-.55c-.05-1.2-.37-2.16-.97-2.88-.6-.72-1.48-1.08-2.63-1.08Z"/>
    <path class="cls-3" d="M204.07,686.29h-4.41v-11.47c0-1.22-.29-2.15-.88-2.77s-1.38-.94-2.39-.94c-1.15,0-2.12.45-2.9,1.34-.79.89-1.18,2.17-1.18,3.84v10h-4.41v-18.63h4.41v3.2c1.05-2.28,2.96-3.42,5.73-3.42,1.86,0,3.33.56,4.41,1.69s1.62,2.72,1.62,4.78v12.39Z"/>
    <path class="cls-3" d="M218.95,685.85c-.86.42-1.96.62-3.31.62-4.02,0-6.03-2.03-6.03-6.1v-9.41h-2.79v-3.31h2.79v-4.48h4.41v4.48h4.63v3.31h-4.63v9.48c0,.78.21,1.38.62,1.78.42.4.99.61,1.73.61.93,0,1.79-.26,2.57-.77v3.79Z"/>
    <path class="cls-3" d="M236.81,685.26c-1.3.81-3.17,1.21-5.62,1.21-2.96,0-5.31-.88-7.02-2.65-1.71-1.76-2.57-4.04-2.57-6.84,0-2.96.81-5.29,2.43-6.98s3.64-2.54,6.06-2.54,4.35.74,5.77,2.21c1.42,1.47,2.13,3.62,2.13,6.43,0,.69-.09,1.57-.26,2.65h-11.69c.32,1.35.99,2.38,2,3.09,1.02.71,2.28,1.07,3.8,1.07,1.96,0,3.61-.49,4.96-1.47v3.82ZM230.2,670.93c-1.05,0-1.97.39-2.74,1.16s-1.27,1.89-1.49,3.36h7.83v-.55c-.05-1.2-.37-2.16-.97-2.88-.6-.72-1.48-1.08-2.63-1.08Z"/>
    <path class="cls-3" d="M247.07,662.07c0,.76-.26,1.4-.77,1.91s-1.14.77-1.88.77-1.36-.26-1.87-.77-.77-1.15-.77-1.91.26-1.36.77-1.87,1.14-.77,1.87-.77,1.36.26,1.88.77.77,1.14.77,1.87ZM246.63,686.29h-4.41v-18.63h4.41v18.63Z"/>
    <path class="cls-3" d="M256.18,686.29h-4.41v-25.98h4.41v25.98Z"/>
    <path class="cls-3" d="M275.37,685.26c-1.3.81-3.17,1.21-5.62,1.21-2.96,0-5.31-.88-7.02-2.65-1.71-1.76-2.57-4.04-2.57-6.84,0-2.96.81-5.29,2.43-6.98s3.64-2.54,6.06-2.54,4.35.74,5.77,2.21c1.42,1.47,2.13,3.62,2.13,6.43,0,.69-.09,1.57-.26,2.65h-11.69c.32,1.35.99,2.38,2,3.09,1.02.71,2.28,1.07,3.8,1.07,1.96,0,3.61-.49,4.96-1.47v3.82ZM268.75,670.93c-1.05,0-1.97.39-2.74,1.16s-1.27,1.89-1.49,3.36h7.83v-.55c-.05-1.2-.37-2.16-.97-2.88-.6-.72-1.48-1.08-2.63-1.08Z"/>
    <path class="cls-3" d="M153.88,716.69c0,4.36-.88,7.79-2.63,10.27-1.75,2.49-4.37,3.73-7.85,3.73-1.42,0-2.81-.23-4.15-.7v-2.87c1.27.56,2.62.84,4.04.84,4.43,0,6.96-2.78,7.57-8.34-1.23,1.45-3.04,2.17-5.44,2.17-1.96,0-3.65-.72-5.07-2.15-1.42-1.43-2.13-3.33-2.13-5.68s.67-4.17,2.02-5.66c1.35-1.49,3.18-2.24,5.51-2.24,2.69,0,4.72,1,6.08,3.01,1.36,2.01,2.04,4.55,2.04,7.61ZM146.17,719.22c2.01,0,3.63-.78,4.85-2.35v-.18c0-2.33-.41-4.23-1.23-5.72-.82-1.48-2.14-2.22-3.95-2.22-1.4,0-2.51.46-3.34,1.4-.83.93-1.25,2.21-1.25,3.82s.44,2.99,1.32,3.9c.88.91,2.08,1.36,3.6,1.36Z"/>
    <path class="cls-3" d="M157.67,734.92h-2.54l3.42-8.23h3.86l-4.74,8.23Z"/>
    <path class="cls-3" d="M181.52,724.15c0,1.98-.77,3.57-2.31,4.76-1.54,1.19-3.48,1.78-5.81,1.78s-4.09-.58-5.59-1.73c-1.5-1.15-2.24-2.69-2.24-4.63,0-1.45.39-2.68,1.16-3.69.77-1.02,1.83-1.76,3.18-2.22-2.62-1-3.93-2.85-3.93-5.55,0-2.13.74-3.79,2.21-4.98,1.47-1.19,3.21-1.78,5.22-1.78s3.86.58,5.33,1.75c1.47,1.16,2.21,2.85,2.21,5.05,0,1.25-.34,2.35-1.03,3.29-.69.94-1.63,1.66-2.83,2.15,2.96.91,4.45,2.84,4.45,5.81ZM168.51,724.19c0,1.13.43,2.06,1.29,2.81s2.07,1.12,3.64,1.12,2.9-.4,3.79-1.21c.88-.81,1.32-1.81,1.32-3.01s-.43-2.17-1.29-2.98c-.86-.81-2.13-1.2-3.82-1.18-1.64.02-2.87.46-3.69,1.3-.82.85-1.23,1.89-1.23,3.14ZM168.92,712.83c0,1.4.43,2.45,1.3,3.16.87.71,1.98,1.07,3.33,1.07s2.36-.37,3.2-1.12c.83-.75,1.25-1.79,1.25-3.14,0-1.18-.39-2.16-1.18-2.94s-1.92-1.18-3.42-1.18c-1.37,0-2.46.4-3.27,1.21s-1.21,1.79-1.21,2.94Z"/>
    <path class="cls-3" d="M196.85,711.47c0,1.62-.58,3-1.73,4.13-1.15,1.14-2.52,1.71-4.12,1.71s-2.96-.57-4.1-1.71c-1.14-1.14-1.71-2.52-1.71-4.13s.57-2.96,1.71-4.1c1.14-1.14,2.5-1.71,4.1-1.71s2.96.57,4.12,1.71c1.15,1.14,1.73,2.51,1.73,4.1ZM188.69,709.15c-.64.64-.96,1.41-.96,2.32s.32,1.68.96,2.33c.64.65,1.41.97,2.32.97s1.68-.33,2.33-.97.97-1.43.97-2.33-.33-1.68-.97-2.32c-.65-.64-1.43-.96-2.33-.96s-1.68.32-2.32.96ZM193.72,730.43h-2.76l13.12-24.48h2.83l-13.19,24.48ZM211.01,720.73c1.14,1.15,1.71,2.52,1.71,4.12s-.57,2.96-1.71,4.1c-1.14,1.14-2.51,1.71-4.1,1.71s-2.99-.57-4.12-1.71c-1.13-1.14-1.69-2.5-1.69-4.1s.56-3,1.69-4.13c1.13-1.14,2.5-1.71,4.12-1.71s2.96.58,4.1,1.73ZM204.58,722.51c-.65.65-.97,1.43-.97,2.33s.32,1.68.97,2.32c.65.64,1.43.96,2.33.96s1.68-.32,2.33-.96c.65-.64.97-1.41.97-2.32s-.32-1.68-.96-2.33-1.42-.97-2.35-.97-1.69.33-2.33.97Z"/>
  </g>
  <g>
    <path class="cls-3" d="M46.23,339.6h-4.63l1.98-24.77h5.29l3.38,9c.59,1.52,1.14,3.03,1.65,4.54s.88,2.63,1.1,3.36l.33,1.14c.76-2.55,1.81-5.56,3.16-9.04l3.46-9h5.29l2.43,24.77h-4.63l-.88-9.67-.66-8.67c-.88,2.52-1.94,5.42-3.16,8.67l-3.46,9.3h-3.16l-3.38-9.3-2.9-8.56c0,1.2-.16,4.05-.48,8.56l-.73,9.67Z"/>
    <path class="cls-3" d="M79.24,315.38c0,.76-.26,1.4-.77,1.91s-1.14.77-1.88.77-1.36-.26-1.87-.77-.77-1.15-.77-1.91.26-1.36.77-1.87,1.14-.77,1.87-.77,1.36.26,1.88.77.77,1.14.77,1.87ZM78.79,339.6h-4.41v-18.63h4.41v18.63Z"/>
    <path class="cls-3" d="M95.92,334.24c0,1.74-.62,3.1-1.87,4.08-1.25.98-2.92,1.47-5,1.47-2.3,0-4.17-.38-5.59-1.14v-4.04c1.64,1.1,3.42,1.65,5.33,1.65.81,0,1.44-.15,1.89-.46s.68-.73.68-1.27c0-.32-.07-.61-.22-.86-.15-.26-.43-.51-.85-.75-.42-.25-.74-.42-.97-.53-.23-.11-.69-.31-1.38-.61-.07-.02-.13-.05-.17-.07s-.09-.05-.17-.07c-.07-.02-.13-.05-.18-.07-2.72-1.22-4.08-2.99-4.08-5.29,0-1.71.65-3.06,1.95-4.04,1.3-.98,2.93-1.47,4.89-1.47s3.46.27,4.7.81v3.9c-1.23-.74-2.76-1.1-4.59-1.1-.76,0-1.35.17-1.78.5-.43.33-.64.75-.64,1.27,0,.2.03.38.09.55.06.17.17.34.33.5s.31.3.46.42c.15.12.36.25.62.39s.5.25.7.35c.2.1.47.22.81.37.34.15.61.27.81.37,1.3.64,2.33,1.35,3.09,2.13s1.14,1.8,1.14,3.05Z"/>
    <path class="cls-3" d="M111.61,334.24c0,1.74-.62,3.1-1.87,4.08-1.25.98-2.92,1.47-5,1.47-2.3,0-4.17-.38-5.59-1.14v-4.04c1.64,1.1,3.42,1.65,5.33,1.65.81,0,1.44-.15,1.89-.46s.68-.73.68-1.27c0-.32-.07-.61-.22-.86-.15-.26-.43-.51-.85-.75-.42-.25-.74-.42-.97-.53-.23-.11-.69-.31-1.38-.61-.07-.02-.13-.05-.17-.07s-.09-.05-.17-.07c-.07-.02-.13-.05-.18-.07-2.72-1.22-4.08-2.99-4.08-5.29,0-1.71.65-3.06,1.95-4.04,1.3-.98,2.93-1.47,4.89-1.47s3.46.27,4.7.81v3.9c-1.23-.74-2.76-1.1-4.59-1.1-.76,0-1.35.17-1.78.5-.43.33-.64.75-.64,1.27,0,.2.03.38.09.55.06.17.17.34.33.5s.31.3.46.42c.15.12.36.25.62.39s.5.25.7.35c.2.1.47.22.81.37.34.15.61.27.81.37,1.3.64,2.33,1.35,3.09,2.13s1.14,1.8,1.14,3.05Z"/>
    <path class="cls-3" d="M120.18,315.38c0,.76-.26,1.4-.77,1.91s-1.14.77-1.88.77-1.36-.26-1.87-.77-.77-1.15-.77-1.91.26-1.36.77-1.87,1.14-.77,1.87-.77,1.36.26,1.88.77.77,1.14.77,1.87ZM119.74,339.6h-4.41v-18.63h4.41v18.63Z"/>
    <path class="cls-3" d="M141.68,330.23c0,2.82-.79,5.13-2.37,6.95-1.58,1.81-3.79,2.72-6.63,2.72s-5.02-.88-6.6-2.65c-1.58-1.76-2.37-4.02-2.37-6.76s.82-5.19,2.46-7.04c1.64-1.85,3.81-2.77,6.5-2.77,2.87,0,5.08.9,6.65,2.7,1.57,1.8,2.35,4.08,2.35,6.85ZM128.34,330.34c0,1.72.38,3.15,1.14,4.3.76,1.15,1.84,1.73,3.23,1.73s2.54-.56,3.27-1.69,1.1-2.56,1.1-4.3-.36-3.25-1.07-4.39c-.71-1.14-1.83-1.71-3.34-1.71-1.4,0-2.47.58-3.22,1.73-.75,1.15-1.12,2.6-1.12,4.34Z"/>
    <path class="cls-3" d="M161.63,339.6h-4.41v-11.47c0-1.22-.29-2.15-.88-2.77s-1.38-.94-2.39-.94c-1.15,0-2.12.45-2.9,1.34-.79.89-1.18,2.17-1.18,3.84v10h-4.41v-18.63h4.41v3.2c1.05-2.28,2.96-3.42,5.73-3.42,1.86,0,3.33.56,4.41,1.69s1.62,2.72,1.62,4.78v12.39Z"/>
    <path class="cls-3" d="M178.39,334.24c0,1.74-.62,3.1-1.87,4.08-1.25.98-2.92,1.47-5,1.47-2.3,0-4.17-.38-5.59-1.14v-4.04c1.64,1.1,3.42,1.65,5.33,1.65.81,0,1.44-.15,1.89-.46s.68-.73.68-1.27c0-.32-.07-.61-.22-.86-.15-.26-.43-.51-.85-.75-.42-.25-.74-.42-.97-.53-.23-.11-.69-.31-1.38-.61-.07-.02-.13-.05-.17-.07s-.09-.05-.17-.07c-.07-.02-.13-.05-.18-.07-2.72-1.22-4.08-2.99-4.08-5.29,0-1.71.65-3.06,1.95-4.04,1.3-.98,2.93-1.47,4.89-1.47s3.46.27,4.7.81v3.9c-1.23-.74-2.76-1.1-4.59-1.1-.76,0-1.35.17-1.78.5-.43.33-.64.75-.64,1.27,0,.2.03.38.09.55.06.17.17.34.33.5s.31.3.46.42c.15.12.36.25.62.39s.5.25.7.35c.2.1.47.22.81.37.34.15.61.27.81.37,1.3.64,2.33,1.35,3.09,2.13s1.14,1.8,1.14,3.05Z"/>
    <path class="cls-3" d="M198.9,330.23c0,2.82-.79,5.13-2.37,6.95-1.58,1.81-3.79,2.72-6.63,2.72s-5.02-.88-6.6-2.65c-1.58-1.76-2.37-4.02-2.37-6.76s.82-5.19,2.46-7.04c1.64-1.85,3.81-2.77,6.5-2.77,2.87,0,5.08.9,6.65,2.7,1.57,1.8,2.35,4.08,2.35,6.85ZM185.56,330.34c0,1.72.38,3.15,1.14,4.3.76,1.15,1.84,1.73,3.23,1.73s2.54-.56,3.27-1.69,1.1-2.56,1.1-4.3-.36-3.25-1.07-4.39c-.71-1.14-1.83-1.71-3.34-1.71-1.4,0-2.47.58-3.22,1.73-.75,1.15-1.12,2.6-1.12,4.34Z"/>
    <path class="cls-3" d="M207.17,339.6h-4.45v-25.98h4.45v10.18c1.3-2.06,3.16-3.09,5.59-3.09s4.25.86,5.75,2.59c1.51,1.73,2.26,4.06,2.26,7,0,2.65-.72,4.9-2.15,6.76-1.43,1.86-3.38,2.79-5.83,2.79s-4.33-1.04-5.62-3.12v2.87ZM207.17,330.12c0,1.94.44,3.41,1.32,4.43.88,1.02,1.99,1.53,3.31,1.53s2.34-.53,3.2-1.58c.86-1.05,1.29-2.43,1.29-4.12,0-1.86-.44-3.31-1.3-4.36-.87-1.04-1.94-1.56-3.22-1.56-1.2,0-2.27.47-3.2,1.42-.93.94-1.4,2.36-1.4,4.24Z"/>
    <path class="cls-3" d="M229.22,340.85c0,1.84-.5,3.29-1.51,4.37-1,1.08-2.44,1.62-4.3,1.62-.88,0-1.81-.2-2.79-.59v-3.49c.86.37,1.6.55,2.24.55,1.3,0,1.95-.85,1.95-2.54v-19.81h4.41v19.88ZM229.66,315.38c0,.76-.26,1.4-.77,1.91s-1.15.77-1.91.77-1.36-.26-1.87-.77-.77-1.15-.77-1.91.26-1.36.77-1.87,1.14-.77,1.87-.77,1.4.26,1.91.77.77,1.14.77,1.87Z"/>
    <path class="cls-3" d="M248.22,338.57c-1.3.81-3.17,1.21-5.62,1.21-2.96,0-5.31-.88-7.02-2.65-1.71-1.76-2.57-4.04-2.57-6.84,0-2.96.81-5.29,2.43-6.98s3.64-2.54,6.06-2.54,4.35.74,5.77,2.21c1.42,1.47,2.13,3.62,2.13,6.43,0,.69-.09,1.57-.26,2.65h-11.69c.32,1.35.99,2.38,2,3.09,1.02.71,2.28,1.07,3.8,1.07,1.96,0,3.61-.49,4.96-1.47v3.82ZM241.6,324.24c-1.05,0-1.97.39-2.74,1.16s-1.27,1.89-1.49,3.36h7.83v-.55c-.05-1.2-.37-2.16-.97-2.88-.6-.72-1.48-1.08-2.63-1.08Z"/>
    <path class="cls-3" d="M257.85,339.6h-4.41v-25.54h4.41v15.66l6.58-8.75h5.15l-6.84,8.89,6.98,9.74h-5.18l-6.69-9.63v9.63Z"/>
    <path class="cls-3" d="M282.91,339.16c-.86.42-1.96.62-3.31.62-4.02,0-6.03-2.03-6.03-6.1v-9.41h-2.79v-3.31h2.79v-4.48h4.41v4.48h4.63v3.31h-4.63v9.48c0,.78.21,1.38.62,1.78.42.4.99.61,1.73.61.93,0,1.79-.26,2.57-.77v3.79Z"/>
    <path class="cls-3" d="M300.77,338.57c-1.3.81-3.17,1.21-5.62,1.21-2.96,0-5.31-.88-7.02-2.65-1.71-1.76-2.57-4.04-2.57-6.84,0-2.96.81-5.29,2.43-6.98s3.64-2.54,6.06-2.54,4.35.74,5.77,2.21c1.42,1.47,2.13,3.62,2.13,6.43,0,.69-.09,1.57-.26,2.65h-11.69c.32,1.35.99,2.38,2,3.09,1.02.71,2.28,1.07,3.8,1.07,1.96,0,3.61-.49,4.96-1.47v3.82ZM294.16,324.24c-1.05,0-1.97.39-2.74,1.16s-1.27,1.89-1.49,3.36h7.83v-.55c-.05-1.2-.37-2.16-.97-2.88-.6-.72-1.48-1.08-2.63-1.08Z"/>
    <path class="cls-3" d="M153.18,383.71h-2.87v-20.88l-5.55,3.42v-3.12l5.7-3.46h2.72v24.04Z"/>
    <path class="cls-3" d="M165.05,383.71h-2.87v-20.88l-5.55,3.42v-3.12l5.7-3.46h2.72v24.04Z"/>
    <path class="cls-3" d="M181.29,364.78c0,1.62-.58,3-1.73,4.13-1.15,1.14-2.52,1.71-4.12,1.71s-2.96-.57-4.1-1.71c-1.14-1.14-1.71-2.52-1.71-4.13s.57-2.96,1.71-4.1c1.14-1.14,2.5-1.71,4.1-1.71s2.96.57,4.12,1.71c1.15,1.14,1.73,2.51,1.73,4.1ZM173.14,362.46c-.64.64-.96,1.41-.96,2.32s.32,1.68.96,2.33c.64.65,1.41.97,2.32.97s1.68-.33,2.33-.97.97-1.43.97-2.33-.33-1.68-.97-2.32c-.65-.64-1.43-.96-2.33-.96s-1.68.32-2.32.96ZM178.17,383.74h-2.76l13.12-24.48h2.83l-13.19,24.48ZM195.46,374.04c1.14,1.15,1.71,2.52,1.71,4.12s-.57,2.96-1.71,4.1c-1.14,1.14-2.51,1.71-4.1,1.71s-2.99-.57-4.12-1.71c-1.13-1.14-1.69-2.5-1.69-4.1s.56-3,1.69-4.13c1.13-1.14,2.5-1.71,4.12-1.71s2.96.58,4.1,1.73ZM189.03,375.82c-.65.65-.97,1.43-.97,2.33s.32,1.68.97,2.32c.65.64,1.43.96,2.33.96s1.68-.32,2.33-.96c.65-.64.97-1.41.97-2.32s-.32-1.68-.96-2.33-1.42-.97-2.35-.97-1.69.33-2.33.97Z"/>
  </g>
</svg>