<?xml version="1.0" encoding="UTF-8"?>
<svg id="Ebene_1" xmlns="http://www.w3.org/2000/svg" xmlns:xlink="http://www.w3.org/1999/xlink" version="1.1" viewBox="0 0 1030 992">
  <!-- Generator: Adobe Illustrator 29.1.0, SVG Export Plug-In . SVG Version: 2.1.0 Build 142)  -->
  <defs>
    <style>
      .st0 {
        fill: none;
      }

      .st1 {
        fill: #0cc0df;
      }

      .st2 {
        fill: #0097b2;
      }

      .st3 {
        fill: #004aad;
      }

      .st4 {
        fill: #a6a6a6;
      }

      .st5 {
        fill: #fff;
      }

      .st6 {
        fill: #5271ff;
      }

      .st7 {
        fill: #5ce1e6;
      }

      .st8 {
        fill: #38b6ff;
      }

      .st9 {
        clip-path: url(#clippath);
      }
    </style>
    <clipPath id="clippath">
      <rect class="st0" x="128" y="81.3" width="872" height="910.3"/>
    </clipPath>
  </defs>
  <path class="st1" d="M222.1,215c7.7-7.8,15.8-15.2,24.1-22.4l148.9,171.8c-4.1,3.6-8.2,7.3-12,11.2l-161-160.6Z"/>
  <path class="st2" d="M246.1,192.6c6-5.2,12.1-10.2,18.4-15.1l139.7,179.4c-3.1,2.4-6.2,5-9.2,7.6l-148.9-171.8Z"/>
  <g>
    <g class="st9">
      <path class="st3" d="M544,81.5c6.8,0,13.6.2,20.3.5,6.8.3,13.5.8,20.3,1.4,6.8.6,13.5,1.4,20.2,2.3s13.4,2,20.1,3.2,13.3,2.6,19.9,4.1c6.6,1.5,13.2,3.2,19.7,5,6.5,1.8,13,3.7,19.5,5.8,6.5,2.1,12.9,4.3,19.2,6.7,6.4,2.4,12.6,4.9,18.9,7.5s12.4,5.4,18.5,8.4c6.1,2.9,12.2,6,18.1,9.2,6,3.2,11.9,6.5,17.7,10,5.8,3.5,11.6,7.1,17.2,10.8s11.3,7.6,16.7,11.5c5.5,4,10.9,8.1,16.2,12.3,5.3,4.2,10.5,8.5,15.6,13,5.1,4.4,10.1,9,15,13.7s9.7,9.5,14.4,14.3c4.7,4.9,9.3,9.9,13.8,15,4.5,5.1,8.8,10.3,13.1,15.6s8.4,10.7,12.4,16.1c4,5.5,7.9,11,11.6,16.7s7.4,11.4,10.9,17.2,6.9,11.7,10.1,17.6c3.2,6,6.3,12,9.3,18.1,3,6.1,5.8,12.3,8.5,18.5,2.7,6.2,5.2,12.5,7.7,18.8,2.4,6.3,4.7,12.7,6.8,19.2,2.1,6.4,4.1,12.9,5.9,19.4,1.8,6.5,3.5,13.1,5.1,19.7,1.5,6.6,2.9,13.2,4.2,19.9,1.2,6.7,2.3,13.4,3.3,20.1s1.7,13.4,2.4,20.2c.6,6.8,1.1,13.5,1.5,20.3.3,6.8.5,13.5.6,20.3,0,6.8,0,13.6-.3,20.3s-.7,13.5-1.2,20.3c-.6,6.8-1.3,13.5-2.2,20.2s-1.9,13.4-3.1,20.1c-1.2,6.7-2.5,13.3-4,19.9-1.5,6.6-3.1,13.2-4.8,19.8s-3.7,13.1-5.7,19.5-4.2,12.9-6.6,19.2-4.8,12.7-7.4,18.9c-2.6,6.3-5.4,12.4-8.3,18.6-2.9,6.1-5.9,12.2-9.1,18.2-3.2,6-6.5,11.9-9.9,17.8-3.4,5.8-7,11.6-10.7,17.3s-7.5,11.3-11.4,16.8c-3.9,5.5-8,10.9-12.2,16.3-4.2,5.3-8.5,10.6-12.9,15.7-4.4,5.1-8.9,10.2-13.6,15.1-4.6,4.9-9.4,9.8-14.3,14.5-4.9,4.7-9.8,9.3-14.9,13.8-5.1,4.5-10.2,8.9-15.5,13.2-5.3,4.3-10.6,8.4-16.1,12.5-5.4,4-11,7.9-16.6,11.7s-11.3,7.4-17.1,11c-5.8,3.5-11.7,6.9-17.6,10.2-5.9,3.3-11.9,6.4-18,9.4-6.1,3-12.2,5.9-18.4,8.6-6.2,2.7-12.5,5.3-18.8,7.8-6.3,2.4-12.7,4.8-19.1,6.9s-12.9,4.2-19.4,6-13.1,3.6-19.7,5.2-13.2,3-19.9,4.3-13.3,2.4-20.1,3.4c-6.7,1-13.4,1.8-20.2,2.5-6.7.7-13.5,1.2-20.3,1.6s-13.5.6-20.3.7c-6.8,0-13.6,0-20.3-.2-6.8-.2-13.5-.6-20.3-1.1-6.8-.5-13.5-1.2-20.2-2-6.7-.8-13.4-1.8-20.1-2.9-6.7-1.1-13.3-2.4-20-3.8-6.6-1.4-13.2-3-19.8-4.7s-13.1-3.6-19.5-5.6-12.9-4.2-19.3-6.5c-6.4-2.3-12.7-4.7-19-7.3-6.3-2.6-12.5-5.3-18.6-8.2-6.1-2.9-12.2-5.9-18.2-9-6-3.1-12-6.4-17.8-9.8-5.9-3.4-11.7-6.9-17.4-10.6-5.7-3.7-11.3-7.4-16.9-11.4-5.5-3.9-11-7.9-16.3-12.1-5.4-4.2-10.6-8.4-15.8-12.8s-10.2-8.9-15.2-13.5c-5-4.6-9.8-9.3-14.6-14.2s-9.4-9.8-13.9-14.8c-4.5-5-9-10.2-13.3-15.4-4.3-5.2-8.5-10.6-12.6-16s-8-10.9-11.8-16.5c-3.8-5.6-7.5-11.3-11.1-17.1s-7-11.6-10.3-17.5c-3.3-5.9-6.5-11.9-9.5-18-3-6.1-5.9-12.2-8.7-18.4l207.7-92.6c1.4,3.1,2.8,6.2,4.3,9.2s3.1,6,4.8,9c1.7,3,3.4,5.9,5.2,8.8s3.6,5.7,5.5,8.5c1.9,2.8,3.9,5.6,5.9,8.3,2,2.7,4.1,5.4,6.3,8,2.2,2.6,4.4,5.2,6.6,7.7s4.6,5,7,7.4c2.4,2.4,4.8,4.8,7.3,7.1,2.5,2.3,5,4.6,7.6,6.8,2.6,2.2,5.2,4.3,7.9,6.4,2.7,2.1,5.4,4.1,8.2,6,2.8,2,5.6,3.8,8.4,5.7,2.9,1.8,5.8,3.6,8.7,5.3s5.9,3.3,8.9,4.9c3,1.6,6,3.1,9.1,4.5,3.1,1.4,6.2,2.8,9.3,4.1s6.3,2.5,9.5,3.7,6.4,2.2,9.6,3.2c3.2,1,6.5,1.9,9.8,2.8,3.3.9,6.6,1.7,9.9,2.4s6.6,1.4,10,1.9c3.3.6,6.7,1.1,10.1,1.5s6.7.8,10.1,1,6.8.5,10.2.6c3.4.1,6.8.2,10.2.1,3.4,0,6.8-.2,10.2-.3,3.4-.2,6.8-.5,10.1-.8,3.4-.3,6.7-.8,10.1-1.3,3.4-.5,6.7-1.1,10-1.7,3.3-.6,6.6-1.4,9.9-2.1,3.3-.8,6.6-1.7,9.8-2.6,3.3-.9,6.5-1.9,9.7-3s6.4-2.2,9.6-3.5c3.2-1.2,6.3-2.5,9.4-3.9s6.2-2.8,9.2-4.3,6-3.1,9-4.7,5.9-3.3,8.8-5.1c2.9-1.8,5.7-3.6,8.6-5.5,2.8-1.9,5.6-3.8,8.3-5.9,2.7-2,5.4-4.1,8-6.2s5.2-4.3,7.8-6.6c2.5-2.3,5-4.6,7.4-6.9,2.4-2.4,4.8-4.8,7.1-7.3s4.6-5,6.8-7.6c2.2-2.6,4.4-5.2,6.5-7.9,2.1-2.7,4.1-5.4,6.1-8.1,2-2.8,3.9-5.6,5.7-8.4,1.8-2.8,3.6-5.7,5.3-8.7,1.7-2.9,3.4-5.9,5-8.9,1.6-3,3.1-6,4.6-9.1,1.4-3.1,2.8-6.2,4.1-9.3,1.3-3.1,2.6-6.3,3.7-9.5,1.2-3.2,2.3-6.4,3.3-9.6,1-3.2,2-6.5,2.9-9.8.9-3.3,1.7-6.6,2.4-9.9.7-3.3,1.4-6.6,2-10,.6-3.3,1.1-6.7,1.5-10.1.4-3.4.8-6.7,1.1-10.1.3-3.4.5-6.8.6-10.2.1-3.4.2-6.8.2-10.2,0-3.4-.1-6.8-.3-10.2-.2-3.4-.4-6.8-.7-10.1-.3-3.4-.7-6.7-1.2-10.1-.5-3.4-1-6.7-1.6-10-.6-3.3-1.3-6.6-2.1-9.9-.8-3.3-1.6-6.6-2.5-9.8-.9-3.3-1.9-6.5-3-9.7-1.1-3.2-2.2-6.4-3.4-9.6-1.2-3.2-2.5-6.3-3.8-9.4-1.3-3.1-2.8-6.2-4.2-9.2-1.5-3-3-6.1-4.7-9s-3.3-5.9-5.1-8.8c-1.8-2.9-3.6-5.8-5.4-8.6-1.9-2.8-3.8-5.6-5.8-8.3-2-2.7-4.1-5.4-6.2-8.1-2.1-2.6-4.3-5.2-6.5-7.8-2.2-2.5-4.5-5-6.9-7.5-2.3-2.4-4.8-4.8-7.2-7.2-2.5-2.3-5-4.6-7.5-6.8-2.6-2.2-5.2-4.4-7.8-6.5-2.7-2.1-5.4-4.2-8.1-6.1-2.8-2-5.5-3.9-8.4-5.8-2.8-1.9-5.7-3.7-8.6-5.4-2.9-1.7-5.9-3.4-8.8-5-3-1.6-6-3.1-9.1-4.6-3.1-1.5-6.1-2.9-9.3-4.2s-6.3-2.6-9.4-3.8-6.4-2.3-9.6-3.3c-3.2-1-6.5-2-9.7-2.9s-6.6-1.7-9.9-2.5c-3.3-.8-6.6-1.4-10-2-3.3-.6-6.7-1.1-10-1.6s-6.7-.8-10.1-1.1c-3.4-.3-6.8-.5-10.1-.7-3.4-.2-6.8-.2-10.2-.2V81.5Z"/>
    </g>
    <path class="st6" d="M128.6,721.5c-8.3-18.7-15.4-37.9-21.2-57.6s-10.2-39.7-13.2-60c-3.1-20.3-4.7-40.7-5-61.2s.8-40.9,3.3-61.3l225.7,27.4c-1.2,10.2-1.8,20.4-1.6,30.7s1,20.5,2.5,30.6c1.5,10.1,3.7,20.1,6.6,30,2.9,9.8,6.4,19.4,10.6,28.8l-207.7,92.6Z"/>
    <path class="st8" d="M92.5,481.4c2.3-19.3,5.9-38.4,10.7-57.3,4.8-18.9,10.8-37.3,18-55.4,7.2-18.1,15.5-35.7,24.9-52.7,9.4-17,19.9-33.4,31.4-49.1l183.2,134.7c-5.8,7.8-11,16-15.7,24.5s-8.9,17.3-12.5,26.3c-3.6,9-6.6,18.3-9,27.7s-4.2,19-5.4,28.6l-225.7-27.4Z"/>
    <path class="st7" d="M177.6,266.9c13.5-18.4,28.4-35.7,44.5-51.9l161,160.6c-8.1,8.1-15.5,16.7-22.3,25.9l-183.2-134.7Z"/>
    <path class="st4" d="M264.5,177.5c9.9-7.7,20.1-15,30.6-21.9s21.3-13.3,32.3-19.3,22.3-11.5,33.8-16.5c11.5-5,23.2-9.6,35-13.7,11.9-4.1,23.9-7.7,36-10.7,12.2-3.1,24.4-5.7,36.8-7.7s24.8-3.6,37.3-4.7c12.5-1,25-1.6,37.6-1.6v227.4c-6.3,0-12.5.3-18.8.8-6.3.5-12.5,1.3-18.7,2.3-6.2,1-12.3,2.3-18.4,3.9-6.1,1.5-12.1,3.3-18,5.4-5.9,2-11.8,4.3-17.5,6.8-5.7,2.5-11.4,5.3-16.9,8.3-5.5,3-10.9,6.2-16.2,9.6s-10.3,7.1-15.3,10.9l-139.7-179.4Z"/>
  </g>
  <g>
    <path class="st5" d="M960.8,816.4c0,3.2-.8,5.7-2.5,7.4-1.7,1.7-4,2.5-7,2.5s-5.2-.8-6.9-2.5c-1.7-1.6-2.5-4-2.5-7.1v-15.7h3.8v15.7c0,2.1.5,3.7,1.5,4.6,1,1,2.4,1.5,4.1,1.5,3.8,0,5.7-2.1,5.7-6.3v-15.5h3.8v15.4Z"/>
    <path class="st5" d="M980.9,819.1c0,2.2-.8,3.9-2.3,5.2s-3.6,1.9-6,1.9-5-.5-6.8-1.6v-4c1.9,1.5,4.2,2.2,6.8,2.2s2.4-.3,3.2-.9c.8-.6,1.2-1.5,1.2-2.6s-.2-1.3-.7-1.8c-.5-.6-1-1-1.5-1.3-.5-.3-1.4-.7-2.4-1.2-.6-.3-1.1-.5-1.4-.6-.3-.1-.7-.3-1.3-.7-.6-.3-1-.6-1.3-.8-.3-.2-.6-.5-1.1-.9-.4-.4-.7-.8-.9-1.2-.2-.4-.4-.9-.5-1.4-.2-.5-.2-1.1-.2-1.7,0-2.1.8-3.8,2.3-5,1.5-1.2,3.5-1.8,6-1.8s4.2.4,5.7,1.2v3.8c-1.7-1-3.5-1.6-5.6-1.6s-2.4.3-3.2.9c-.8.6-1.2,1.4-1.2,2.4s.4,1.8,1.1,2.4c.8.6,1.9,1.2,3.5,1.9,1,.4,1.8.8,2.4,1.1.6.3,1.2.8,2,1.4.8.6,1.3,1.3,1.7,2.1.4.8.5,1.7.5,2.8Z"/>
    <path class="st5" d="M987.9,825.9h-4l8.6-24.9h5l8.5,24.9h-4.1l-2-6.1h-10.1l-2,6.1ZM991.3,815.4l-.4,1.3h8l-.4-1.3c-.9-2.9-1.7-5.3-2.3-7.2-.6-1.9-1-3.1-1.1-3.6l-.2-.7c-.3,1.2-1.5,5-3.6,11.5Z"/>
    <path class="st5" d="M955.3,862.8c0,2.4-.8,4.3-2.3,5.7-1.6,1.4-3.7,2.1-6.4,2.1s-4.5-.4-6.2-1.3v-2.9c1.6.9,3.5,1.4,5.7,1.4,4.1,0,6.2-1.7,6.2-5.2s-.5-2.5-1.4-3.3c-1-.8-2.2-1.2-3.7-1.2s-3.7.4-5.6,1.3v-13.4h12.1v2.6h-9.2v7.3c1.1-.2,2.1-.4,2.9-.4,2.5,0,4.4.7,5.9,2,1.4,1.3,2.2,3.1,2.2,5.3Z"/>
    <path class="st5" d="M966.1,870.3h-2.9v-21l-5.6,3.4v-3.1l5.7-3.5h2.7v24.2Z"/>
    <path class="st5" d="M987,862.4c0,2.5-.7,4.5-2.1,6s-3.2,2.3-5.5,2.3-4.9-1-6.4-3.1c-1.5-2.1-2.2-4.8-2.2-8.2s1-7.4,3-10c2-2.6,4.7-4,8.1-4s2.2.2,3.4.6v2.8c-1.1-.5-2.2-.7-3.4-.7-2.3,0-4.2.9-5.5,2.6-1.4,1.7-2.2,3.9-2.6,6.6,1.6-1.7,3.6-2.6,6-2.6s4,.7,5.2,2.1,1.9,3.3,1.9,5.6ZM979.4,868c1.4,0,2.5-.5,3.3-1.6.8-1,1.2-2.4,1.2-4.1s-.4-2.8-1.2-3.7c-.8-.9-1.9-1.4-3.2-1.4-2.2,0-4.1.9-5.8,2.7,0,2.6.7,4.6,1.7,5.9,1,1.3,2.4,2,4,2Z"/>
    <path class="st5" d="M1003.9,870.3h-2.9v-5.9h-11.1v-2.6l9.2-15.8h4.7v15.8h3.6v2.6h-3.6v5.9ZM992.9,861.9h8.1v-14l-8.1,14Z"/>
  </g>
  <g>
    <path class="st5" d="M474.1,505.2c-3.9,2.8-8.7,4.2-14.5,4.2s-12.7-2.1-17-6.2c-4.3-4.1-6.4-9.7-6.4-16.9s2.2-12.5,6.5-16.8c4.3-4.3,9.8-6.4,16.5-6.4s9.5,1,13.1,3v7.1c-3.8-2.4-8.1-3.6-12.8-3.6s-8.7,1.5-11.6,4.6c-3,3.1-4.4,7.1-4.4,12.1s1.5,9.2,4.4,12.2c2.9,3,6.9,4.5,12,4.5s5.2-.5,7.6-1.5v-12.4h-9.1v-5.9h15.9v21.5h0v.5Z"/>
    <path class="st5" d="M508.3,507.1c-2.5,1.4-5.8,2.1-9.9,2.1s-9.4-1.6-12.5-4.7c-3.1-3.2-4.7-7.3-4.7-12.4s1.4-9.7,4.3-12.8c2.8-3.1,6.5-4.6,10.9-4.6s7.7,1.3,10.3,4c2.5,2.7,3.8,6.6,3.8,11.6s-.1,2.8-.4,4.3h-22.2c.4,2.9,1.7,5.2,3.7,6.7,2,1.6,4.6,2.3,7.7,2.3s6.6-.8,9-2.5v5.9ZM496.5,480.1c-2.2,0-4.1.8-5.7,2.4-1.6,1.6-2.6,4-3,7h16.3v-1.2c0-2.5-.8-4.5-2.1-6-1.3-1.5-3.1-2.2-5.5-2.2Z"/>
    <path class="st5" d="M539.2,499.5c0,3-1.1,5.4-3.2,7.1-2.1,1.7-5,2.6-8.7,2.6s-7.3-.7-10-2v-6.2c3.1,1.9,6.3,2.9,9.7,2.9s3.1-.4,4-1.1c1-.7,1.4-1.6,1.4-2.8s-.4-1.9-1.1-2.6c-.8-.8-1.5-1.4-2.3-1.7-.8-.4-2.1-1-4-1.8-5.3-2.2-7.9-5.4-7.9-9.6s1.1-5.3,3.3-7c2.2-1.7,5-2.5,8.3-2.5s6.5.5,8.5,1.5v5.9c-2.2-1.3-5-1.9-8.4-1.9s-2.8.4-3.7,1.1c-.9.7-1.4,1.6-1.4,2.8s0,.6.1.9c0,.3.2.6.4.9.2.3.3.5.5.7.2.2.4.4.8.6.4.2.6.4.8.6.2.2.5.3,1,.6.5.2.8.4,1,.5.2.1.6.3,1.2.5.6.2.9.4,1.2.5,2.6,1.2,4.7,2.5,6.2,3.9,1.5,1.4,2.2,3.4,2.2,5.8Z"/>
    <path class="st5" d="M564,504.9c-1.7,2.8-4.8,4.3-9.1,4.3s-5.8-.9-7.7-2.8c-1.9-1.8-2.9-4.2-2.9-7s1.2-5.8,3.7-7.6c2.4-1.8,5.9-2.7,10.3-2.7h5.6v-1.9c0-2.3-.6-4.1-1.7-5.2-1.1-1.2-3-1.8-5.5-1.8s-6.9,1-9.8,3v-6.3c2.6-1.5,6.1-2.3,10.4-2.3,8.8,0,13.3,4.3,13.3,12.9v21.4h-6.5v-4ZM556.9,504c2.1,0,3.8-.6,5-1.8,1.2-1.2,1.8-2.7,1.8-4.6v-3.8h-5.1c-2.5,0-4.4.5-5.6,1.5-1.3,1-1.9,2.2-1.9,3.7s.5,2.8,1.5,3.7c1,.9,2.4,1.3,4.3,1.3Z"/>
    <path class="st5" d="M625.6,508.9h-6.5v-21.3c0-4.8-2-7.3-5.9-7.3s-3.7.9-5.2,2.6c-1.5,1.7-2.3,4.3-2.3,7.7v18.3h-6.5v-21.3c0-4.8-2-7.3-5.9-7.3s-3.6.9-5.2,2.6c-1.6,1.7-2.3,4.3-2.3,7.7v18.3h-6.5v-33.8h6.5v5.4c1.9-3.9,5.1-5.9,9.5-5.9s8.3,2.2,9.7,6.5c.9-2.1,2.3-3.7,4.1-4.8,1.8-1.1,3.8-1.7,6-1.7,3.5,0,6.1,1,7.9,3.1,1.8,2,2.7,4.9,2.7,8.5v22.7Z"/>
    <path class="st5" d="M652.2,508c-1.5.8-3.3,1.2-5.4,1.2-7,0-10.5-3.5-10.5-10.6v-18.5h-5.3v-5.1h5.3v-8.3h6.6v8.3h8.9v5.1h-8.9v18.6c0,3.2,1.6,4.9,4.7,4.9s3.4-.5,4.6-1.5v5.9Z"/>
    <path class="st5" d="M511.7,575.2c0,4.3-1.4,7.7-4.2,10.3-2.8,2.6-6.7,3.8-11.6,3.8s-8.1-.8-11.2-2.3v-5.2c2.8,1.7,6.3,2.5,10.3,2.5,7.5,0,11.2-3.1,11.2-9.4s-.9-4.5-2.6-5.9c-1.7-1.4-4-2.1-6.7-2.1s-6.6.8-10.1,2.3v-24.1h21.8v4.6h-16.7v13.1c2-.4,3.7-.7,5.2-.7,4.4,0,8,1.2,10.6,3.5,2.6,2.4,3.9,5.5,3.9,9.5Z"/>
    <path class="st5" d="M531.1,588.8h-5.2v-37.8l-10.1,6.2v-5.7l10.3-6.3h4.9v43.6Z"/>
    <path class="st5" d="M568.8,574.6c0,4.4-1.3,8-3.8,10.8-2.5,2.8-5.8,4.1-10,4.1s-8.8-1.9-11.5-5.7c-2.7-3.8-4-8.7-4-14.8s1.8-13.2,5.3-18c3.6-4.8,8.4-7.1,14.7-7.1s4,.3,6.1,1v5.1c-1.9-.8-3.9-1.3-6.1-1.3-4.2,0-7.5,1.6-10,4.7s-4,7.1-4.6,11.8c2.9-3.1,6.5-4.6,10.9-4.6s7.1,1.3,9.4,3.8c2.3,2.5,3.4,5.9,3.4,10.1ZM555.1,584.7c2.5,0,4.5-.9,6-2.8,1.5-1.9,2.2-4.3,2.2-7.3s-.7-5-2.2-6.6c-1.5-1.6-3.4-2.5-5.8-2.5-4,0-7.5,1.6-10.4,4.9.2,4.7,1.2,8.3,3.1,10.7,1.9,2.4,4.2,3.6,7.1,3.6Z"/>
    <path class="st5" d="M599.1,588.8h-5.2v-10.6h-19.9v-4.6l16.6-28.4h8.5v28.4h6.5v4.6h-6.5v10.6ZM579.3,573.6h14.6v-25.2l-14.6,25.2Z"/>
  </g>
  <g>
    <path class="st5" d="M41.8,591.9c0,3.2-.8,5.7-2.5,7.4-1.7,1.7-4,2.5-7,2.5s-5.2-.8-6.9-2.5c-1.7-1.6-2.5-4-2.5-7.1v-15.7h3.8v15.7c0,2.1.5,3.7,1.5,4.6,1,1,2.4,1.5,4.1,1.5,3.8,0,5.7-2.1,5.7-6.3v-15.5h3.8v15.4Z"/>
    <path class="st5" d="M51,601.5h-3.8v-24.9h3.8v24.9ZM65.7,601.5h-4.8l-9.4-12.3,9.1-12.6h4.6l-9.1,12.6,9.7,12.4Z"/>
    <path class="st5" d="M32.4,638c0,2.5-.7,4.5-2.1,6s-3.2,2.3-5.5,2.3-4.9-1-6.4-3.1c-1.5-2.1-2.2-4.8-2.2-8.2s1-7.4,3-10c2-2.6,4.7-4,8.1-4s2.2.2,3.4.6v2.8c-1.1-.5-2.2-.7-3.4-.7-2.3,0-4.2.9-5.5,2.6-1.4,1.7-2.2,3.9-2.6,6.6,1.6-1.7,3.6-2.6,6-2.6s4,.7,5.2,2.1,1.9,3.3,1.9,5.6ZM24.8,643.6c1.4,0,2.5-.5,3.3-1.6.8-1,1.2-2.4,1.2-4.1s-.4-2.8-1.2-3.7c-.8-.9-1.9-1.4-3.2-1.4-2.2,0-4.1.9-5.8,2.7,0,2.6.7,4.6,1.7,5.9,1,1.3,2.4,2,4,2Z"/>
    <path class="st5" d="M50.9,638.3c0,2.4-.8,4.3-2.3,5.7-1.6,1.4-3.7,2.1-6.4,2.1s-4.5-.4-6.2-1.3v-2.9c1.6.9,3.5,1.4,5.7,1.4,4.1,0,6.2-1.7,6.2-5.2s-.5-2.5-1.4-3.3c-1-.8-2.2-1.2-3.7-1.2s-3.7.4-5.6,1.3v-13.4h12.1v2.6h-9.2v7.3c1.1-.2,2.1-.4,2.9-.4,2.5,0,4.4.7,5.9,2,1.4,1.3,2.2,3.1,2.2,5.3Z"/>
    <path class="st5" d="M71.1,633.7c0,3.8-.7,6.8-2.2,9.1-1.5,2.3-3.6,3.4-6.3,3.4s-4.6-1.1-6.1-3.4c-1.5-2.3-2.3-5.3-2.3-9.1s.8-6.8,2.3-9c1.5-2.2,3.6-3.3,6.1-3.3s4.7,1.1,6.2,3.3c1.5,2.2,2.3,5.2,2.3,9ZM58.8,626.6c-1.1,1.7-1.6,4-1.6,7s.5,5.4,1.6,7.1c1,1.7,2.3,2.6,3.8,2.6s3.1-.8,4.1-2.5c1-1.7,1.5-4.1,1.5-7.2s-.5-5.4-1.6-7.1c-1-1.6-2.4-2.5-4-2.5s-2.8.8-3.8,2.5Z"/>
  </g>
  <g>
    <path class="st5" d="M33,363.2c-1.5,1-3.7,1.5-6.4,1.5s-6.8-1.2-9.1-3.5-3.6-5.4-3.6-9.3,1.2-6.8,3.6-9.2c2.4-2.4,5.4-3.6,9-3.6s4.8.5,6.4,1.4v3.7c-1.1-.6-2.1-1-2.9-1.2-.9-.2-2-.4-3.3-.4-2.5,0-4.6.8-6.2,2.5-1.7,1.7-2.5,3.9-2.5,6.7s.8,5.1,2.5,6.8c1.7,1.7,3.8,2.5,6.5,2.5s4.4-.6,6-1.9v3.8Z"/>
    <path class="st5" d="M52.6,364.5h-3.6v-11.8c0-1.3-.3-2.3-1-3s-1.5-1.1-2.6-1.1-2.3.5-3.3,1.4c-1,.9-1.4,2.4-1.4,4.3v10.2h-3.6v-26.2h3.6v10.6c1.1-2.3,3-3.5,5.8-3.5s3.3.6,4.4,1.7c1.1,1.1,1.7,2.7,1.7,4.7v12.6Z"/>
    <path class="st5" d="M61.8,340c0,.6-.2,1.1-.7,1.6-.4.4-1,.7-1.6.7s-1.2-.2-1.6-.6c-.4-.4-.6-1-.6-1.6s.2-1.2.6-1.6,1-.7,1.6-.7,1.2.2,1.6.7c.4.4.7,1,.7,1.6ZM61.3,364.5h-3.7v-18.8h3.7v18.8Z"/>
    <path class="st5" d="M82.1,364.5h-3.6v-11.8c0-1.3-.3-2.3-1-3s-1.5-1-2.6-1-2.4.5-3.3,1.5c-.9,1-1.4,2.4-1.4,4.2v10.2h-3.6v-18.8h3.6v3.2c1.1-2.3,3.1-3.5,5.8-3.5s3.3.6,4.4,1.7c1.1,1.1,1.6,2.7,1.6,4.6v12.7Z"/>
    <path class="st5" d="M97,362.2c-1,1.6-2.7,2.4-5.1,2.4s-3.2-.5-4.3-1.5c-1.1-1-1.6-2.3-1.6-3.9s.7-3.2,2-4.2,3.3-1.5,5.7-1.5h3.1v-1.1c0-1.3-.3-2.3-.9-2.9-.6-.7-1.6-1-3.1-1s-3.8.6-5.4,1.7v-3.5c1.5-.8,3.4-1.3,5.8-1.3,4.9,0,7.4,2.4,7.4,7.1v11.9h-3.6v-2.2ZM93.1,361.8c1.2,0,2.1-.3,2.8-1,.7-.7,1-1.5,1-2.6v-2.1h-2.8c-1.4,0-2.4.3-3.1.8-.7.5-1.1,1.2-1.1,2.1s.3,1.5.8,2c.5.5,1.3.7,2.4.7Z"/>
    <path class="st5" d="M51.6,401c0,2.5-.7,4.5-2.1,6s-3.2,2.3-5.5,2.3-4.9-1-6.4-3.1c-1.5-2.1-2.2-4.8-2.2-8.2s1-7.4,3-10c2-2.6,4.7-4,8.1-4s2.2.2,3.4.6v2.8c-1.1-.5-2.2-.7-3.4-.7-2.3,0-4.2.9-5.5,2.6-1.4,1.7-2.2,3.9-2.6,6.6,1.6-1.7,3.6-2.6,6-2.6s4,.7,5.2,2.1,1.9,3.3,1.9,5.6ZM44,406.6c1.4,0,2.5-.5,3.3-1.6.8-1,1.2-2.4,1.2-4.1s-.4-2.8-1.2-3.7c-.8-.9-1.9-1.4-3.2-1.4-2.2,0-4.1.9-5.8,2.7,0,2.6.7,4.6,1.7,5.9,1,1.3,2.4,2,4,2Z"/>
    <path class="st5" d="M62.1,408.9h-2.9v-21l-5.6,3.4v-3.1l5.7-3.5h2.7v24.2Z"/>
    <path class="st5" d="M71.1,408.9h-3.1l10-21.6h-12.7v-2.6h15.8v2.6l-10,21.6Z"/>
  </g>
  <g>
    <path class="st5" d="M27.1,219.2h-3.8v-24.9h7c2.9,0,5.1.7,6.6,2.1,1.6,1.4,2.3,3.3,2.3,5.7,0,1.8-.5,3.2-1.3,4.5-.9,1.2-2.1,2.1-3.6,2.6l6.5,10.1h-4.6l-5.8-9.5h-3.3v9.5ZM30.4,197.4h-3.3v9.1h3.4c1.6,0,2.8-.4,3.6-1.2.8-.8,1.2-1.9,1.2-3.3,0-3-1.7-4.6-5-4.6Z"/>
    <path class="st5" d="M59.5,219.2h-3.6v-3.2c-1,2.3-2.9,3.4-5.8,3.4s-3.3-.5-4.4-1.6c-1.1-1.1-1.6-2.6-1.6-4.5v-12.8h3.7v11.9c0,1.3.3,2.3.9,2.9s1.5,1,2.6,1,2.5-.5,3.4-1.5c.9-1,1.3-2.4,1.3-4.2v-10.2h3.6v18.8Z"/>
    <path class="st5" d="M76.3,214c0,1.7-.6,3-1.8,3.9-1.2.9-2.8,1.4-4.8,1.4s-4.1-.4-5.5-1.1v-3.4c1.7,1.1,3.5,1.6,5.4,1.6s1.7-.2,2.2-.6c.5-.4.8-.9.8-1.6s-.2-1-.6-1.5c-.4-.4-.8-.8-1.3-1-.4-.2-1.2-.5-2.2-1-2.9-1.2-4.4-3-4.4-5.3s.6-2.9,1.8-3.9,2.8-1.4,4.6-1.4,3.6.3,4.7.8v3.3c-1.2-.7-2.8-1.1-4.7-1.1s-1.5.2-2.1.6c-.5.4-.8.9-.8,1.6s0,.3,0,.5c0,.2.1.3.2.5,0,.2.2.3.3.4,0,.1.2.2.4.4.2.1.4.2.5.3.1,0,.3.2.6.3.3.1.4.2.6.3.1,0,.3.2.6.3.3.1.5.2.6.3,1.5.6,2.6,1.4,3.4,2.2.8.8,1.2,1.9,1.2,3.2Z"/>
    <path class="st5" d="M91.8,214c0,1.7-.6,3-1.8,3.9-1.2.9-2.8,1.4-4.8,1.4s-4.1-.4-5.5-1.1v-3.4c1.7,1.1,3.5,1.6,5.4,1.6s1.7-.2,2.2-.6c.5-.4.8-.9.8-1.6s-.2-1-.6-1.5c-.4-.4-.8-.8-1.3-1-.4-.2-1.2-.5-2.2-1-2.9-1.2-4.4-3-4.4-5.3s.6-2.9,1.8-3.9,2.8-1.4,4.6-1.4,3.6.3,4.7.8v3.3c-1.2-.7-2.8-1.1-4.7-1.1s-1.5.2-2.1.6c-.5.4-.8.9-.8,1.6s0,.3,0,.5c0,.2.1.3.2.5,0,.2.2.3.3.4,0,.1.2.2.4.4.2.1.4.2.5.3.1,0,.3.2.6.3.3.1.4.2.6.3.1,0,.3.2.6.3.3.1.5.2.6.3,1.5.6,2.6,1.4,3.4,2.2.8.8,1.2,1.9,1.2,3.2Z"/>
    <path class="st5" d="M99.4,219.2h-3.7v-26.2h3.7v26.2Z"/>
    <path class="st5" d="M114.7,217c-1,1.6-2.7,2.4-5.1,2.4s-3.2-.5-4.3-1.5c-1.1-1-1.6-2.3-1.6-3.9s.7-3.2,2-4.2,3.3-1.5,5.7-1.5h3.1v-1.1c0-1.3-.3-2.3-.9-2.9-.6-.7-1.6-1-3.1-1s-3.8.6-5.4,1.7v-3.5c1.5-.8,3.4-1.3,5.8-1.3,4.9,0,7.4,2.4,7.4,7.1v11.9h-3.6v-2.2ZM110.7,216.5c1.2,0,2.1-.3,2.8-1,.7-.7,1-1.5,1-2.6v-2.1h-2.8c-1.4,0-2.4.3-3.1.8-.7.5-1.1,1.2-1.1,2.1s.3,1.5.8,2c.5.5,1.3.7,2.4.7Z"/>
    <path class="st5" d="M138.6,219.2h-3.6v-11.8c0-1.3-.3-2.3-1-3s-1.5-1-2.6-1-2.4.5-3.3,1.5c-.9,1-1.4,2.4-1.4,4.2v10.2h-3.6v-18.8h3.6v3.2c1.1-2.3,3.1-3.5,5.8-3.5s3.3.6,4.4,1.7c1.1,1.1,1.6,2.7,1.6,4.6v12.7Z"/>
    <path class="st5" d="M159.9,219.2h-3.7v-2.8c-1.3,2.1-3.2,3.1-5.7,3.1s-4.4-.9-5.8-2.8-2.1-4.1-2.1-6.8.8-5.3,2.3-7.1c1.5-1.8,3.4-2.7,5.8-2.7s4.3,1,5.7,3.1v-10.2h3.7v26.2ZM146.2,210c0,1.9.5,3.4,1.4,4.6.9,1.2,2.1,1.7,3.5,1.7s2.6-.5,3.6-1.6c1-1.1,1.5-2.7,1.5-5s-.5-3.7-1.5-4.8c-1-1-2.2-1.6-3.5-1.6s-2.7.6-3.6,1.7c-.9,1.1-1.4,2.8-1.4,4.9Z"/>
    <path class="st5" d="M78.8,263.6h-2.9v-21l-5.6,3.4v-3.1l5.7-3.5h2.7v24.2Z"/>
    <path class="st5" d="M99.6,257.3c0,2-.8,3.6-2.3,4.8-1.6,1.2-3.5,1.8-5.8,1.8s-4.1-.6-5.6-1.7c-1.5-1.2-2.3-2.7-2.3-4.7s.4-2.7,1.2-3.7c.8-1,1.8-1.8,3.2-2.2-2.6-1-4-2.9-4-5.6s.7-3.8,2.2-5c1.5-1.2,3.2-1.8,5.3-1.8s3.9.6,5.4,1.8c1.5,1.2,2.2,2.9,2.2,5.1s-.3,2.4-1,3.3c-.7,1-1.6,1.7-2.8,2.2,3,.9,4.5,2.9,4.5,5.8ZM86.5,257.3c0,1.1.4,2.1,1.3,2.8.9.8,2.1,1.1,3.7,1.1s2.9-.4,3.8-1.2c.9-.8,1.3-1.8,1.3-3s-.4-2.2-1.3-3c-.9-.8-2.1-1.2-3.8-1.2-1.7,0-2.9.5-3.7,1.3-.8.9-1.2,1.9-1.2,3.2ZM86.9,245.9c0,1.4.4,2.5,1.3,3.2.9.7,2,1.1,3.3,1.1s2.4-.4,3.2-1.1c.8-.8,1.3-1.8,1.3-3.2s-.4-2.2-1.2-3c-.8-.8-1.9-1.2-3.4-1.2s-2.5.4-3.3,1.2c-.8.8-1.2,1.8-1.2,3Z"/>
    <path class="st5" d="M110.6,263.6h-2.9v-21l-5.6,3.4v-3.1l5.7-3.5h2.7v24.2Z"/>
  </g>
  <g>
    <path class="st5" d="M228.7,62.7h-14.4v-24.9h14.2v3.2h-10.4v7.7h9.2v3.2h-9.2v7.7h10.6v3.2Z"/>
    <path class="st5" d="M248.1,55.9c0,2.2-.8,3.9-2.3,5.2s-3.6,1.9-6,1.9-5-.5-6.8-1.6v-4c1.9,1.5,4.2,2.2,6.8,2.2s2.4-.3,3.2-.9c.8-.6,1.2-1.5,1.2-2.6s-.2-1.3-.7-1.8c-.5-.6-1-1-1.5-1.3-.5-.3-1.4-.7-2.4-1.2-.6-.3-1.1-.5-1.4-.6-.3-.1-.7-.3-1.3-.7-.6-.3-1-.6-1.3-.8-.3-.2-.6-.5-1.1-.9-.4-.4-.7-.8-.9-1.2-.2-.4-.4-.9-.5-1.4-.2-.5-.2-1.1-.2-1.7,0-2.1.8-3.8,2.3-5,1.5-1.2,3.5-1.8,6-1.8s4.2.4,5.7,1.2v3.8c-1.7-1-3.5-1.6-5.6-1.6s-2.4.3-3.2.9c-.8.6-1.2,1.4-1.2,2.4s.4,1.8,1.1,2.4c.8.6,1.9,1.2,3.5,1.9,1,.4,1.8.8,2.4,1.1.6.3,1.2.8,2,1.4.8.6,1.3,1.3,1.7,2.1.4.8.5,1.7.5,2.8Z"/>
    <path class="st5" d="M255.1,62.7h-4l8.6-24.9h5l8.5,24.9h-4.1l-2-6.1h-10.1l-2,6.1ZM258.5,52.2l-.4,1.3h8l-.4-1.3c-.9-2.9-1.7-5.3-2.3-7.2-.6-1.9-1-3.1-1.1-3.6l-.2-.7c-.3,1.2-1.5,5-3.6,11.5Z"/>
    <path class="st5" d="M242.7,99.2c0,2.5-.7,4.5-2.1,6s-3.2,2.3-5.5,2.3-4.9-1-6.4-3.1c-1.5-2.1-2.2-4.8-2.2-8.2s1-7.4,3-10c2-2.6,4.7-4,8.1-4s2.2.2,3.4.6v2.8c-1.1-.5-2.2-.7-3.4-.7-2.3,0-4.2.9-5.5,2.6-1.4,1.7-2.2,3.9-2.6,6.6,1.6-1.7,3.6-2.6,6-2.6s4,.7,5.2,2.1,1.9,3.3,1.9,5.6ZM235.1,104.8c1.4,0,2.5-.5,3.3-1.6.8-1,1.2-2.4,1.2-4.1s-.4-2.8-1.2-3.7c-.8-.9-1.9-1.4-3.2-1.4-2.2,0-4.1.9-5.8,2.7,0,2.6.7,4.6,1.7,5.9,1,1.3,2.4,2,4,2Z"/>
    <path class="st5" d="M259.4,100.5c0,2-.7,3.6-2.1,4.9-1.4,1.3-3.3,2-5.8,2s-4.3-.4-6-1.2v-2.9c1.8,1,3.8,1.4,6,1.4s2.8-.4,3.7-1.2c.9-.8,1.3-1.9,1.3-3.2s-.5-2.3-1.5-3-2.4-1.1-4.2-1.1h-1.6v-2.6h1.6c1.4,0,2.5-.4,3.5-1.2.9-.8,1.4-1.8,1.4-3.1s-.4-2.3-1.2-3c-.8-.7-1.9-1-3.4-1s-3.3.5-4.9,1.5v-2.8c1.4-.9,3.1-1.4,5-1.4s4.2.6,5.6,1.8c1.3,1.2,2,2.7,2,4.5s-.3,2.5-1,3.5c-.7,1-1.6,1.8-2.9,2.3,1.4.3,2.5,1,3.3,1.9.8,1,1.2,2.2,1.2,3.6Z"/>
  </g>
  <g>
    <path class="st5" d="M100.9,113.2c0,2.3-.6,4-1.7,5.1-1.1,1.1-2.6,1.6-4.5,1.6s-2.8-.3-3.7-.8v-3.5c1,.6,2,.9,3,.9,2,0,3-1.1,3-3.2v-18.4h3.8v18.2Z"/>
    <path class="st5" d="M116.1,117.7c-1,1.6-2.7,2.4-5.1,2.4s-3.2-.5-4.3-1.5c-1.1-1-1.6-2.3-1.6-3.9s.7-3.2,2-4.2,3.3-1.5,5.7-1.5h3.1v-1.1c0-1.3-.3-2.3-.9-2.9-.6-.7-1.6-1-3.1-1s-3.8.6-5.4,1.7v-3.5c1.5-.8,3.4-1.3,5.8-1.3,4.9,0,7.4,2.4,7.4,7.1v11.9h-3.6v-2.2ZM112.2,117.3c1.2,0,2.1-.3,2.8-1,.7-.7,1-1.5,1-2.6v-2.1h-2.8c-1.4,0-2.4.3-3.1.8-.7.5-1.1,1.2-1.1,2.1s.3,1.5.8,2c.5.5,1.3.7,2.4.7Z"/>
    <path class="st5" d="M128.2,127.1h-3.6v-25.9h3.6v2.9c1.3-2.1,3.2-3.1,5.8-3.1s4.4.9,5.8,2.7c1.4,1.8,2.1,4.1,2.1,6.8s-.7,5.2-2.2,7-3.4,2.8-5.9,2.8-4.4-1-5.7-3.1v10ZM128.2,110.5c0,2.2.5,3.8,1.5,4.9,1,1.1,2.2,1.6,3.5,1.6s2.7-.6,3.6-1.7c.9-1.1,1.4-2.8,1.4-4.8s-.5-3.5-1.4-4.6c-.9-1.1-2.1-1.7-3.5-1.7s-2.6.5-3.6,1.5c-1,1-1.5,2.6-1.5,4.9Z"/>
    <path class="st5" d="M156,117.7c-1,1.6-2.7,2.4-5.1,2.4s-3.2-.5-4.3-1.5c-1.1-1-1.6-2.3-1.6-3.9s.7-3.2,2-4.2,3.3-1.5,5.7-1.5h3.1v-1.1c0-1.3-.3-2.3-.9-2.9-.6-.7-1.6-1-3.1-1s-3.8.6-5.4,1.7v-3.5c1.5-.8,3.4-1.3,5.8-1.3,4.9,0,7.4,2.4,7.4,7.1v11.9h-3.6v-2.2ZM152.1,117.3c1.2,0,2.1-.3,2.8-1,.7-.7,1-1.5,1-2.6v-2.1h-2.8c-1.4,0-2.4.3-3.1.8-.7.5-1.1,1.2-1.1,2.1s.3,1.5.8,2c.5.5,1.3.7,2.4.7Z"/>
    <path class="st5" d="M180,120h-3.6v-11.8c0-1.3-.3-2.3-1-3s-1.5-1-2.6-1-2.4.5-3.3,1.5c-.9,1-1.4,2.4-1.4,4.2v10.2h-3.6v-18.8h3.6v3.2c1.1-2.3,3.1-3.5,5.8-3.5s3.3.6,4.4,1.7c1.1,1.1,1.6,2.7,1.6,4.6v12.7Z"/>
    <path class="st5" d="M135.9,156.5c0,2.5-.7,4.5-2.1,6s-3.2,2.3-5.5,2.3-4.9-1-6.4-3.1c-1.5-2.1-2.2-4.8-2.2-8.2s1-7.4,3-10c2-2.6,4.7-4,8.1-4s2.2.2,3.4.6v2.8c-1.1-.5-2.2-.7-3.4-.7-2.3,0-4.2.9-5.5,2.6-1.4,1.7-2.2,3.9-2.6,6.6,1.6-1.7,3.6-2.6,6-2.6s4,.7,5.2,2.1,1.9,3.3,1.9,5.6ZM128.3,162.1c1.4,0,2.5-.5,3.3-1.6.8-1,1.2-2.4,1.2-4.1s-.4-2.8-1.2-3.7c-.8-.9-1.9-1.4-3.2-1.4-2.2,0-4.1.9-5.8,2.7,0,2.6.7,4.6,1.7,5.9,1,1.3,2.4,2,4,2Z"/>
    <path class="st5" d="M152.6,157.7c0,2-.7,3.6-2.1,4.9-1.4,1.3-3.3,2-5.8,2s-4.3-.4-6-1.2v-2.9c1.8,1,3.8,1.4,6,1.4s2.8-.4,3.7-1.2c.9-.8,1.3-1.9,1.3-3.2s-.5-2.3-1.5-3-2.4-1.1-4.2-1.1h-1.6v-2.6h1.6c1.4,0,2.5-.4,3.5-1.2.9-.8,1.4-1.8,1.4-3.1s-.4-2.3-1.2-3c-.8-.7-1.9-1-3.4-1s-3.3.5-4.9,1.5v-2.8c1.4-.9,3.1-1.4,5-1.4s4.2.6,5.6,1.8c1.3,1.2,2,2.7,2,4.5s-.3,2.5-1,3.5c-.7,1-1.6,1.8-2.9,2.3,1.4.3,2.5,1,3.3,1.9.8,1,1.2,2.2,1.2,3.6Z"/>
  </g>
  <g>
    <path class="st5" d="M324.1,38h-4l8.6-24.9h5l8.5,24.9h-4.1l-2-6.1h-10.1l-2,6.1ZM327.5,27.5l-.4,1.3h8l-.4-1.3c-.9-2.9-1.7-5.3-2.3-7.2-.6-1.9-1-3.1-1.1-3.6l-.2-.7c-.3,1.2-1.5,5-3.6,11.5Z"/>
    <path class="st5" d="M361.4,38h-3.6v-11.8c0-1.3-.3-2.3-1-3s-1.5-1-2.6-1-2.4.5-3.3,1.5c-.9,1-1.4,2.4-1.4,4.2v10.2h-3.6v-18.8h3.6v3.2c1.1-2.3,3.1-3.5,5.8-3.5s3.3.6,4.4,1.7c1.1,1.1,1.6,2.7,1.6,4.6v12.7Z"/>
    <path class="st5" d="M382.6,38h-3.7v-2.8c-1.3,2.1-3.2,3.1-5.7,3.1s-4.4-.9-5.8-2.8-2.1-4.1-2.1-6.8.8-5.3,2.3-7.1c1.5-1.8,3.4-2.7,5.8-2.7s4.3,1,5.7,3.1v-10.2h3.7v26.2ZM368.9,28.8c0,1.9.5,3.4,1.4,4.6.9,1.2,2.1,1.7,3.5,1.7s2.6-.5,3.6-1.6c1-1.1,1.5-2.7,1.5-5s-.5-3.7-1.5-4.8c-1-1-2.2-1.6-3.5-1.6s-2.7.6-3.6,1.7c-.9,1.1-1.4,2.8-1.4,4.9Z"/>
    <path class="st5" d="M401.7,37c-1.4.8-3.2,1.2-5.5,1.2s-5.2-.9-7-2.6c-1.7-1.8-2.6-4-2.6-6.9s.8-5.4,2.4-7.1c1.6-1.7,3.6-2.6,6-2.6s4.3.7,5.7,2.2c1.4,1.5,2.1,3.6,2.1,6.5s0,1.6-.2,2.4h-12.3c.2,1.6.9,2.9,2.1,3.7s2.6,1.3,4.3,1.3,3.7-.5,5-1.4v3.3ZM395.1,22c-1.2,0-2.3.5-3.2,1.4-.9.9-1.4,2.2-1.7,3.9h9.1v-.7c0-1.4-.4-2.5-1.1-3.3-.7-.8-1.7-1.2-3.1-1.2Z"/>
    <path class="st5" d="M410.8,38h-3.6v-18.8h3.6v3.3c.9-2.3,2.6-3.5,4.9-3.5s.7,0,1.1.1v3.6c-.5-.2-1.1-.3-1.7-.3-1.3,0-2.3.6-3.1,1.7-.8,1.1-1.2,2.4-1.2,4v10Z"/>
    <path class="st5" d="M433.7,37c-1.4.8-3.2,1.2-5.5,1.2s-5.2-.9-7-2.6c-1.7-1.8-2.6-4-2.6-6.9s.8-5.4,2.4-7.1c1.6-1.7,3.6-2.6,6-2.6s4.3.7,5.7,2.2c1.4,1.5,2.1,3.6,2.1,6.5s0,1.6-.2,2.4h-12.3c.2,1.6.9,2.9,2.1,3.7s2.6,1.3,4.3,1.3,3.7-.5,5-1.4v3.3ZM427.1,22c-1.2,0-2.3.5-3.2,1.4-.9.9-1.4,2.2-1.7,3.9h9.1v-.7c0-1.4-.4-2.5-1.1-3.3-.7-.8-1.7-1.2-3.1-1.2Z"/>
    <path class="st5" d="M356.5,82.4h-3.1l10-21.6h-12.7v-2.6h15.8v2.6l-10,21.6Z"/>
    <path class="st5" d="M384.1,68.6c0,4.4-.9,7.8-2.6,10.3-1.8,2.5-4.4,3.8-7.9,3.8s-2.8-.2-4.2-.7v-2.9c1.3.6,2.6.9,4.1.9,4.5,0,7-2.8,7.6-8.4-1.2,1.5-3.1,2.2-5.5,2.2s-3.7-.7-5.1-2.2c-1.4-1.4-2.1-3.3-2.1-5.7s.7-4.2,2-5.7c1.4-1.5,3.2-2.3,5.5-2.3s4.8,1,6.1,3c1.4,2,2.1,4.6,2.1,7.7ZM376.3,71.2c2,0,3.7-.8,4.9-2.4v-.2c0-2.3-.4-4.3-1.2-5.8-.8-1.5-2.2-2.2-4-2.2s-2.5.5-3.4,1.4c-.8.9-1.3,2.2-1.3,3.8s.4,3,1.3,3.9c.9.9,2.1,1.4,3.6,1.4Z"/>
    <path class="st5" d="M403.8,74.5c0,2.5-.7,4.5-2.1,6s-3.2,2.3-5.5,2.3-4.9-1-6.4-3.1c-1.5-2.1-2.2-4.8-2.2-8.2s1-7.4,3-10c2-2.6,4.7-4,8.1-4s2.2.2,3.4.6v2.8c-1.1-.5-2.2-.7-3.4-.7-2.3,0-4.2.9-5.5,2.6-1.4,1.7-2.2,3.9-2.6,6.6,1.6-1.7,3.6-2.6,6-2.6s4,.7,5.2,2.1,1.9,3.3,1.9,5.6ZM396.2,80.1c1.4,0,2.5-.5,3.3-1.6.8-1,1.2-2.4,1.2-4.1s-.4-2.8-1.2-3.7c-.8-.9-1.9-1.4-3.2-1.4-2.2,0-4.1.9-5.8,2.7,0,2.6.7,4.6,1.7,5.9,1,1.3,2.4,2,4,2Z"/>
  </g>
  <polygon class="st5" points="263.6 193.1 260.6 193.1 260.6 121.5 229.2 121.5 229.2 118.5 263.6 118.5 263.6 193.1"/>
  <polygon class="st5" points="239.9 212.6 152.2 176.4 119.6 176.4 119.6 173.4 152.8 173.4 241.1 209.8 239.9 212.6"/>
</svg>