<?xml version="1.0" encoding="UTF-8"?>
<svg id="Ebene_3" data-name="Ebene 3" xmlns="http://www.w3.org/2000/svg" xmlns:xlink="http://www.w3.org/1999/xlink" viewBox="0 0 1100 1100">
  <defs>
    <style>
      .cls-1 {
        mask: url(#mask);
      }

      .cls-2 {
        fill: #cd7f4b;
      }

      .cls-3 {
        fill: #a6a6a6;
      }

      .cls-4 {
        fill: #4030ab;
      }

      .cls-5 {
        fill: #ab306b;
      }

      .cls-6 {
        fill: #fff;
      }

      .cls-7 {
        fill: #7d2797;
      }

      .cls-8 {
        fill: #cd564b;
      }
    </style>
    <mask id="mask" x="-48.98" y="-47.56" width="1199.66" height="1198.72" maskUnits="userSpaceOnUse">
      <g id="mask0_94_10" data-name="mask0 94 10">
        <path class="cls-6" d="M784.38-47.56l366.3,831.69-833.36,367.03L-48.98,319.47,784.38-47.56Z"/>
      </g>
    </mask>
  </defs>
  <g>
    <g class="cls-1">
      <path class="cls-2" d="M966.43,366.59c2.92,6.64,5.69,13.34,8.29,20.11,2.6,6.77,5.04,13.59,7.32,20.47,2.28,6.89,4.39,13.82,6.34,20.8,1.94,6.98,3.72,14.01,5.33,21.08,1.61,7.07,3.05,14.17,4.32,21.31,1.27,7.14,2.37,14.3,3.3,21.49.93,7.19,1.69,14.4,2.27,21.62.58,7.22,1,14.46,1.24,21.7.24,7.25.31,14.49.2,21.74-.1,7.25-.38,14.49-.84,21.72-.45,7.23-1.07,14.46-1.87,21.66-.8,7.2-1.77,14.39-2.91,21.55-1.14,7.16-2.44,14.29-3.92,21.38-1.48,7.09-3.13,14.15-4.94,21.17-1.81,7.02-3.79,13.98-5.94,20.91-2.15,6.92-4.46,13.79-6.94,20.6-2.48,6.81-5.11,13.56-7.91,20.24-2.8,6.69-5.75,13.3-8.87,19.84-3.12,6.55-6.38,13.01-9.8,19.4-3.42,6.39-6.99,12.69-10.72,18.9-3.73,6.21-7.6,12.34-11.61,18.37s-8.17,11.97-12.47,17.8c-4.3,5.83-8.73,11.56-13.31,17.18-4.57,5.61-9.28,11.12-14.11,16.52-4.84,5.39-9.8,10.67-14.88,15.83-5.09,5.15-10.3,10.19-15.63,15.1-5.32,4.92-10.77,9.69-16.33,14.34-5.56,4.65-11.22,9.15-16.99,13.53-5.77,4.38-11.65,8.62-17.62,12.71-5.98,4.1-12.04,8.05-18.2,11.86-6.16,3.81-12.41,7.47-18.75,10.97-6.34,3.5-12.76,6.87-19.25,10.07-6.5,3.2-13.07,6.24-19.72,9.13-6.64,2.89-13.35,5.62-20.13,8.18-6.77,2.57-13.61,4.98-20.49,7.21-6.89,2.25-13.83,4.32-20.82,6.23-6.99,1.91-14.02,3.65-21.09,5.22-7.07,1.57-14.18,2.97-21.32,4.2-7.14,1.23-14.3,2.3-21.49,3.19-7.19.89-14.4,1.61-21.62,2.15-7.22.54-14.45.92-21.7,1.12-7.24.19-14.49.22-21.73.08-7.25-.14-14.48-.47-21.71-.96-7.23-.49-14.44-1.15-21.64-1.99-7.2-.84-14.37-1.85-21.52-3.02-7.15-1.18-14.27-2.53-21.35-4.06-7.09-1.52-14.13-3.2-21.14-5.06-7-1.85-13.96-3.87-20.87-6.06-6.91-2.2-13.76-4.55-20.56-7.06-6.79-2.52-13.53-5.2-20.2-8.03-6.67-2.84-13.26-5.83-19.79-8.99-6.53-3.15-12.97-6.46-19.34-9.92-6.37-3.46-12.65-7.07-18.85-10.83-6.2-3.76-12.3-7.66-18.32-11.72-6-4.05-11.91-8.25-17.72-12.58-5.81-4.34-11.52-8.8-17.11-13.41-5.6-4.6-11.09-9.34-16.45-14.21-5.38-4.87-10.63-9.86-15.76-14.98-5.14-5.11-10.14-10.35-15.03-15.71-4.88-5.36-9.63-10.83-14.26-16.41-4.62-5.58-9.11-11.28-13.46-17.08-4.35-5.8-8.56-11.7-12.63-17.7-4.07-6-7.99-12.09-11.78-18.28-3.78-6.19-7.4-12.47-10.88-18.83s-6.8-12.8-9.97-19.32c-3.18-6.52-6.19-13.11-9.04-19.78-2.87-6.66-5.56-13.39-8.09-20.18-2.54-6.79-4.9-13.64-7.11-20.54-2.21-6.9-4.26-13.86-6.13-20.86-1.88-7-3.59-14.04-5.13-21.13-1.55-7.08-2.91-14.2-4.1-21.35-1.2-7.15-2.23-14.33-3.1-21.52-.86-7.2-1.54-14.42-2.06-21.64-.51-7.23-.86-14.47-1.02-21.72-.17-7.24-.17-14.49,0-21.74.18-7.24.53-14.48,1.05-21.71.53-7.23,1.22-14.45,2.08-21.64.87-7.2,1.91-14.37,3.11-21.51,1.21-7.15,2.59-14.26,4.14-21.34,1.55-7.08,3.26-14.12,5.15-21.12,1.89-7,3.94-13.95,6.16-20.85,2.22-6.9,4.6-13.74,7.14-20.53,2.54-6.79,5.25-13.51,8.11-20.16,2.87-6.66,5.89-13.24,9.07-19.75,3.18-6.51,6.51-12.94,10-19.3,3.48-6.35,7.12-12.62,10.91-18.8,3.78-6.18,7.71-12.26,11.79-18.25,4.08-5.99,8.29-11.88,12.65-17.67,4.36-5.79,8.85-11.47,13.48-17.05,4.63-5.57,9.39-11.03,14.28-16.38s9.9-10.58,15.04-15.68c5.14-5.11,10.39-10.09,15.77-14.94,5.37-4.86,10.86-9.58,16.47-14.17,5.6-4.59,11.31-9.05,17.13-13.37,5.81-4.32,11.73-8.5,17.74-12.54,6.01-4.04,12.12-7.93,18.32-11.68l117.69,194.93c-3.1,1.87-6.15,3.82-9.16,5.84-3.01,2.02-5.96,4.11-8.87,6.27-2.91,2.16-5.76,4.39-8.56,6.69-2.8,2.29-5.55,4.66-8.24,7.09-2.69,2.43-5.31,4.92-7.88,7.47-2.57,2.56-5.08,5.17-7.52,7.84-2.44,2.68-4.82,5.4-7.14,8.19-2.31,2.79-4.56,5.63-6.73,8.52-2.18,2.89-4.29,5.84-6.32,8.83-2.04,2.99-4,6.04-5.89,9.12-1.89,3.09-3.71,6.23-5.45,9.4s-3.41,6.39-5,9.65c-1.59,3.26-3.1,6.55-4.53,9.88-1.43,3.32-2.78,6.69-4.05,10.08-1.27,3.4-2.46,6.81-3.57,10.27-1.11,3.45-2.13,6.93-3.07,10.42-.94,3.5-1.8,7.02-2.58,10.56-.77,3.54-1.46,7.1-2.07,10.67-.61,3.57-1.13,7.16-1.56,10.76-.44,3.6-.78,7.2-1.04,10.82-.26,3.61-.43,7.23-.52,10.85-.09,3.63-.09,7.25,0,10.87.08,3.63.25,7.25.51,10.86.26,3.62.6,7.22,1.03,10.82.43,3.6.95,7.19,1.54,10.76.6,3.58,1.28,7.13,2.06,10.67.77,3.54,1.63,7.06,2.56,10.57.94,3.5,1.96,6.97,3.07,10.43,1.1,3.46,2.29,6.88,3.56,10.27,1.27,3.4,2.61,6.76,4.04,10.09,1.43,3.33,2.94,6.63,4.53,9.89,1.58,3.26,3.24,6.48,4.98,9.66,1.74,3.18,3.56,6.32,5.44,9.41,1.89,3.1,3.85,6.14,5.89,9.14,2.03,3,4.14,5.95,6.32,8.85,2.17,2.9,4.42,5.75,6.73,8.54,2.31,2.79,4.69,5.53,7.13,8.21,2.44,2.68,4.95,5.3,7.51,7.86,2.57,2.56,5.19,5.06,7.88,7.49,2.68,2.44,5.43,4.8,8.22,7.1,2.8,2.3,5.65,4.54,8.55,6.71,2.91,2.17,5.86,4.26,8.87,6.29,3.01,2.02,6.06,3.98,9.15,5.86,3.1,1.88,6.24,3.69,9.43,5.42,3.19,1.73,6.41,3.38,9.67,4.96,3.26,1.58,6.56,3.07,9.89,4.49,3.34,1.42,6.7,2.76,10.1,4.02,3.39,1.26,6.82,2.43,10.28,3.53,3.45,1.09,6.93,2.1,10.43,3.03,3.5.93,7.02,1.77,10.56,2.53,3.55.76,7.1,1.43,10.68,2.02,3.57.59,7.16,1.1,10.76,1.51,3.6.42,7.21.75,10.82,1,3.62.25,7.23.4,10.86.48,3.62.08,7.24.06,10.86-.04,3.62-.1,7.24-.29,10.85-.56,3.61-.27,7.22-.63,10.81-1.08,3.59-.45,7.18-.98,10.75-1.6,3.57-.61,7.12-1.32,10.66-2.1,3.53-.79,7.05-1.66,10.55-2.61,3.49-.96,6.97-1.99,10.4-3.11,3.45-1.12,6.87-2.32,10.25-3.6,3.38-1.29,6.74-2.65,10.06-4.09,3.32-1.44,6.6-2.97,9.85-4.57,3.25-1.6,6.46-3.28,9.63-5.03,3.17-1.75,6.29-3.58,9.38-5.49,3.08-1.9,6.12-3.88,9.1-5.92,2.99-2.05,5.93-4.17,8.81-6.36,2.89-2.19,5.72-4.44,8.5-6.77,2.78-2.32,5.5-4.71,8.16-7.17s5.27-4.97,7.81-7.55c2.54-2.58,5.03-5.22,7.44-7.91,2.42-2.7,4.77-5.45,7.06-8.26,2.29-2.81,4.51-5.68,6.66-8.59,2.15-2.92,4.23-5.88,6.24-8.9,2.01-3.01,3.94-6.08,5.8-9.19,1.86-3.1,3.65-6.26,5.36-9.45,1.71-3.19,3.35-6.42,4.9-9.7,1.55-3.27,3.03-6.58,4.43-9.92,1.4-3.34,2.72-6.72,3.95-10.12,1.24-3.4,2.39-6.84,3.47-10.3,1.07-3.46,2.06-6.95,2.97-10.46.91-3.5,1.73-7.03,2.47-10.58.74-3.55,1.39-7.11,1.96-10.69.57-3.58,1.05-7.17,1.45-10.77.4-3.6.71-7.21.93-10.83.23-3.62.37-7.24.42-10.86.05-3.63.02-7.25-.1-10.87-.12-3.62-.33-7.24-.62-10.85-.29-3.61-.67-7.22-1.14-10.81-.47-3.59-1.01-7.17-1.65-10.74-.63-3.57-1.36-7.12-2.16-10.66-.81-3.53-1.69-7.05-2.67-10.54-.98-3.5-2.03-6.96-3.17-10.4-1.13-3.44-2.36-6.85-3.66-10.24-1.3-3.39-2.69-6.73-4.15-10.05l208.22-91.7Z"/>
    </g>
    <path class="cls-8" d="M314.61,160.14c8.32-5.03,16.79-9.78,25.42-14.26s17.39-8.68,26.28-12.61c8.89-3.92,17.91-7.55,27.03-10.89,9.13-3.34,18.36-6.39,27.68-9.14,9.32-2.75,18.73-5.2,28.21-7.35s19.02-3.99,28.62-5.53c9.6-1.53,19.24-2.76,28.92-3.68,9.68-.92,19.37-1.53,29.09-1.82,9.72-.29,19.44-.28,29.15.04,9.72.33,19.42.97,29.09,1.91,9.68.95,19.32,2.21,28.91,3.77s19.13,3.44,28.61,5.62c9.48,2.18,18.87,4.66,28.19,7.43,9.32,2.78,18.54,5.86,27.66,9.23s18.13,7.03,27.01,10.98c8.89,3.95,17.64,8.18,26.26,12.69l-105.36,201.73c-4.31-2.25-8.68-4.37-13.13-6.34-4.44-1.97-8.95-3.8-13.51-5.49-4.56-1.68-9.17-3.22-13.83-4.61s-9.35-2.63-14.1-3.72c-4.74-1.09-9.5-2.02-14.3-2.81-4.79-.78-9.61-1.41-14.46-1.89-4.84-.47-9.68-.79-14.54-.96-4.86-.16-9.72-.17-14.58-.02-4.86.15-9.7.45-14.54.91-4.84.46-9.66,1.08-14.46,1.84-4.8.77-9.57,1.69-14.31,2.76-4.74,1.07-9.44,2.3-14.1,3.67-4.66,1.38-9.27,2.9-13.84,4.57-4.56,1.67-9.07,3.49-13.51,5.45-4.44,1.96-8.83,4.06-13.14,6.31-4.31,2.24-8.55,4.62-12.71,7.13l-117.69-194.93Z"/>
    <path class="cls-5" d="M760.72,146.53c20.83,10.9,40.7,23.34,59.61,37.33,18.91,13.98,36.63,29.33,53.16,46.06l-161.74,160.04c-16.63-16.83-35.43-30.73-56.38-41.7l105.36-201.73Z"/>
    <path class="cls-7" d="M873.49,229.92c12.61,12.76,24.43,26.21,35.45,40.37l-179.47,139.85c-5.51-7.08-11.42-13.81-17.73-20.18l161.74-160.04Z"/>
    <path class="cls-4" d="M908.94,270.29c7.68,9.86,14.94,20.02,21.79,30.49l-190.36,124.61c-3.42-5.23-7.05-10.31-10.89-15.25l179.47-139.85Z"/>
    <path class="cls-3" d="M930.73,300.78c13.7,20.94,25.6,42.87,35.69,65.78l-208.21,91.72c-5.05-11.45-10.99-22.41-17.84-32.89l190.36-124.61Z"/>
  </g>
  <path class="cls-6" d="M822.82,994.47h-4.8l-9.4-12.28,9.03-12.58h4.61l-9.1,12.54,9.66,12.32ZM808.14,994.47h-3.8v-24.86h3.8v24.86ZM840.69,978.24c1.55,1.8,2.33,4.1,2.33,6.9s-.8,5.11-2.4,6.93c-1.58,1.82-3.75,2.73-6.53,2.73s-4.92-.9-6.49-2.69c-1.57-1.8-2.36-4.07-2.36-6.82s.81-5.13,2.43-6.97c1.63-1.87,3.76-2.81,6.42-2.81,2.85,0,5.05.91,6.6,2.73ZM829,985.18c0,1.84.46,3.4,1.37,4.68.9,1.25,2.15,1.88,3.72,1.88,1.67,0,2.94-.61,3.8-1.84.88-1.23,1.33-2.79,1.33-4.69s-.42-3.53-1.26-4.75c-.83-1.26-2.14-1.89-3.91-1.89-1.59,0-2.84.64-3.72,1.92-.89,1.26-1.33,2.82-1.33,4.69ZM872.8,994.47h-3.62v-11.8c0-2.68-1.08-4.02-3.24-4.02-1.09,0-2.06.48-2.92,1.44-.83.96-1.25,2.37-1.25,4.24v10.14h-3.62v-11.8c0-2.68-1.09-4.02-3.28-4.02-1.06,0-2.02.48-2.88,1.44s-1.29,2.37-1.29,4.24v10.14h-3.61v-18.7h3.61v2.99c1.06-2.17,2.82-3.25,5.28-3.25,2.8,0,4.6,1.21,5.38,3.62.52-1.16,1.27-2.04,2.25-2.66.99-.64,2.09-.96,3.32-.96,1.92,0,3.37.57,4.35,1.7,1.01,1.13,1.52,2.69,1.52,4.68v12.58ZM903.41,994.47h-3.61v-11.8c0-2.68-1.09-4.02-3.25-4.02-1.08,0-2.05.48-2.91,1.44-.84.96-1.26,2.37-1.26,4.24v10.14h-3.61v-11.8c0-2.68-1.1-4.02-3.28-4.02-1.06,0-2.02.48-2.88,1.44s-1.29,2.37-1.29,4.24v10.14h-3.62v-18.7h3.62v2.99c1.06-2.17,2.81-3.25,5.27-3.25,2.8,0,4.6,1.21,5.39,3.62.51-1.16,1.26-2.04,2.25-2.66.98-.64,2.09-.96,3.32-.96,1.91,0,3.36.57,4.35,1.7,1.01,1.13,1.51,2.69,1.51,4.68v12.58ZM923.55,994.47h-3.61v-3.21c-.99,2.29-2.93,3.43-5.83,3.43-1.85,0-3.31-.54-4.39-1.62-1.08-1.11-1.62-2.62-1.62-4.54v-12.76h3.65v11.88c0,1.28.31,2.26.92,2.95.64.66,1.51.99,2.62.99,1.4,0,2.52-.49,3.35-1.47.87-.99,1.3-2.37,1.3-4.17v-10.18h3.61v18.7ZM944.08,994.47h-3.61v-11.8c0-1.31-.33-2.3-1-2.99-.63-.69-1.5-1.03-2.58-1.03-1.28,0-2.37.5-3.28,1.51-.91.98-1.36,2.37-1.36,4.17v10.14h-3.62v-18.7h3.62v3.21c1.1-2.31,3.04-3.47,5.82-3.47,1.85,0,3.31.57,4.39,1.7s1.62,2.67,1.62,4.61v12.65ZM952.74,994.47h-3.65v-18.7h3.65v18.7ZM953.19,970.05c0,.62-.22,1.15-.67,1.59-.44.44-.98.66-1.62.66s-1.18-.2-1.62-.62c-.42-.45-.63-.99-.63-1.63s.21-1.18.63-1.62c.44-.44.98-.66,1.62-.66s1.18.22,1.62.66c.45.44.67.99.67,1.62ZM961.6,994.47h-3.61v-25.82h3.61v25.82ZM965.91,984.7l7.34,9.77h-4.31l-7.19-9.77,7.04-8.93h4.24l-7.12,8.93ZM982.47,991.78c1.18,0,2.11-.32,2.77-.96.69-.67,1.03-1.53,1.03-2.58v-2.11h-2.8c-1.38,0-2.42.28-3.13.82-.69.54-1.04,1.23-1.04,2.06s.27,1.54.81,2.03c.55.49,1.33.74,2.36.74ZM986.38,992.26c-.95,1.57-2.64,2.36-5.05,2.36-1.77,0-3.2-.51-4.28-1.51-1.05-1.04-1.58-2.34-1.58-3.91,0-1.8.67-3.19,2.03-4.17,1.35-1.01,3.24-1.51,5.68-1.51h3.09v-1.07c0-1.28-.3-2.24-.92-2.88-.61-.66-1.63-1-3.06-1-1.99,0-3.8.56-5.42,1.66v-3.5c1.45-.84,3.37-1.25,5.75-1.25,4.89,0,7.34,2.37,7.34,7.11v11.88h-3.58v-2.21ZM1004.64,993.99c-.81.44-1.81.66-2.99.66-3.86,0-5.79-1.95-5.79-5.86v-10.22h-2.91v-2.8h2.91v-4.57h3.65v4.57h4.91v2.8h-4.91v10.29c0,1.8.87,2.7,2.59,2.7,1,0,1.85-.27,2.54-.82v3.25ZM1012.42,994.47h-3.65v-18.7h3.65v18.7ZM1012.87,970.05c0,.62-.22,1.15-.67,1.59-.44.44-.98.66-1.62.66s-1.18-.2-1.62-.62c-.42-.45-.63-.99-.63-1.63s.21-1.18.63-1.62c.44-.44.98-.66,1.62-.66s1.18.22,1.62.66c.45.44.67.99.67,1.62ZM1032.09,978.24c1.55,1.8,2.32,4.1,2.32,6.9s-.8,5.11-2.4,6.93c-1.57,1.82-3.75,2.73-6.53,2.73s-4.91-.9-6.49-2.69c-1.57-1.8-2.36-4.07-2.36-6.82s.81-5.13,2.44-6.97c1.62-1.87,3.76-2.81,6.41-2.81,2.86,0,5.06.91,6.61,2.73ZM1020.39,985.18c0,1.84.46,3.4,1.37,4.68.91,1.25,2.15,1.88,3.72,1.88,1.68,0,2.94-.61,3.8-1.84.89-1.23,1.33-2.79,1.33-4.69s-.42-3.53-1.25-4.75c-.84-1.26-2.14-1.89-3.91-1.89-1.6,0-2.84.64-3.73,1.92-.88,1.26-1.33,2.82-1.33,4.69ZM1053.94,994.47h-3.62v-11.8c0-1.31-.33-2.3-.99-2.99-.64-.69-1.5-1.03-2.59-1.03-1.27,0-2.37.5-3.28,1.51-.91.98-1.36,2.37-1.36,4.17v10.14h-3.62v-18.7h3.62v3.21c1.1-2.31,3.05-3.47,5.82-3.47,1.85,0,3.31.57,4.39,1.7,1.09,1.13,1.63,2.67,1.63,4.61v12.65Z"/>
  <path class="cls-6" d="M910.88,1031.95c0,2.38-.79,4.29-2.36,5.71-1.55,1.4-3.68,2.11-6.38,2.11-2.44,0-4.5-.42-6.2-1.26v-2.88c1.58.94,3.48,1.41,5.72,1.41,4.13,0,6.19-1.74,6.19-5.2,0-1.41-.48-2.49-1.43-3.25-.96-.79-2.2-1.18-3.73-1.18-1.79,0-3.65.43-5.57,1.29v-13.35h12.1v2.54h-9.22v7.23c1.11-.24,2.06-.37,2.88-.37,2.45,0,4.4.66,5.82,1.96,1.45,1.3,2.18,3.05,2.18,5.24ZM929.64,1031.95c0,2.38-.78,4.29-2.36,5.71-1.55,1.4-3.67,2.11-6.38,2.11-2.43,0-4.5-.42-6.19-1.26v-2.88c1.57.94,3.48,1.41,5.71,1.41,4.13,0,6.2-1.74,6.2-5.2,0-1.41-.48-2.49-1.44-3.25-.96-.79-2.2-1.18-3.72-1.18-1.8,0-3.66.43-5.57,1.29v-13.35h12.09v2.54h-9.22v7.23c1.11-.24,2.07-.37,2.88-.37,2.46,0,4.4.66,5.83,1.96,1.45,1.3,2.17,3.05,2.17,5.24ZM940.41,1039.47h-2.88v-20.95l-5.57,3.43v-3.13l5.72-3.47h2.73v24.12ZM947.72,1031.06h8.07v-13.98l-8.07,13.98ZM958.67,1039.47h-2.88v-5.86h-11.02v-2.55l9.18-15.71h4.72v15.71h3.58v2.55h-3.58v5.86Z"/>
  <g>
    <path class="cls-6" d="M479.9,528.9c-3.9,2.8-8.7,4.2-14.5,4.2s-12.7-2.1-17-6.2c-4.3-4.1-6.4-9.7-6.4-16.9s2.2-12.5,6.5-16.8c4.3-4.3,9.8-6.4,16.5-6.4s9.5,1,13.1,3v7.1c-3.8-2.4-8.1-3.6-12.8-3.6s-8.7,1.5-11.6,4.6c-3,3.1-4.4,7.1-4.4,12.1s1.5,9.2,4.4,12.2c2.9,3,6.9,4.5,12,4.5s5.2-.5,7.6-1.5v-12.4h-9.1v-5.9h15.9v22h-.2Z"/>
    <path class="cls-6" d="M514.1,530.8c-2.5,1.4-5.8,2.1-9.9,2.1s-9.4-1.6-12.5-4.7c-3.1-3.2-4.7-7.3-4.7-12.4s1.4-9.7,4.3-12.8c2.8-3.1,6.5-4.6,10.9-4.6s7.7,1.3,10.3,4c2.5,2.7,3.8,6.6,3.8,11.6s-.1,2.8-.4,4.3h-22.2c.4,2.9,1.7,5.2,3.7,6.7,2,1.6,4.6,2.3,7.7,2.3s6.6-.8,9-2.5v6ZM502.3,503.8c-2.2,0-4.1.8-5.7,2.4s-2.6,4-3,7h16.3v-1.2c0-2.5-.8-4.5-2.1-6s-3.1-2.2-5.5-2.2Z"/>
    <path class="cls-6" d="M545,523.2c0,3-1.1,5.4-3.2,7.1-2.1,1.7-5,2.6-8.7,2.6s-7.3-.7-10-2v-6.2c3.1,1.9,6.3,2.9,9.7,2.9s3.1-.4,4-1.1c1-.7,1.4-1.6,1.4-2.8s-.4-1.9-1.1-2.6c-.8-.8-1.5-1.4-2.3-1.7-.8-.4-2.1-1-4-1.8-5.3-2.2-7.9-5.4-7.9-9.6s1.1-5.3,3.3-7,5-2.5,8.3-2.5,6.5.5,8.5,1.5v5.9c-2.2-1.3-5-1.9-8.4-1.9s-2.8.4-3.7,1.1c-.9.7-1.4,1.6-1.4,2.8s0,.6.1.9c0,.3.2.6.4.9.2.3.3.5.5.7.2.2.4.4.8.6.4.2.6.4.8.6.2.2.5.3,1,.6.5.2.8.4,1,.5.2.1.6.3,1.2.5.6.2.9.4,1.2.5,2.6,1.2,4.7,2.5,6.2,3.9,1.5,1.4,2.2,3.4,2.2,5.8l.1-.2Z"/>
    <path class="cls-6" d="M569.8,528.6c-1.7,2.8-4.8,4.3-9.1,4.3s-5.8-.9-7.7-2.8c-1.9-1.8-2.9-4.2-2.9-7s1.2-5.8,3.7-7.6c2.4-1.8,5.9-2.7,10.3-2.7h5.6v-1.9c0-2.3-.6-4.1-1.7-5.2-1.1-1.2-3-1.8-5.5-1.8s-6.9,1-9.8,3v-6.3c2.6-1.5,6.1-2.3,10.4-2.3,8.8,0,13.3,4.3,13.3,12.9v21.4h-6.5v-4h-.1ZM562.7,527.7c2.1,0,3.8-.6,5-1.8,1.2-1.2,1.8-2.7,1.8-4.6v-3.8h-5.1c-2.5,0-4.4.5-5.6,1.5-1.3,1-1.9,2.2-1.9,3.7s.5,2.8,1.5,3.7c1,.9,2.4,1.3,4.3,1.3Z"/>
    <path class="cls-6" d="M631.4,532.6h-6.5v-21.3c0-4.8-2-7.3-5.9-7.3s-3.7.9-5.2,2.6-2.3,4.3-2.3,7.7v18.3h-6.5v-21.3c0-4.8-2-7.3-5.9-7.3s-3.6.9-5.2,2.6c-1.6,1.7-2.3,4.3-2.3,7.7v18.3h-6.5v-33.8h6.5v5.4c1.9-3.9,5.1-5.9,9.5-5.9s8.3,2.2,9.7,6.5c.9-2.1,2.3-3.7,4.1-4.8,1.8-1.1,3.8-1.7,6-1.7,3.5,0,6.1,1,7.9,3.1,1.8,2,2.7,4.9,2.7,8.5v22.7h-.1Z"/>
    <path class="cls-6" d="M658,531.7c-1.5.8-3.3,1.2-5.4,1.2-7,0-10.5-3.5-10.5-10.6v-18.5h-5.3v-5.1h5.3v-8.3h6.6v8.3h8.9v5.1h-8.9v18.6c0,3.2,1.6,4.9,4.7,4.9s3.4-.5,4.6-1.5v5.9Z"/>
    <path class="cls-6" d="M517.5,598.9c0,4.3-1.4,7.7-4.2,10.3-2.8,2.6-6.7,3.8-11.6,3.8s-8.1-.8-11.2-2.3v-5.2c2.8,1.7,6.3,2.5,10.3,2.5,7.5,0,11.2-3.1,11.2-9.4s-.9-4.5-2.6-5.9c-1.7-1.4-4-2.1-6.7-2.1s-6.6.8-10.1,2.3v-24.1h21.8v4.6h-16.7v13.1c2-.4,3.7-.7,5.2-.7,4.4,0,8,1.2,10.6,3.5,2.6,2.4,3.9,5.5,3.9,9.5l.1.1Z"/>
    <path class="cls-6" d="M536.9,612.5h-5.2v-37.8l-10.1,6.2v-5.7l10.3-6.3h4.9v43.6h.1Z"/>
    <path class="cls-6" d="M574.6,598.3c0,4.4-1.3,8-3.8,10.8s-5.8,4.1-10,4.1-8.8-1.9-11.5-5.7-4-8.7-4-14.8,1.8-13.2,5.3-18c3.6-4.8,8.4-7.1,14.7-7.1s4,.3,6.1,1v5.1c-1.9-.8-3.9-1.3-6.1-1.3-4.2,0-7.5,1.6-10,4.7-2.5,3.1-4,7.1-4.6,11.8,2.9-3.1,6.5-4.6,10.9-4.6s7.1,1.3,9.4,3.8,3.4,5.9,3.4,10.1l.2.1ZM560.9,608.4c2.5,0,4.5-.9,6-2.8,1.5-1.9,2.2-4.3,2.2-7.3s-.7-5-2.2-6.6c-1.5-1.6-3.4-2.5-5.8-2.5-4,0-7.5,1.6-10.4,4.9.2,4.7,1.2,8.3,3.1,10.7,1.9,2.4,4.2,3.6,7.1,3.6Z"/>
    <path class="cls-6" d="M604.9,612.5h-5.2v-10.6h-19.9v-4.6l16.6-28.4h8.5v28.4h6.5v4.6h-6.5v10.6ZM585.1,597.3h14.6v-25.2l-14.6,25.2Z"/>
  </g>
  <g>
    <path class="cls-6" d="M981.86,313.21l-.41,1.25h7.97l-.41-1.25c-.93-2.9-1.7-5.3-2.29-7.19-.59-1.92-.95-3.11-1.07-3.58l-.18-.7c-.27,1.16-1.48,4.98-3.61,11.47ZM978.43,323.73h-4.02l8.59-24.86h4.98l8.48,24.86h-4.06l-1.95-6.09h-10.03l-1.99,6.09ZM1015.62,323.73h-3.61v-11.8c0-1.3-.33-2.3-1-2.99-.64-.69-1.5-1.03-2.58-1.03-1.28,0-2.37.5-3.28,1.51-.91.98-1.36,2.37-1.36,4.17v10.14h-3.61v-18.7h3.61v3.21c1.11-2.31,3.05-3.47,5.83-3.47,1.84,0,3.31.57,4.39,1.7,1.08,1.13,1.62,2.67,1.62,4.61v12.65ZM1023.17,314.54c0,1.87.45,3.38,1.36,4.54.93,1.16,2.1,1.73,3.5,1.73s2.63-.54,3.61-1.62c.98-1.08,1.48-2.73,1.48-4.94s-.52-3.72-1.55-4.76c-1.01-1.03-2.15-1.55-3.43-1.55-1.45,0-2.64.58-3.58,1.73-.93,1.13-1.4,2.75-1.4,4.87ZM1036.78,323.73h-3.65v-2.84c-1.3,2.07-3.21,3.1-5.72,3.1s-4.4-.92-5.83-2.77c-1.43-1.87-2.14-4.12-2.14-6.75,0-2.93.75-5.27,2.25-7.04s3.43-2.66,5.79-2.66,4.32,1.03,5.64,3.1v-10.22h3.65v26.08ZM1055.81,322.73c-1.38.79-3.2,1.18-5.46,1.18-2.9,0-5.21-.87-6.93-2.62-1.72-1.75-2.58-4.03-2.58-6.86,0-3,.79-5.35,2.36-7.04,1.57-1.72,3.58-2.58,6.01-2.58s4.28.75,5.68,2.25c1.4,1.48,2.1,3.61,2.1,6.42,0,.76-.07,1.56-.22,2.4h-12.28c.25,1.62.93,2.86,2.07,3.72,1.13.86,2.56,1.29,4.28,1.29,1.99,0,3.65-.47,4.98-1.4v3.25ZM1049.28,307.79c-1.23,0-2.29.45-3.17,1.36-.89.89-1.44,2.18-1.66,3.87h9.04v-.66c-.05-1.4-.43-2.51-1.14-3.32-.71-.84-1.73-1.25-3.06-1.25ZM1064.86,323.73h-3.61v-18.7h3.61v3.28c.91-2.31,2.54-3.47,4.91-3.47.34,0,.72.04,1.14.11v3.54c-.52-.22-1.09-.33-1.73-.33-1.25,0-2.29.55-3.1,1.66-.81,1.11-1.22,2.42-1.22,3.95v9.96ZM1087.69,322.73c-1.38.79-3.2,1.18-5.46,1.18-2.9,0-5.21-.87-6.93-2.62-1.72-1.75-2.58-4.03-2.58-6.86,0-3,.79-5.35,2.36-7.04,1.57-1.72,3.58-2.58,6.01-2.58s4.28.75,5.68,2.25c1.4,1.48,2.1,3.61,2.1,6.42,0,.76-.07,1.56-.22,2.4h-12.28c.25,1.62.93,2.86,2.07,3.72,1.13.86,2.56,1.29,4.28,1.29,1.99,0,3.65-.47,4.98-1.4v3.25ZM1081.16,307.79c-1.23,0-2.29.45-3.17,1.36-.89.89-1.44,2.18-1.66,3.87h9.04v-.66c-.05-1.4-.43-2.51-1.14-3.32-.71-.84-1.73-1.25-3.06-1.25Z"/>
    <path class="cls-6" d="M1015.89,367.73h-2.88v-20.95l-5.57,3.43v-3.14l5.72-3.47h2.73v24.12ZM1028,356.51c2.02,0,3.64-.79,4.87-2.36v-.19c0-2.34-.42-4.24-1.25-5.72-.81-1.5-2.13-2.25-3.95-2.25-1.4,0-2.52.47-3.36,1.4-.84.93-1.25,2.21-1.25,3.84s.44,3,1.33,3.91c.89.91,2.09,1.37,3.61,1.37ZM1035.74,353.97c0,4.38-.89,7.82-2.65,10.33-1.75,2.48-4.36,3.72-7.86,3.72-1.43,0-2.82-.23-4.17-.7v-2.88c1.28.56,2.63.85,4.06.85,4.45,0,6.98-2.79,7.6-8.37-1.23,1.45-3.05,2.18-5.46,2.18-1.97,0-3.66-.71-5.09-2.14-1.43-1.45-2.14-3.36-2.14-5.72s.68-4.18,2.03-5.68c1.35-1.5,3.2-2.25,5.53-2.25,2.71,0,4.73,1.01,6.09,3.02,1.38,2.02,2.07,4.56,2.07,7.63ZM1055.18,361.46c0,1.99-.78,3.59-2.32,4.79-1.55,1.18-3.49,1.77-5.83,1.77s-4.11-.58-5.61-1.73c-1.5-1.16-2.25-2.7-2.25-4.65,0-1.45.38-2.68,1.14-3.69.79-1.03,1.86-1.78,3.21-2.25-2.63-1.01-3.95-2.86-3.95-5.57,0-2.14.74-3.8,2.21-4.98,1.47-1.21,3.22-1.81,5.24-1.81s3.87.59,5.35,1.77c1.48,1.15,2.21,2.84,2.21,5.05,0,1.25-.34,2.36-1.03,3.32-.69.93-1.64,1.65-2.84,2.14,2.97.91,4.46,2.85,4.46,5.83ZM1042.12,361.49c0,1.13.43,2.08,1.29,2.84.86.74,2.08,1.11,3.65,1.11s2.91-.4,3.8-1.22c.88-.81,1.33-1.82,1.33-3.02s-.43-2.18-1.29-2.99c-.86-.81-2.14-1.21-3.84-1.18-1.65.03-2.89.47-3.73,1.33-.81.84-1.22,1.88-1.22,3.13ZM1042.53,350.1c0,1.4.43,2.46,1.29,3.17.89.71,2,1.07,3.36,1.07s2.37-.37,3.21-1.11c.84-.76,1.25-1.82,1.25-3.17,0-1.18-.39-2.16-1.18-2.95-.79-.79-1.93-1.18-3.43-1.18-1.38,0-2.47.41-3.28,1.22-.81.81-1.22,1.79-1.22,2.95Z"/>
  </g>
  <g>
    <rect class="cls-4" x="995.37" y="266.38" width="33.75" height="3"/>
    <g>
      <path class="cls-6" d="M944.09,203.75h-8.6v9.89h-4.67v-24.77h14.52v3.79h-9.85v7.31h8.6v3.79Z"/>
      <path class="cls-6" d="M965.96,204.26c0,2.82-.79,5.13-2.37,6.95-1.58,1.81-3.79,2.72-6.63,2.72s-5.02-.88-6.6-2.65c-1.58-1.76-2.37-4.02-2.37-6.76s.82-5.19,2.46-7.04c1.64-1.85,3.81-2.77,6.5-2.77,2.87,0,5.08.9,6.65,2.7,1.57,1.8,2.35,4.08,2.35,6.85ZM952.62,204.37c0,1.72.38,3.15,1.14,4.3.76,1.15,1.84,1.73,3.23,1.73s2.54-.56,3.27-1.69,1.1-2.56,1.1-4.3-.36-3.25-1.07-4.39c-.71-1.14-1.83-1.71-3.34-1.71-1.4,0-2.47.58-3.22,1.73-.75,1.15-1.12,2.6-1.12,4.34Z"/>
      <path class="cls-6" d="M974.16,213.63h-4.45l.04-18.63h4.41v3.31c.86-2.3,2.43-3.46,4.7-3.46.51,0,.93.04,1.25.11v4.26c-.56-.24-1.19-.37-1.87-.37-1.2,0-2.18.49-2.94,1.47-.76.98-1.14,2.21-1.14,3.67v9.63Z"/>
      <path class="cls-6" d="M994.88,208.27c0,1.74-.62,3.1-1.87,4.08-1.25.98-2.92,1.47-5,1.47-2.3,0-4.17-.38-5.59-1.14v-4.04c1.64,1.1,3.42,1.65,5.33,1.65.81,0,1.44-.15,1.89-.46s.68-.73.68-1.27c0-.32-.07-.61-.22-.86-.15-.26-.43-.51-.85-.75-.42-.25-.74-.42-.97-.53-.23-.11-.69-.31-1.38-.61-.07-.02-.13-.05-.17-.07s-.09-.05-.17-.07c-.07-.02-.13-.05-.18-.07-2.72-1.22-4.08-2.99-4.08-5.29,0-1.71.65-3.06,1.95-4.04,1.3-.98,2.93-1.47,4.89-1.47s3.46.27,4.7.81v3.9c-1.23-.74-2.76-1.1-4.59-1.1-.76,0-1.35.17-1.78.5-.43.33-.64.75-.64,1.27,0,.2.03.38.09.55.06.17.17.34.33.5s.31.3.46.42c.15.12.36.25.62.39s.5.25.7.35c.2.1.47.22.81.37.34.15.61.27.81.37,1.3.64,2.33,1.35,3.09,2.13s1.14,1.8,1.14,3.05Z"/>
      <path class="cls-6" d="M1011.9,212.82c-1.3.76-2.92,1.14-4.85,1.14-2.87,0-5.19-.91-6.96-2.72-1.78-1.81-2.67-4.1-2.67-6.87.02-2.72.91-5.01,2.67-6.87,1.75-1.86,4.15-2.79,7.18-2.79,1.81,0,3.36.34,4.63,1.03v3.9c-1.23-.78-2.62-1.18-4.19-1.18-1.72,0-3.1.54-4.15,1.62-1.05,1.08-1.59,2.51-1.62,4.3.05,1.76.58,3.19,1.6,4.26s2.39,1.62,4.13,1.62c1.52,0,2.93-.42,4.23-1.25v3.82Z"/>
      <path class="cls-6" d="M1031.86,213.63h-4.41v-11.43c0-1.18-.3-2.09-.9-2.76-.6-.66-1.38-.99-2.33-.99-1.05,0-2,.4-2.85,1.21-.85.81-1.27,2.13-1.27,3.97v10h-4.41v-25.98h4.41v10.51c1-2.25,2.9-3.38,5.7-3.38,1.81,0,3.28.57,4.39,1.71,1.11,1.14,1.67,2.79,1.67,4.94v12.2Z"/>
      <path class="cls-6" d="M1052.44,213.63h-4.45v-3.05c-.98,2.16-2.89,3.23-5.73,3.23-1.89,0-3.36-.54-4.41-1.62-1.05-1.08-1.58-2.61-1.58-4.59v-12.61h4.41v11.58c0,1.18.29,2.07.86,2.68.58.61,1.37.92,2.37.92,1.27,0,2.27-.43,3-1.29.72-.86,1.08-2.16,1.08-3.9v-10h4.45v18.63Z"/>
      <path class="cls-6" d="M1073.38,213.63h-4.41v-11.47c0-1.22-.29-2.15-.88-2.77s-1.38-.94-2.39-.94c-1.15,0-2.12.45-2.9,1.34-.79.89-1.18,2.17-1.18,3.84v10h-4.41v-18.63h4.41v3.2c1.05-2.28,2.96-3.42,5.73-3.42,1.86,0,3.33.56,4.41,1.69s1.62,2.72,1.62,4.78v12.39Z"/>
      <path class="cls-6" d="M1094.41,211.94c0,2.94-.85,5.15-2.55,6.63-1.7,1.48-3.87,2.22-6.49,2.22-2.45,0-4.59-.44-6.43-1.32v-4.48c1.67,1.18,3.66,1.76,5.99,1.76,3.38,0,5.07-1.62,5.07-4.85v-1.62c-1.13,1.84-2.89,2.76-5.29,2.76-2.08,0-3.87-.77-5.35-2.3s-2.22-3.75-2.22-6.67c0-2.69.7-4.92,2.11-6.67,1.41-1.75,3.26-2.63,5.57-2.63s4.05.97,5.18,2.9v-2.68h4.41v16.94ZM1081.73,204.08c0,1.74.38,3.07,1.14,3.99.76.92,1.73,1.38,2.9,1.38s2.21-.47,3.01-1.42,1.21-2.17,1.21-3.69c0-1.99-.39-3.44-1.18-4.37-.78-.93-1.78-1.4-2.98-1.4-1.27,0-2.28.5-3.01,1.49s-1.1,2.33-1.1,4.02Z"/>
      <path class="cls-6" d="M1010.87,244.03c0,4.36-.88,7.79-2.63,10.27-1.75,2.49-4.37,3.73-7.85,3.73-1.42,0-2.81-.23-4.15-.7v-2.87c1.27.56,2.62.84,4.04.84,4.43,0,6.96-2.78,7.57-8.34-1.23,1.45-3.04,2.17-5.44,2.17-1.96,0-3.65-.72-5.07-2.15-1.42-1.43-2.13-3.33-2.13-5.68s.67-4.17,2.02-5.66c1.35-1.49,3.18-2.24,5.51-2.24,2.69,0,4.72,1,6.08,3.01,1.36,2.01,2.04,4.55,2.04,7.61ZM1003.15,246.56c2.01,0,3.63-.78,4.85-2.35v-.18c0-2.33-.41-4.23-1.23-5.72-.82-1.48-2.14-2.22-3.95-2.22-1.4,0-2.51.46-3.34,1.4-.83.93-1.25,2.21-1.25,3.82s.44,2.99,1.32,3.9c.88.91,2.08,1.36,3.6,1.36Z"/>
      <path class="cls-6" d="M1029.39,244.03c0,4.36-.88,7.79-2.63,10.27-1.75,2.49-4.37,3.73-7.85,3.73-1.42,0-2.81-.23-4.15-.7v-2.87c1.27.56,2.62.84,4.04.84,4.43,0,6.96-2.78,7.57-8.34-1.23,1.45-3.04,2.17-5.44,2.17-1.96,0-3.65-.72-5.07-2.15-1.42-1.43-2.13-3.33-2.13-5.68s.67-4.17,2.02-5.66c1.35-1.49,3.18-2.24,5.51-2.24,2.69,0,4.72,1,6.08,3.01,1.36,2.01,2.04,4.55,2.04,7.61ZM1021.68,246.56c2.01,0,3.63-.78,4.85-2.35v-.18c0-2.33-.41-4.23-1.23-5.72-.82-1.48-2.14-2.22-3.95-2.22-1.4,0-2.51.46-3.34,1.4-.83.93-1.25,2.21-1.25,3.82s.44,2.99,1.32,3.9c.88.91,2.08,1.36,3.6,1.36Z"/>
    </g>
  </g>
  <g>
    <rect class="cls-7" x="975.79" y="122.32" width="47.63" height="3"/>
    <g>
      <path class="cls-6" d="M918.59,69.57h-4.63v-24.77h5.26l5.95,10.33c.98,1.69,1.86,3.26,2.63,4.72.77,1.46,1.29,2.49,1.56,3.11l.4.92c-.2-2.03-.29-4.95-.29-8.75v-10.33h4.67v24.77h-5.29l-6.03-10.29c-.96-1.62-1.82-3.17-2.59-4.65s-1.3-2.55-1.6-3.22l-.44-1.03c.27,2.33.4,5.28.4,8.86v10.33Z"/>
      <path class="cls-6" d="M948.76,67.33c-.86,1.59-2.48,2.39-4.85,2.39-1.76,0-3.17-.51-4.21-1.54-1.04-1.03-1.56-2.33-1.56-3.9,0-1.76.66-3.15,1.99-4.15,1.32-1,3.23-1.51,5.73-1.51h2.72v-1.14c0-1.03-.27-1.81-.81-2.35s-1.46-.81-2.76-.81c-1.98,0-3.81.55-5.48,1.65v-4.08c1.4-.86,3.41-1.29,6.03-1.29,5.05,0,7.57,2.35,7.57,7.06v11.91h-4.37v-2.24ZM945.45,66.45c.98,0,1.75-.29,2.3-.86.55-.58.83-1.33.83-2.26v-1.76h-2.28c-1.15,0-2.03.24-2.65.72-.61.48-.92,1.08-.92,1.82,0,1.57.91,2.35,2.72,2.35Z"/>
      <path class="cls-6" d="M967.28,69.57h-4.78l-6.73-18.63h4.63l2.46,7.9c.49,1.54.91,2.92,1.25,4.13s.56,2.04.66,2.48l.11.66c.25-1.37.94-3.8,2.1-7.28l2.57-7.9h4.56l-6.84,18.63Z"/>
      <path class="cls-6" d="M981.98,45.35c0,.76-.26,1.4-.77,1.91s-1.14.77-1.88.77-1.36-.26-1.87-.77-.77-1.15-.77-1.91.26-1.36.77-1.87,1.14-.77,1.87-.77,1.36.26,1.88.77.77,1.14.77,1.87ZM981.54,69.57h-4.41v-18.63h4.41v18.63Z"/>
      <path class="cls-6" d="M1002.93,67.88c0,2.94-.85,5.15-2.55,6.63-1.7,1.48-3.87,2.22-6.49,2.22-2.45,0-4.59-.44-6.43-1.32v-4.48c1.67,1.18,3.66,1.76,5.99,1.76,3.38,0,5.07-1.62,5.07-4.85v-1.62c-1.13,1.84-2.89,2.76-5.29,2.76-2.08,0-3.87-.77-5.35-2.3s-2.22-3.75-2.22-6.67c0-2.69.7-4.92,2.11-6.67,1.41-1.75,3.26-2.63,5.57-2.63s4.05.97,5.18,2.9v-2.68h4.41v16.94ZM990.25,60.01c0,1.74.38,3.07,1.14,3.99.76.92,1.73,1.38,2.9,1.38s2.21-.47,3.01-1.42,1.21-2.17,1.21-3.69c0-1.99-.39-3.44-1.18-4.37-.78-.93-1.78-1.4-2.98-1.4-1.27,0-2.28.5-3.01,1.49s-1.1,2.33-1.1,4.02Z"/>
      <path class="cls-6" d="M1017.19,67.33c-.86,1.59-2.48,2.39-4.85,2.39-1.76,0-3.17-.51-4.21-1.54-1.04-1.03-1.56-2.33-1.56-3.9,0-1.76.66-3.15,1.99-4.15,1.32-1,3.23-1.51,5.73-1.51h2.72v-1.14c0-1.03-.27-1.81-.81-2.35s-1.46-.81-2.76-.81c-1.98,0-3.81.55-5.48,1.65v-4.08c1.4-.86,3.41-1.29,6.03-1.29,5.05,0,7.57,2.35,7.57,7.06v11.91h-4.37v-2.24ZM1013.88,66.45c.98,0,1.75-.29,2.3-.86.55-.58.83-1.33.83-2.26v-1.76h-2.28c-1.15,0-2.03.24-2.65.72-.61.48-.92,1.08-.92,1.82,0,1.57.91,2.35,2.72,2.35Z"/>
      <path class="cls-6" d="M1036.41,69.13c-.86.42-1.96.62-3.31.62-4.02,0-6.03-2.03-6.03-6.1v-9.41h-2.79v-3.31h2.79v-4.48h4.41v4.48h4.63v3.31h-4.63v9.48c0,.78.21,1.38.62,1.78.42.4.99.61,1.73.61.93,0,1.79-.26,2.57-.77v3.79Z"/>
      <path class="cls-6" d="M1045.09,45.35c0,.76-.26,1.4-.77,1.91s-1.14.77-1.88.77-1.36-.26-1.87-.77-.77-1.15-.77-1.91.26-1.36.77-1.87,1.14-.77,1.87-.77,1.36.26,1.88.77.77,1.14.77,1.87ZM1044.64,69.57h-4.41v-18.63h4.41v18.63Z"/>
      <path class="cls-6" d="M1066.59,60.2c0,2.82-.79,5.13-2.37,6.95-1.58,1.81-3.79,2.72-6.63,2.72s-5.02-.88-6.6-2.65c-1.58-1.76-2.37-4.02-2.37-6.76s.82-5.19,2.46-7.04c1.64-1.85,3.81-2.77,6.5-2.77,2.87,0,5.08.9,6.65,2.7,1.57,1.8,2.35,4.08,2.35,6.85ZM1053.25,60.31c0,1.72.38,3.15,1.14,4.3.76,1.15,1.84,1.73,3.23,1.73s2.54-.56,3.27-1.69,1.1-2.56,1.1-4.3-.36-3.25-1.07-4.39c-.71-1.14-1.83-1.71-3.34-1.71-1.4,0-2.47.58-3.22,1.73-.75,1.15-1.12,2.6-1.12,4.34Z"/>
      <path class="cls-6" d="M1086.54,69.57h-4.41v-11.47c0-1.22-.29-2.15-.88-2.77s-1.38-.94-2.39-.94c-1.15,0-2.12.45-2.9,1.34-.79.89-1.18,2.17-1.18,3.84v10h-4.41v-18.63h4.41v3.2c1.05-2.28,2.96-3.42,5.73-3.42,1.86,0,3.33.56,4.41,1.69s1.62,2.72,1.62,4.78v12.39Z"/>
      <path class="cls-6" d="M984.21,113.67h-2.87v-20.88l-5.55,3.42v-3.12l5.7-3.46h2.72v24.04Z"/>
      <path class="cls-6" d="M1002.4,113.67h-2.87v-5.84h-10.99v-2.54l9.15-15.66h4.71v15.66h3.56v2.54h-3.56v5.84ZM991.48,105.29h8.05v-13.93l-8.05,13.93Z"/>
      <path class="cls-6" d="M1023.42,113.67h-15.18v-2.46c7.59-5.73,11.39-10.51,11.39-14.33,0-1.52-.44-2.69-1.32-3.51-.88-.82-2.07-1.23-3.57-1.23-1.94,0-3.85.72-5.73,2.17v-2.9c1.74-1.35,3.74-2.02,5.99-2.02s3.97.62,5.44,1.87c1.47,1.25,2.21,3.03,2.21,5.33,0,4.34-3.47,9.19-10.4,14.55h11.17v2.54Z"/>
    </g>
  </g>
  <g>
    <rect class="cls-5" x="775.29" y="127.88" width="47.63" height="3"/>
    <g>
      <path class="cls-6" d="M728.94,9.18h-6.29v20.95h-4.67V9.18h-6.29v-3.82h17.24v3.82Z"/>
      <path class="cls-6" d="M746.47,29.09c-1.3.81-3.17,1.21-5.62,1.21-2.96,0-5.31-.88-7.02-2.65-1.71-1.76-2.57-4.04-2.57-6.84,0-2.96.81-5.29,2.43-6.98s3.64-2.54,6.06-2.54,4.35.74,5.77,2.21c1.42,1.47,2.13,3.62,2.13,6.43,0,.69-.09,1.57-.26,2.65h-11.69c.32,1.35.99,2.38,2,3.09,1.02.71,2.28,1.07,3.8,1.07,1.96,0,3.61-.49,4.96-1.47v3.82ZM739.86,14.76c-1.05,0-1.97.39-2.74,1.16s-1.27,1.89-1.49,3.36h7.83v-.55c-.05-1.2-.37-2.16-.97-2.88-.6-.72-1.48-1.08-2.63-1.08Z"/>
      <path class="cls-6" d="M765.18,29.32c-1.3.76-2.92,1.14-4.85,1.14-2.87,0-5.19-.91-6.96-2.72-1.78-1.81-2.67-4.1-2.67-6.87.02-2.72.91-5.01,2.67-6.87,1.75-1.86,4.15-2.79,7.18-2.79,1.81,0,3.36.34,4.63,1.03v3.9c-1.23-.78-2.62-1.18-4.19-1.18-1.72,0-3.1.54-4.15,1.62-1.05,1.08-1.59,2.51-1.62,4.3.05,1.76.58,3.19,1.6,4.26s2.39,1.62,4.13,1.62c1.52,0,2.93-.42,4.23-1.25v3.82Z"/>
      <path class="cls-6" d="M785.14,30.12h-4.41v-11.43c0-1.18-.3-2.09-.9-2.76-.6-.66-1.38-.99-2.33-.99-1.05,0-2,.4-2.85,1.21-.85.81-1.27,2.13-1.27,3.97v10h-4.41V4.14h4.41v10.51c1-2.25,2.9-3.38,5.7-3.38,1.81,0,3.28.57,4.39,1.71,1.11,1.14,1.67,2.79,1.67,4.94v12.2Z"/>
      <path class="cls-6" d="M805.9,30.12h-4.41v-11.47c0-1.22-.29-2.15-.88-2.77s-1.38-.94-2.39-.94c-1.15,0-2.12.45-2.9,1.34-.79.89-1.18,2.17-1.18,3.84v10h-4.41V11.49h4.41v3.2c1.05-2.28,2.96-3.42,5.73-3.42,1.86,0,3.33.56,4.41,1.69s1.62,2.72,1.62,4.78v12.39Z"/>
      <path class="cls-6" d="M827.47,20.75c0,2.82-.79,5.13-2.37,6.95-1.58,1.81-3.79,2.72-6.63,2.72s-5.02-.88-6.6-2.65c-1.58-1.76-2.37-4.02-2.37-6.76s.82-5.19,2.46-7.04c1.64-1.85,3.81-2.77,6.5-2.77,2.87,0,5.08.9,6.65,2.7,1.57,1.8,2.35,4.08,2.35,6.85ZM814.13,20.86c0,1.72.38,3.15,1.14,4.3.76,1.15,1.84,1.73,3.23,1.73s2.54-.56,3.27-1.69,1.1-2.56,1.1-4.3-.36-3.25-1.07-4.39c-.71-1.14-1.83-1.71-3.34-1.71-1.4,0-2.47.58-3.22,1.73-.75,1.15-1.12,2.6-1.12,4.34Z"/>
      <path class="cls-6" d="M835.85,30.12h-4.41V4.14h4.41v25.98Z"/>
      <path class="cls-6" d="M857.79,20.75c0,2.82-.79,5.13-2.37,6.95-1.58,1.81-3.79,2.72-6.63,2.72s-5.02-.88-6.6-2.65c-1.58-1.76-2.37-4.02-2.37-6.76s.82-5.19,2.46-7.04c1.64-1.85,3.81-2.77,6.5-2.77,2.87,0,5.08.9,6.65,2.7,1.57,1.8,2.35,4.08,2.35,6.85ZM844.45,20.86c0,1.72.38,3.15,1.14,4.3.76,1.15,1.84,1.73,3.23,1.73s2.54-.56,3.27-1.69,1.1-2.56,1.1-4.3-.36-3.25-1.07-4.39c-.71-1.14-1.83-1.71-3.34-1.71-1.4,0-2.47.58-3.22,1.73-.75,1.15-1.12,2.6-1.12,4.34Z"/>
      <path class="cls-6" d="M878.01,28.43c0,2.94-.85,5.15-2.55,6.63-1.7,1.48-3.87,2.22-6.49,2.22-2.45,0-4.59-.44-6.43-1.32v-4.48c1.67,1.18,3.66,1.76,5.99,1.76,3.38,0,5.07-1.62,5.07-4.85v-1.62c-1.13,1.84-2.89,2.76-5.29,2.76-2.08,0-3.87-.77-5.35-2.3s-2.22-3.75-2.22-6.67c0-2.69.7-4.92,2.11-6.67,1.41-1.75,3.26-2.63,5.57-2.63s4.05.97,5.18,2.9v-2.68h4.41v16.94ZM865.33,20.57c0,1.74.38,3.07,1.14,3.99.76.92,1.73,1.38,2.9,1.38s2.21-.47,3.01-1.42,1.21-2.17,1.21-3.69c0-1.99-.39-3.44-1.18-4.37-.78-.93-1.78-1.4-2.98-1.4-1.27,0-2.28.5-3.01,1.49s-1.1,2.33-1.1,4.02Z"/>
      <path class="cls-6" d="M886.29,25.55c.55.55.83,1.22.83,2s-.28,1.46-.83,2.02c-.55.56-1.22.85-2,.85s-1.46-.28-2.02-.85c-.56-.56-.84-1.24-.84-2.02s.28-1.45.84-2c.56-.55,1.24-.83,2.02-.83s1.45.28,2,.83Z"/>
      <path class="cls-6" d="M731.24,64.34h-8.6v9.89h-4.67v-24.77h14.52v3.79h-9.85v7.31h8.6v3.79Z"/>
      <path class="cls-6" d="M753.11,64.85c0,2.82-.79,5.13-2.37,6.95-1.58,1.81-3.79,2.72-6.63,2.72s-5.02-.88-6.6-2.65c-1.58-1.76-2.37-4.02-2.37-6.76s.82-5.19,2.46-7.04c1.64-1.85,3.81-2.77,6.5-2.77,2.87,0,5.08.9,6.65,2.7,1.57,1.8,2.35,4.08,2.35,6.85ZM739.77,64.96c0,1.72.38,3.15,1.14,4.3.76,1.15,1.84,1.73,3.23,1.73s2.54-.56,3.27-1.69,1.1-2.56,1.1-4.3-.36-3.25-1.07-4.39c-.71-1.14-1.83-1.71-3.34-1.71-1.4,0-2.47.58-3.22,1.73-.75,1.15-1.12,2.6-1.12,4.34Z"/>
      <path class="cls-6" d="M761.3,74.23h-4.45l.04-18.63h4.41v3.31c.86-2.3,2.43-3.46,4.7-3.46.51,0,.93.04,1.25.11v4.26c-.56-.24-1.19-.37-1.87-.37-1.2,0-2.18.49-2.94,1.47-.76.98-1.14,2.21-1.14,3.67v9.63Z"/>
      <path class="cls-6" d="M782.03,68.86c0,1.74-.62,3.1-1.87,4.08-1.25.98-2.92,1.47-5,1.47-2.3,0-4.17-.38-5.59-1.14v-4.04c1.64,1.1,3.42,1.65,5.33,1.65.81,0,1.44-.15,1.89-.46s.68-.73.68-1.27c0-.32-.07-.61-.22-.86-.15-.26-.43-.51-.85-.75-.42-.25-.74-.42-.97-.53-.23-.11-.69-.31-1.38-.61-.07-.02-.13-.05-.17-.07s-.09-.05-.17-.07c-.07-.02-.13-.05-.18-.07-2.72-1.22-4.08-2.99-4.08-5.29,0-1.71.65-3.06,1.95-4.04,1.3-.98,2.93-1.47,4.89-1.47s3.46.27,4.7.81v3.9c-1.23-.74-2.76-1.1-4.59-1.1-.76,0-1.35.17-1.78.5-.43.33-.64.75-.64,1.27,0,.2.03.38.09.55.06.17.17.34.33.5s.31.3.46.42c.15.12.36.25.62.39s.5.25.7.35c.2.1.47.22.81.37.34.15.61.27.81.37,1.3.64,2.33,1.35,3.09,2.13s1.14,1.8,1.14,3.05Z"/>
      <path class="cls-6" d="M799.05,73.42c-1.3.76-2.92,1.14-4.85,1.14-2.87,0-5.19-.91-6.96-2.72-1.78-1.81-2.67-4.1-2.67-6.87.02-2.72.91-5.01,2.67-6.87,1.75-1.86,4.15-2.79,7.18-2.79,1.81,0,3.36.34,4.63,1.03v3.9c-1.23-.78-2.62-1.18-4.19-1.18-1.72,0-3.1.54-4.15,1.62-1.05,1.08-1.59,2.51-1.62,4.3.05,1.76.58,3.19,1.6,4.26s2.39,1.62,4.13,1.62c1.52,0,2.93-.42,4.23-1.25v3.82Z"/>
      <path class="cls-6" d="M819,74.23h-4.41v-11.43c0-1.18-.3-2.09-.9-2.76-.6-.66-1.38-.99-2.33-.99-1.05,0-2,.4-2.85,1.21-.85.81-1.27,2.13-1.27,3.97v10h-4.41v-25.98h4.41v10.51c1-2.25,2.9-3.38,5.7-3.38,1.81,0,3.28.57,4.39,1.71,1.11,1.14,1.67,2.79,1.67,4.94v12.2Z"/>
      <path class="cls-6" d="M839.58,74.23h-4.45v-3.05c-.98,2.16-2.89,3.23-5.73,3.23-1.89,0-3.36-.54-4.41-1.62-1.05-1.08-1.58-2.61-1.58-4.59v-12.61h4.41v11.58c0,1.18.29,2.07.86,2.68.58.61,1.37.92,2.37.92,1.27,0,2.27-.43,3-1.29.72-.86,1.08-2.16,1.08-3.9v-10h4.45v18.63Z"/>
      <path class="cls-6" d="M860.53,74.23h-4.41v-11.47c0-1.22-.29-2.15-.88-2.77s-1.38-.94-2.39-.94c-1.15,0-2.12.45-2.9,1.34-.79.89-1.18,2.17-1.18,3.84v10h-4.41v-18.63h4.41v3.2c1.05-2.28,2.96-3.42,5.73-3.42,1.86,0,3.33.56,4.41,1.69s1.62,2.72,1.62,4.78v12.39Z"/>
      <path class="cls-6" d="M881.55,72.54c0,2.94-.85,5.15-2.55,6.63-1.7,1.48-3.87,2.22-6.49,2.22-2.45,0-4.59-.44-6.43-1.32v-4.48c1.67,1.18,3.66,1.76,5.99,1.76,3.38,0,5.07-1.62,5.07-4.85v-1.62c-1.13,1.84-2.89,2.76-5.29,2.76-2.08,0-3.87-.77-5.35-2.3s-2.22-3.75-2.22-6.67c0-2.69.7-4.92,2.11-6.67,1.41-1.75,3.26-2.63,5.57-2.63s4.05.97,5.18,2.9v-2.68h4.41v16.94ZM868.87,64.67c0,1.74.38,3.07,1.14,3.99.76.92,1.73,1.38,2.9,1.38s2.21-.47,3.01-1.42,1.21-2.17,1.21-3.69c0-1.99-.39-3.44-1.18-4.37-.78-.93-1.78-1.4-2.98-1.4-1.27,0-2.28.5-3.01,1.49s-1.1,2.33-1.1,4.02Z"/>
      <path class="cls-6" d="M788.89,111.71c0,1.96-.69,3.59-2.06,4.89-1.37,1.3-3.31,1.95-5.81,1.95-2.3,0-4.3-.4-5.99-1.21v-2.9c1.81.96,3.79,1.43,5.92,1.43,1.57,0,2.79-.4,3.66-1.21.87-.81,1.3-1.86,1.3-3.16s-.48-2.3-1.45-3-2.36-1.05-4.17-1.05h-1.54v-2.54h1.54c1.37,0,2.53-.39,3.47-1.16s1.42-1.81,1.42-3.11-.4-2.28-1.21-2.94c-.81-.66-1.92-.99-3.34-.99-1.69,0-3.31.5-4.85,1.51v-2.83c1.42-.91,3.06-1.36,4.92-1.36,2.38,0,4.22.61,5.53,1.82,1.31,1.21,1.97,2.71,1.97,4.5,0,1.3-.33,2.46-.97,3.49-.65,1.03-1.61,1.8-2.89,2.32,1.4.32,2.5.96,3.33,1.93s1.23,2.17,1.23,3.62Z"/>
      <path class="cls-6" d="M796.93,118.33h-3.09l9.96-21.5h-12.61v-2.54h15.69v2.54l-9.96,21.5Z"/>
      <path class="cls-6" d="M823.91,118.33h-15.18v-2.46c7.59-5.73,11.39-10.51,11.39-14.33,0-1.52-.44-2.69-1.32-3.51-.88-.82-2.07-1.23-3.57-1.23-1.94,0-3.85.72-5.73,2.17v-2.9c1.74-1.35,3.74-2.02,5.99-2.02s3.97.62,5.44,1.87c1.47,1.25,2.21,3.03,2.21,5.33,0,4.34-3.47,9.19-10.4,14.55h11.17v2.54Z"/>
    </g>
  </g>
  <g>
    <path class="cls-6" d="M414.84,34.56h-14.77V9.79h14.63v3.79h-9.96v6.73h8.86v3.75h-8.86v6.73h10.11v3.79Z"/>
    <path class="cls-6" d="M423.7,34.56h-4.45l.04-18.63h4.41v3.31c.86-2.3,2.43-3.46,4.7-3.46.51,0,.93.04,1.25.11v4.26c-.56-.24-1.19-.37-1.87-.37-1.2,0-2.18.49-2.94,1.47-.76.98-1.14,2.21-1.14,3.67v9.63Z"/>
    <path class="cls-6" d="M449.32,34.56h-4.41v-2.9c-1.27,2.11-3.16,3.16-5.66,3.16s-4.39-.93-5.83-2.79c-1.43-1.86-2.15-4.12-2.15-6.76,0-2.94.75-5.27,2.26-7,1.51-1.73,3.44-2.59,5.79-2.59s4.29,1.04,5.59,3.12v-10.22h4.41v25.98ZM435.79,25.34c0,1.69.43,3.06,1.29,4.12s1.92,1.58,3.2,1.58,2.43-.51,3.31-1.53c.88-1.02,1.32-2.49,1.32-4.43s-.47-3.3-1.4-4.24c-.93-.94-2-1.42-3.2-1.42-1.27,0-2.35.52-3.22,1.56-.87,1.04-1.3,2.49-1.3,4.36Z"/>
    <path class="cls-6" d="M458.58,34.56h-4.45V8.58h4.45v10.18c1.3-2.06,3.16-3.09,5.59-3.09s4.25.86,5.75,2.59c1.51,1.73,2.26,4.06,2.26,7,0,2.65-.72,4.9-2.15,6.76-1.43,1.86-3.38,2.79-5.83,2.79s-4.33-1.04-5.62-3.12v2.87ZM458.58,25.08c0,1.94.44,3.41,1.32,4.43.88,1.02,1.99,1.53,3.31,1.53s2.34-.53,3.2-1.58c.86-1.05,1.29-2.43,1.29-4.12,0-1.86-.44-3.31-1.3-4.36-.87-1.04-1.94-1.56-3.22-1.56-1.2,0-2.27.47-3.2,1.42-.93.94-1.4,2.36-1.4,4.24Z"/>
    <path class="cls-6" d="M490.18,33.53c-1.3.81-3.17,1.21-5.62,1.21-2.96,0-5.31-.88-7.02-2.65-1.71-1.76-2.57-4.04-2.57-6.84,0-2.96.81-5.29,2.43-6.98s3.64-2.54,6.06-2.54,4.35.74,5.77,2.21c1.42,1.47,2.13,3.62,2.13,6.43,0,.69-.09,1.57-.26,2.65h-11.69c.32,1.35.99,2.38,2,3.09,1.02.71,2.28,1.07,3.8,1.07,1.96,0,3.61-.49,4.96-1.47v3.82ZM483.57,19.2c-1.05,0-1.97.39-2.74,1.16s-1.27,1.89-1.49,3.36h7.83v-.55c-.05-1.2-.37-2.16-.97-2.88-.6-.72-1.48-1.08-2.63-1.08Z"/>
    <path class="cls-6" d="M512.38,25.19c0,2.82-.79,5.13-2.37,6.95-1.58,1.81-3.79,2.72-6.63,2.72s-5.02-.88-6.6-2.65c-1.58-1.76-2.37-4.02-2.37-6.76s.82-5.19,2.46-7.04c1.64-1.85,3.81-2.77,6.5-2.77,2.87,0,5.08.9,6.65,2.7,1.57,1.8,2.35,4.08,2.35,6.85ZM499.04,25.3c0,1.72.38,3.15,1.14,4.3.76,1.15,1.84,1.73,3.23,1.73s2.54-.56,3.27-1.69,1.1-2.56,1.1-4.3-.36-3.25-1.07-4.39c-.71-1.14-1.83-1.71-3.34-1.71-1.4,0-2.47.58-3.22,1.73-.75,1.15-1.12,2.6-1.12,4.34Z"/>
    <path class="cls-6" d="M520.65,34.56h-4.45V8.58h4.45v10.18c1.3-2.06,3.16-3.09,5.59-3.09s4.25.86,5.75,2.59c1.51,1.73,2.26,4.06,2.26,7,0,2.65-.72,4.9-2.15,6.76-1.43,1.86-3.38,2.79-5.83,2.79s-4.33-1.04-5.62-3.12v2.87ZM520.65,25.08c0,1.94.44,3.41,1.32,4.43.88,1.02,1.99,1.53,3.31,1.53s2.34-.53,3.2-1.58c.86-1.05,1.29-2.43,1.29-4.12,0-1.86-.44-3.31-1.3-4.36-.87-1.04-1.94-1.56-3.22-1.56-1.2,0-2.27.47-3.2,1.42-.93.94-1.4,2.36-1.4,4.24Z"/>
    <path class="cls-6" d="M547.74,32.32c-.86,1.59-2.48,2.39-4.85,2.39-1.76,0-3.17-.51-4.21-1.54-1.04-1.03-1.56-2.33-1.56-3.9,0-1.76.66-3.15,1.99-4.15,1.32-1,3.23-1.51,5.73-1.51h2.72v-1.14c0-1.03-.27-1.81-.81-2.35s-1.46-.81-2.76-.81c-1.98,0-3.81.55-5.48,1.65v-4.08c1.4-.86,3.41-1.29,6.03-1.29,5.05,0,7.57,2.35,7.57,7.06v11.91h-4.37v-2.24ZM544.43,31.44c.98,0,1.75-.29,2.3-.86.55-.58.83-1.33.83-2.26v-1.76h-2.28c-1.15,0-2.03.24-2.65.72-.61.48-.92,1.08-.92,1.82,0,1.57.91,2.35,2.72,2.35Z"/>
    <path class="cls-6" d="M570.15,33.75c-1.3.76-2.92,1.14-4.85,1.14-2.87,0-5.19-.91-6.96-2.72-1.78-1.81-2.67-4.1-2.67-6.87.02-2.72.91-5.01,2.67-6.87,1.75-1.86,4.15-2.79,7.18-2.79,1.81,0,3.36.34,4.63,1.03v3.9c-1.23-.78-2.62-1.18-4.19-1.18-1.72,0-3.1.54-4.15,1.62-1.05,1.08-1.59,2.51-1.62,4.3.05,1.76.58,3.19,1.6,4.26s2.39,1.62,4.13,1.62c1.52,0,2.93-.42,4.23-1.25v3.82Z"/>
    <path class="cls-6" d="M590.11,34.56h-4.41v-11.43c0-1.18-.3-2.09-.9-2.76-.6-.66-1.38-.99-2.33-.99-1.05,0-2,.4-2.85,1.21-.85.81-1.27,2.13-1.27,3.97v10h-4.41V8.58h4.41v10.51c1-2.25,2.9-3.38,5.7-3.38,1.81,0,3.28.57,4.39,1.71,1.11,1.14,1.67,2.79,1.67,4.94v12.2Z"/>
    <path class="cls-6" d="M604.99,34.12c-.86.42-1.96.62-3.31.62-4.02,0-6.03-2.03-6.03-6.1v-9.41h-2.79v-3.31h2.79v-4.48h4.41v4.48h4.63v3.31h-4.63v9.48c0,.78.21,1.38.62,1.78.42.4.99.61,1.73.61.93,0,1.79-.26,2.57-.77v3.79Z"/>
    <path class="cls-6" d="M624.62,34.56h-4.45v-3.05c-.98,2.16-2.89,3.23-5.73,3.23-1.89,0-3.36-.54-4.41-1.62-1.05-1.08-1.58-2.61-1.58-4.59v-12.61h4.41v11.58c0,1.18.29,2.07.86,2.68.58.61,1.37.92,2.37.92,1.27,0,2.27-.43,3-1.29.72-.86,1.08-2.16,1.08-3.9v-10h4.45v18.63Z"/>
    <path class="cls-6" d="M645.57,34.56h-4.41v-11.47c0-1.22-.29-2.15-.88-2.77s-1.38-.94-2.39-.94c-1.15,0-2.12.45-2.9,1.34-.79.89-1.18,2.17-1.18,3.84v10h-4.41V15.93h4.41v3.2c1.05-2.28,2.96-3.42,5.73-3.42,1.86,0,3.33.56,4.41,1.69s1.62,2.72,1.62,4.78v12.39Z"/>
    <path class="cls-6" d="M666.59,32.87c0,2.94-.85,5.15-2.55,6.63-1.7,1.48-3.87,2.22-6.49,2.22-2.45,0-4.59-.44-6.43-1.32v-4.48c1.67,1.18,3.66,1.76,5.99,1.76,3.38,0,5.07-1.62,5.07-4.85v-1.62c-1.13,1.84-2.89,2.76-5.29,2.76-2.08,0-3.87-.77-5.35-2.3s-2.22-3.75-2.22-6.67c0-2.69.7-4.92,2.11-6.67,1.41-1.75,3.26-2.63,5.57-2.63s4.05.97,5.18,2.9v-2.68h4.41v16.94ZM653.91,25.01c0,1.74.38,3.07,1.14,3.99.76.92,1.73,1.38,2.9,1.38s2.21-.47,3.01-1.42,1.21-2.17,1.21-3.69c0-1.99-.39-3.44-1.18-4.37-.78-.93-1.78-1.4-2.98-1.4-1.27,0-2.28.5-3.01,1.49s-1.1,2.33-1.1,4.02Z"/>
    <path class="cls-6" d="M510.07,78.66h-2.87v-20.88l-5.55,3.42v-3.12l5.7-3.46h2.72v24.04Z"/>
    <path class="cls-6" d="M529.43,78.66h-15.18v-2.46c7.59-5.73,11.39-10.51,11.39-14.33,0-1.52-.44-2.69-1.32-3.51-.88-.82-2.07-1.23-3.57-1.23-1.94,0-3.85.72-5.73,2.17v-2.9c1.74-1.35,3.74-2.02,5.99-2.02s3.97.62,5.44,1.87c1.47,1.25,2.21,3.03,2.21,5.33,0,4.34-3.47,9.19-10.4,14.55h11.17v2.54Z"/>
    <path class="cls-6" d="M546.27,72.05c0,1.96-.69,3.59-2.06,4.89-1.37,1.3-3.31,1.95-5.81,1.95-2.3,0-4.3-.4-5.99-1.21v-2.9c1.81.96,3.79,1.43,5.92,1.43,1.57,0,2.79-.4,3.66-1.21.87-.81,1.3-1.86,1.3-3.16s-.48-2.3-1.45-3-2.36-1.05-4.17-1.05h-1.54v-2.54h1.54c1.37,0,2.53-.39,3.47-1.16s1.42-1.81,1.42-3.11-.4-2.28-1.21-2.94c-.81-.66-1.92-.99-3.34-.99-1.69,0-3.31.5-4.85,1.51v-2.83c1.42-.91,3.06-1.36,4.92-1.36,2.38,0,4.22.61,5.53,1.82,1.31,1.21,1.97,2.71,1.97,4.5,0,1.3-.33,2.46-.97,3.49-.65,1.03-1.61,1.8-2.89,2.32,1.4.32,2.5.96,3.33,1.93s1.23,2.17,1.23,3.62Z"/>
    <path class="cls-6" d="M563.39,72.05c0,1.96-.69,3.59-2.06,4.89-1.37,1.3-3.31,1.95-5.81,1.95-2.3,0-4.3-.4-5.99-1.21v-2.9c1.81.96,3.79,1.43,5.92,1.43,1.57,0,2.79-.4,3.66-1.21.87-.81,1.3-1.86,1.3-3.16s-.48-2.3-1.45-3-2.36-1.05-4.17-1.05h-1.54v-2.54h1.54c1.37,0,2.53-.39,3.47-1.16s1.42-1.81,1.42-3.11-.4-2.28-1.21-2.94c-.81-.66-1.92-.99-3.34-.99-1.69,0-3.31.5-4.85,1.51v-2.83c1.42-.91,3.06-1.36,4.92-1.36,2.38,0,4.22.61,5.53,1.82,1.31,1.21,1.97,2.71,1.97,4.5,0,1.3-.33,2.46-.97,3.49-.65,1.03-1.61,1.8-2.89,2.32,1.4.32,2.5.96,3.33,1.93s1.23,2.17,1.23,3.62Z"/>
  </g>
</svg>