<?xml version="1.0" encoding="UTF-8"?>
<svg id="Ebene_2" data-name="Ebene 2" xmlns="http://www.w3.org/2000/svg" xmlns:xlink="http://www.w3.org/1999/xlink" viewBox="0 0 1100 1100">
  <defs>
    <style>
      .cls-1 {
        fill: none;
      }

      .cls-2 {
        fill: #0097b2;
      }

      .cls-3 {
        fill: #0cc0df;
        stroke: #0cc0df;
        stroke-miterlimit: 10;
      }

      .cls-4 {
        fill: #004aad;
      }

      .cls-5 {
        fill: #a6a6a6;
      }

      .cls-6 {
        fill: #fff;
      }

      .cls-7 {
        fill: #5271ff;
      }

      .cls-8 {
        fill: #5ce1e6;
      }

      .cls-9 {
        fill: #38b6ff;
      }

      .cls-10 {
        clip-path: url(#clippath);
      }
    </style>
    <clipPath id="clippath">
      <rect class="cls-1" x="133.42" y="94.85" width="872" height="910.3"/>
    </clipPath>
  </defs>
  <g>
    <g class="cls-10">
      <path class="cls-4" d="M549.42,95.05c6.8,0,13.6.2,20.3.5,6.8.3,13.5.8,20.3,1.4s13.5,1.4,20.2,2.3,13.4,2,20.1,3.2,13.3,2.6,19.9,4.1c6.6,1.5,13.2,3.2,19.7,5s13,3.7,19.5,5.8c6.5,2.1,12.9,4.3,19.2,6.7,6.4,2.4,12.6,4.9,18.9,7.5s12.4,5.4,18.5,8.4c6.1,2.9,12.2,6,18.1,9.2,6,3.2,11.9,6.5,17.7,10s11.6,7.1,17.2,10.8,11.3,7.6,16.7,11.5c5.5,4,10.9,8.1,16.2,12.3s10.5,8.5,15.6,13c5.1,4.4,10.1,9,15,13.7s9.7,9.5,14.4,14.3c4.7,4.9,9.3,9.9,13.8,15s8.8,10.3,13.1,15.6c4.3,5.3,8.4,10.7,12.4,16.1,4,5.5,7.9,11,11.6,16.7s7.4,11.4,10.9,17.2,6.9,11.7,10.1,17.6c3.2,6,6.3,12,9.3,18.1s5.8,12.3,8.5,18.5,5.2,12.5,7.7,18.8c2.4,6.3,4.7,12.7,6.8,19.2,2.1,6.4,4.1,12.9,5.9,19.4,1.8,6.5,3.5,13.1,5.1,19.7,1.5,6.6,2.9,13.2,4.2,19.9,1.2,6.7,2.3,13.4,3.3,20.1s1.7,13.4,2.4,20.2c.6,6.8,1.1,13.5,1.5,20.3.3,6.8.5,13.5.6,20.3,0,6.8,0,13.6-.3,20.3s-.7,13.5-1.2,20.3c-.6,6.8-1.3,13.5-2.2,20.2s-1.9,13.4-3.1,20.1c-1.2,6.7-2.5,13.3-4,19.9-1.5,6.6-3.1,13.2-4.8,19.8s-3.7,13.1-5.7,19.5-4.2,12.9-6.6,19.2-4.8,12.7-7.4,18.9c-2.6,6.3-5.4,12.4-8.3,18.6-2.9,6.1-5.9,12.2-9.1,18.2-3.2,6-6.5,11.9-9.9,17.8-3.4,5.8-7,11.6-10.7,17.3s-7.5,11.3-11.4,16.8-8,10.9-12.2,16.3c-4.2,5.3-8.5,10.6-12.9,15.7-4.4,5.1-8.9,10.2-13.6,15.1-4.6,4.9-9.4,9.8-14.3,14.5-4.9,4.7-9.8,9.3-14.9,13.8-5.1,4.5-10.2,8.9-15.5,13.2s-10.6,8.4-16.1,12.5c-5.4,4-11,7.9-16.6,11.7s-11.3,7.4-17.1,11c-5.8,3.5-11.7,6.9-17.6,10.2-5.9,3.3-11.9,6.4-18,9.4s-12.2,5.9-18.4,8.6c-6.2,2.7-12.5,5.3-18.8,7.8-6.3,2.4-12.7,4.8-19.1,6.9s-12.9,4.2-19.4,6-13.1,3.6-19.7,5.2-13.2,3-19.9,4.3-13.3,2.4-20.1,3.4c-6.7,1-13.4,1.8-20.2,2.5-6.7.7-13.5,1.2-20.3,1.6s-13.5.6-20.3.7c-6.8,0-13.6,0-20.3-.2-6.8-.2-13.5-.6-20.3-1.1s-13.5-1.2-20.2-2-13.4-1.8-20.1-2.9c-6.7-1.1-13.3-2.4-20-3.8-6.6-1.4-13.2-3-19.8-4.7s-13.1-3.6-19.5-5.6-12.9-4.2-19.3-6.5-12.7-4.7-19-7.3-12.5-5.3-18.6-8.2-12.2-5.9-18.2-9c-6-3.1-12-6.4-17.8-9.8-5.9-3.4-11.7-6.9-17.4-10.6-5.7-3.7-11.3-7.4-16.9-11.4-5.5-3.9-11-7.9-16.3-12.1-5.4-4.2-10.6-8.4-15.8-12.8s-10.2-8.9-15.2-13.5-9.8-9.3-14.6-14.2-9.4-9.8-13.9-14.8-9-10.2-13.3-15.4-8.5-10.6-12.6-16-8-10.9-11.8-16.5-7.5-11.3-11.1-17.1-7-11.6-10.3-17.5-6.5-11.9-9.5-18-5.9-12.2-8.7-18.4l207.7-92.6c1.4,3.1,2.8,6.2,4.3,9.2,1.5,3,3.1,6,4.8,9,1.7,3,3.4,5.9,5.2,8.8s3.6,5.7,5.5,8.5,3.9,5.6,5.9,8.3,4.1,5.4,6.3,8c2.2,2.6,4.4,5.2,6.6,7.7s4.6,5,7,7.4,4.8,4.8,7.3,7.1,5,4.6,7.6,6.8,5.2,4.3,7.9,6.4c2.7,2.1,5.4,4.1,8.2,6,2.8,2,5.6,3.8,8.4,5.7,2.9,1.8,5.8,3.6,8.7,5.3s5.9,3.3,8.9,4.9c3,1.6,6,3.1,9.1,4.5s6.2,2.8,9.3,4.1,6.3,2.5,9.5,3.7,6.4,2.2,9.6,3.2,6.5,1.9,9.8,2.8c3.3.9,6.6,1.7,9.9,2.4s6.6,1.4,10,1.9c3.3.6,6.7,1.1,10.1,1.5s6.7.8,10.1,1,6.8.5,10.2.6,6.8.2,10.2.1c3.4,0,6.8-.2,10.2-.3,3.4-.2,6.8-.5,10.1-.8,3.4-.3,6.7-.8,10.1-1.3,3.4-.5,6.7-1.1,10-1.7,3.3-.6,6.6-1.4,9.9-2.1,3.3-.8,6.6-1.7,9.8-2.6,3.3-.9,6.5-1.9,9.7-3s6.4-2.2,9.6-3.5c3.2-1.2,6.3-2.5,9.4-3.9s6.2-2.8,9.2-4.3,6-3.1,9-4.7,5.9-3.3,8.8-5.1c2.9-1.8,5.7-3.6,8.6-5.5,2.8-1.9,5.6-3.8,8.3-5.9,2.7-2,5.4-4.1,8-6.2s5.2-4.3,7.8-6.6c2.5-2.3,5-4.6,7.4-6.9,2.4-2.4,4.8-4.8,7.1-7.3s4.6-5,6.8-7.6,4.4-5.2,6.5-7.9,4.1-5.4,6.1-8.1c2-2.8,3.9-5.6,5.7-8.4,1.8-2.8,3.6-5.7,5.3-8.7,1.7-2.9,3.4-5.9,5-8.9s3.1-6,4.6-9.1c1.4-3.1,2.8-6.2,4.1-9.3s2.6-6.3,3.7-9.5c1.2-3.2,2.3-6.4,3.3-9.6,1-3.2,2-6.5,2.9-9.8s1.7-6.6,2.4-9.9c.7-3.3,1.4-6.6,2-10,.6-3.3,1.1-6.7,1.5-10.1.4-3.4.8-6.7,1.1-10.1.3-3.4.5-6.8.6-10.2s.2-6.8.2-10.2-.1-6.8-.3-10.2-.4-6.8-.7-10.1c-.3-3.4-.7-6.7-1.2-10.1s-1-6.7-1.6-10-1.3-6.6-2.1-9.9-1.6-6.6-2.5-9.8c-.9-3.3-1.9-6.5-3-9.7s-2.2-6.4-3.4-9.6-2.5-6.3-3.8-9.4-2.8-6.2-4.2-9.2c-1.5-3-3-6.1-4.7-9s-3.3-5.9-5.1-8.8-3.6-5.8-5.4-8.6c-1.9-2.8-3.8-5.6-5.8-8.3-2-2.7-4.1-5.4-6.2-8.1-2.1-2.6-4.3-5.2-6.5-7.8-2.2-2.5-4.5-5-6.9-7.5-2.3-2.4-4.8-4.8-7.2-7.2-2.5-2.3-5-4.6-7.5-6.8-2.6-2.2-5.2-4.4-7.8-6.5-2.7-2.1-5.4-4.2-8.1-6.1-2.8-2-5.5-3.9-8.4-5.8-2.8-1.9-5.7-3.7-8.6-5.4-2.9-1.7-5.9-3.4-8.8-5-3-1.6-6-3.1-9.1-4.6s-6.1-2.9-9.3-4.2-6.3-2.6-9.4-3.8-6.4-2.3-9.6-3.3c-3.2-1-6.5-2-9.7-2.9s-6.6-1.7-9.9-2.5c-3.3-.8-6.6-1.4-10-2-3.3-.6-6.7-1.1-10-1.6s-6.7-.8-10.1-1.1c-3.4-.3-6.8-.5-10.1-.7-3.4-.2-6.8-.2-10.2-.2V95.05h-.2Z"/>
    </g>
    <path class="cls-7" d="M134.02,735.05c-8.3-18.7-15.4-37.9-21.2-57.6s-10.2-39.7-13.2-60c-3.1-20.3-4.7-40.7-5-61.2s.8-40.9,3.3-61.3l225.7,27.4c-1.2,10.2-1.8,20.4-1.6,30.7s1,20.5,2.5,30.6,3.7,20.1,6.6,30c2.9,9.8,6.4,19.4,10.6,28.8l-207.7,92.6h0Z"/>
    <path class="cls-9" d="M97.92,494.95c2.3-19.3,5.9-38.4,10.7-57.3,4.8-18.9,10.8-37.3,18-55.4s15.5-35.7,24.9-52.7,19.9-33.4,31.4-49.1l183.2,134.7c-5.8,7.8-11,16-15.7,24.5s-8.9,17.3-12.5,26.3-6.6,18.3-9,27.7-4.2,19-5.4,28.6l-225.7-27.4.1.1Z"/>
    <path class="cls-8" d="M183.02,280.45c13.5-18.4,28.4-35.7,44.5-51.9l161,160.6c-8.1,8.1-15.5,16.7-22.3,25.9l-183.2-134.7v.1Z"/>
    <path class="cls-5" d="M269.92,191.05c9.9-7.7,20.1-15,30.6-21.9s21.3-13.3,32.3-19.3,22.3-11.5,33.8-16.5,23.2-9.6,35-13.7c11.9-4.1,23.9-7.7,36-10.7,12.2-3.1,24.4-5.7,36.8-7.7s24.8-3.6,37.3-4.7c12.5-1,25-1.6,37.6-1.6v227.4c-6.3,0-12.5.3-18.8.8s-12.5,1.3-18.7,2.3-12.3,2.3-18.4,3.9c-6.1,1.5-12.1,3.3-18,5.4-5.9,2-11.8,4.3-17.5,6.8s-11.4,5.3-16.9,8.3-10.9,6.2-16.2,9.6-10.3,7.1-15.3,10.9l-139.7-179.4.1.1Z"/>
    <path class="cls-2" d="M251.52,206.15c6-5.2,12.1-10.2,18.4-15.1l139.7,179.4c-3.1,2.4-6.2,5-9.2,7.6l-148.9-171.8v-.1Z"/>
    <path class="cls-3" d="M227.52,228.55c7.7-7.8,15.8-15.2,24.1-22.4l148.9,171.8c-4.1,3.6-8.2,7.3-12,11.2l-161-160.6h0Z"/>
  </g>
  <g>
    <path class="cls-6" d="M952.78,869.4c0,3.2-.8,5.7-2.5,7.4s-4,2.5-7,2.5-5.2-.8-6.9-2.5c-1.7-1.6-2.5-4-2.5-7.1v-15.7h3.8v15.7c0,2.1.5,3.7,1.5,4.6,1,1,2.4,1.5,4.1,1.5,3.8,0,5.7-2.1,5.7-6.3v-15.5h3.8v15.4h0Z"/>
    <path class="cls-6" d="M972.88,872.1c0,2.2-.8,3.9-2.3,5.2s-3.6,1.9-6,1.9-5-.5-6.8-1.6v-4c1.9,1.5,4.2,2.2,6.8,2.2s2.4-.3,3.2-.9c.8-.6,1.2-1.5,1.2-2.6s-.2-1.3-.7-1.8c-.5-.6-1-1-1.5-1.3s-1.4-.7-2.4-1.2c-.6-.3-1.1-.5-1.4-.6-.3-.1-.7-.3-1.3-.7-.6-.3-1-.6-1.3-.8s-.6-.5-1.1-.9c-.4-.4-.7-.8-.9-1.2s-.4-.9-.5-1.4c-.2-.5-.2-1.1-.2-1.7,0-2.1.8-3.8,2.3-5s3.5-1.8,6-1.8,4.2.4,5.7,1.2v3.8c-1.7-1-3.5-1.6-5.6-1.6s-2.4.3-3.2.9c-.8.6-1.2,1.4-1.2,2.4s.4,1.8,1.1,2.4c.8.6,1.9,1.2,3.5,1.9,1,.4,1.8.8,2.4,1.1.6.3,1.2.8,2,1.4.8.6,1.3,1.3,1.7,2.1s.5,1.7.5,2.8v-.2Z"/>
    <path class="cls-6" d="M979.88,878.9h-4l8.6-24.9h5l8.5,24.9h-4.1l-2-6.1h-10.1l-2,6.1h.1ZM983.28,868.4l-.4,1.3h8l-.4-1.3c-.9-2.9-1.7-5.3-2.3-7.2s-1-3.1-1.1-3.6l-.2-.7c-.3,1.2-1.5,5-3.6,11.5Z"/>
    <path class="cls-6" d="M947.28,915.8c0,2.4-.8,4.3-2.3,5.7-1.6,1.4-3.7,2.1-6.4,2.1s-4.5-.4-6.2-1.3v-2.9c1.6.9,3.5,1.4,5.7,1.4,4.1,0,6.2-1.7,6.2-5.2s-.5-2.5-1.4-3.3c-1-.8-2.2-1.2-3.7-1.2s-3.7.4-5.6,1.3v-13.4h12.1v2.6h-9.2v7.3c1.1-.2,2.1-.4,2.9-.4,2.5,0,4.4.7,5.9,2,1.4,1.3,2.2,3.1,2.2,5.3h-.2Z"/>
    <path class="cls-6" d="M958.08,923.3h-2.9v-21l-5.6,3.4v-3.1l5.7-3.5h2.7v24.2h.1Z"/>
    <path class="cls-6" d="M978.98,915.4c0,2.5-.7,4.5-2.1,6s-3.2,2.3-5.5,2.3-4.9-1-6.4-3.1-2.2-4.8-2.2-8.2,1-7.4,3-10,4.7-4,8.1-4,2.2.2,3.4.6v2.8c-1.1-.5-2.2-.7-3.4-.7-2.3,0-4.2.9-5.5,2.6-1.4,1.7-2.2,3.9-2.6,6.6,1.6-1.7,3.6-2.6,6-2.6s4,.7,5.2,2.1,1.9,3.3,1.9,5.6h.1ZM971.38,921c1.4,0,2.5-.5,3.3-1.6.8-1,1.2-2.4,1.2-4.1s-.4-2.8-1.2-3.7-1.9-1.4-3.2-1.4c-2.2,0-4.1.9-5.8,2.7,0,2.6.7,4.6,1.7,5.9,1,1.3,2.4,2,4,2v.2Z"/>
    <path class="cls-6" d="M995.88,923.3h-2.9v-5.9h-11.1v-2.6l9.2-15.8h4.7v15.8h3.6v2.6h-3.6v5.9h.1ZM984.88,914.9h8.1v-14l-8.1,14Z"/>
  </g>
  <g>
    <path class="cls-6" d="M479.9,528.9c-3.9,2.8-8.7,4.2-14.5,4.2s-12.7-2.1-17-6.2-6.4-9.7-6.4-16.9,2.2-12.5,6.5-16.8,9.8-6.4,16.5-6.4,9.5,1,13.1,3v7.1c-3.8-2.4-8.1-3.6-12.8-3.6s-8.7,1.5-11.6,4.6c-3,3.1-4.4,7.1-4.4,12.1s1.5,9.2,4.4,12.2,6.9,4.5,12,4.5,5.2-.5,7.6-1.5v-12.4h-9.1v-5.9h15.9v21.5h0v.5h-.2Z"/>
    <path class="cls-6" d="M514.1,530.8c-2.5,1.4-5.8,2.1-9.9,2.1s-9.4-1.6-12.5-4.7c-3.1-3.2-4.7-7.3-4.7-12.4s1.4-9.7,4.3-12.8c2.8-3.1,6.5-4.6,10.9-4.6s7.7,1.3,10.3,4c2.5,2.7,3.8,6.6,3.8,11.6s-.1,2.8-.4,4.3h-22.2c.4,2.9,1.7,5.2,3.7,6.7,2,1.6,4.6,2.3,7.7,2.3s6.6-.8,9-2.5v6ZM502.3,503.8c-2.2,0-4.1.8-5.7,2.4s-2.6,4-3,7h16.3v-1.2c0-2.5-.8-4.5-2.1-6-1.3-1.5-3.1-2.2-5.5-2.2h0Z"/>
    <path class="cls-6" d="M545,523.2c0,3-1.1,5.4-3.2,7.1-2.1,1.7-5,2.6-8.7,2.6s-7.3-.7-10-2v-6.2c3.1,1.9,6.3,2.9,9.7,2.9s3.1-.4,4-1.1c1-.7,1.4-1.6,1.4-2.8s-.4-1.9-1.1-2.6c-.8-.8-1.5-1.4-2.3-1.7-.8-.4-2.1-1-4-1.8-5.3-2.2-7.9-5.4-7.9-9.6s1.1-5.3,3.3-7,5-2.5,8.3-2.5,6.5.5,8.5,1.5v5.9c-2.2-1.3-5-1.9-8.4-1.9s-2.8.4-3.7,1.1-1.4,1.6-1.4,2.8,0,.6.1.9c0,.3.2.6.4.9s.3.5.5.7.4.4.8.6c.4.2.6.4.8.6s.5.3,1,.6c.5.2.8.4,1,.5s.6.3,1.2.5c.6.2.9.4,1.2.5,2.6,1.2,4.7,2.5,6.2,3.9s2.2,3.4,2.2,5.8l.1-.2Z"/>
    <path class="cls-6" d="M569.8,528.6c-1.7,2.8-4.8,4.3-9.1,4.3s-5.8-.9-7.7-2.8c-1.9-1.8-2.9-4.2-2.9-7s1.2-5.8,3.7-7.6c2.4-1.8,5.9-2.7,10.3-2.7h5.6v-1.9c0-2.3-.6-4.1-1.7-5.2-1.1-1.2-3-1.8-5.5-1.8s-6.9,1-9.8,3v-6.3c2.6-1.5,6.1-2.3,10.4-2.3,8.8,0,13.3,4.3,13.3,12.9v21.4h-6.5v-4h-.1ZM562.7,527.7c2.1,0,3.8-.6,5-1.8,1.2-1.2,1.8-2.7,1.8-4.6v-3.8h-5.1c-2.5,0-4.4.5-5.6,1.5-1.3,1-1.9,2.2-1.9,3.7s.5,2.8,1.5,3.7c1,.9,2.4,1.3,4.3,1.3h0Z"/>
    <path class="cls-6" d="M631.4,532.6h-6.5v-21.3c0-4.8-2-7.3-5.9-7.3s-3.7.9-5.2,2.6-2.3,4.3-2.3,7.7v18.3h-6.5v-21.3c0-4.8-2-7.3-5.9-7.3s-3.6.9-5.2,2.6c-1.6,1.7-2.3,4.3-2.3,7.7v18.3h-6.5v-33.8h6.5v5.4c1.9-3.9,5.1-5.9,9.5-5.9s8.3,2.2,9.7,6.5c.9-2.1,2.3-3.7,4.1-4.8,1.8-1.1,3.8-1.7,6-1.7,3.5,0,6.1,1,7.9,3.1,1.8,2,2.7,4.9,2.7,8.5v22.7h-.1Z"/>
    <path class="cls-6" d="M658,531.7c-1.5.8-3.3,1.2-5.4,1.2-7,0-10.5-3.5-10.5-10.6v-18.5h-5.3v-5.1h5.3v-8.3h6.6v8.3h8.9v5.1h-8.9v18.6c0,3.2,1.6,4.9,4.7,4.9s3.4-.5,4.6-1.5v5.9h0Z"/>
    <path class="cls-6" d="M517.5,598.9c0,4.3-1.4,7.7-4.2,10.3-2.8,2.6-6.7,3.8-11.6,3.8s-8.1-.8-11.2-2.3v-5.2c2.8,1.7,6.3,2.5,10.3,2.5,7.5,0,11.2-3.1,11.2-9.4s-.9-4.5-2.6-5.9-4-2.1-6.7-2.1-6.6.8-10.1,2.3v-24.1h21.8v4.6h-16.7v13.1c2-.4,3.7-.7,5.2-.7,4.4,0,8,1.2,10.6,3.5,2.6,2.4,3.9,5.5,3.9,9.5l.1.1Z"/>
    <path class="cls-6" d="M536.9,612.5h-5.2v-37.8l-10.1,6.2v-5.7l10.3-6.3h4.9v43.6h.1Z"/>
    <path class="cls-6" d="M574.6,598.3c0,4.4-1.3,8-3.8,10.8s-5.8,4.1-10,4.1-8.8-1.9-11.5-5.7-4-8.7-4-14.8,1.8-13.2,5.3-18c3.6-4.8,8.4-7.1,14.7-7.1s4,.3,6.1,1v5.1c-1.9-.8-3.9-1.3-6.1-1.3-4.2,0-7.5,1.6-10,4.7s-4,7.1-4.6,11.8c2.9-3.1,6.5-4.6,10.9-4.6s7.1,1.3,9.4,3.8c2.3,2.5,3.4,5.9,3.4,10.1l.2.1ZM560.9,608.4c2.5,0,4.5-.9,6-2.8,1.5-1.9,2.2-4.3,2.2-7.3s-.7-5-2.2-6.6-3.4-2.5-5.8-2.5c-4,0-7.5,1.6-10.4,4.9.2,4.7,1.2,8.3,3.1,10.7,1.9,2.4,4.2,3.6,7.1,3.6h0Z"/>
    <path class="cls-6" d="M604.9,612.5h-5.2v-10.6h-19.9v-4.6l16.6-28.4h8.5v28.4h6.5v4.6h-6.5v10.6h0ZM585.1,597.3h14.6v-25.2l-14.6,25.2Z"/>
  </g>
  <g>
    <path class="cls-6" d="M41.78,605.9c0,3.2-.8,5.7-2.5,7.4s-4,2.5-7,2.5-5.2-.8-6.9-2.5c-1.7-1.6-2.5-4-2.5-7.1v-15.7h3.8v15.7c0,2.1.5,3.7,1.5,4.6,1,1,2.4,1.5,4.1,1.5,3.8,0,5.7-2.1,5.7-6.3v-15.5h3.8v15.4h0Z"/>
    <path class="cls-6" d="M50.98,615.5h-3.8v-24.9h3.8v24.9ZM65.68,615.5h-4.8l-9.4-12.3,9.1-12.6h4.6l-9.1,12.6,9.7,12.4-.1-.1Z"/>
    <path class="cls-6" d="M32.38,652c0,2.5-.7,4.5-2.1,6s-3.2,2.3-5.5,2.3-4.9-1-6.4-3.1-2.2-4.8-2.2-8.2,1-7.4,3-10,4.7-4,8.1-4,2.2.2,3.4.6v2.8c-1.1-.5-2.2-.7-3.4-.7-2.3,0-4.2.9-5.5,2.6-1.4,1.7-2.2,3.9-2.6,6.6,1.6-1.7,3.6-2.6,6-2.6s4,.7,5.2,2.1,1.9,3.3,1.9,5.6h.1ZM24.78,657.6c1.4,0,2.5-.5,3.3-1.6.8-1,1.2-2.4,1.2-4.1s-.4-2.8-1.2-3.7c-.8-.9-1.9-1.4-3.2-1.4-2.2,0-4.1.9-5.8,2.7,0,2.6.7,4.6,1.7,5.9,1,1.3,2.4,2,4,2v.2Z"/>
    <path class="cls-6" d="M50.88,652.3c0,2.4-.8,4.3-2.3,5.7-1.6,1.4-3.7,2.1-6.4,2.1s-4.5-.4-6.2-1.3v-2.9c1.6.9,3.5,1.4,5.7,1.4,4.1,0,6.2-1.7,6.2-5.2s-.5-2.5-1.4-3.3c-1-.8-2.2-1.2-3.7-1.2s-3.7.4-5.6,1.3v-13.4h12.1v2.6h-9.2v7.3c1.1-.2,2.1-.4,2.9-.4,2.5,0,4.4.7,5.9,2,1.4,1.3,2.2,3.1,2.2,5.3h-.2Z"/>
    <path class="cls-6" d="M71.08,647.7c0,3.8-.7,6.8-2.2,9.1s-3.6,3.4-6.3,3.4-4.6-1.1-6.1-3.4c-1.5-2.3-2.3-5.3-2.3-9.1s.8-6.8,2.3-9,3.6-3.3,6.1-3.3,4.7,1.1,6.2,3.3,2.3,5.2,2.3,9ZM58.78,640.6c-1.1,1.7-1.6,4-1.6,7s.5,5.4,1.6,7.1c1,1.7,2.3,2.6,3.8,2.6s3.1-.8,4.1-2.5,1.5-4.1,1.5-7.2-.5-5.4-1.6-7.1c-1-1.6-2.4-2.5-4-2.5s-2.8.8-3.8,2.5v.1Z"/>
  </g>
  <g>
    <path class="cls-6" d="M30.98,368.2c-1.5,1-3.7,1.5-6.4,1.5s-6.8-1.2-9.1-3.5-3.6-5.4-3.6-9.3,1.2-6.8,3.6-9.2c2.4-2.4,5.4-3.6,9-3.6s4.8.5,6.4,1.4v3.7c-1.1-.6-2.1-1-2.9-1.2-.9-.2-2-.4-3.3-.4-2.5,0-4.6.8-6.2,2.5-1.7,1.7-2.5,3.9-2.5,6.7s.8,5.1,2.5,6.8c1.7,1.7,3.8,2.5,6.5,2.5s4.4-.6,6-1.9v4Z"/>
    <path class="cls-6" d="M50.58,369.5h-3.6v-11.8c0-1.3-.3-2.3-1-3s-1.5-1.1-2.6-1.1-2.3.5-3.3,1.4-1.4,2.4-1.4,4.3v10.2h-3.6v-26.2h3.6v10.6c1.1-2.3,3-3.5,5.8-3.5s3.3.6,4.4,1.7c1.1,1.1,1.7,2.7,1.7,4.7v12.7Z"/>
    <path class="cls-6" d="M59.78,345c0,.6-.2,1.1-.7,1.6-.4.4-1,.7-1.6.7s-1.2-.2-1.6-.6c-.4-.4-.6-1-.6-1.6s.2-1.2.6-1.6,1-.7,1.6-.7,1.2.2,1.6.7c.4.4.7,1,.7,1.6v-.1ZM59.28,369.5h-3.7v-18.8h3.7v18.8Z"/>
    <path class="cls-6" d="M80.08,369.5h-3.6v-11.8c0-1.3-.3-2.3-1-3s-1.5-1-2.6-1-2.4.5-3.3,1.5-1.4,2.4-1.4,4.2v10.2h-3.6v-18.8h3.6v3.2c1.1-2.3,3.1-3.5,5.8-3.5s3.3.6,4.4,1.7,1.6,2.7,1.6,4.6v12.7h.1Z"/>
    <path class="cls-6" d="M94.98,367.2c-1,1.6-2.7,2.4-5.1,2.4s-3.2-.5-4.3-1.5c-1.1-1-1.6-2.3-1.6-3.9s.7-3.2,2-4.2,3.3-1.5,5.7-1.5h3.1v-1.1c0-1.3-.3-2.3-.9-2.9-.6-.7-1.6-1-3.1-1s-3.8.6-5.4,1.7v-3.5c1.5-.8,3.4-1.3,5.8-1.3,4.9,0,7.4,2.4,7.4,7.1v11.9h-3.6v-2.2ZM91.08,366.8c1.2,0,2.1-.3,2.8-1,.7-.7,1-1.5,1-2.6v-2.1h-2.8c-1.4,0-2.4.3-3.1.8s-1.1,1.2-1.1,2.1.3,1.5.8,2,1.3.7,2.4.7v.1Z"/>
    <path class="cls-6" d="M49.58,406c0,2.5-.7,4.5-2.1,6s-3.2,2.3-5.5,2.3-4.9-1-6.4-3.1-2.2-4.8-2.2-8.2,1-7.4,3-10,4.7-4,8.1-4,2.2.2,3.4.6v2.8c-1.1-.5-2.2-.7-3.4-.7-2.3,0-4.2.9-5.5,2.6-1.4,1.7-2.2,3.9-2.6,6.6,1.6-1.7,3.6-2.6,6-2.6s4,.7,5.2,2.1,1.9,3.3,1.9,5.6h.1ZM41.98,411.6c1.4,0,2.5-.5,3.3-1.6.8-1,1.2-2.4,1.2-4.1s-.4-2.8-1.2-3.7c-.8-.9-1.9-1.4-3.2-1.4-2.2,0-4.1.9-5.8,2.7,0,2.6.7,4.6,1.7,5.9s2.4,2,4,2v.2Z"/>
    <path class="cls-6" d="M60.08,413.9h-2.9v-21l-5.6,3.4v-3.1l5.7-3.5h2.7v24.2h.1Z"/>
    <path class="cls-6" d="M69.08,413.9h-3.1l10-21.6h-12.7v-2.6h15.8v2.6s-10,21.6-10,21.6Z"/>
  </g>
  <g>
    <path class="cls-6" d="M25.08,243.2h-3.8v-24.9h7c2.9,0,5.1.7,6.6,2.1,1.6,1.4,2.3,3.3,2.3,5.7,0,1.8-.5,3.2-1.3,4.5-.9,1.2-2.1,2.1-3.6,2.6l6.5,10.1h-4.6l-5.8-9.5h-3.3v9.5-.1ZM28.38,221.4h-3.3v9.1h3.4c1.6,0,2.8-.4,3.6-1.2s1.2-1.9,1.2-3.3c0-3-1.7-4.6-5-4.6h.1Z"/>
    <path class="cls-6" d="M57.48,243.2h-3.6v-3.2c-1,2.3-2.9,3.4-5.8,3.4s-3.3-.5-4.4-1.6c-1.1-1.1-1.6-2.6-1.6-4.5v-12.8h3.7v11.9c0,1.3.3,2.3.9,2.9s1.5,1,2.6,1,2.5-.5,3.4-1.5,1.3-2.4,1.3-4.2v-10.2h3.6v18.8h-.1Z"/>
    <path class="cls-6" d="M74.28,238c0,1.7-.6,3-1.8,3.9-1.2.9-2.8,1.4-4.8,1.4s-4.1-.4-5.5-1.1v-3.4c1.7,1.1,3.5,1.6,5.4,1.6s1.7-.2,2.2-.6c.5-.4.8-.9.8-1.6s-.2-1-.6-1.5c-.4-.4-.8-.8-1.3-1-.4-.2-1.2-.5-2.2-1-2.9-1.2-4.4-3-4.4-5.3s.6-2.9,1.8-3.9,2.8-1.4,4.6-1.4,3.6.3,4.7.8v3.3c-1.2-.7-2.8-1.1-4.7-1.1s-1.5.2-2.1.6c-.5.4-.8.9-.8,1.6s0,.3,0,.5.1.3.2.5c0,.2.2.3.3.4,0,.1.2.2.4.4.2.1.4.2.5.3.1,0,.3.2.6.3.3.1.4.2.6.3.1,0,.3.2.6.3.3.1.5.2.6.3,1.5.6,2.6,1.4,3.4,2.2s1.2,1.9,1.2,3.2h.3Z"/>
    <path class="cls-6" d="M89.78,238c0,1.7-.6,3-1.8,3.9-1.2.9-2.8,1.4-4.8,1.4s-4.1-.4-5.5-1.1v-3.4c1.7,1.1,3.5,1.6,5.4,1.6s1.7-.2,2.2-.6c.5-.4.8-.9.8-1.6s-.2-1-.6-1.5c-.4-.4-.8-.8-1.3-1-.4-.2-1.2-.5-2.2-1-2.9-1.2-4.4-3-4.4-5.3s.6-2.9,1.8-3.9,2.8-1.4,4.6-1.4,3.6.3,4.7.8v3.3c-1.2-.7-2.8-1.1-4.7-1.1s-1.5.2-2.1.6c-.5.4-.8.9-.8,1.6s0,.3,0,.5.1.3.2.5c0,.2.2.3.3.4,0,.1.2.2.4.4.2.1.4.2.5.3.1,0,.3.2.6.3.3.1.4.2.6.3.1,0,.3.2.6.3.3.1.5.2.6.3,1.5.6,2.6,1.4,3.4,2.2s1.2,1.9,1.2,3.2h.3Z"/>
    <path class="cls-6" d="M97.38,243.2h-3.7v-26.2h3.7v26.2Z"/>
    <path class="cls-6" d="M112.68,241c-1,1.6-2.7,2.4-5.1,2.4s-3.2-.5-4.3-1.5c-1.1-1-1.6-2.3-1.6-3.9s.7-3.2,2-4.2,3.3-1.5,5.7-1.5h3.1v-1.1c0-1.3-.3-2.3-.9-2.9-.6-.7-1.6-1-3.1-1s-3.8.6-5.4,1.7v-3.5c1.5-.8,3.4-1.3,5.8-1.3,4.9,0,7.4,2.4,7.4,7.1v11.9h-3.6v-2.2ZM108.68,240.5c1.2,0,2.1-.3,2.8-1,.7-.7,1-1.5,1-2.6v-2.1h-2.8c-1.4,0-2.4.3-3.1.8s-1.1,1.2-1.1,2.1.3,1.5.8,2,1.3.7,2.4.7v.1Z"/>
    <path class="cls-6" d="M136.58,243.2h-3.6v-11.8c0-1.3-.3-2.3-1-3s-1.5-1-2.6-1-2.4.5-3.3,1.5c-.9,1-1.4,2.4-1.4,4.2v10.2h-3.6v-18.8h3.6v3.2c1.1-2.3,3.1-3.5,5.8-3.5s3.3.6,4.4,1.7,1.6,2.7,1.6,4.6v12.7h.1Z"/>
    <path class="cls-6" d="M157.88,243.2h-3.7v-2.8c-1.3,2.1-3.2,3.1-5.7,3.1s-4.4-.9-5.8-2.8-2.1-4.1-2.1-6.8.8-5.3,2.3-7.1,3.4-2.7,5.8-2.7,4.3,1,5.7,3.1v-10.2h3.7v26.2h-.2ZM144.18,234c0,1.9.5,3.4,1.4,4.6.9,1.2,2.1,1.7,3.5,1.7s2.6-.5,3.6-1.6,1.5-2.7,1.5-5-.5-3.7-1.5-4.8c-1-1-2.2-1.6-3.5-1.6s-2.7.6-3.6,1.7c-.9,1.1-1.4,2.8-1.4,4.9v.1Z"/>
    <path class="cls-6" d="M76.78,287.6h-2.9v-21l-5.6,3.4v-3.1l5.7-3.5h2.7v24.2h.1Z"/>
    <path class="cls-6" d="M97.58,281.3c0,2-.8,3.6-2.3,4.8-1.6,1.2-3.5,1.8-5.8,1.8s-4.1-.6-5.6-1.7c-1.5-1.2-2.3-2.7-2.3-4.7s.4-2.7,1.2-3.7c.8-1,1.8-1.8,3.2-2.2-2.6-1-4-2.9-4-5.6s.7-3.8,2.2-5,3.2-1.8,5.3-1.8,3.9.6,5.4,1.8,2.2,2.9,2.2,5.1-.3,2.4-1,3.3c-.7,1-1.6,1.7-2.8,2.2,3,.9,4.5,2.9,4.5,5.8l-.2-.1ZM84.48,281.3c0,1.1.4,2.1,1.3,2.8.9.8,2.1,1.1,3.7,1.1s2.9-.4,3.8-1.2c.9-.8,1.3-1.8,1.3-3s-.4-2.2-1.3-3-2.1-1.2-3.8-1.2-2.9.5-3.7,1.3c-.8.9-1.2,1.9-1.2,3.2h-.1ZM84.88,269.9c0,1.4.4,2.5,1.3,3.2s2,1.1,3.3,1.1,2.4-.4,3.2-1.1c.8-.8,1.3-1.8,1.3-3.2s-.4-2.2-1.2-3c-.8-.8-1.9-1.2-3.4-1.2s-2.5.4-3.3,1.2-1.2,1.8-1.2,3Z"/>
    <path class="cls-6" d="M108.58,287.6h-2.9v-21l-5.6,3.4v-3.1l5.7-3.5h2.7v24.2h.1Z"/>
  </g>
  <g>
    <path class="cls-6" d="M216.68,76.7h-14.4v-24.9h14.2v3.2h-10.4v7.7h9.2v3.2h-9.2v7.7h10.6v3.2-.1Z"/>
    <path class="cls-6" d="M236.08,69.9c0,2.2-.8,3.9-2.3,5.2s-3.6,1.9-6,1.9-5-.5-6.8-1.6v-4c1.9,1.5,4.2,2.2,6.8,2.2s2.4-.3,3.2-.9c.8-.6,1.2-1.5,1.2-2.6s-.2-1.3-.7-1.8c-.5-.6-1-1-1.5-1.3s-1.4-.7-2.4-1.2c-.6-.3-1.1-.5-1.4-.6-.3-.1-.7-.3-1.3-.7-.6-.3-1-.6-1.3-.8s-.6-.5-1.1-.9c-.4-.4-.7-.8-.9-1.2s-.4-.9-.5-1.4c-.2-.5-.2-1.1-.2-1.7,0-2.1.8-3.8,2.3-5s3.5-1.8,6-1.8,4.2.4,5.7,1.2v3.8c-1.7-1-3.5-1.6-5.6-1.6s-2.4.3-3.2.9c-.8.6-1.2,1.4-1.2,2.4s.4,1.8,1.1,2.4c.8.6,1.9,1.2,3.5,1.9,1,.4,1.8.8,2.4,1.1.6.3,1.2.8,2,1.4.8.6,1.3,1.3,1.7,2.1s.5,1.7.5,2.8v-.2Z"/>
    <path class="cls-6" d="M243.08,76.7h-4l8.6-24.9h5l8.5,24.9h-4.1l-2-6.1h-10.1l-2,6.1h.1ZM246.48,66.2l-.4,1.3h8l-.4-1.3c-.9-2.9-1.7-5.3-2.3-7.2-.6-1.9-1-3.1-1.1-3.6l-.2-.7c-.3,1.2-1.5,5-3.6,11.5Z"/>
    <path class="cls-6" d="M230.68,113.2c0,2.5-.7,4.5-2.1,6s-3.2,2.3-5.5,2.3-4.9-1-6.4-3.1-2.2-4.8-2.2-8.2,1-7.4,3-10,4.7-4,8.1-4,2.2.2,3.4.6v2.8c-1.1-.5-2.2-.7-3.4-.7-2.3,0-4.2.9-5.5,2.6-1.4,1.7-2.2,3.9-2.6,6.6,1.6-1.7,3.6-2.6,6-2.6s4,.7,5.2,2.1,1.9,3.3,1.9,5.6h.1ZM223.08,118.8c1.4,0,2.5-.5,3.3-1.6.8-1,1.2-2.4,1.2-4.1s-.4-2.8-1.2-3.7c-.8-.9-1.9-1.4-3.2-1.4-2.2,0-4.1.9-5.8,2.7,0,2.6.7,4.6,1.7,5.9s2.4,2,4,2v.2Z"/>
    <path class="cls-6" d="M247.38,114.5c0,2-.7,3.6-2.1,4.9s-3.3,2-5.8,2-4.3-.4-6-1.2v-2.9c1.8,1,3.8,1.4,6,1.4s2.8-.4,3.7-1.2c.9-.8,1.3-1.9,1.3-3.2s-.5-2.3-1.5-3-2.4-1.1-4.2-1.1h-1.6v-2.6h1.6c1.4,0,2.5-.4,3.5-1.2.9-.8,1.4-1.8,1.4-3.1s-.4-2.3-1.2-3-1.9-1-3.4-1-3.3.5-4.9,1.5v-2.8c1.4-.9,3.1-1.4,5-1.4s4.2.6,5.6,1.8c1.3,1.2,2,2.7,2,4.5s-.3,2.5-1,3.5-1.6,1.8-2.9,2.3c1.4.3,2.5,1,3.3,1.9.8,1,1.2,2.2,1.2,3.6v.3Z"/>
  </g>
  <g>
    <path class="cls-6" d="M337.08,41h-4l8.6-24.9h5l8.5,24.9h-4.1l-2-6.1h-10.1l-2,6.1h.1ZM340.48,30.5l-.4,1.3h8l-.4-1.3c-.9-2.9-1.7-5.3-2.3-7.2-.6-1.9-1-3.1-1.1-3.6l-.2-.7c-.3,1.2-1.5,5-3.6,11.5Z"/>
    <path class="cls-6" d="M374.38,41h-3.6v-11.8c0-1.3-.3-2.3-1-3s-1.5-1-2.6-1-2.4.5-3.3,1.5-1.4,2.4-1.4,4.2v10.2h-3.6v-18.8h3.6v3.2c1.1-2.3,3.1-3.5,5.8-3.5s3.3.6,4.4,1.7,1.6,2.7,1.6,4.6v12.7h.1Z"/>
    <path class="cls-6" d="M395.58,41h-3.7v-2.8c-1.3,2.1-3.2,3.1-5.7,3.1s-4.4-.9-5.8-2.8-2.1-4.1-2.1-6.8.8-5.3,2.3-7.1c1.5-1.8,3.4-2.7,5.8-2.7s4.3,1,5.7,3.1v-10.2h3.7v26.2h-.2ZM381.88,31.8c0,1.9.5,3.4,1.4,4.6.9,1.2,2.1,1.7,3.5,1.7s2.6-.5,3.6-1.6,1.5-2.7,1.5-5-.5-3.7-1.5-4.8c-1-1-2.2-1.6-3.5-1.6s-2.7.6-3.6,1.7-1.4,2.8-1.4,4.9v.1Z"/>
    <path class="cls-6" d="M414.68,40c-1.4.8-3.2,1.2-5.5,1.2s-5.2-.9-7-2.6c-1.7-1.8-2.6-4-2.6-6.9s.8-5.4,2.4-7.1,3.6-2.6,6-2.6,4.3.7,5.7,2.2c1.4,1.5,2.1,3.6,2.1,6.5s0,1.6-.2,2.4h-12.3c.2,1.6.9,2.9,2.1,3.7s2.6,1.3,4.3,1.3,3.7-.5,5-1.4v3.3ZM408.08,25c-1.2,0-2.3.5-3.2,1.4-.9.9-1.4,2.2-1.7,3.9h9.1v-.7c0-1.4-.4-2.5-1.1-3.3s-1.7-1.2-3.1-1.2v-.1Z"/>
    <path class="cls-6" d="M423.78,41h-3.6v-18.8h3.6v3.3c.9-2.3,2.6-3.5,4.9-3.5s.7,0,1.1.1v3.6c-.5-.2-1.1-.3-1.7-.3-1.3,0-2.3.6-3.1,1.7-.8,1.1-1.2,2.4-1.2,4v10-.1Z"/>
    <path class="cls-6" d="M446.68,40c-1.4.8-3.2,1.2-5.5,1.2s-5.2-.9-7-2.6c-1.7-1.8-2.6-4-2.6-6.9s.8-5.4,2.4-7.1,3.6-2.6,6-2.6,4.3.7,5.7,2.2c1.4,1.5,2.1,3.6,2.1,6.5s0,1.6-.2,2.4h-12.3c.2,1.6.9,2.9,2.1,3.7s2.6,1.3,4.3,1.3,3.7-.5,5-1.4v3.3ZM440.08,25c-1.2,0-2.3.5-3.2,1.4-.9.9-1.4,2.2-1.7,3.9h9.1v-.7c0-1.4-.4-2.5-1.1-3.3s-1.7-1.2-3.1-1.2v-.1Z"/>
    <path class="cls-6" d="M369.48,85.4h-3.1l10-21.6h-12.7v-2.6h15.8v2.6l-10,21.6h0Z"/>
    <path class="cls-6" d="M397.08,71.6c0,4.4-.9,7.8-2.6,10.3-1.8,2.5-4.4,3.8-7.9,3.8s-2.8-.2-4.2-.7v-2.9c1.3.6,2.6.9,4.1.9,4.5,0,7-2.8,7.6-8.4-1.2,1.5-3.1,2.2-5.5,2.2s-3.7-.7-5.1-2.2c-1.4-1.4-2.1-3.3-2.1-5.7s.7-4.2,2-5.7c1.4-1.5,3.2-2.3,5.5-2.3s4.8,1,6.1,3c1.4,2,2.1,4.6,2.1,7.7ZM389.28,74.2c2,0,3.7-.8,4.9-2.4v-.2c0-2.3-.4-4.3-1.2-5.8-.8-1.5-2.2-2.2-4-2.2s-2.5.5-3.4,1.4c-.8.9-1.3,2.2-1.3,3.8s.4,3,1.3,3.9,2.1,1.4,3.6,1.4l.1.1Z"/>
    <path class="cls-6" d="M416.78,77.5c0,2.5-.7,4.5-2.1,6s-3.2,2.3-5.5,2.3-4.9-1-6.4-3.1-2.2-4.8-2.2-8.2,1-7.4,3-10,4.7-4,8.1-4,2.2.2,3.4.6v2.8c-1.1-.5-2.2-.7-3.4-.7-2.3,0-4.2.9-5.5,2.6-1.4,1.7-2.2,3.9-2.6,6.6,1.6-1.7,3.6-2.6,6-2.6s4,.7,5.2,2.1,1.9,3.3,1.9,5.6h.1ZM409.18,83.1c1.4,0,2.5-.5,3.3-1.6.8-1,1.2-2.4,1.2-4.1s-.4-2.8-1.2-3.7c-.8-.9-1.9-1.4-3.2-1.4-2.2,0-4.1.9-5.8,2.7,0,2.6.7,4.6,1.7,5.9s2.4,2,4,2v.2Z"/>
  </g>
  <g>
    <g>
      <path class="cls-6" d="M80.88,100.2c0,2.3-.6,4-1.7,5.1s-2.6,1.6-4.5,1.6-2.8-.3-3.7-.8v-3.5c1,.6,2,.9,3,.9,2,0,3-1.1,3-3.2v-18.4h3.8v18.2l.1.1Z"/>
      <path class="cls-6" d="M96.08,104.7c-1,1.6-2.7,2.4-5.1,2.4s-3.2-.5-4.3-1.5c-1.1-1-1.6-2.3-1.6-3.9s.7-3.2,2-4.2,3.3-1.5,5.7-1.5h3.1v-1.1c0-1.3-.3-2.3-.9-2.9-.6-.7-1.6-1-3.1-1s-3.8.6-5.4,1.7v-3.5c1.5-.8,3.4-1.3,5.8-1.3,4.9,0,7.4,2.4,7.4,7.1v11.9h-3.6v-2.2ZM92.18,104.3c1.2,0,2.1-.3,2.8-1,.7-.7,1-1.5,1-2.6v-2.1h-2.8c-1.4,0-2.4.3-3.1.8s-1.1,1.2-1.1,2.1.3,1.5.8,2,1.3.7,2.4.7v.1Z"/>
      <path class="cls-6" d="M108.18,114.1h-3.6v-25.9h3.6v2.9c1.3-2.1,3.2-3.1,5.8-3.1s4.4.9,5.8,2.7c1.4,1.8,2.1,4.1,2.1,6.8s-.7,5.2-2.2,7-3.4,2.8-5.9,2.8-4.4-1-5.7-3.1v10l.1-.1ZM108.18,97.5c0,2.2.5,3.8,1.5,4.9s2.2,1.6,3.5,1.6,2.7-.6,3.6-1.7c.9-1.1,1.4-2.8,1.4-4.8s-.5-3.5-1.4-4.6-2.1-1.7-3.5-1.7-2.6.5-3.6,1.5-1.5,2.6-1.5,4.9v-.1Z"/>
      <path class="cls-6" d="M135.98,104.7c-1,1.6-2.7,2.4-5.1,2.4s-3.2-.5-4.3-1.5-1.6-2.3-1.6-3.9.7-3.2,2-4.2,3.3-1.5,5.7-1.5h3.1v-1.1c0-1.3-.3-2.3-.9-2.9-.6-.7-1.6-1-3.1-1s-3.8.6-5.4,1.7v-3.5c1.5-.8,3.4-1.3,5.8-1.3,4.9,0,7.4,2.4,7.4,7.1v11.9h-3.6v-2.2h0ZM132.08,104.3c1.2,0,2.1-.3,2.8-1s1-1.5,1-2.6v-2.1h-2.8c-1.4,0-2.4.3-3.1.8-.7.5-1.1,1.2-1.1,2.1s.3,1.5.8,2,1.3.7,2.4.7v.1Z"/>
      <path class="cls-6" d="M159.98,107h-3.6v-11.8c0-1.3-.3-2.3-1-3s-1.5-1-2.6-1-2.4.5-3.3,1.5c-.9,1-1.4,2.4-1.4,4.2v10.2h-3.6v-18.8h3.6v3.2c1.1-2.3,3.1-3.5,5.8-3.5s3.3.6,4.4,1.7c1.1,1.1,1.6,2.7,1.6,4.6v12.7h.1Z"/>
      <path class="cls-6" d="M115.88,143.5c0,2.5-.7,4.5-2.1,6s-3.2,2.3-5.5,2.3-4.9-1-6.4-3.1-2.2-4.8-2.2-8.2,1-7.4,3-10,4.7-4,8.1-4,2.2.2,3.4.6v2.8c-1.1-.5-2.2-.7-3.4-.7-2.3,0-4.2.9-5.5,2.6-1.4,1.7-2.2,3.9-2.6,6.6,1.6-1.7,3.6-2.6,6-2.6s4,.7,5.2,2.1,1.9,3.3,1.9,5.6h.1ZM108.28,149.1c1.4,0,2.5-.5,3.3-1.6.8-1,1.2-2.4,1.2-4.1s-.4-2.8-1.2-3.7-1.9-1.4-3.2-1.4c-2.2,0-4.1.9-5.8,2.7,0,2.6.7,4.6,1.7,5.9,1,1.3,2.4,2,4,2v.2Z"/>
      <path class="cls-6" d="M132.58,144.7c0,2-.7,3.6-2.1,4.9-1.4,1.3-3.3,2-5.8,2s-4.3-.4-6-1.2v-2.9c1.8,1,3.8,1.4,6,1.4s2.8-.4,3.7-1.2,1.3-1.9,1.3-3.2-.5-2.3-1.5-3-2.4-1.1-4.2-1.1h-1.6v-2.6h1.6c1.4,0,2.5-.4,3.5-1.2.9-.8,1.4-1.8,1.4-3.1s-.4-2.3-1.2-3-1.9-1-3.4-1-3.3.5-4.9,1.5v-2.8c1.4-.9,3.1-1.4,5-1.4s4.2.6,5.6,1.8c1.3,1.2,2,2.7,2,4.5s-.3,2.5-1,3.5-1.6,1.8-2.9,2.3c1.4.3,2.5,1,3.3,1.9.8,1,1.2,2.2,1.2,3.6v.3Z"/>
    </g>
    <rect class="cls-3" x="99.68" y="160.47" width="33.75" height="3"/>
  </g>
  <rect class="cls-2" x="215.1" y="130.8" width="33.75" height="3"/>
</svg>