<?xml version="1.0" encoding="UTF-8"?>
<svg xmlns="http://www.w3.org/2000/svg" xmlns:xlink="http://www.w3.org/1999/xlink" version="1.1" viewBox="0 0 1100 1100">
  <!-- Generator: Adobe Illustrator 29.1.0, SVG Export Plug-In . SVG Version: 2.1.0 Build 142)  -->
  <defs>
    <style>
      .st0 {
        fill: none;
      }

      .st1 {
        fill: #0097b2;
      }

      .st2 {
        fill: #d9d9d9;
      }

      .st3 {
        fill: #0cc0df;
        stroke: #0cc0df;
      }

      .st3, .st4 {
        stroke-miterlimit: 10;
      }

      .st5 {
        fill: #004aad;
      }

      .st6 {
        fill: #a6a6a6;
      }

      .st7 {
        fill: #fff;
      }

      .st8 {
        fill: #5271ff;
      }

      .st9 {
        fill: #5ce1e6;
      }

      .st4 {
        stroke: #000;
      }

      .st10 {
        fill: #38b6ff;
      }

      .st11 {
        clip-path: url(#clippath);
      }
    </style>
    <clipPath id="clippath">
      <rect class="st0" x="-1048" y="94.9" width="872" height="910.3"/>
    </clipPath>
  </defs>
  <g id="Ebene_1">
    <g>
      <path class="st5" d="M690.5,1548.6c8,0,16.1.2,24.1.6,8,.4,16,1.1,24,1.9,8,.8,15.9,1.9,23.9,3.2s15.8,2.8,23.7,4.4c7.8,1.7,15.7,3.6,23.4,5.7,7.8,2.1,15.4,4.4,23.1,6.9s15.2,5.2,22.7,8.1c7.5,2.9,14.9,6,22.2,9.3s14.6,6.8,21.7,10.5c7.1,3.7,14.2,7.6,21.1,11.6,6.9,4.1,13.8,8.3,20.5,12.7,6.7,4.4,13.3,9,19.8,13.8s12.8,9.7,19,14.8,12.3,10.4,18.2,15.8c5.9,5.4,11.7,11,17.3,16.7,5.6,5.7,11.1,11.6,16.4,17.6,5.3,6,10.5,12.2,15.5,18.5,5,6.3,9.8,12.7,14.5,19.3,4.7,6.5,9.1,13.2,13.4,20,4.3,6.8,8.4,13.7,12.3,20.7,3.9,7,7.7,14.1,11.2,21.3s6.9,14.5,10.1,21.9c3.2,7.4,6.1,14.8,8.9,22.4,2.8,7.5,5.3,15.1,7.7,22.8,2.4,7.7,4.5,15.4,6.5,23.2s3.7,15.6,5.3,23.5,2.9,15.8,4,23.8,2,15.9,2.8,23.9,1.2,16,1.5,24c.3,8,.3,16.1.2,24.1-.1,8-.5,16.1-1.1,24.1-.6,8-1.3,16-2.3,24l-225.7-28.1c.5-4,.9-8,1.2-12,.3-4,.5-8,.5-12,0-4,0-8-.1-12-.1-4-.4-8-.7-12s-.8-8-1.4-12c-.6-4-1.2-7.9-2-11.9-.8-3.9-1.7-7.9-2.6-11.8-1-3.9-2.1-7.8-3.3-11.6-1.2-3.8-2.5-7.6-3.9-11.4-1.4-3.8-2.9-7.5-4.5-11.2-1.6-3.7-3.3-7.3-5-10.9-1.8-3.6-3.7-7.2-5.6-10.7-2-3.5-4-6.9-6.2-10.3-2.2-3.4-4.4-6.7-6.7-10-2.3-3.3-4.7-6.5-7.2-9.6-2.5-3.1-5.1-6.2-7.7-9.2-2.7-3-5.4-5.9-8.2-8.8-2.8-2.9-5.7-5.7-8.7-8.4s-6-5.3-9.1-7.9c-3.1-2.6-6.3-5-9.5-7.4-3.2-2.4-6.5-4.7-9.9-6.9s-6.8-4.3-10.2-6.4c-3.5-2-7-4-10.6-5.8-3.6-1.8-7.2-3.6-10.8-5.2s-7.4-3.2-11.1-4.7-7.5-2.8-11.3-4.1c-3.8-1.3-7.7-2.4-11.5-3.5-3.9-1.1-7.8-2-11.7-2.8s-7.9-1.6-11.8-2.2c-4-.6-7.9-1.2-11.9-1.6-4-.4-8-.7-12-1s-8-.3-12-.3v-227.5Z"/>
      <path class="st8" d="M1142,2059.7c-.7,5.8-1.5,11.5-2.5,17.3-.9,5.7-2,11.4-3.1,17.1s-2.4,11.4-3.8,17c-1.4,5.6-2.9,11.3-4.4,16.9s-3.3,11.1-5.1,16.7c-1.8,5.5-3.7,11-5.7,16.5-2,5.4-4.1,10.9-6.3,16.2s-4.5,10.7-7,16c-2.4,5.3-4.9,10.5-7.6,15.7s-5.3,10.3-8.2,15.4c-2.8,5.1-5.7,10.1-8.8,15.1-3,5-6.1,9.9-9.3,14.7-3.2,4.8-6.5,9.6-9.9,14.4-3.4,4.7-6.9,9.4-10.4,14-3.6,4.6-7.2,9.1-10.9,13.6s-7.6,8.8-11.5,13.1c-3.9,4.3-7.9,8.5-12,12.7-4.1,4.2-8.2,8.2-12.4,12.2-4.2,4-8.5,7.9-12.9,11.7s-8.8,7.6-13.3,11.2-9.1,7.2-13.8,10.7c-4.7,3.5-9.4,6.9-14.1,10.2-4.8,3.3-9.6,6.5-14.5,9.6-4.9,3.1-9.9,6.1-14.9,9.1-5,2.9-10.1,5.8-15.2,8.5-5.1,2.7-10.3,5.4-15.5,7.9-5.2,2.5-10.5,5-15.8,7.3s-10.7,4.6-16.1,6.7-10.9,4.1-16.3,6.1-11,3.7-16.6,5.4c-5.6,1.7-11.1,3.3-16.8,4.8-5.6,1.5-11.3,2.9-16.9,4.2s-11.4,2.4-17.1,3.5c-5.7,1.1-11.4,2-17.2,2.8s-11.5,1.6-17.3,2.2c-5.8.6-11.6,1.1-17.4,1.5s-11.6.7-17.4.8-11.6.2-17.4.2c-5.8,0-11.6-.2-17.4-.5-5.8-.3-11.6-.7-17.4-1.2s-11.6-1.1-17.3-1.8c-5.8-.7-11.5-1.5-17.3-2.5-5.7-.9-11.4-2-17.1-3.1-5.7-1.2-11.4-2.4-17-3.8-5.6-1.4-11.3-2.8-16.8-4.4s-11.1-3.3-16.7-5.1c-5.5-1.8-11-3.7-16.5-5.7-5.4-2-10.9-4.1-16.2-6.3s-10.7-4.5-16-7c-5.3-2.4-10.5-4.9-15.7-7.6-5.2-2.6-10.3-5.3-15.4-8.2-5.1-2.8-10.1-5.7-15.1-8.7-5-3-9.9-6.1-14.7-9.3-4.9-3.2-9.6-6.5-14.4-9.9-4.7-3.4-9.4-6.9-14-10.4-4.6-3.6-9.1-7.2-13.6-10.9-4.4-3.7-8.8-7.6-13.1-11.5-4.3-3.9-8.5-7.9-12.7-12-4.2-4.1-8.2-8.2-12.2-12.4s-7.9-8.5-11.7-12.9c-3.8-4.4-7.6-8.8-11.2-13.3-3.7-4.5-7.2-9.1-10.7-13.7-3.5-4.7-6.9-9.4-10.2-14.1s-6.5-9.6-9.6-14.5l192-122c3.1,4.9,6.4,9.7,9.9,14.3,3.5,4.7,7.1,9.2,11,13.5,3.8,4.4,7.8,8.6,12,12.7,4.2,4.1,8.5,8,12.9,11.7,4.4,3.7,9,7.3,13.8,10.7,4.7,3.4,9.6,6.6,14.5,9.6,5,3,10,5.8,15.2,8.5s10.5,5,15.8,7.3c5.4,2.2,10.8,4.2,16.3,6s11.1,3.4,16.8,4.8c5.7,1.4,11.3,2.5,17.1,3.5s11.5,1.7,17.3,2.1,11.6.8,17.4.8c5.8,0,11.6-.1,17.4-.5,5.8-.4,11.6-1,17.3-1.8s11.5-1.9,17.1-3.2c5.7-1.3,11.3-2.8,16.8-4.5,5.6-1.7,11-3.6,16.4-5.8,5.4-2.1,10.7-4.5,16-7,5.2-2.5,10.4-5.3,15.4-8.2s9.9-6,14.7-9.3c4.8-3.3,9.4-6.8,13.9-10.4,4.5-3.7,8.9-7.5,13.1-11.5,4.2-4,8.3-8.1,12.2-12.4,3.9-4.3,7.6-8.8,11.2-13.3,3.6-4.6,6.9-9.3,10.2-14.2,3.2-4.9,6.2-9.8,9-14.9,2.8-5.1,5.4-10.3,7.9-15.5,2.4-5.3,4.6-10.6,6.7-16.1,2-5.5,3.8-11,5.4-16.6,1.6-5.6,3-11.2,4.1-16.9,1.2-5.7,2.1-11.4,2.8-17.2l225.7,28.1Z"/>
      <path class="st10" d="M306.5,2247.6c-6.2-9.8-12.1-19.9-17.6-30.1s-10.5-20.7-15.2-31.4-8.9-21.5-12.8-32.5c-3.8-11-7.3-22.1-10.2-33.3-3-11.2-5.5-22.6-7.6-34-2.1-11.4-3.8-22.9-5-34.5-1.2-11.6-2-23.2-2.4-34.8-.3-11.6-.2-23.3.3-34.9l227.2,10.7c-.5,11.6-.2,23.2,1,34.8s3.3,23,6.3,34.3c3,11.3,6.8,22.2,11.5,32.9,4.7,10.7,10.1,20.9,16.4,30.8l-192,122Z"/>
      <path class="st9" d="M236.1,1982.1c.6-13.1,1.8-26.2,3.6-39.2,1.8-13,4.1-25.9,6.9-38.7s6.3-25.5,10.3-38c4-12.5,8.5-24.8,13.5-37,5-12.1,10.6-24,16.6-35.7,6.1-11.6,12.6-23,19.7-34.1,7-11.1,14.6-21.8,22.5-32.3,8-10.4,16.4-20.5,25.2-30.2l168.1,153.3c-4.4,4.8-8.6,9.9-12.6,15.1-4,5.2-7.7,10.6-11.3,16.1-3.5,5.5-6.8,11.2-9.8,17-3,5.8-5.8,11.8-8.3,17.8s-4.8,12.2-6.7,18.5c-2,6.3-3.7,12.6-5.1,19-1.4,6.4-2.6,12.9-3.5,19.4-.9,6.5-1.5,13-1.8,19.6l-227.2-10.7Z"/>
      <path class="st2" d="M354.3,1697c5.3-5.8,10.8-11.5,16.4-17s11.4-10.9,17.2-16.2,11.9-10.3,18.1-15.3,12.4-9.7,18.8-14.3,12.9-9,19.5-13.3c6.6-4.3,13.4-8.4,20.2-12.3,6.8-3.9,13.8-7.7,20.8-11.2s14.2-6.9,21.4-10.1c7.2-3.2,14.5-6.2,21.9-9,7.4-2.8,14.8-5.4,22.3-7.8s15.1-4.6,22.7-6.7c7.6-2,15.3-3.8,23-5.5,7.7-1.6,15.5-3.1,23.2-4.3s15.6-2.2,23.4-3.1,15.7-1.4,23.6-1.8,15.8-.6,23.6-.6v227.5c-7.9,0-15.7.4-23.6,1.2s-15.6,2-23.3,3.7c-7.7,1.6-15.3,3.7-22.8,6.1-7.5,2.4-14.9,5.2-22.1,8.4-7.2,3.2-14.2,6.7-21.1,10.7-6.8,3.9-13.5,8.2-19.9,12.8-6.4,4.6-12.5,9.5-18.4,14.8-5.9,5.2-11.5,10.8-16.8,16.6l-168.1-153.3Z"/>
    </g>
    <path d="M709.2,2479.6v2.6h-8v23.1h-3v-23.1h-8v-2.6h19.1Z"/>
    <path d="M711.8,2505.3v-19.4h2.7v3h.4c.9-2.1,2.6-3.2,5.1-3.2s2.3.2,3,.7l-.7,2.4h-.4c-.7-.3-1.5-.5-2.4-.5-1.5,0-2.7.6-3.6,1.8-.8,1.2-1.3,3-1.3,5.6v9.5h-2.9Z"/>
    <path d="M733,2505.7c-2.2,0-3.8-.6-4.9-1.7-1.1-1.2-1.6-2.9-1.6-5.1v-12.9h2.9v12.8c0,2.9,1.4,4.4,4.1,4.4s3.2-.6,4.2-1.7c1-1.2,1.5-3,1.5-5.6v-9.9h2.9v19.4h-2.7v-3h-.4c-.7,1.1-1.5,2-2.4,2.6-.9.6-2.1.9-3.6.9ZM731.3,2482.2c-.6,0-1-.2-1.4-.5-.3-.3-.5-.8-.5-1.3s.2-1,.5-1.3c.3-.3.8-.5,1.4-.5s1,.2,1.4.5c.3.3.5.8.5,1.3s-.2,1-.5,1.3c-.3.3-.8.5-1.4.5ZM737.1,2482.2c-.5,0-1-.2-1.3-.5-.3-.3-.5-.8-.5-1.3s.2-1,.5-1.3c.3-.3.8-.5,1.3-.5s1,.2,1.4.5c.3.3.5.8.5,1.3s-.2,1-.5,1.3c-.3.3-.8.5-1.4.5Z"/>
    <path d="M748.7,2505.3v-19.4h2.7v2.9h.4c.7-1,1.5-1.8,2.4-2.4.9-.6,2-.8,3.3-.8s2.7.3,3.5.9c.8.6,1.5,1.5,1.9,2.8h.4c.7-1.2,1.5-2.1,2.5-2.7,1-.6,2.2-.9,3.6-.9s3.5.5,4.4,1.6c1,1.1,1.5,2.7,1.5,4.9v13.2h-2.9v-13.1c0-1.4-.3-2.4-.9-3.1-.6-.7-1.5-1-2.8-1s-2.8.6-3.8,1.7c-1,1.1-1.5,3-1.5,5.5v10h-2.9v-13.1c0-1.4-.3-2.4-.9-3.1-.6-.7-1.5-1-2.9-1s-2.8.6-3.8,1.6c-1,1.1-1.5,2.8-1.5,5.3v10.3h-2.9Z"/>
    <path d="M781.8,2505.3v-19.4h2.7v2.9h.4c.7-1,1.5-1.8,2.4-2.4.9-.6,2-.8,3.3-.8s2.7.3,3.5.9c.8.6,1.5,1.5,1.9,2.8h.4c.7-1.2,1.5-2.1,2.5-2.7,1-.6,2.2-.9,3.6-.9s3.5.5,4.4,1.6c1,1.1,1.5,2.7,1.5,4.9v13.2h-2.9v-13.1c0-1.4-.3-2.4-.9-3.1-.6-.7-1.5-1-2.8-1s-2.8.6-3.8,1.7c-1,1.1-1.5,3-1.5,5.5v10h-2.9v-13.1c0-1.4-.3-2.4-.9-3.1-.6-.7-1.5-1-2.9-1s-2.8.6-3.8,1.6c-1,1.1-1.5,2.8-1.5,5.3v10.3h-2.9Z"/>
    <path d="M829.9,2496.3h-13.3c0,2.3.6,4.1,1.7,5.2,1.1,1.1,2.5,1.6,4.3,1.6s2.5-.2,3.3-.7c.8-.5,1.5-1.3,2-2.3h.4l1.9,1.1c-.6,1.4-1.5,2.5-2.7,3.3-1.2.8-2.9,1.2-4.9,1.2s-3.5-.4-4.8-1.1c-1.3-.8-2.4-1.9-3.1-3.4-.7-1.5-1.1-3.4-1.1-5.6s.4-4,1.1-5.6c.8-1.5,1.8-2.6,3.1-3.4,1.3-.8,2.9-1.1,4.6-1.1,2.5,0,4.4.7,5.8,2.1,1.4,1.4,2.1,3.5,2.1,6.2s0,1.8,0,2.2l-.4.2ZM827.5,2493.9c0-2.1-.5-3.6-1.4-4.5-.9-.9-2.1-1.4-3.7-1.4s-3,.5-4,1.4c-1,.9-1.6,2.4-1.8,4.5h10.9Z"/>
    <path d="M835.4,2505.3v-19.4h2.7v3h.4c.9-2.1,2.6-3.2,5.1-3.2s2.3.2,3,.7l-.7,2.4h-.4c-.7-.3-1.5-.5-2.4-.5-1.5,0-2.7.6-3.6,1.8-.8,1.2-1.3,3-1.3,5.6v9.5h-2.9Z"/>
    <path d="M860.1,2502.2l.9,2.1c-.5.5-1.1.8-1.8,1-.7.2-1.5.4-2.4.4-3.7,0-5.6-1.9-5.6-5.6v-11.8h-3.4v-2.4h3.4v-4.1l2.9-.5v4.6h6.2v2.4h-6.2v11.5c0,2.2,1,3.4,2.9,3.4s2-.3,2.7-.9h.4Z"/>
    <path d="M880,2496.3h-13.3c0,2.3.6,4.1,1.7,5.2,1.1,1.1,2.5,1.6,4.3,1.6s2.5-.2,3.3-.7c.8-.5,1.5-1.3,2-2.3h.4l1.9,1.1c-.6,1.4-1.5,2.5-2.7,3.3-1.2.8-2.9,1.2-4.9,1.2s-3.5-.4-4.8-1.1c-1.3-.8-2.4-1.9-3.1-3.4-.7-1.5-1.1-3.4-1.1-5.6s.4-4,1.1-5.6c.8-1.5,1.8-2.6,3.1-3.4,1.3-.8,2.9-1.1,4.6-1.1,2.5,0,4.4.7,5.8,2.1,1.4,1.4,2.1,3.5,2.1,6.2s0,1.8,0,2.2l-.4.2ZM877.6,2493.9c0-2.1-.5-3.6-1.4-4.5-.9-.9-2.1-1.4-3.7-1.4s-3,.5-4,1.4c-1,.9-1.6,2.4-1.8,4.5h10.9Z"/>
    <path d="M887,2482.2c-.6,0-1.1-.2-1.5-.6-.4-.4-.6-.9-.6-1.5s.2-1.1.6-1.4c.4-.4.9-.6,1.5-.6s1.1.2,1.5.6c.4.4.6.9.6,1.4s-.2,1.1-.6,1.5c-.4.4-.9.6-1.5.6ZM885.6,2505.3v-19.4h2.9v19.4h-2.9Z"/>
    <path d="M899.5,2505.7c-1.4,0-2.4-.4-3.2-1.2-.8-.8-1.2-1.9-1.2-3.5v-22.9h2.9v22.7c0,.8.2,1.4.5,1.8.3.4.8.5,1.5.5s.8,0,1.2-.2h.3c0,0,.3,2.3.3,2.3-.2.1-.5.2-.9.3-.4,0-.8.1-1.3.1Z"/>
    <path d="M920.8,2496.3h-13.3c0,2.3.6,4.1,1.7,5.2,1.1,1.1,2.5,1.6,4.3,1.6s2.5-.2,3.3-.7c.8-.5,1.5-1.3,2-2.3h.4l1.9,1.1c-.6,1.4-1.5,2.5-2.7,3.3-1.2.8-2.9,1.2-4.9,1.2s-3.5-.4-4.8-1.1c-1.3-.8-2.4-1.9-3.1-3.4-.7-1.5-1.1-3.4-1.1-5.6s.4-4,1.1-5.6c.8-1.5,1.8-2.6,3.1-3.4,1.3-.8,2.9-1.1,4.6-1.1,2.5,0,4.4.7,5.8,2.1,1.4,1.4,2.1,3.5,2.1,6.2s0,1.8,0,2.2l-.4.2ZM918.4,2493.9c0-2.1-.5-3.6-1.4-4.5-.9-.9-2.1-1.4-3.7-1.4s-3,.5-4,1.4c-1,.9-1.6,2.4-1.8,4.5h10.9Z"/>
    <path d="M777.9,2548.1c-2.5,0-4.5-.6-5.9-1.7-1.5-1.1-2.4-2.7-2.8-4.7l2.3-1h.4c.4,1.6,1.1,2.7,2.1,3.5.9.8,2.3,1.1,4.1,1.1s3.2-.4,4.1-1.3c1-.8,1.4-2.1,1.4-3.7s-.5-2.8-1.5-3.6c-1-.8-2.5-1.3-4.6-1.3h-2.8v-2.5h2.5c1.6,0,2.9-.4,3.9-1.2,1-.8,1.4-1.9,1.4-3.4s-.4-2.4-1.3-3.1c-.8-.7-2-1-3.5-1-2.6,0-4.4,1-5.5,3.1h-.4c0,0-1.7-1.8-1.7-1.8.7-1.2,1.7-2.1,3-2.9,1.3-.7,2.9-1.1,4.6-1.1s3,.3,4.2.8c1.2.5,2,1.3,2.6,2.2.6,1,.9,2.1.9,3.4s-.4,2.4-1.1,3.3c-.7,1-1.7,1.7-2.9,2.3v.4c1.7.4,3,1.2,3.8,2.3.9,1.1,1.3,2.5,1.3,4.1,0,2.4-.7,4.3-2.2,5.6-1.4,1.3-3.6,2-6.5,2Z"/>
    <path d="M799.5,2548.1c-2.2,0-4-.5-5.4-1.5-1.4-1-2.3-2.4-2.6-4.2l2.2-1h.4c.4,1.4,1,2.3,1.9,3,.8.7,2,1,3.5,1s3.8-.9,4.9-2.7c1.1-1.8,1.7-4.5,1.7-8.3h-.4c-.7,1.4-1.6,2.5-2.7,3.2-1.1.7-2.5,1.1-4.2,1.1s-3-.3-4.2-1c-1.2-.7-2.1-1.7-2.7-3-.6-1.3-1-2.8-1-4.5s.3-3.2,1-4.5c.7-1.3,1.7-2.3,3-3s2.8-1.1,4.5-1.1c3,0,5.4,1,7.1,3.1,1.7,2,2.6,5.3,2.6,9.9s-.4,5.6-1.2,7.6c-.8,2-1.9,3.5-3.4,4.5-1.4,1-3.1,1.4-5,1.4ZM799.5,2536.1c1.2,0,2.2-.2,3-.7.9-.5,1.5-1.1,2-2s.7-1.9.7-3.1-.2-2.3-.7-3.1-1.1-1.5-2-2c-.8-.5-1.9-.7-3-.7-1.7,0-3,.5-4,1.5-1,1-1.4,2.4-1.4,4.3s.5,3.4,1.4,4.4c1,1,2.3,1.5,4,1.5Z"/>
    <path d="M819.1,2536c-1.2,0-2.2-.3-3.1-.8-.9-.5-1.5-1.3-2-2.4-.5-1.1-.7-2.4-.7-4,0-2.4.5-4.2,1.6-5.4,1.1-1.2,2.5-1.8,4.3-1.8s2.1.3,3,.8c.9.5,1.6,1.3,2,2.4.5,1.1.8,2.4.8,4s-.3,3-.8,4c-.5,1.1-1.2,1.8-2,2.4-.9.5-1.9.8-3,.8ZM819.6,2547.8h-2.6v-.4c0,0,17.1-25.3,17.1-25.3h2.6v.4c0,0-17.1,25.3-17.1,25.3ZM819.1,2533.8c1.1,0,1.9-.4,2.4-1.1.5-.8.8-2,.8-3.8s-.3-3.1-.8-3.8c-.5-.8-1.3-1.1-2.4-1.1s-1.4.2-1.8.5c-.5.3-.8.8-1.1,1.6-.2.7-.4,1.7-.4,2.9s.1,2.2.4,2.9c.3.7.6,1.2,1.1,1.6.5.3,1.1.5,1.8.5ZM834.8,2548.1c-1.8,0-3.2-.6-4.3-1.8-1.1-1.2-1.6-3-1.6-5.4s.5-4.2,1.6-5.4c1.1-1.2,2.5-1.8,4.3-1.8s2.2.3,3,.8c.9.5,1.5,1.3,2,2.4.5,1.1.8,2.4.8,4s-.3,3-.8,4c-.5,1.1-1.2,1.8-2,2.4-.9.5-1.9.8-3,.8ZM834.8,2545.9c1.1,0,1.9-.4,2.4-1.1.5-.8.8-2,.8-3.8s-.3-3.1-.8-3.8c-.5-.8-1.3-1.1-2.4-1.1s-1.9.4-2.5,1.1c-.5.8-.8,2-.8,3.8s.3,3.1.8,3.8c.5.8,1.4,1.1,2.5,1.1Z"/>
    <path d="M1035.5,1632.4h-3v-25.7h3.7l12.5,19.6h.4v-19.6h2.9v25.7h-3.1l-13.1-21h-.4v21Z"/>
    <path d="M1065.6,1632.8c-2.2,0-3.8-.6-4.9-1.7-1.1-1.2-1.6-2.9-1.6-5.1v-12.9h2.9v12.8c0,2.9,1.4,4.4,4.1,4.4s3.2-.6,4.2-1.7c1-1.2,1.5-3,1.5-5.6v-9.9h2.9v19.4h-2.7v-3h-.4c-.7,1.1-1.5,2-2.4,2.6-.9.6-2.1.9-3.6.9Z"/>
    <path d="M1091.2,1629.3l.9,2.1c-.5.5-1.1.8-1.8,1-.7.2-1.5.4-2.4.4-3.7,0-5.6-1.9-5.6-5.6v-11.8h-3.4v-2.4h3.4v-4.1l2.9-.5v4.6h6.2v2.4h-6.2v11.5c0,2.2,1,3.4,2.9,3.4s2-.3,2.7-.9h.4Z"/>
    <path d="M1108.3,1632.4h-14.2v-2.5l10.6-14.2v-.4h-10.2v-2.4h13.6v2.5l-10.6,14.2v.4h10.8v2.4Z"/>
    <path d="M1117.4,1632.8c-1.4,0-2.4-.4-3.2-1.2-.8-.8-1.2-1.9-1.2-3.5v-22.9h2.9v22.7c0,.8.2,1.4.5,1.8.3.4.8.5,1.5.5s.8,0,1.2-.2h.3c0,0,.3,2.3.3,2.3-.2.1-.5.2-.9.3-.4,0-.8.1-1.3.1Z"/>
    <path d="M1128.2,1632.8c-1.9,0-3.4-.5-4.5-1.5-1.1-1-1.6-2.4-1.6-4.3s.2-2.1.7-2.9c.5-.8,1.2-1.4,2.2-1.9s2.3-.9,3.9-1.1c1.4-.2,2.5-.5,3.2-.8.7-.3,1.2-.6,1.5-1,.3-.4.4-.8.4-1.4,0-.9-.3-1.6-.9-2-.6-.5-1.6-.7-2.9-.7s-2.3.2-3.2.7c-.9.5-1.7,1.2-2.5,2.2h-.4l-1.4-2c.8-1,1.9-1.9,3.1-2.5,1.3-.6,2.7-.9,4.3-.9s4,.5,5,1.5,1.6,2.4,1.6,4.2v10.3c0,1.1.5,1.6,1.4,1.6s.6,0,.9-.2h.3c0,0,.3,2.1.3,2.1-.2.1-.5.2-.8.3-.3,0-.7.1-1.1.1-1.1,0-1.9-.2-2.4-.7-.5-.5-.9-1.2-1-2.1h-.4c-.5,1-1.3,1.7-2.2,2.3-.9.5-2.1.8-3.5.8ZM1128.8,1630.5c1.1,0,2-.3,2.8-.8.8-.5,1.4-1.2,1.8-2.1.4-.9.6-1.9.6-3.1v-2.5h-.3c-.4.2-1,.5-1.6.7-.6.2-1.5.4-2.6.5-1.1.2-2,.4-2.7.7-.7.3-1.1.7-1.4,1.2-.3.5-.4,1.1-.4,1.8,0,1.1.3,2,1,2.6.7.6,1.6.9,2.8.9Z"/>
    <path d="M1149.1,1632.8c-1.2,0-2.4-.2-3.4-.5-1-.3-1.9-.8-2.6-1.3-.7-.6-1.2-1.2-1.5-1.9l1.7-1.8h.4c.6,1,1.4,1.7,2.3,2.2.9.5,2,.7,3.2.7s2.5-.3,3.3-.8c.8-.6,1.1-1.3,1.1-2.3s-.2-1.4-.7-1.9c-.4-.5-1.2-.9-2.2-1.1l-3.3-.8c-1.8-.4-3-1.1-3.8-2-.8-.9-1.2-2-1.2-3.4s.3-2,.8-2.8c.5-.8,1.3-1.4,2.3-1.8,1-.4,2.2-.6,3.6-.6s3.2.3,4.2.8c1,.5,1.8,1.2,2.4,2.1l-1.6,1.6h-.4c-.6-.7-1.3-1.2-2-1.5-.7-.3-1.6-.5-2.6-.5s-2.2.2-2.9.7c-.7.5-1,1.1-1,2s.2,1.4.7,1.9c.5.5,1.3.9,2.5,1.1l3.2.8c1.7.4,2.9,1.1,3.7,2,.8.9,1.1,2.1,1.1,3.5s-.3,2.1-.8,3c-.5.9-1.4,1.5-2.5,2-1.1.5-2.4.7-4,.7Z"/>
    <path d="M1171.3,1629.3l.9,2.1c-.5.5-1.1.8-1.8,1-.7.2-1.5.4-2.4.4-3.7,0-5.6-1.9-5.6-5.6v-11.8h-3.4v-2.4h3.4v-4.1l2.9-.5v4.6h6.2v2.4h-6.2v11.5c0,2.2,1,3.4,2.9,3.4s2-.3,2.7-.9h.4Z"/>
    <path d="M1069.6,1673.7c0-1.4.2-2.6.5-3.4.3-.9.9-1.7,1.6-2.4s1.9-1.7,3.6-2.9l2.8-2.1c1-.8,1.9-1.5,2.5-2.1.7-.7,1.2-1.4,1.5-2.1.4-.8.6-1.6.6-2.5,0-1.5-.4-2.7-1.2-3.4-.8-.8-2.1-1.2-3.8-1.2s-2.6.3-3.6,1c-1.1.6-1.9,1.5-2.5,2.7h-.4c0,0-1.8-1.8-1.8-1.8.9-1.4,2-2.5,3.4-3.3,1.4-.8,3.1-1.2,5-1.2s3.3.3,4.5.9,2.1,1.5,2.7,2.6c.6,1.1.9,2.4.9,3.8s-.2,2.2-.7,3.2c-.5,1-1.2,1.9-2,2.8-.9.9-2,1.8-3.3,2.8l-2.9,2.1c-1.1.8-1.9,1.5-2.5,2-.6.5-1,1.1-1.3,1.6-.3.5-.4,1.1-.4,1.7h13v2.5h-16.2v-1.2Z"/>
    <path d="M1094.7,1674.9h-2.9l9.5-22.8v-.4h-12.6v-2.6h15.7v2.8l-9.6,22.9Z"/>
    <path d="M1113.9,1663.1c-1.2,0-2.2-.3-3.1-.8-.9-.5-1.5-1.3-2-2.4-.5-1.1-.7-2.4-.7-4,0-2.4.5-4.2,1.6-5.4,1.1-1.2,2.5-1.8,4.3-1.8s2.1.3,3,.8c.9.5,1.6,1.3,2,2.4.5,1.1.8,2.4.8,4s-.3,3-.8,4c-.5,1.1-1.2,1.8-2,2.4-.9.5-1.9.8-3,.8ZM1114.5,1674.9h-2.6v-.4c0,0,17.1-25.3,17.1-25.3h2.6v.4c0,0-17.1,25.3-17.1,25.3ZM1113.9,1660.9c1.1,0,1.9-.4,2.4-1.1.5-.8.8-2,.8-3.8s-.3-3.1-.8-3.8c-.5-.8-1.3-1.1-2.4-1.1s-1.4.2-1.8.5c-.5.3-.8.8-1.1,1.6-.2.7-.4,1.7-.4,2.9s.1,2.2.4,2.9c.3.7.6,1.2,1.1,1.6.5.3,1.1.5,1.8.5ZM1129.7,1675.2c-1.8,0-3.2-.6-4.3-1.8-1.1-1.2-1.6-3-1.6-5.4s.5-4.2,1.6-5.4c1.1-1.2,2.5-1.8,4.3-1.8s2.2.3,3,.8c.9.5,1.5,1.3,2,2.4.5,1.1.8,2.4.8,4s-.3,3-.8,4c-.5,1.1-1.2,1.8-2,2.4-.9.5-1.9.8-3,.8ZM1129.7,1673c1.1,0,1.9-.4,2.4-1.1.5-.8.8-2,.8-3.8s-.3-3.1-.8-3.8c-.5-.8-1.3-1.1-2.4-1.1s-1.9.4-2.5,1.1c-.5.8-.8,2-.8,3.8s.3,3.1.8,3.8c.5.8,1.4,1.1,2.5,1.1Z"/>
    <path d="M389,1504.6c-2.2,0-3.8-.6-4.9-1.7-1.1-1.2-1.6-2.9-1.6-5.1v-12.9h2.9v12.8c0,2.9,1.4,4.4,4.1,4.4s3.2-.6,4.2-1.7c1-1.2,1.5-3,1.5-5.6v-9.9h2.9v19.4h-2.7v-3h-.4c-.7,1.1-1.5,2-2.4,2.6-.9.6-2.1.9-3.6.9Z"/>
    <path d="M404.8,1504.2v-19.4h2.7v3h.4c.7-1.1,1.5-1.9,2.5-2.5,1-.6,2.2-.9,3.7-.9,2.3,0,4,.6,5,1.8,1.1,1.2,1.6,3,1.6,5.5v12.5h-2.9v-12.4c0-1.2-.2-2.1-.5-2.8-.3-.7-.8-1.2-1.4-1.5-.6-.3-1.5-.5-2.5-.5-1.7,0-3.1.6-4.2,1.7-1.1,1.2-1.6,3-1.6,5.6v9.9h-2.9Z"/>
    <path d="M436.6,1504.6c-1.4,0-2.7-.3-3.8-.8-1.1-.6-1.9-1.3-2.5-2.2h-.4v2.7h-2.9v-27.2h2.9v10.7h.4c1.5-2.2,3.6-3.3,6.4-3.3s3,.4,4.2,1.1c1.2.7,2.1,1.9,2.8,3.4.7,1.5,1,3.4,1,5.6s-.4,4.1-1.1,5.6c-.7,1.5-1.7,2.6-2.9,3.4-1.2.7-2.6,1.1-4.2,1.1ZM436,1502c3.9,0,5.8-2.5,5.8-7.5s-.5-4.5-1.5-5.7c-1-1.2-2.4-1.8-4.3-1.8s-3.3.6-4.3,1.9c-1.1,1.2-1.6,3.1-1.6,5.6s.5,4.4,1.6,5.6c1.1,1.2,2.5,1.9,4.3,1.9Z"/>
    <path d="M465.3,1495.2h-13.3c0,2.3.6,4.1,1.7,5.2,1.1,1.1,2.5,1.6,4.3,1.6s2.5-.2,3.3-.7c.8-.5,1.5-1.3,2-2.3h.4l1.9,1.1c-.6,1.4-1.5,2.5-2.7,3.3-1.2.8-2.9,1.2-4.9,1.2s-3.5-.4-4.8-1.1c-1.3-.8-2.4-1.9-3.1-3.4-.7-1.5-1.1-3.4-1.1-5.6s.4-4,1.1-5.6c.8-1.5,1.8-2.6,3.1-3.4,1.3-.8,2.9-1.1,4.6-1.1,2.5,0,4.4.7,5.8,2.1,1.4,1.4,2.1,3.5,2.1,6.2s0,1.8,0,2.2l-.4.2ZM463,1492.8c0-2.1-.5-3.6-1.4-4.5-.9-.9-2.1-1.4-3.7-1.4s-3,.5-4,1.4c-1,.9-1.6,2.4-1.8,4.5h10.9Z"/>
    <path d="M470.9,1504.2v-27.2h2.9v15.9h.5l7.2-8.1h3v.4l-7.7,8.7,8.4,9.8v.4h-3.2l-7.8-9h-.5v9h-2.9Z"/>
    <path d="M493.5,1504.6c-1.9,0-3.4-.5-4.5-1.5-1.1-1-1.6-2.4-1.6-4.3s.2-2.1.7-2.9c.5-.8,1.2-1.4,2.2-1.9s2.3-.9,3.9-1.1c1.4-.2,2.5-.5,3.2-.8.7-.3,1.2-.6,1.5-1,.3-.4.4-.8.4-1.4,0-.9-.3-1.6-.9-2-.6-.5-1.6-.7-2.9-.7s-2.3.2-3.2.7c-.9.5-1.7,1.2-2.5,2.2h-.4l-1.4-2c.8-1,1.9-1.9,3.1-2.5,1.3-.6,2.7-.9,4.3-.9s4,.5,5,1.5,1.6,2.4,1.6,4.2v10.3c0,1.1.5,1.6,1.4,1.6s.6,0,.9-.2h.3c0,0,.3,2.1.3,2.1-.2.1-.5.2-.8.3-.3,0-.7.1-1.1.1-1.1,0-1.9-.2-2.4-.7-.5-.5-.9-1.2-1-2.1h-.4c-.5,1-1.3,1.7-2.2,2.3-.9.5-2.1.8-3.5.8ZM494.2,1502.3c1.1,0,2-.3,2.8-.8.8-.5,1.4-1.2,1.8-2.1.4-.9.6-1.9.6-3.1v-2.5h-.3c-.4.2-1,.5-1.6.7-.6.2-1.5.4-2.6.5-1.1.2-2,.4-2.7.7-.7.3-1.1.7-1.4,1.2-.3.5-.4,1.1-.4,1.8,0,1.1.3,2,1,2.6.7.6,1.6.9,2.8.9Z"/>
    <path d="M509,1504.2v-19.4h2.7v3h.4c.7-1.1,1.5-1.9,2.5-2.5,1-.6,2.2-.9,3.7-.9,2.3,0,4,.6,5,1.8,1.1,1.2,1.6,3,1.6,5.5v12.5h-2.9v-12.4c0-1.2-.2-2.1-.5-2.8-.3-.7-.8-1.2-1.4-1.5-.6-.3-1.5-.5-2.5-.5-1.7,0-3.1.6-4.2,1.7-1.1,1.2-1.6,3-1.6,5.6v9.9h-2.9Z"/>
    <path d="M531.3,1504.2v-19.4h2.7v3h.4c.7-1.1,1.5-1.9,2.5-2.5,1-.6,2.2-.9,3.7-.9,2.3,0,4,.6,5,1.8,1.1,1.2,1.6,3,1.6,5.5v12.5h-2.9v-12.4c0-1.2-.2-2.1-.5-2.8-.3-.7-.8-1.2-1.4-1.5-.6-.3-1.5-.5-2.5-.5-1.7,0-3.1.6-4.2,1.7-1.1,1.2-1.6,3-1.6,5.6v9.9h-2.9Z"/>
    <path d="M563.1,1501.1l.9,2.1c-.5.5-1.1.8-1.8,1-.7.2-1.5.4-2.4.4-3.7,0-5.6-1.9-5.6-5.6v-11.8h-3.4v-2.4h3.4v-4.1l2.9-.5v4.6h6.2v2.4h-6.2v11.5c0,2.2,1,3.4,2.9,3.4s2-.3,2.7-.9h.4Z"/>
    <path d="M424.8,1546.7v-2.5h7v-19.6h-.4c-1.1.5-2.1.9-3,1.2-.8.3-1.9.6-3.3.9v-2.8c1.3-.3,2.6-.7,3.9-1.1,1.3-.5,2.5-1.1,3.5-1.7h2.2v23.2h6.3v2.5h-16.2Z"/>
    <path d="M452.3,1547.1c-2.5,0-4.5-.6-5.9-1.7-1.5-1.1-2.4-2.7-2.8-4.7l2.3-1h.4c.4,1.6,1.1,2.7,2.1,3.5.9.8,2.3,1.1,4.1,1.1s3.2-.4,4.1-1.3c1-.8,1.4-2.1,1.4-3.7s-.5-2.8-1.5-3.6c-1-.8-2.5-1.3-4.6-1.3h-2.8v-2.5h2.5c1.6,0,2.9-.4,3.9-1.2,1-.8,1.4-1.9,1.4-3.4s-.4-2.4-1.3-3.1c-.8-.7-2-1-3.5-1-2.6,0-4.4,1-5.5,3.1h-.4c0,0-1.7-1.8-1.7-1.8.7-1.2,1.7-2.1,3-2.9,1.3-.7,2.9-1.1,4.6-1.1s3,.3,4.2.8c1.2.5,2,1.3,2.6,2.2.6,1,.9,2.1.9,3.4s-.4,2.4-1.1,3.3c-.7,1-1.7,1.7-2.9,2.3v.4c1.7.4,3,1.2,3.8,2.3.9,1.1,1.3,2.5,1.3,4.1,0,2.4-.7,4.3-2.2,5.6-1.4,1.3-3.6,2-6.5,2Z"/>
    <path d="M466.8,1546.9c-.7,0-1.2-.2-1.6-.6-.4-.4-.6-.9-.6-1.5s.2-1.1.6-1.5c.4-.4.9-.6,1.6-.6s1.2.2,1.6.6c.4.4.6.9.6,1.5s-.2,1.1-.6,1.5c-.4.4-.9.6-1.6.6Z"/>
    <path d="M473.9,1545.5c0-1.4.2-2.6.5-3.4.3-.9.9-1.7,1.6-2.4s1.9-1.7,3.6-2.9l2.8-2.1c1-.8,1.9-1.5,2.5-2.1.7-.7,1.2-1.4,1.5-2.1.4-.8.6-1.6.6-2.5,0-1.5-.4-2.7-1.2-3.4-.8-.8-2.1-1.2-3.8-1.2s-2.6.3-3.6,1c-1.1.6-1.9,1.5-2.5,2.7h-.4c0,0-1.8-1.8-1.8-1.8.9-1.4,2-2.5,3.4-3.3,1.4-.8,3.1-1.2,5-1.2s3.3.3,4.5.9,2.1,1.5,2.7,2.6c.6,1.1.9,2.4.9,3.8s-.2,2.2-.7,3.2c-.5,1-1.2,1.9-2,2.8-.9.9-2,1.8-3.3,2.8l-2.9,2.1c-1.1.8-1.9,1.5-2.5,2-.6.5-1,1.1-1.3,1.6-.3.5-.4,1.1-.4,1.7h13v2.5h-16.2v-1.2Z"/>
    <path d="M500.5,1535c-1.2,0-2.2-.3-3.1-.8-.9-.5-1.5-1.3-2-2.4-.5-1.1-.7-2.4-.7-4,0-2.4.5-4.2,1.6-5.4,1.1-1.2,2.5-1.8,4.3-1.8s2.1.3,3,.8c.9.5,1.6,1.3,2,2.4.5,1.1.8,2.4.8,4s-.3,3-.8,4c-.5,1.1-1.2,1.8-2,2.4-.9.5-1.9.8-3,.8ZM501,1546.7h-2.6v-.4c0,0,17.1-25.3,17.1-25.3h2.6v.4c0,0-17.1,25.3-17.1,25.3ZM500.5,1532.7c1.1,0,1.9-.4,2.4-1.1.5-.8.8-2,.8-3.8s-.3-3.1-.8-3.8c-.5-.8-1.3-1.1-2.4-1.1s-1.4.2-1.8.5c-.5.3-.8.8-1.1,1.6-.2.7-.4,1.7-.4,2.9s.1,2.2.4,2.9c.3.7.6,1.2,1.1,1.6.5.3,1.1.5,1.8.5ZM516.2,1547.1c-1.8,0-3.2-.6-4.3-1.8-1.1-1.2-1.6-3-1.6-5.4s.5-4.2,1.6-5.4c1.1-1.2,2.5-1.8,4.3-1.8s2.2.3,3,.8c.9.5,1.5,1.3,2,2.4.5,1.1.8,2.4.8,4s-.3,3-.8,4c-.5,1.1-1.2,1.8-2,2.4-.9.5-1.9.8-3,.8ZM516.2,1544.9c1.1,0,1.9-.4,2.4-1.1.5-.8.8-2,.8-3.8s-.3-3.1-.8-3.8c-.5-.8-1.3-1.1-2.4-1.1s-1.9.4-2.5,1.1c-.5.8-.8,2-.8,3.8s.3,3.1.8,3.8c.5.8,1.4,1.1,2.5,1.1Z"/>
    <path d="M-10.7,1756.8h-2.8v-25.7h4.5l7.8,21.8h.4l7.8-21.8h4.3v25.7h-2.9v-21h-.4c0,0-7.6,21-7.6,21h-3l-7.6-21h-.5v21Z"/>
    <path d="M19.9,1733.6c-.6,0-1.1-.2-1.5-.6-.4-.4-.6-.9-.6-1.5s.2-1.1.6-1.4c.4-.4.9-.6,1.5-.6s1.1.2,1.5.6c.4.4.6.9.6,1.4s-.2,1.1-.6,1.5c-.4.4-.9.6-1.5.6ZM18.5,1756.8v-19.4h2.9v19.4h-2.9Z"/>
    <path d="M33.6,1757.1c-1.2,0-2.4-.2-3.4-.5-1-.3-1.9-.8-2.6-1.3-.7-.6-1.2-1.2-1.5-1.9l1.7-1.8h.4c.6,1,1.4,1.7,2.3,2.2.9.5,2,.7,3.2.7s2.5-.3,3.3-.8c.8-.6,1.1-1.3,1.1-2.3s-.2-1.4-.7-1.9c-.4-.5-1.2-.9-2.2-1.1l-3.3-.8c-1.8-.4-3-1.1-3.8-2-.8-.9-1.2-2-1.2-3.4s.3-2,.8-2.8c.5-.8,1.3-1.4,2.3-1.8,1-.4,2.2-.6,3.6-.6s3.2.3,4.2.8c1,.5,1.8,1.2,2.4,2.1l-1.6,1.6h-.4c-.6-.7-1.3-1.2-2-1.5-.7-.3-1.6-.5-2.6-.5s-2.2.2-2.9.7c-.7.5-1,1.1-1,2s.2,1.4.7,1.9c.5.5,1.3.9,2.5,1.1l3.2.8c1.7.4,2.9,1.1,3.7,2,.8.9,1.1,2.1,1.1,3.5s-.3,2.1-.8,3c-.5.9-1.4,1.5-2.5,2-1.1.5-2.4.7-4,.7Z"/>
    <path d="M51.5,1757.1c-1.2,0-2.4-.2-3.4-.5-1-.3-1.9-.8-2.6-1.3-.7-.6-1.2-1.2-1.5-1.9l1.7-1.8h.4c.6,1,1.4,1.7,2.3,2.2.9.5,2,.7,3.2.7s2.5-.3,3.3-.8c.8-.6,1.1-1.3,1.1-2.3s-.2-1.4-.7-1.9c-.4-.5-1.2-.9-2.2-1.1l-3.3-.8c-1.8-.4-3-1.1-3.8-2-.8-.9-1.2-2-1.2-3.4s.3-2,.8-2.8c.5-.8,1.3-1.4,2.3-1.8,1-.4,2.2-.6,3.6-.6s3.2.3,4.2.8c1,.5,1.8,1.2,2.4,2.1l-1.6,1.6h-.4c-.6-.7-1.3-1.2-2-1.5-.7-.3-1.6-.5-2.6-.5s-2.2.2-2.9.7c-.7.5-1,1.1-1,2s.2,1.4.7,1.9c.5.5,1.3.9,2.5,1.1l3.2.8c1.7.4,2.9,1.1,3.7,2,.8.9,1.1,2.1,1.1,3.5s-.3,2.1-.8,3c-.5.9-1.4,1.5-2.5,2-1.1.5-2.4.7-4,.7Z"/>
    <path d="M65.4,1733.6c-.6,0-1.1-.2-1.5-.6-.4-.4-.6-.9-.6-1.5s.2-1.1.6-1.4c.4-.4.9-.6,1.5-.6s1.1.2,1.5.6c.4.4.6.9.6,1.4s-.2,1.1-.6,1.5c-.4.4-.9.6-1.5.6ZM63.9,1756.8v-19.4h2.9v19.4h-2.9Z"/>
    <path d="M81.3,1757.1c-1.8,0-3.4-.4-4.8-1.2-1.3-.8-2.4-1.9-3.1-3.4-.7-1.5-1.1-3.3-1.1-5.5s.4-4,1.1-5.5c.7-1.5,1.8-2.7,3.1-3.4,1.4-.8,3-1.2,4.8-1.2s3.4.4,4.8,1.2c1.4.8,2.4,1.9,3.1,3.4.7,1.5,1.1,3.3,1.1,5.5s-.4,4-1.1,5.5c-.7,1.5-1.8,2.6-3.1,3.4-1.3.8-2.9,1.2-4.8,1.2ZM81.3,1754.6c1.9,0,3.4-.6,4.4-1.8,1-1.2,1.5-3.1,1.5-5.7s-.5-4.4-1.5-5.7c-1-1.2-2.5-1.8-4.4-1.8s-3.4.6-4.5,1.9c-1,1.2-1.5,3.1-1.5,5.6s.5,4.4,1.5,5.7c1,1.2,2.5,1.8,4.5,1.8Z"/>
    <path d="M95.8,1756.8v-19.4h2.7v3h.4c.7-1.1,1.5-1.9,2.5-2.5,1-.6,2.2-.9,3.7-.9,2.3,0,4,.6,5,1.8,1.1,1.2,1.6,3,1.6,5.5v12.5h-2.9v-12.4c0-1.2-.2-2.1-.5-2.8-.3-.7-.8-1.2-1.4-1.5-.6-.3-1.5-.5-2.5-.5-1.7,0-3.1.6-4.2,1.7-1.1,1.2-1.6,3-1.6,5.6v9.9h-2.9Z"/>
    <path d="M123.5,1757.1c-1.2,0-2.4-.2-3.4-.5-1-.3-1.9-.8-2.6-1.3-.7-.6-1.2-1.2-1.5-1.9l1.7-1.8h.4c.6,1,1.4,1.7,2.3,2.2.9.5,2,.7,3.2.7s2.5-.3,3.3-.8c.8-.6,1.1-1.3,1.1-2.3s-.2-1.4-.7-1.9c-.4-.5-1.2-.9-2.2-1.1l-3.3-.8c-1.8-.4-3-1.1-3.8-2-.8-.9-1.2-2-1.2-3.4s.3-2,.8-2.8c.5-.8,1.3-1.4,2.3-1.8,1-.4,2.2-.6,3.6-.6s3.2.3,4.2.8c1,.5,1.8,1.2,2.4,2.1l-1.6,1.6h-.4c-.6-.7-1.3-1.2-2-1.5-.7-.3-1.6-.5-2.6-.5s-2.2.2-2.9.7c-.7.5-1,1.1-1,2s.2,1.4.7,1.9c.5.5,1.3.9,2.5,1.1l3.2.8c1.7.4,2.9,1.1,3.7,2,.8.9,1.1,2.1,1.1,3.5s-.3,2.1-.8,3c-.5.9-1.4,1.5-2.5,2-1.1.5-2.4.7-4,.7Z"/>
    <path d="M143.7,1757.1c-1.8,0-3.4-.4-4.8-1.2-1.3-.8-2.4-1.9-3.1-3.4-.7-1.5-1.1-3.3-1.1-5.5s.4-4,1.1-5.5c.7-1.5,1.8-2.7,3.1-3.4,1.4-.8,3-1.2,4.8-1.2s3.4.4,4.8,1.2c1.4.8,2.4,1.9,3.1,3.4.7,1.5,1.1,3.3,1.1,5.5s-.4,4-1.1,5.5c-.7,1.5-1.8,2.6-3.1,3.4-1.3.8-2.9,1.2-4.8,1.2ZM143.7,1754.6c1.9,0,3.4-.6,4.4-1.8,1-1.2,1.5-3.1,1.5-5.7s-.5-4.4-1.5-5.7c-1-1.2-2.5-1.8-4.4-1.8s-3.4.6-4.5,1.9c-1,1.2-1.5,3.1-1.5,5.6s.5,4.4,1.5,5.7c1,1.2,2.5,1.8,4.5,1.8Z"/>
    <path d="M167.7,1757.1c-1.4,0-2.7-.3-3.8-.8-1.1-.6-1.9-1.3-2.5-2.2h-.4v2.7h-2.9v-27.2h2.9v10.7h.4c1.5-2.2,3.6-3.3,6.4-3.3s3,.4,4.2,1.1c1.2.7,2.1,1.9,2.8,3.4.7,1.5,1,3.4,1,5.6s-.4,4.1-1.1,5.6c-.7,1.5-1.7,2.6-2.9,3.4-1.2.7-2.6,1.1-4.2,1.1ZM167,1754.6c3.9,0,5.8-2.5,5.8-7.5s-.5-4.5-1.5-5.7c-1-1.2-2.4-1.8-4.3-1.8s-3.3.6-4.3,1.9c-1.1,1.2-1.6,3.1-1.6,5.6s.5,4.4,1.6,5.6c1.1,1.2,2.5,1.9,4.3,1.9Z"/>
    <path d="M182.7,1733.6c-.6,0-1.1-.2-1.5-.6-.4-.4-.6-.9-.6-1.5s.2-1.1.6-1.4c.4-.4.9-.6,1.5-.6s1.1.2,1.5.6c.4.4.6.9.6,1.4s-.2,1.1-.6,1.5c-.4.4-.9.6-1.5.6ZM178.9,1765c-.6,0-1.2,0-1.6-.1-.5,0-.9-.2-1.4-.4l.4-2.2h.3c.6.1,1.2.2,1.8.2.9,0,1.6-.3,2.1-.9.5-.6.7-1.5.7-2.6v-21.6h2.9v21.5c0,1.9-.5,3.4-1.4,4.5-.9,1.1-2.2,1.6-3.9,1.6Z"/>
    <path d="M206,1747.8h-13.3c0,2.3.6,4.1,1.7,5.2,1.1,1.1,2.5,1.6,4.3,1.6s2.5-.2,3.3-.7c.8-.5,1.5-1.3,2-2.3h.4l1.9,1.1c-.6,1.4-1.5,2.5-2.7,3.3-1.2.8-2.9,1.2-4.9,1.2s-3.5-.4-4.8-1.1c-1.3-.8-2.4-1.9-3.1-3.4-.7-1.5-1.1-3.4-1.1-5.6s.4-4,1.1-5.6c.8-1.5,1.8-2.6,3.1-3.4,1.3-.8,2.9-1.1,4.6-1.1,2.5,0,4.4.7,5.8,2.1,1.4,1.4,2.1,3.5,2.1,6.2s0,1.8,0,2.2l-.4.2ZM203.6,1745.4c0-2.1-.5-3.6-1.4-4.5-.9-.9-2.1-1.4-3.7-1.4s-3,.5-4,1.4c-1,.9-1.6,2.4-1.8,4.5h10.9Z"/>
    <path d="M211.6,1756.8v-27.2h2.9v15.9h.5l7.2-8.1h3v.4l-7.7,8.7,8.4,9.8v.4h-3.2l-7.8-9h-.5v9h-2.9Z"/>
    <path d="M239.3,1753.7l.9,2.1c-.5.5-1.1.8-1.8,1-.7.2-1.5.4-2.4.4-3.7,0-5.6-1.9-5.6-5.6v-11.8h-3.4v-2.4h3.4v-4.1l2.9-.5v4.6h6.2v2.4h-6.2v11.5c0,2.2,1,3.4,2.9,3.4s2-.3,2.7-.9h.4Z"/>
    <path d="M259.2,1747.8h-13.3c0,2.3.6,4.1,1.7,5.2,1.1,1.1,2.5,1.6,4.3,1.6s2.5-.2,3.3-.7c.8-.5,1.5-1.3,2-2.3h.4l1.9,1.1c-.6,1.4-1.5,2.5-2.7,3.3-1.2.8-2.9,1.2-4.9,1.2s-3.5-.4-4.8-1.1c-1.3-.8-2.4-1.9-3.1-3.4-.7-1.5-1.1-3.4-1.1-5.6s.4-4,1.1-5.6c.8-1.5,1.8-2.6,3.1-3.4,1.3-.8,2.9-1.1,4.6-1.1,2.5,0,4.4.7,5.8,2.1,1.4,1.4,2.1,3.5,2.1,6.2s0,1.8,0,2.2l-.4.2ZM256.8,1745.4c0-2.1-.5-3.6-1.4-4.5-.9-.9-2.1-1.4-3.7-1.4s-3,.5-4,1.4c-1,.9-1.6,2.4-1.8,4.5h10.9Z"/>
    <path d="M91.2,1807.1v-2.5h7v-19.6h-.4c-1.1.5-2.1.9-3,1.2-.8.3-1.9.6-3.3.9v-2.8c1.3-.3,2.6-.7,3.9-1.1,1.3-.5,2.5-1.1,3.5-1.7h2.2v23.2h6.3v2.5h-16.2Z"/>
    <path d="M110.3,1807.1v-2.5h7v-19.6h-.4c-1.1.5-2.1.9-3,1.2-.8.3-1.9.6-3.3.9v-2.8c1.3-.3,2.6-.7,3.9-1.1,1.3-.5,2.5-1.1,3.5-1.7h2.2v23.2h6.3v2.5h-16.2Z"/>
    <path d="M132.7,1795.4c-1.2,0-2.2-.3-3.1-.8-.9-.5-1.5-1.3-2-2.4-.5-1.1-.7-2.4-.7-4,0-2.4.5-4.2,1.6-5.4,1.1-1.2,2.5-1.8,4.3-1.8s2.1.3,3,.8c.9.5,1.6,1.3,2,2.4.5,1.1.8,2.4.8,4s-.3,3-.8,4c-.5,1.1-1.2,1.8-2,2.4-.9.5-1.9.8-3,.8ZM133.3,1807.1h-2.6v-.4c0,0,17.1-25.3,17.1-25.3h2.6v.4c0,0-17.1,25.3-17.1,25.3ZM132.7,1793.2c1.1,0,1.9-.4,2.4-1.1.5-.8.8-2,.8-3.8s-.3-3.1-.8-3.8c-.5-.8-1.3-1.1-2.4-1.1s-1.4.2-1.8.5c-.5.3-.8.8-1.1,1.6-.2.7-.4,1.7-.4,2.9s.1,2.2.4,2.9c.3.7.6,1.2,1.1,1.6.5.3,1.1.5,1.8.5ZM148.5,1807.5c-1.8,0-3.2-.6-4.3-1.8-1.1-1.2-1.6-3-1.6-5.4s.5-4.2,1.6-5.4c1.1-1.2,2.5-1.8,4.3-1.8s2.2.3,3,.8c.9.5,1.5,1.3,2,2.4.5,1.1.8,2.4.8,4s-.3,3-.8,4c-.5,1.1-1.2,1.8-2,2.4-.9.5-1.9.8-3,.8ZM148.5,1805.3c1.1,0,1.9-.4,2.4-1.1.5-.8.8-2,.8-3.8s-.3-3.1-.8-3.8c-.5-.8-1.3-1.1-2.4-1.1s-1.9.4-2.5,1.1c-.5.8-.8,2-.8,3.8s.3,3.1.8,3.8c.5.8,1.4,1.1,2.5,1.1Z"/>
    <path d="M21.2,2146.1v-25.7h9.3c1.7,0,3.2.3,4.3.9,1.2.6,2.1,1.4,2.6,2.4.6,1,.9,2.3.9,3.7s-.4,2.9-1.2,4c-.8,1-2,1.8-3.7,2.3v.4c.8.3,1.5.9,2,1.6.5.7,1,1.7,1.5,3.1l2.4,7.4h-3.1l-2.6-7.9c-.3-.9-.7-1.7-1.1-2.2-.4-.5-.9-.9-1.5-1.1-.6-.2-1.4-.4-2.3-.4h-4.6v11.5h-3ZM30.4,2132.1c1.6,0,2.8-.4,3.6-1.1.8-.8,1.2-1.9,1.2-3.4s-.4-2.7-1.2-3.4c-.8-.8-2-1.1-3.6-1.1h-6.3v9h6.3Z"/>
    <path d="M49.1,2146.5c-1.9,0-3.4-.5-4.5-1.5-1.1-1-1.6-2.4-1.6-4.3s.2-2.1.7-2.9c.5-.8,1.2-1.4,2.2-1.9s2.3-.9,3.9-1.1c1.4-.2,2.5-.5,3.2-.8.7-.3,1.2-.6,1.5-1,.3-.4.4-.8.4-1.4,0-.9-.3-1.6-.9-2-.6-.5-1.6-.7-2.9-.7s-2.3.2-3.2.7c-.9.5-1.7,1.2-2.5,2.2h-.4l-1.4-2c.8-1,1.9-1.9,3.1-2.5,1.3-.6,2.7-.9,4.3-.9s4,.5,5,1.5,1.6,2.4,1.6,4.2v10.3c0,1.1.5,1.6,1.4,1.6s.6,0,.9-.2h.3c0,0,.3,2.1.3,2.1-.2.1-.5.2-.8.3-.3,0-.7.1-1.1.1-1.1,0-1.9-.2-2.4-.7-.5-.5-.9-1.2-1-2.1h-.4c-.5,1-1.3,1.7-2.2,2.3-.9.5-2.1.8-3.5.8ZM49.7,2144.2c1.1,0,2-.3,2.8-.8.8-.5,1.4-1.2,1.8-2.1.4-.9.6-1.9.6-3.1v-2.5h-.3c-.4.2-1,.5-1.6.7-.6.2-1.5.4-2.6.5-1.1.2-2,.4-2.7.7-.7.3-1.1.7-1.4,1.2-.3.5-.4,1.1-.4,1.8,0,1.1.3,2,1,2.6.7.6,1.6.9,2.8.9Z"/>
    <path d="M64.5,2146.1v-27.2h2.9v15.9h.5l7.2-8.1h3v.4l-7.7,8.7,8.4,9.8v.4h-3.2l-7.8-9h-.5v9h-2.9Z"/>
    <path d="M97.3,2137.1h-13.3c0,2.3.6,4.1,1.7,5.2,1.1,1.1,2.5,1.6,4.3,1.6s2.5-.2,3.3-.7c.8-.5,1.5-1.3,2-2.3h.4l1.9,1.1c-.6,1.4-1.5,2.5-2.7,3.3-1.2.8-2.9,1.2-4.9,1.2s-3.5-.4-4.8-1.1c-1.3-.8-2.4-1.9-3.1-3.4-.7-1.5-1.1-3.4-1.1-5.6s.4-4,1.1-5.6c.8-1.5,1.8-2.6,3.1-3.4,1.3-.8,2.9-1.1,4.6-1.1,2.5,0,4.4.7,5.8,2.1,1.4,1.4,2.1,3.5,2.1,6.2s0,1.8,0,2.2l-.4.2ZM94.9,2134.7c0-2.1-.5-3.6-1.4-4.5-.9-.9-2.1-1.4-3.7-1.4s-3,.5-4,1.4c-1,.9-1.6,2.4-1.8,4.5h10.9Z"/>
    <path d="M112.6,2143.1l.9,2.1c-.5.5-1.1.8-1.8,1-.7.2-1.5.4-2.4.4-3.7,0-5.6-1.9-5.6-5.6v-11.8h-3.4v-2.4h3.4v-4.1l2.9-.5v4.6h6.2v2.4h-6.2v11.5c0,2.2,1,3.4,2.9,3.4s2-.3,2.7-.9h.4Z"/>
    <path d="M132.5,2137.1h-13.3c0,2.3.6,4.1,1.7,5.2,1.1,1.1,2.5,1.6,4.3,1.6s2.5-.2,3.3-.7c.8-.5,1.5-1.3,2-2.3h.4l1.9,1.1c-.6,1.4-1.5,2.5-2.7,3.3-1.2.8-2.9,1.2-4.9,1.2s-3.5-.4-4.8-1.1c-1.3-.8-2.4-1.9-3.1-3.4-.7-1.5-1.1-3.4-1.1-5.6s.4-4,1.1-5.6c.8-1.5,1.8-2.6,3.1-3.4,1.3-.8,2.9-1.1,4.6-1.1,2.5,0,4.4.7,5.8,2.1,1.4,1.4,2.1,3.5,2.1,6.2s0,1.8,0,2.2l-.4.2ZM130.1,2134.7c0-2.1-.5-3.6-1.4-4.5-.9-.9-2.1-1.4-3.7-1.4s-3,.5-4,1.4c-1,.9-1.6,2.4-1.8,4.5h10.9Z"/>
    <path d="M138,2146.1v-19.4h2.7v3h.4c.7-1.1,1.5-1.9,2.5-2.5,1-.6,2.2-.9,3.7-.9,2.3,0,4,.6,5,1.8,1.1,1.2,1.6,3,1.6,5.5v12.5h-2.9v-12.4c0-1.2-.2-2.1-.5-2.8-.3-.7-.8-1.2-1.4-1.5-.6-.3-1.5-.5-2.5-.5-1.7,0-3.1.6-4.2,1.7-1.1,1.2-1.6,3-1.6,5.6v9.9h-2.9Z"/>
    <path d="M169.9,2143.1l.9,2.1c-.5.5-1.1.8-1.8,1-.7.2-1.5.4-2.4.4-3.7,0-5.6-1.9-5.6-5.6v-11.8h-3.4v-2.4h3.4v-4.1l2.9-.5v4.6h6.2v2.4h-6.2v11.5c0,2.2,1,3.4,2.9,3.4s2-.3,2.7-.9h.4Z"/>
    <path d="M189.8,2137.1h-13.3c0,2.3.6,4.1,1.7,5.2,1.1,1.1,2.5,1.6,4.3,1.6s2.5-.2,3.3-.7c.8-.5,1.5-1.3,2-2.3h.4l1.9,1.1c-.6,1.4-1.5,2.5-2.7,3.3-1.2.8-2.9,1.2-4.9,1.2s-3.5-.4-4.8-1.1c-1.3-.8-2.4-1.9-3.1-3.4-.7-1.5-1.1-3.4-1.1-5.6s.4-4,1.1-5.6c.8-1.5,1.8-2.6,3.1-3.4,1.3-.8,2.9-1.1,4.6-1.1,2.5,0,4.4.7,5.8,2.1,1.4,1.4,2.1,3.5,2.1,6.2s0,1.8,0,2.2l-.4.2ZM187.4,2134.7c0-2.1-.5-3.6-1.4-4.5-.9-.9-2.1-1.4-3.7-1.4s-3,.5-4,1.4c-1,.9-1.6,2.4-1.8,4.5h10.9Z"/>
    <path d="M196.8,2123c-.6,0-1.1-.2-1.5-.6-.4-.4-.6-.9-.6-1.5s.2-1.1.6-1.4c.4-.4.9-.6,1.5-.6s1.1.2,1.5.6c.4.4.6.9.6,1.4s-.2,1.1-.6,1.5c-.4.4-.9.6-1.5.6ZM195.4,2146.1v-19.4h2.9v19.4h-2.9Z"/>
    <path d="M209.3,2146.5c-1.4,0-2.4-.4-3.2-1.2-.8-.8-1.2-1.9-1.2-3.5v-22.9h2.9v22.7c0,.8.2,1.4.5,1.8.3.4.8.5,1.5.5s.8,0,1.2-.2h.3c0,0,.3,2.3.3,2.3-.2.1-.5.2-.9.3-.4,0-.8.1-1.3.1Z"/>
    <path d="M230.6,2137.1h-13.3c0,2.3.6,4.1,1.7,5.2,1.1,1.1,2.5,1.6,4.3,1.6s2.5-.2,3.3-.7c.8-.5,1.5-1.3,2-2.3h.4l1.9,1.1c-.6,1.4-1.5,2.5-2.7,3.3-1.2.8-2.9,1.2-4.9,1.2s-3.5-.4-4.8-1.1c-1.3-.8-2.4-1.9-3.1-3.4-.7-1.5-1.1-3.4-1.1-5.6s.4-4,1.1-5.6c.8-1.5,1.8-2.6,3.1-3.4,1.3-.8,2.9-1.1,4.6-1.1,2.5,0,4.4.7,5.8,2.1,1.4,1.4,2.1,3.5,2.1,6.2s0,1.8,0,2.2l-.4.2ZM228.2,2134.7c0-2.1-.5-3.6-1.4-4.5-.9-.9-2.1-1.4-3.7-1.4s-3,.5-4,1.4c-1,.9-1.6,2.4-1.8,4.5h10.9Z"/>
    <path d="M95.5,2189c-2.2,0-4-.5-5.4-1.5-1.4-1-2.3-2.4-2.6-4.2l2.2-1h.4c.4,1.4,1,2.3,1.9,3,.8.7,2,1,3.5,1s3.8-.9,4.9-2.7c1.1-1.8,1.7-4.5,1.7-8.3h-.4c-.7,1.4-1.6,2.5-2.7,3.2-1.1.7-2.5,1.1-4.2,1.1s-3-.3-4.2-1c-1.2-.7-2.1-1.7-2.7-3-.6-1.3-1-2.8-1-4.5s.3-3.2,1-4.5c.7-1.3,1.7-2.3,3-3s2.8-1.1,4.5-1.1c3,0,5.4,1,7.1,3.1,1.7,2,2.6,5.3,2.6,9.9s-.4,5.6-1.2,7.6c-.8,2-1.9,3.5-3.4,4.5-1.4,1-3.1,1.4-5,1.4ZM95.5,2177c1.2,0,2.2-.2,3-.7.9-.5,1.5-1.1,2-2s.7-1.9.7-3.1-.2-2.3-.7-3.1-1.1-1.5-2-2c-.8-.5-1.9-.7-3-.7-1.7,0-3,.5-4,1.5-1,1-1.4,2.4-1.4,4.3s.5,3.4,1.4,4.4c1,1,2.3,1.5,4,1.5Z"/>
    <path d="M110.5,2188.8c-.7,0-1.2-.2-1.6-.6-.4-.4-.6-.9-.6-1.5s.2-1.1.6-1.5c.4-.4.9-.6,1.6-.6s1.2.2,1.6.6c.4.4.6.9.6,1.5s-.2,1.1-.6,1.5c-.4.4-.9.6-1.6.6Z"/>
    <path d="M125.7,2189c-1.9,0-3.5-.3-4.8-.9-1.3-.6-2.3-1.5-3-2.6-.7-1.1-1-2.4-1-4s.4-3,1.2-4.1c.8-1.1,2-2,3.6-2.6v-.4c-1.1-.7-2-1.4-2.6-2.3-.6-.9-.9-1.9-.9-3.1s.3-2.4.9-3.4c.6-1,1.5-1.7,2.6-2.3,1.1-.5,2.5-.8,4-.8s2.8.3,4,.8c1.2.5,2,1.3,2.7,2.3.6,1,.9,2.1.9,3.4s-.3,2.3-.9,3.1c-.6.9-1.5,1.7-2.6,2.3v.4c1.6.6,2.8,1.5,3.6,2.6.8,1.1,1.2,2.4,1.2,4.1s-.3,2.9-1,4c-.7,1.1-1.7,2-3,2.6-1.3.6-2.9.9-4.8.9ZM125.7,2173.7c.9,0,1.7-.2,2.4-.5.7-.3,1.2-.8,1.6-1.5.4-.7.6-1.4.6-2.3s-.2-1.7-.6-2.3c-.4-.7-.9-1.2-1.6-1.5-.7-.4-1.5-.5-2.4-.5-1.4,0-2.5.4-3.4,1.2-.8.8-1.3,1.8-1.3,3.2s.4,2.4,1.3,3.2c.8.8,2,1.1,3.4,1.1ZM125.7,2186.3c1.8,0,3.3-.4,4.3-1.3,1-.9,1.5-2.1,1.5-3.7s-.5-2.8-1.5-3.7c-1-.9-2.4-1.3-4.3-1.3s-3.3.4-4.3,1.3c-1,.9-1.5,2.1-1.5,3.7s.5,2.8,1.5,3.7c1,.9,2.4,1.3,4.3,1.3Z"/>
    <path d="M143.5,2176.9c-1.2,0-2.2-.3-3.1-.8-.9-.5-1.5-1.3-2-2.4-.5-1.1-.7-2.4-.7-4,0-2.4.5-4.2,1.6-5.4,1.1-1.2,2.5-1.8,4.3-1.8s2.1.3,3,.8c.9.5,1.6,1.3,2,2.4.5,1.1.8,2.4.8,4s-.3,3-.8,4c-.5,1.1-1.2,1.8-2,2.4-.9.5-1.9.8-3,.8ZM144.1,2188.6h-2.6v-.4c0,0,17.1-25.3,17.1-25.3h2.6v.4c0,0-17.1,25.3-17.1,25.3ZM143.5,2174.7c1.1,0,1.9-.4,2.4-1.1.5-.8.8-2,.8-3.8s-.3-3.1-.8-3.8c-.5-.8-1.3-1.1-2.4-1.1s-1.4.2-1.8.5c-.5.3-.8.8-1.1,1.6-.2.7-.4,1.7-.4,2.9s.1,2.2.4,2.9c.3.7.6,1.2,1.1,1.6.5.3,1.1.5,1.8.5ZM159.3,2189c-1.8,0-3.2-.6-4.3-1.8-1.1-1.2-1.6-3-1.6-5.4s.5-4.2,1.6-5.4c1.1-1.2,2.5-1.8,4.3-1.8s2.2.3,3,.8c.9.5,1.5,1.3,2,2.4.5,1.1.8,2.4.8,4s-.3,3-.8,4c-.5,1.1-1.2,1.8-2,2.4-.9.5-1.9.8-3,.8ZM159.3,2186.8c1.1,0,1.9-.4,2.4-1.1.5-.8.8-2,.8-3.8s-.3-3.1-.8-3.8c-.5-.8-1.3-1.1-2.4-1.1s-1.9.4-2.5,1.1c-.5.8-.8,2-.8,3.8s.3,3.1.8,3.8c.5.8,1.4,1.1,2.5,1.1Z"/>
  </g>
  <g id="Ebene_2">
    <rect class="st4" x="0" width="1100" height="1100"/>
    <g>
      <path class="st7" d="M41.8,605.9c0,3.2-.8,5.7-2.5,7.4s-4,2.5-7,2.5-5.2-.8-6.9-2.5c-1.7-1.6-2.5-4-2.5-7.1v-15.7h3.8v15.7c0,2.1.5,3.7,1.5,4.6,1,1,2.4,1.5,4.1,1.5,3.8,0,5.7-2.1,5.7-6.3v-15.5h3.8v15.4h0Z"/>
      <path class="st7" d="M51,615.5h-3.8v-24.9h3.8v24.9ZM65.7,615.5h-4.8l-9.4-12.3,9.1-12.6h4.6l-9.1,12.6,9.7,12.4h0Z"/>
      <path class="st7" d="M32.4,652c0,2.5-.7,4.5-2.1,6s-3.2,2.3-5.5,2.3-4.9-1-6.4-3.1-2.2-4.8-2.2-8.2,1-7.4,3-10,4.7-4,8.1-4,2.2.2,3.4.6v2.8c-1.1-.5-2.2-.7-3.4-.7-2.3,0-4.2.9-5.5,2.6-1.4,1.7-2.2,3.9-2.6,6.6,1.6-1.7,3.6-2.6,6-2.6s4,.7,5.2,2.1,1.9,3.3,1.9,5.6h0ZM24.8,657.6c1.4,0,2.5-.5,3.3-1.6.8-1,1.2-2.4,1.2-4.1s-.4-2.8-1.2-3.7c-.8-.9-1.9-1.4-3.2-1.4-2.2,0-4.1.9-5.8,2.7,0,2.6.7,4.6,1.7,5.9,1,1.3,2.4,2,4,2v.2Z"/>
      <path class="st7" d="M50.9,652.3c0,2.4-.8,4.3-2.3,5.7-1.6,1.4-3.7,2.1-6.4,2.1s-4.5-.4-6.2-1.3v-2.9c1.6.9,3.5,1.4,5.7,1.4,4.1,0,6.2-1.7,6.2-5.2s-.5-2.5-1.4-3.3c-1-.8-2.2-1.2-3.7-1.2s-3.7.4-5.6,1.3v-13.4h12.1v2.6h-9.2v7.3c1.1-.2,2.1-.4,2.9-.4,2.5,0,4.4.7,5.9,2,1.4,1.3,2.2,3.1,2.2,5.3h-.2Z"/>
      <path class="st7" d="M71.1,647.7c0,3.8-.7,6.8-2.2,9.1s-3.6,3.4-6.3,3.4-4.6-1.1-6.1-3.4c-1.5-2.3-2.3-5.3-2.3-9.1s.8-6.8,2.3-9,3.6-3.3,6.1-3.3,4.7,1.1,6.2,3.3,2.3,5.2,2.3,9ZM58.8,640.6c-1.1,1.7-1.6,4-1.6,7s.5,5.4,1.6,7.1c1,1.7,2.3,2.6,3.8,2.6s3.1-.8,4.1-2.5,1.5-4.1,1.5-7.2-.5-5.4-1.6-7.1c-1-1.6-2.4-2.5-4-2.5s-2.8.8-3.8,2.5h0Z"/>
    </g>
    <g>
      <path class="st7" d="M31,368.2c-1.5,1-3.7,1.5-6.4,1.5s-6.8-1.2-9.1-3.5-3.6-5.4-3.6-9.3,1.2-6.8,3.6-9.2c2.4-2.4,5.4-3.6,9-3.6s4.8.5,6.4,1.4v3.7c-1.1-.6-2.1-1-2.9-1.2-.9-.2-2-.4-3.3-.4-2.5,0-4.6.8-6.2,2.5-1.7,1.7-2.5,3.9-2.5,6.7s.8,5.1,2.5,6.8c1.7,1.7,3.8,2.5,6.5,2.5s4.4-.6,6-1.9v4Z"/>
      <path class="st7" d="M50.6,369.5h-3.6v-11.8c0-1.3-.3-2.3-1-3s-1.5-1.1-2.6-1.1-2.3.5-3.3,1.4-1.4,2.4-1.4,4.3v10.2h-3.6v-26.2h3.6v10.6c1.1-2.3,3-3.5,5.8-3.5s3.3.6,4.4,1.7c1.1,1.1,1.7,2.7,1.7,4.7v12.6h0Z"/>
      <path class="st7" d="M59.8,345c0,.6-.2,1.1-.7,1.6-.4.4-1,.7-1.6.7s-1.2-.2-1.6-.6c-.4-.4-.6-1-.6-1.6s.2-1.2.6-1.6,1-.7,1.6-.7,1.2.2,1.6.7c.4.4.7,1,.7,1.6h0ZM59.3,369.5h-3.7v-18.8h3.7v18.8Z"/>
      <path class="st7" d="M80.1,369.5h-3.6v-11.8c0-1.3-.3-2.3-1-3s-1.5-1-2.6-1-2.4.5-3.3,1.5-1.4,2.4-1.4,4.2v10.2h-3.6v-18.8h3.6v3.2c1.1-2.3,3.1-3.5,5.8-3.5s3.3.6,4.4,1.7,1.6,2.7,1.6,4.6v12.7h0Z"/>
      <path class="st7" d="M95,367.2c-1,1.6-2.7,2.4-5.1,2.4s-3.2-.5-4.3-1.5c-1.1-1-1.6-2.3-1.6-3.9s.7-3.2,2-4.2,3.3-1.5,5.7-1.5h3.1v-1.1c0-1.3-.3-2.3-.9-2.9-.6-.7-1.6-1-3.1-1s-3.8.6-5.4,1.7v-3.5c1.5-.8,3.4-1.3,5.8-1.3,4.9,0,7.4,2.4,7.4,7.1v11.9h-3.6v-2.2ZM91.1,366.8c1.2,0,2.1-.3,2.8-1,.7-.7,1-1.5,1-2.6v-2.1h-2.8c-1.4,0-2.4.3-3.1.8s-1.1,1.2-1.1,2.1.3,1.5.8,2,1.3.7,2.4.7h0Z"/>
      <path class="st7" d="M49.6,406c0,2.5-.7,4.5-2.1,6s-3.2,2.3-5.5,2.3-4.9-1-6.4-3.1-2.2-4.8-2.2-8.2,1-7.4,3-10,4.7-4,8.1-4,2.2.2,3.4.6v2.8c-1.1-.5-2.2-.7-3.4-.7-2.3,0-4.2.9-5.5,2.6-1.4,1.7-2.2,3.9-2.6,6.6,1.6-1.7,3.6-2.6,6-2.6s4,.7,5.2,2.1,1.9,3.3,1.9,5.6h0ZM42,411.6c1.4,0,2.5-.5,3.3-1.6.8-1,1.2-2.4,1.2-4.1s-.4-2.8-1.2-3.7c-.8-.9-1.9-1.4-3.2-1.4-2.2,0-4.1.9-5.8,2.7,0,2.6.7,4.6,1.7,5.9s2.4,2,4,2v.2Z"/>
      <path class="st7" d="M60.1,413.9h-2.9v-21l-5.6,3.4v-3.1l5.7-3.5h2.7v24.2h0Z"/>
      <path class="st7" d="M69.1,413.9h-3.1l10-21.6h-12.7v-2.6h15.8v2.6s-10,21.6-10,21.6Z"/>
    </g>
    <g>
      <path class="st7" d="M25.1,243.2h-3.8v-24.9h7c2.9,0,5.1.7,6.6,2.1,1.6,1.4,2.3,3.3,2.3,5.7s-.5,3.2-1.3,4.5c-.9,1.2-2.1,2.1-3.6,2.6l6.5,10.1h-4.6l-5.8-9.5h-3.3v9.5h0ZM28.4,221.4h-3.3v9.1h3.4c1.6,0,2.8-.4,3.6-1.2s1.2-1.9,1.2-3.3c0-3-1.7-4.6-5-4.6h.1Z"/>
      <path class="st7" d="M57.5,243.2h-3.6v-3.2c-1,2.3-2.9,3.4-5.8,3.4s-3.3-.5-4.4-1.6c-1.1-1.1-1.6-2.6-1.6-4.5v-12.8h3.7v11.9c0,1.3.3,2.3.9,2.9s1.5,1,2.6,1,2.5-.5,3.4-1.5,1.3-2.4,1.3-4.2v-10.2h3.6v18.8h-.1Z"/>
      <path class="st7" d="M74.3,238c0,1.7-.6,3-1.8,3.9-1.2.9-2.8,1.4-4.8,1.4s-4.1-.4-5.5-1.1v-3.4c1.7,1.1,3.5,1.6,5.4,1.6s1.7-.2,2.2-.6c.5-.4.8-.9.8-1.6s-.2-1-.6-1.5c-.4-.4-.8-.8-1.3-1-.4-.2-1.2-.5-2.2-1-2.9-1.2-4.4-3-4.4-5.3s.6-2.9,1.8-3.9,2.8-1.4,4.6-1.4,3.6.3,4.7.8v3.3c-1.2-.7-2.8-1.1-4.7-1.1s-1.5.2-2.1.6c-.5.4-.8.9-.8,1.6s0,.3,0,.5,0,.3.2.5c0,.2.2.3.3.4,0,.1.2.2.4.4.2.1.4.2.5.3,0,0,.3.2.6.3.3.1.4.2.6.3,0,0,.3.2.6.3.3.1.5.2.6.3,1.5.6,2.6,1.4,3.4,2.2s1.2,1.9,1.2,3.2h.3Z"/>
      <path class="st7" d="M89.8,238c0,1.7-.6,3-1.8,3.9-1.2.9-2.8,1.4-4.8,1.4s-4.1-.4-5.5-1.1v-3.4c1.7,1.1,3.5,1.6,5.4,1.6s1.7-.2,2.2-.6c.5-.4.8-.9.8-1.6s-.2-1-.6-1.5c-.4-.4-.8-.8-1.3-1-.4-.2-1.2-.5-2.2-1-2.9-1.2-4.4-3-4.4-5.3s.6-2.9,1.8-3.9,2.8-1.4,4.6-1.4,3.6.3,4.7.8v3.3c-1.2-.7-2.8-1.1-4.7-1.1s-1.5.2-2.1.6c-.5.4-.8.9-.8,1.6s0,.3,0,.5,0,.3.2.5c0,.2.2.3.3.4,0,.1.2.2.4.4.2.1.4.2.5.3,0,0,.3.2.6.3.3.1.4.2.6.3,0,0,.3.2.6.3.3.1.5.2.6.3,1.5.6,2.6,1.4,3.4,2.2s1.2,1.9,1.2,3.2h.3Z"/>
      <path class="st7" d="M97.4,243.2h-3.7v-26.2h3.7v26.2Z"/>
      <path class="st7" d="M112.7,241c-1,1.6-2.7,2.4-5.1,2.4s-3.2-.5-4.3-1.5c-1.1-1-1.6-2.3-1.6-3.9s.7-3.2,2-4.2,3.3-1.5,5.7-1.5h3.1v-1.1c0-1.3-.3-2.3-.9-2.9-.6-.7-1.6-1-3.1-1s-3.8.6-5.4,1.7v-3.5c1.5-.8,3.4-1.3,5.8-1.3,4.9,0,7.4,2.4,7.4,7.1v11.9h-3.6v-2.2ZM108.7,240.5c1.2,0,2.1-.3,2.8-1,.7-.7,1-1.5,1-2.6v-2.1h-2.8c-1.4,0-2.4.3-3.1.8s-1.1,1.2-1.1,2.1.3,1.5.8,2,1.3.7,2.4.7h0Z"/>
      <path class="st7" d="M136.6,243.2h-3.6v-11.8c0-1.3-.3-2.3-1-3s-1.5-1-2.6-1-2.4.5-3.3,1.5c-.9,1-1.4,2.4-1.4,4.2v10.2h-3.6v-18.8h3.6v3.2c1.1-2.3,3.1-3.5,5.8-3.5s3.3.6,4.4,1.7,1.6,2.7,1.6,4.6v12.7h.1Z"/>
      <path class="st7" d="M157.9,243.2h-3.7v-2.8c-1.3,2.1-3.2,3.1-5.7,3.1s-4.4-.9-5.8-2.8-2.1-4.1-2.1-6.8.8-5.3,2.3-7.1,3.4-2.7,5.8-2.7,4.3,1,5.7,3.1v-10.2h3.7v26.2h-.2ZM144.2,234c0,1.9.5,3.4,1.4,4.6.9,1.2,2.1,1.7,3.5,1.7s2.6-.5,3.6-1.6,1.5-2.7,1.5-5-.5-3.7-1.5-4.8c-1-1-2.2-1.6-3.5-1.6s-2.7.6-3.6,1.7c-.9,1.1-1.4,2.8-1.4,4.9h0Z"/>
      <path class="st7" d="M76.8,287.6h-2.9v-21l-5.6,3.4v-3.1l5.7-3.5h2.7v24.2h.1Z"/>
      <path class="st7" d="M97.6,281.3c0,2-.8,3.6-2.3,4.8-1.6,1.2-3.5,1.8-5.8,1.8s-4.1-.6-5.6-1.7c-1.5-1.2-2.3-2.7-2.3-4.7s.4-2.7,1.2-3.7c.8-1,1.8-1.8,3.2-2.2-2.6-1-4-2.9-4-5.6s.7-3.8,2.2-5,3.2-1.8,5.3-1.8,3.9.6,5.4,1.8,2.2,2.9,2.2,5.1-.3,2.4-1,3.3c-.7,1-1.6,1.7-2.8,2.2,3,.9,4.5,2.9,4.5,5.8h-.2ZM84.5,281.3c0,1.1.4,2.1,1.3,2.8.9.8,2.1,1.1,3.7,1.1s2.9-.4,3.8-1.2c.9-.8,1.3-1.8,1.3-3s-.4-2.2-1.3-3-2.1-1.2-3.8-1.2-2.9.5-3.7,1.3c-.8.9-1.2,1.9-1.2,3.2h-.1ZM84.9,269.9c0,1.4.4,2.5,1.3,3.2s2,1.1,3.3,1.1,2.4-.4,3.2-1.1c.8-.8,1.3-1.8,1.3-3.2s-.4-2.2-1.2-3c-.8-.8-1.9-1.2-3.4-1.2s-2.5.4-3.3,1.2-1.2,1.8-1.2,3Z"/>
      <path class="st7" d="M108.6,287.6h-2.9v-21l-5.6,3.4v-3.1l5.7-3.5h2.7v24.2h.1Z"/>
    </g>
    <g>
      <path class="st7" d="M216.7,76.7h-14.4v-24.9h14.2v3.2h-10.4v7.7h9.2v3.2h-9.2v7.7h10.6v3.2h0Z"/>
      <path class="st7" d="M236.1,69.9c0,2.2-.8,3.9-2.3,5.2s-3.6,1.9-6,1.9-5-.5-6.8-1.6v-4c1.9,1.5,4.2,2.2,6.8,2.2s2.4-.3,3.2-.9c.8-.6,1.2-1.5,1.2-2.6s-.2-1.3-.7-1.8c-.5-.6-1-1-1.5-1.3s-1.4-.7-2.4-1.2c-.6-.3-1.1-.5-1.4-.6-.3,0-.7-.3-1.3-.7-.6-.3-1-.6-1.3-.8s-.6-.5-1.1-.9c-.4-.4-.7-.8-.9-1.2s-.4-.9-.5-1.4c-.2-.5-.2-1.1-.2-1.7,0-2.1.8-3.8,2.3-5s3.5-1.8,6-1.8,4.2.4,5.7,1.2v3.8c-1.7-1-3.5-1.6-5.6-1.6s-2.4.3-3.2.9c-.8.6-1.2,1.4-1.2,2.4s.4,1.8,1.1,2.4c.8.6,1.9,1.2,3.5,1.9,1,.4,1.8.8,2.4,1.1.6.3,1.2.8,2,1.4.8.6,1.3,1.3,1.7,2.1s.5,1.7.5,2.8v-.2Z"/>
      <path class="st7" d="M243.1,76.7h-4l8.6-24.9h5l8.5,24.9h-4.1l-2-6.1h-10.1l-2,6.1h.1ZM246.5,66.2l-.4,1.3h8l-.4-1.3c-.9-2.9-1.7-5.3-2.3-7.2-.6-1.9-1-3.1-1.1-3.6l-.2-.7c-.3,1.2-1.5,5-3.6,11.5Z"/>
      <path class="st7" d="M230.7,113.2c0,2.5-.7,4.5-2.1,6s-3.2,2.3-5.5,2.3-4.9-1-6.4-3.1-2.2-4.8-2.2-8.2,1-7.4,3-10,4.7-4,8.1-4,2.2.2,3.4.6v2.8c-1.1-.5-2.2-.7-3.4-.7-2.3,0-4.2.9-5.5,2.6-1.4,1.7-2.2,3.9-2.6,6.6,1.6-1.7,3.6-2.6,6-2.6s4,.7,5.2,2.1,1.9,3.3,1.9,5.6h.1ZM223.1,118.8c1.4,0,2.5-.5,3.3-1.6.8-1,1.2-2.4,1.2-4.1s-.4-2.8-1.2-3.7c-.8-.9-1.9-1.4-3.2-1.4-2.2,0-4.1.9-5.8,2.7,0,2.6.7,4.6,1.7,5.9s2.4,2,4,2v.2Z"/>
      <path class="st7" d="M247.4,114.5c0,2-.7,3.6-2.1,4.9s-3.3,2-5.8,2-4.3-.4-6-1.2v-2.9c1.8,1,3.8,1.4,6,1.4s2.8-.4,3.7-1.2c.9-.8,1.3-1.9,1.3-3.2s-.5-2.3-1.5-3-2.4-1.1-4.2-1.1h-1.6v-2.6h1.6c1.4,0,2.5-.4,3.5-1.2.9-.8,1.4-1.8,1.4-3.1s-.4-2.3-1.2-3-1.9-1-3.4-1-3.3.5-4.9,1.5v-2.8c1.4-.9,3.1-1.4,5-1.4s4.2.6,5.6,1.8c1.3,1.2,2,2.7,2,4.5s-.3,2.5-1,3.5-1.6,1.8-2.9,2.3c1.4.3,2.5,1,3.3,1.9.8,1,1.2,2.2,1.2,3.6v.3Z"/>
    </g>
    <g>
      <path class="st7" d="M80.9,100.2c0,2.3-.6,4-1.7,5.1s-2.6,1.6-4.5,1.6-2.8-.3-3.7-.8v-3.5c1,.6,2,.9,3,.9,2,0,3-1.1,3-3.2v-18.4h3.8v18.2h0Z"/>
      <path class="st7" d="M96.1,104.7c-1,1.6-2.7,2.4-5.1,2.4s-3.2-.5-4.3-1.5c-1.1-1-1.6-2.3-1.6-3.9s.7-3.2,2-4.2,3.3-1.5,5.7-1.5h3.1v-1.1c0-1.3-.3-2.3-.9-2.9-.6-.7-1.6-1-3.1-1s-3.8.6-5.4,1.7v-3.5c1.5-.8,3.4-1.3,5.8-1.3,4.9,0,7.4,2.4,7.4,7.1v11.9h-3.6v-2.2ZM92.2,104.3c1.2,0,2.1-.3,2.8-1,.7-.7,1-1.5,1-2.6v-2.1h-2.8c-1.4,0-2.4.3-3.1.8s-1.1,1.2-1.1,2.1.3,1.5.8,2,1.3.7,2.4.7h0Z"/>
      <path class="st7" d="M108.2,114.1h-3.6v-25.9h3.6v2.9c1.3-2.1,3.2-3.1,5.8-3.1s4.4.9,5.8,2.7c1.4,1.8,2.1,4.1,2.1,6.8s-.7,5.2-2.2,7-3.4,2.8-5.9,2.8-4.4-1-5.7-3.1v10h0ZM108.2,97.5c0,2.2.5,3.8,1.5,4.9s2.2,1.6,3.5,1.6,2.7-.6,3.6-1.7c.9-1.1,1.4-2.8,1.4-4.8s-.5-3.5-1.4-4.6-2.1-1.7-3.5-1.7-2.6.5-3.6,1.5-1.5,2.6-1.5,4.9h0Z"/>
      <path class="st7" d="M136,104.7c-1,1.6-2.7,2.4-5.1,2.4s-3.2-.5-4.3-1.5-1.6-2.3-1.6-3.9.7-3.2,2-4.2,3.3-1.5,5.7-1.5h3.1v-1.1c0-1.3-.3-2.3-.9-2.9-.6-.7-1.6-1-3.1-1s-3.8.6-5.4,1.7v-3.5c1.5-.8,3.4-1.3,5.8-1.3,4.9,0,7.4,2.4,7.4,7.1v11.9h-3.6v-2.2h0ZM132.1,104.3c1.2,0,2.1-.3,2.8-1s1-1.5,1-2.6v-2.1h-2.8c-1.4,0-2.4.3-3.1.8-.7.5-1.1,1.2-1.1,2.1s.3,1.5.8,2,1.3.7,2.4.7h0Z"/>
      <path class="st7" d="M160,107h-3.6v-11.8c0-1.3-.3-2.3-1-3s-1.5-1-2.6-1-2.4.5-3.3,1.5c-.9,1-1.4,2.4-1.4,4.2v10.2h-3.6v-18.8h3.6v3.2c1.1-2.3,3.1-3.5,5.8-3.5s3.3.6,4.4,1.7c1.1,1.1,1.6,2.7,1.6,4.6v12.7h.1Z"/>
      <path class="st7" d="M115.9,143.5c0,2.5-.7,4.5-2.1,6s-3.2,2.3-5.5,2.3-4.9-1-6.4-3.1-2.2-4.8-2.2-8.2,1-7.4,3-10,4.7-4,8.1-4,2.2.2,3.4.6v2.8c-1.1-.5-2.2-.7-3.4-.7-2.3,0-4.2.9-5.5,2.6-1.4,1.7-2.2,3.9-2.6,6.6,1.6-1.7,3.6-2.6,6-2.6s4,.7,5.2,2.1,1.9,3.3,1.9,5.6h.1ZM108.3,149.1c1.4,0,2.5-.5,3.3-1.6.8-1,1.2-2.4,1.2-4.1s-.4-2.8-1.2-3.7-1.9-1.4-3.2-1.4c-2.2,0-4.1.9-5.8,2.7,0,2.6.7,4.6,1.7,5.9,1,1.3,2.4,2,4,2v.2Z"/>
      <path class="st7" d="M132.6,144.7c0,2-.7,3.6-2.1,4.9-1.4,1.3-3.3,2-5.8,2s-4.3-.4-6-1.2v-2.9c1.8,1,3.8,1.4,6,1.4s2.8-.4,3.7-1.2,1.3-1.9,1.3-3.2-.5-2.3-1.5-3-2.4-1.1-4.2-1.1h-1.6v-2.6h1.6c1.4,0,2.5-.4,3.5-1.2.9-.8,1.4-1.8,1.4-3.1s-.4-2.3-1.2-3-1.9-1-3.4-1-3.3.5-4.9,1.5v-2.8c1.4-.9,3.1-1.4,5-1.4s4.2.6,5.6,1.8c1.3,1.2,2,2.7,2,4.5s-.3,2.5-1,3.5-1.6,1.8-2.9,2.3c1.4.3,2.5,1,3.3,1.9.8,1,1.2,2.2,1.2,3.6v.3Z"/>
    </g>
    <g>
      <path class="st7" d="M337.1,41h-4l8.6-24.9h5l8.5,24.9h-4.1l-2-6.1h-10.1l-2,6.1h.1ZM340.5,30.5l-.4,1.3h8l-.4-1.3c-.9-2.9-1.7-5.3-2.3-7.2-.6-1.9-1-3.1-1.1-3.6l-.2-.7c-.3,1.2-1.5,5-3.6,11.5Z"/>
      <path class="st7" d="M374.4,41h-3.6v-11.8c0-1.3-.3-2.3-1-3s-1.5-1-2.6-1-2.4.5-3.3,1.5-1.4,2.4-1.4,4.2v10.2h-3.6v-18.8h3.6v3.2c1.1-2.3,3.1-3.5,5.8-3.5s3.3.6,4.4,1.7,1.6,2.7,1.6,4.6v12.7h.1Z"/>
      <path class="st7" d="M395.6,41h-3.7v-2.8c-1.3,2.1-3.2,3.1-5.7,3.1s-4.4-.9-5.8-2.8-2.1-4.1-2.1-6.8.8-5.3,2.3-7.1c1.5-1.8,3.4-2.7,5.8-2.7s4.3,1,5.7,3.1v-10.2h3.7v26.2h-.2ZM381.9,31.8c0,1.9.5,3.4,1.4,4.6.9,1.2,2.1,1.7,3.5,1.7s2.6-.5,3.6-1.6,1.5-2.7,1.5-5-.5-3.7-1.5-4.8c-1-1-2.2-1.6-3.5-1.6s-2.7.6-3.6,1.7-1.4,2.8-1.4,4.9h0Z"/>
      <path class="st7" d="M414.7,40c-1.4.8-3.2,1.2-5.5,1.2s-5.2-.9-7-2.6c-1.7-1.8-2.6-4-2.6-6.9s.8-5.4,2.4-7.1,3.6-2.6,6-2.6,4.3.7,5.7,2.2c1.4,1.5,2.1,3.6,2.1,6.5s0,1.6-.2,2.4h-12.3c.2,1.6.9,2.9,2.1,3.7s2.6,1.3,4.3,1.3,3.7-.5,5-1.4v3.3ZM408.1,25c-1.2,0-2.3.5-3.2,1.4-.9.9-1.4,2.2-1.7,3.9h9.1v-.7c0-1.4-.4-2.5-1.1-3.3s-1.7-1.2-3.1-1.2h0Z"/>
      <path class="st7" d="M423.8,41h-3.6v-18.8h3.6v3.3c.9-2.3,2.6-3.5,4.9-3.5s.7,0,1.1.1v3.6c-.5-.2-1.1-.3-1.7-.3-1.3,0-2.3.6-3.1,1.7-.8,1.1-1.2,2.4-1.2,4v10h0Z"/>
      <path class="st7" d="M446.7,40c-1.4.8-3.2,1.2-5.5,1.2s-5.2-.9-7-2.6c-1.7-1.8-2.6-4-2.6-6.9s.8-5.4,2.4-7.1,3.6-2.6,6-2.6,4.3.7,5.7,2.2c1.4,1.5,2.1,3.6,2.1,6.5s0,1.6-.2,2.4h-12.3c.2,1.6.9,2.9,2.1,3.7s2.6,1.3,4.3,1.3,3.7-.5,5-1.4v3.3ZM440.1,25c-1.2,0-2.3.5-3.2,1.4-.9.9-1.4,2.2-1.7,3.9h9.1v-.7c0-1.4-.4-2.5-1.1-3.3s-1.7-1.2-3.1-1.2h0Z"/>
      <path class="st7" d="M369.5,85.4h-3.1l10-21.6h-12.7v-2.6h15.8v2.6l-10,21.6h0Z"/>
      <path class="st7" d="M397.1,71.6c0,4.4-.9,7.8-2.6,10.3-1.8,2.5-4.4,3.8-7.9,3.8s-2.8-.2-4.2-.7v-2.9c1.3.6,2.6.9,4.1.9,4.5,0,7-2.8,7.6-8.4-1.2,1.5-3.1,2.2-5.5,2.2s-3.7-.7-5.1-2.2c-1.4-1.4-2.1-3.3-2.1-5.7s.7-4.2,2-5.7c1.4-1.5,3.2-2.3,5.5-2.3s4.8,1,6.1,3c1.4,2,2.1,4.6,2.1,7.7ZM389.3,74.2c2,0,3.7-.8,4.9-2.4v-.2c0-2.3-.4-4.3-1.2-5.8-.8-1.5-2.2-2.2-4-2.2s-2.5.5-3.4,1.4c-.8.9-1.3,2.2-1.3,3.8s.4,3,1.3,3.9,2.1,1.4,3.6,1.4h.1Z"/>
      <path class="st7" d="M416.8,77.5c0,2.5-.7,4.5-2.1,6s-3.2,2.3-5.5,2.3-4.9-1-6.4-3.1-2.2-4.8-2.2-8.2,1-7.4,3-10,4.7-4,8.1-4,2.2.2,3.4.6v2.8c-1.1-.5-2.2-.7-3.4-.7-2.3,0-4.2.9-5.5,2.6-1.4,1.7-2.2,3.9-2.6,6.6,1.6-1.7,3.6-2.6,6-2.6s4,.7,5.2,2.1,1.9,3.3,1.9,5.6h.1ZM409.2,83.1c1.4,0,2.5-.5,3.3-1.6.8-1,1.2-2.4,1.2-4.1s-.4-2.8-1.2-3.7c-.8-.9-1.9-1.4-3.2-1.4-2.2,0-4.1.9-5.8,2.7,0,2.6.7,4.6,1.7,5.9s2.4,2,4,2v.2Z"/>
    </g>
    <rect class="st3" x="99.7" y="160.5" width="33.7" height="3"/>
    <rect class="st1" x="215.1" y="130.8" width="33.7" height="3"/>
    <rect class="st4" x="-1181.5" width="1100" height="1100"/>
    <g>
      <g class="st11">
        <path class="st5" d="M-632,95.1c6.8,0,13.6.2,20.3.5,6.8.3,13.5.8,20.3,1.4s13.5,1.4,20.2,2.3,13.4,2,20.1,3.2,13.3,2.6,19.9,4.1c6.6,1.5,13.2,3.2,19.7,5s13,3.7,19.5,5.8c6.5,2.1,12.9,4.3,19.2,6.7,6.4,2.4,12.6,4.9,18.9,7.5s12.4,5.4,18.5,8.4c6.1,2.9,12.2,6,18.1,9.2,6,3.2,11.9,6.5,17.7,10s11.6,7.1,17.2,10.8,11.3,7.6,16.7,11.5c5.5,4,10.9,8.1,16.2,12.3s10.5,8.5,15.6,13c5.1,4.4,10.1,9,15,13.7s9.7,9.5,14.4,14.3c4.7,4.9,9.3,9.9,13.8,15s8.8,10.3,13.1,15.6c4.3,5.3,8.4,10.7,12.4,16.1,4,5.5,7.9,11,11.6,16.7s7.4,11.4,10.9,17.2,6.9,11.7,10.1,17.6c3.2,6,6.3,12,9.3,18.1s5.8,12.3,8.5,18.5,5.2,12.5,7.7,18.8c2.4,6.3,4.7,12.7,6.8,19.2,2.1,6.4,4.1,12.9,5.9,19.4,1.8,6.5,3.5,13.1,5.1,19.7,1.5,6.6,2.9,13.2,4.2,19.9,1.2,6.7,2.3,13.4,3.3,20.1s1.7,13.4,2.4,20.2c.6,6.8,1.1,13.5,1.5,20.3.3,6.8.5,13.5.6,20.3,0,6.8,0,13.6-.3,20.3s-.7,13.5-1.2,20.3c-.6,6.8-1.3,13.5-2.2,20.2s-1.9,13.4-3.1,20.1c-1.2,6.7-2.5,13.3-4,19.9-1.5,6.6-3.1,13.2-4.8,19.8s-3.7,13.1-5.7,19.5-4.2,12.9-6.6,19.2-4.8,12.7-7.4,18.9c-2.6,6.3-5.4,12.4-8.3,18.6-2.9,6.1-5.9,12.2-9.1,18.2-3.2,6-6.5,11.9-9.9,17.8-3.4,5.8-7,11.6-10.7,17.3s-7.5,11.3-11.4,16.8-8,10.9-12.2,16.3c-4.2,5.3-8.5,10.6-12.9,15.7-4.4,5.1-8.9,10.2-13.6,15.1-4.6,4.9-9.4,9.8-14.3,14.5-4.9,4.7-9.8,9.3-14.9,13.8-5.1,4.5-10.2,8.9-15.5,13.2s-10.6,8.4-16.1,12.5c-5.4,4-11,7.9-16.6,11.7s-11.3,7.4-17.1,11c-5.8,3.5-11.7,6.9-17.6,10.2-5.9,3.3-11.9,6.4-18,9.4s-12.2,5.9-18.4,8.6c-6.2,2.7-12.5,5.3-18.8,7.8-6.3,2.4-12.7,4.8-19.1,6.9s-12.9,4.2-19.4,6-13.1,3.6-19.7,5.2-13.2,3-19.9,4.3-13.3,2.4-20.1,3.4c-6.7,1-13.4,1.8-20.2,2.5-6.7.7-13.5,1.2-20.3,1.6s-13.5.6-20.3.7c-6.8,0-13.6,0-20.3-.2-6.8-.2-13.5-.6-20.3-1.1s-13.5-1.2-20.2-2-13.4-1.8-20.1-2.9c-6.7-1.1-13.3-2.4-20-3.8-6.6-1.4-13.2-3-19.8-4.7s-13.1-3.6-19.5-5.6-12.9-4.2-19.3-6.5-12.7-4.7-19-7.3-12.5-5.3-18.6-8.2-12.2-5.9-18.2-9c-6-3.1-12-6.4-17.8-9.8-5.9-3.4-11.7-6.9-17.4-10.6-5.7-3.7-11.3-7.4-16.9-11.4-5.5-3.9-11-7.9-16.3-12.1-5.4-4.2-10.6-8.4-15.8-12.8s-10.2-8.9-15.2-13.5-9.8-9.3-14.6-14.2-9.4-9.8-13.9-14.8-9-10.2-13.3-15.4-8.5-10.6-12.6-16-8-10.9-11.8-16.5-7.5-11.3-11.1-17.1-7-11.6-10.3-17.5-6.5-11.9-9.5-18-5.9-12.2-8.7-18.4l207.7-92.6c1.4,3.1,2.8,6.2,4.3,9.2,1.5,3,3.1,6,4.8,9,1.7,3,3.4,5.9,5.2,8.8s3.6,5.7,5.5,8.5,3.9,5.6,5.9,8.3,4.1,5.4,6.3,8c2.2,2.6,4.4,5.2,6.6,7.7s4.6,5,7,7.4,4.8,4.8,7.3,7.1,5,4.6,7.6,6.8,5.2,4.3,7.9,6.4c2.7,2.1,5.4,4.1,8.2,6,2.8,2,5.6,3.8,8.4,5.7,2.9,1.8,5.8,3.6,8.7,5.3s5.9,3.3,8.9,4.9c3,1.6,6,3.1,9.1,4.5s6.2,2.8,9.3,4.1,6.3,2.5,9.5,3.7,6.4,2.2,9.6,3.2,6.5,1.9,9.8,2.8c3.3.9,6.6,1.7,9.9,2.4s6.6,1.4,10,1.9c3.3.6,6.7,1.1,10.1,1.5s6.7.8,10.1,1,6.8.5,10.2.6,6.8.2,10.2,0c3.4,0,6.8-.2,10.2-.3,3.4-.2,6.8-.5,10.1-.8,3.4-.3,6.7-.8,10.1-1.3,3.4-.5,6.7-1.1,10-1.7,3.3-.6,6.6-1.4,9.9-2.1,3.3-.8,6.6-1.7,9.8-2.6,3.3-.9,6.5-1.9,9.7-3s6.4-2.2,9.6-3.5c3.2-1.2,6.3-2.5,9.4-3.9s6.2-2.8,9.2-4.3,6-3.1,9-4.7,5.9-3.3,8.8-5.1c2.9-1.8,5.7-3.6,8.6-5.5,2.8-1.9,5.6-3.8,8.3-5.9,2.7-2,5.4-4.1,8-6.2s5.2-4.3,7.8-6.6c2.5-2.3,5-4.6,7.4-6.9,2.4-2.4,4.8-4.8,7.1-7.3s4.6-5,6.8-7.6,4.4-5.2,6.5-7.9,4.1-5.4,6.1-8.1c2-2.8,3.9-5.6,5.7-8.4,1.8-2.8,3.6-5.7,5.3-8.7,1.7-2.9,3.4-5.9,5-8.9s3.1-6,4.6-9.1c1.4-3.1,2.8-6.2,4.1-9.3s2.6-6.3,3.7-9.5c1.2-3.2,2.3-6.4,3.3-9.6,1-3.2,2-6.5,2.9-9.8s1.7-6.6,2.4-9.9c.7-3.3,1.4-6.6,2-10,.6-3.3,1.1-6.7,1.5-10.1.4-3.4.8-6.7,1.1-10.1.3-3.4.5-6.8.6-10.2s.2-6.8.2-10.2,0-6.8-.3-10.2-.4-6.8-.7-10.1c-.3-3.4-.7-6.7-1.2-10.1s-1-6.7-1.6-10-1.3-6.6-2.1-9.9-1.6-6.6-2.5-9.8c-.9-3.3-1.9-6.5-3-9.7s-2.2-6.4-3.4-9.6-2.5-6.3-3.8-9.4-2.8-6.2-4.2-9.2c-1.5-3-3-6.1-4.7-9s-3.3-5.9-5.1-8.8-3.6-5.8-5.4-8.6c-1.9-2.8-3.8-5.6-5.8-8.3-2-2.7-4.1-5.4-6.2-8.1-2.1-2.6-4.3-5.2-6.5-7.8-2.2-2.5-4.5-5-6.9-7.5-2.3-2.4-4.8-4.8-7.2-7.2-2.5-2.3-5-4.6-7.5-6.8-2.6-2.2-5.2-4.4-7.8-6.5-2.7-2.1-5.4-4.2-8.1-6.1-2.8-2-5.5-3.9-8.4-5.8-2.8-1.9-5.7-3.7-8.6-5.4-2.9-1.7-5.9-3.4-8.8-5-3-1.6-6-3.1-9.1-4.6s-6.1-2.9-9.3-4.2-6.3-2.6-9.4-3.8-6.4-2.3-9.6-3.3c-3.2-1-6.5-2-9.7-2.9s-6.6-1.7-9.9-2.5c-3.3-.8-6.6-1.4-10-2-3.3-.6-6.7-1.1-10-1.6s-6.7-.8-10.1-1.1c-3.4-.3-6.8-.5-10.1-.7-3.4-.2-6.8-.2-10.2-.2V95.1h-.2Z"/>
      </g>
      <path class="st8" d="M-1047.4,735.1c-8.3-18.7-15.4-37.9-21.2-57.6s-10.2-39.7-13.2-60c-3.1-20.3-4.7-40.7-5-61.2s.8-40.9,3.3-61.3l225.7,27.4c-1.2,10.2-1.8,20.4-1.6,30.7s1,20.5,2.5,30.6,3.7,20.1,6.6,30c2.9,9.8,6.4,19.4,10.6,28.8l-207.7,92.6h0Z"/>
      <path class="st10" d="M-1083.5,495c2.3-19.3,5.9-38.4,10.7-57.3,4.8-18.9,10.8-37.3,18-55.4s15.5-35.7,24.9-52.7,19.9-33.4,31.4-49.1l183.2,134.7c-5.8,7.8-11,16-15.7,24.5s-8.9,17.3-12.5,26.3-6.6,18.3-9,27.7-4.2,19-5.4,28.6l-225.7-27.4h.1Z"/>
      <path class="st9" d="M-998.4,280.5c13.5-18.4,28.4-35.7,44.5-51.9l161,160.6c-8.1,8.1-15.5,16.7-22.3,25.9l-183.2-134.7h0Z"/>
      <path class="st6" d="M-911.5,191.1c9.9-7.7,20.1-15,30.6-21.9s21.3-13.3,32.3-19.3,22.3-11.5,33.8-16.5,23.2-9.6,35-13.7c11.9-4.1,23.9-7.7,36-10.7,12.2-3.1,24.4-5.7,36.8-7.7s24.8-3.6,37.3-4.7c12.5-1,25-1.6,37.6-1.6v227.4c-6.3,0-12.5.3-18.8.8s-12.5,1.3-18.7,2.3-12.3,2.3-18.4,3.9c-6.1,1.5-12.1,3.3-18,5.4-5.9,2-11.8,4.3-17.5,6.8s-11.4,5.3-16.9,8.3-10.9,6.2-16.2,9.6-10.3,7.1-15.3,10.9l-139.7-179.4h.1Z"/>
      <path class="st1" d="M-929.9,206.2c6-5.2,12.1-10.2,18.4-15.1l139.7,179.4c-3.1,2.4-6.2,5-9.2,7.6l-148.9-171.8h0Z"/>
      <path class="st3" d="M-953.9,228.6c7.7-7.8,15.8-15.2,24.1-22.4l148.9,171.8c-4.1,3.6-8.2,7.3-12,11.2l-161-160.6h0Z"/>
    </g>
    <g>
      <path class="st7" d="M-228.7,869.4c0,3.2-.8,5.7-2.5,7.4s-4,2.5-7,2.5-5.2-.8-6.9-2.5c-1.7-1.6-2.5-4-2.5-7.1v-15.7h3.8v15.7c0,2.1.5,3.7,1.5,4.6,1,1,2.4,1.5,4.1,1.5,3.8,0,5.7-2.1,5.7-6.3v-15.5h3.8v15.4h0Z"/>
      <path class="st7" d="M-208.6,872.1c0,2.2-.8,3.9-2.3,5.2s-3.6,1.9-6,1.9-5-.5-6.8-1.6v-4c1.9,1.5,4.2,2.2,6.8,2.2s2.4-.3,3.2-.9c.8-.6,1.2-1.5,1.2-2.6s-.2-1.3-.7-1.8c-.5-.6-1-1-1.5-1.3s-1.4-.7-2.4-1.2-1.1-.5-1.4-.6c-.3,0-.7-.3-1.3-.7-.6-.3-1-.6-1.3-.8s-.6-.5-1.1-.9c-.4-.4-.7-.8-.9-1.2s-.4-.9-.5-1.4c-.2-.5-.2-1.1-.2-1.7,0-2.1.8-3.8,2.3-5s3.5-1.8,6-1.8,4.2.4,5.7,1.2v3.8c-1.7-1-3.5-1.6-5.6-1.6s-2.4.3-3.2.9c-.8.6-1.2,1.4-1.2,2.4s.4,1.8,1.1,2.4c.8.6,1.9,1.2,3.5,1.9,1,.4,1.8.8,2.4,1.1.6.3,1.2.8,2,1.4.8.6,1.3,1.3,1.7,2.1s.5,1.7.5,2.8v-.2Z"/>
      <path class="st7" d="M-201.6,878.9h-4l8.6-24.9h5l8.5,24.9h-4.1l-2-6.1h-10.1l-2,6.1h0ZM-198.2,868.4l-.4,1.3h8l-.4-1.3c-.9-2.9-1.7-5.3-2.3-7.2s-1-3.1-1.1-3.6l-.2-.7c-.3,1.2-1.5,5-3.6,11.5Z"/>
      <path class="st7" d="M-234.2,915.8c0,2.4-.8,4.3-2.3,5.7-1.6,1.4-3.7,2.1-6.4,2.1s-4.5-.4-6.2-1.3v-2.9c1.6.9,3.5,1.4,5.7,1.4,4.1,0,6.2-1.7,6.2-5.2s-.5-2.5-1.4-3.3c-1-.8-2.2-1.2-3.7-1.2s-3.7.4-5.6,1.3v-13.4h12.1v2.6h-9.2v7.3c1.1-.2,2.1-.4,2.9-.4,2.5,0,4.4.7,5.9,2,1.4,1.3,2.2,3.1,2.2,5.3h-.2Z"/>
      <path class="st7" d="M-223.4,923.3h-2.9v-21l-5.6,3.4v-3.1l5.7-3.5h2.7v24.2h0Z"/>
      <path class="st7" d="M-202.5,915.4c0,2.5-.7,4.5-2.1,6s-3.2,2.3-5.5,2.3-4.9-1-6.4-3.1-2.2-4.8-2.2-8.2,1-7.4,3-10,4.7-4,8.1-4,2.2.2,3.4.6v2.8c-1.1-.5-2.2-.7-3.4-.7-2.3,0-4.2.9-5.5,2.6-1.4,1.7-2.2,3.9-2.6,6.6,1.6-1.7,3.6-2.6,6-2.6s4,.7,5.2,2.1,1.9,3.3,1.9,5.6h0ZM-210.1,921c1.4,0,2.5-.5,3.3-1.6.8-1,1.2-2.4,1.2-4.1s-.4-2.8-1.2-3.7-1.9-1.4-3.2-1.4c-2.2,0-4.1.9-5.8,2.7,0,2.6.7,4.6,1.7,5.9,1,1.3,2.4,2,4,2v.2Z"/>
      <path class="st7" d="M-185.6,923.3h-2.9v-5.9h-11.1v-2.6l9.2-15.8h4.7v15.8h3.6v2.6h-3.6v5.9h0ZM-196.6,914.9h8.1v-14l-8.1,14Z"/>
    </g>
    <g>
      <path class="st7" d="M-701.6,528.9c-3.9,2.8-8.7,4.2-14.5,4.2s-12.7-2.1-17-6.2-6.4-9.7-6.4-16.9,2.2-12.5,6.5-16.8,9.8-6.4,16.5-6.4,9.5,1,13.1,3v7.1c-3.8-2.4-8.1-3.6-12.8-3.6s-8.7,1.5-11.6,4.6c-3,3.1-4.4,7.1-4.4,12.1s1.5,9.2,4.4,12.2,6.9,4.5,12,4.5,5.2-.5,7.6-1.5v-12.4h-9.1v-5.9h15.9v21.5h0v.5h-.2Z"/>
      <path class="st7" d="M-667.4,530.8c-2.5,1.4-5.8,2.1-9.9,2.1s-9.4-1.6-12.5-4.7c-3.1-3.2-4.7-7.3-4.7-12.4s1.4-9.7,4.3-12.8c2.8-3.1,6.5-4.6,10.9-4.6s7.7,1.3,10.3,4c2.5,2.7,3.8,6.6,3.8,11.6s-.1,2.8-.4,4.3h-22.2c.4,2.9,1.7,5.2,3.7,6.7,2,1.6,4.6,2.3,7.7,2.3s6.6-.8,9-2.5v5.9h0ZM-679.2,503.8c-2.2,0-4.1.8-5.7,2.4s-2.6,4-3,7h16.3v-1.2c0-2.5-.8-4.5-2.1-6-1.3-1.5-3.1-2.2-5.5-2.2h0Z"/>
      <path class="st7" d="M-636.5,523.2c0,3-1.1,5.4-3.2,7.1-2.1,1.7-5,2.6-8.7,2.6s-7.3-.7-10-2v-6.2c3.1,1.9,6.3,2.9,9.7,2.9s3.1-.4,4-1.1c1-.7,1.4-1.6,1.4-2.8s-.4-1.9-1.1-2.6c-.8-.8-1.5-1.4-2.3-1.7-.8-.4-2.1-1-4-1.8-5.3-2.2-7.9-5.4-7.9-9.6s1.1-5.3,3.3-7,5-2.5,8.3-2.5,6.5.5,8.5,1.5v5.9c-2.2-1.3-5-1.9-8.4-1.9s-2.8.4-3.7,1.1-1.4,1.6-1.4,2.8,0,.6,0,.9c0,.3.2.6.4.9s.3.5.5.7.4.4.8.6c.4.2.6.4.8.6s.5.3,1,.6c.5.2.8.4,1,.5s.6.3,1.2.5c.6.2.9.4,1.2.5,2.6,1.2,4.7,2.5,6.2,3.9s2.2,3.4,2.2,5.8v-.2Z"/>
      <path class="st7" d="M-611.7,528.6c-1.7,2.8-4.8,4.3-9.1,4.3s-5.8-.9-7.7-2.8c-1.9-1.8-2.9-4.2-2.9-7s1.2-5.8,3.7-7.6c2.4-1.8,5.9-2.7,10.3-2.7h5.6v-1.9c0-2.3-.6-4.1-1.7-5.2-1.1-1.2-3-1.8-5.5-1.8s-6.9,1-9.8,3v-6.3c2.6-1.5,6.1-2.3,10.4-2.3,8.8,0,13.3,4.3,13.3,12.9v21.4h-6.5v-4h0ZM-618.8,527.7c2.1,0,3.8-.6,5-1.8,1.2-1.2,1.8-2.7,1.8-4.6v-3.8h-5.1c-2.5,0-4.4.5-5.6,1.5-1.3,1-1.9,2.2-1.9,3.7s.5,2.8,1.5,3.7c1,.9,2.4,1.3,4.3,1.3h0Z"/>
      <path class="st7" d="M-550.1,532.6h-6.5v-21.3c0-4.8-2-7.3-5.9-7.3s-3.7.9-5.2,2.6-2.3,4.3-2.3,7.7v18.3h-6.5v-21.3c0-4.8-2-7.3-5.9-7.3s-3.6.9-5.2,2.6c-1.6,1.7-2.3,4.3-2.3,7.7v18.3h-6.5v-33.8h6.5v5.4c1.9-3.9,5.1-5.9,9.5-5.9s8.3,2.2,9.7,6.5c.9-2.1,2.3-3.7,4.1-4.8,1.8-1.1,3.8-1.7,6-1.7,3.5,0,6.1,1,7.9,3.1,1.8,2,2.7,4.9,2.7,8.5v22.7h0Z"/>
      <path class="st7" d="M-523.5,531.7c-1.5.8-3.3,1.2-5.4,1.2-7,0-10.5-3.5-10.5-10.6v-18.5h-5.3v-5.1h5.3v-8.3h6.6v8.3h8.9v5.1h-8.9v18.6c0,3.2,1.6,4.9,4.7,4.9s3.4-.5,4.6-1.5v5.9h0Z"/>
      <path class="st7" d="M-664,598.9c0,4.3-1.4,7.7-4.2,10.3-2.8,2.6-6.7,3.8-11.6,3.8s-8.1-.8-11.2-2.3v-5.2c2.8,1.7,6.3,2.5,10.3,2.5,7.5,0,11.2-3.1,11.2-9.4s-.9-4.5-2.6-5.9-4-2.1-6.7-2.1-6.6.8-10.1,2.3v-24.1h21.8v4.6h-16.7v13.1c2-.4,3.7-.7,5.2-.7,4.4,0,8,1.2,10.6,3.5,2.6,2.4,3.9,5.5,3.9,9.5h.1Z"/>
      <path class="st7" d="M-644.6,612.5h-5.2v-37.8l-10.1,6.2v-5.7l10.3-6.3h4.9v43.6h0Z"/>
      <path class="st7" d="M-606.9,598.3c0,4.4-1.3,8-3.8,10.8s-5.8,4.1-10,4.1-8.8-1.9-11.5-5.7-4-8.7-4-14.8,1.8-13.2,5.3-18c3.6-4.8,8.4-7.1,14.7-7.1s4,.3,6.1,1v5.1c-1.9-.8-3.9-1.3-6.1-1.3-4.2,0-7.5,1.6-10,4.7s-4,7.1-4.6,11.8c2.9-3.1,6.5-4.6,10.9-4.6s7.1,1.3,9.4,3.8c2.3,2.5,3.4,5.9,3.4,10.1h.2ZM-620.6,608.4c2.5,0,4.5-.9,6-2.8,1.5-1.9,2.2-4.3,2.2-7.3s-.7-5-2.2-6.6-3.4-2.5-5.8-2.5c-4,0-7.5,1.6-10.4,4.9.2,4.7,1.2,8.3,3.1,10.7,1.9,2.4,4.2,3.6,7.1,3.6h0Z"/>
      <path class="st7" d="M-576.6,612.5h-5.2v-10.6h-19.9v-4.6l16.6-28.4h8.5v28.4h6.5v4.6h-6.5v10.6h0ZM-596.4,597.3h14.6v-25.2l-14.6,25.2Z"/>
    </g>
    <g>
      <path class="st7" d="M-1139.7,605.9c0,3.2-.8,5.7-2.5,7.4s-4,2.5-7,2.5-5.2-.8-6.9-2.5c-1.7-1.6-2.5-4-2.5-7.1v-15.7h3.8v15.7c0,2.1.5,3.7,1.5,4.6,1,1,2.4,1.5,4.1,1.5,3.8,0,5.7-2.1,5.7-6.3v-15.5h3.8v15.4h0Z"/>
      <path class="st7" d="M-1130.5,615.5h-3.8v-24.9h3.8v24.9ZM-1115.8,615.5h-4.8l-9.4-12.3,9.1-12.6h4.6l-9.1,12.6,9.7,12.4h0Z"/>
      <path class="st7" d="M-1149.1,652c0,2.5-.7,4.5-2.1,6s-3.2,2.3-5.5,2.3-4.9-1-6.4-3.1-2.2-4.8-2.2-8.2,1-7.4,3-10,4.7-4,8.1-4,2.2.2,3.4.6v2.8c-1.1-.5-2.2-.7-3.4-.7-2.3,0-4.2.9-5.5,2.6-1.4,1.7-2.2,3.9-2.6,6.6,1.6-1.7,3.6-2.6,6-2.6s4,.7,5.2,2.1,1.9,3.3,1.9,5.6h0ZM-1156.7,657.6c1.4,0,2.5-.5,3.3-1.6.8-1,1.2-2.4,1.2-4.1s-.4-2.8-1.2-3.7c-.8-.9-1.9-1.4-3.2-1.4-2.2,0-4.1.9-5.8,2.7,0,2.6.7,4.6,1.7,5.9,1,1.3,2.4,2,4,2v.2Z"/>
      <path class="st7" d="M-1130.6,652.3c0,2.4-.8,4.3-2.3,5.7-1.6,1.4-3.7,2.1-6.4,2.1s-4.5-.4-6.2-1.3v-2.9c1.6.9,3.5,1.4,5.7,1.4,4.1,0,6.2-1.7,6.2-5.2s-.5-2.5-1.4-3.3c-1-.8-2.2-1.2-3.7-1.2s-3.7.4-5.6,1.3v-13.4h12.1v2.6h-9.2v7.3c1.1-.2,2.1-.4,2.9-.4,2.5,0,4.4.7,5.9,2,1.4,1.3,2.2,3.1,2.2,5.3h-.2Z"/>
      <path class="st7" d="M-1110.4,647.7c0,3.8-.7,6.8-2.2,9.1s-3.6,3.4-6.3,3.4-4.6-1.1-6.1-3.4c-1.5-2.3-2.3-5.3-2.3-9.1s.8-6.8,2.3-9,3.6-3.3,6.1-3.3,4.7,1.1,6.2,3.3,2.3,5.2,2.3,9ZM-1122.7,640.6c-1.1,1.7-1.6,4-1.6,7s.5,5.4,1.6,7.1c1,1.7,2.3,2.6,3.8,2.6s3.1-.8,4.1-2.5,1.5-4.1,1.5-7.2-.5-5.4-1.6-7.1c-1-1.6-2.4-2.5-4-2.5s-2.8.8-3.8,2.5h0Z"/>
    </g>
    <g>
      <path class="st7" d="M-1150.5,368.2c-1.5,1-3.7,1.5-6.4,1.5s-6.8-1.2-9.1-3.5-3.6-5.4-3.6-9.3,1.2-6.8,3.6-9.2c2.4-2.4,5.4-3.6,9-3.6s4.8.5,6.4,1.4v3.7c-1.1-.6-2.1-1-2.9-1.2-.9-.2-2-.4-3.3-.4-2.5,0-4.6.8-6.2,2.5-1.7,1.7-2.5,3.9-2.5,6.7s.8,5.1,2.5,6.8c1.7,1.7,3.8,2.5,6.5,2.5s4.4-.6,6-1.9v4Z"/>
      <path class="st7" d="M-1130.9,369.5h-3.6v-11.8c0-1.3-.3-2.3-1-3s-1.5-1.1-2.6-1.1-2.3.5-3.3,1.4-1.4,2.4-1.4,4.3v10.2h-3.6v-26.2h3.6v10.6c1.1-2.3,3-3.5,5.8-3.5s3.3.6,4.4,1.7c1.1,1.1,1.7,2.7,1.7,4.7v12.6h0Z"/>
      <path class="st7" d="M-1121.7,345c0,.6-.2,1.1-.7,1.6-.4.4-1,.7-1.6.7s-1.2-.2-1.6-.6c-.4-.4-.6-1-.6-1.6s.2-1.2.6-1.6,1-.7,1.6-.7,1.2.2,1.6.7c.4.4.7,1,.7,1.6h0ZM-1122.2,369.5h-3.7v-18.8h3.7v18.8Z"/>
      <path class="st7" d="M-1101.4,369.5h-3.6v-11.8c0-1.3-.3-2.3-1-3s-1.5-1-2.6-1-2.4.5-3.3,1.5-1.4,2.4-1.4,4.2v10.2h-3.6v-18.8h3.6v3.2c1.1-2.3,3.1-3.5,5.8-3.5s3.3.6,4.4,1.7,1.6,2.7,1.6,4.6v12.7h0Z"/>
      <path class="st7" d="M-1086.5,367.2c-1,1.6-2.7,2.4-5.1,2.4s-3.2-.5-4.3-1.5c-1.1-1-1.6-2.3-1.6-3.9s.7-3.2,2-4.2,3.3-1.5,5.7-1.5h3.1v-1.1c0-1.3-.3-2.3-.9-2.9-.6-.7-1.6-1-3.1-1s-3.8.6-5.4,1.7v-3.5c1.5-.8,3.4-1.3,5.8-1.3,4.9,0,7.4,2.4,7.4,7.1v11.9h-3.6v-2.2ZM-1090.4,366.8c1.2,0,2.1-.3,2.8-1,.7-.7,1-1.5,1-2.6v-2.1h-2.8c-1.4,0-2.4.3-3.1.8s-1.1,1.2-1.1,2.1.3,1.5.8,2,1.3.7,2.4.7h0Z"/>
      <path class="st7" d="M-1131.9,406c0,2.5-.7,4.5-2.1,6s-3.2,2.3-5.5,2.3-4.9-1-6.4-3.1-2.2-4.8-2.2-8.2,1-7.4,3-10,4.7-4,8.1-4,2.2.2,3.4.6v2.8c-1.1-.5-2.2-.7-3.4-.7-2.3,0-4.2.9-5.5,2.6-1.4,1.7-2.2,3.9-2.6,6.6,1.6-1.7,3.6-2.6,6-2.6s4,.7,5.2,2.1,1.9,3.3,1.9,5.6h0ZM-1139.5,411.6c1.4,0,2.5-.5,3.3-1.6.8-1,1.2-2.4,1.2-4.1s-.4-2.8-1.2-3.7c-.8-.9-1.9-1.4-3.2-1.4-2.2,0-4.1.9-5.8,2.7,0,2.6.7,4.6,1.7,5.9s2.4,2,4,2v.2Z"/>
      <path class="st7" d="M-1121.4,413.9h-2.9v-21l-5.6,3.4v-3.1l5.7-3.5h2.7v24.2h0Z"/>
      <path class="st7" d="M-1112.4,413.9h-3.1l10-21.6h-12.7v-2.6h15.8v2.6s-10,21.6-10,21.6Z"/>
    </g>
    <g>
      <path class="st7" d="M-1156.4,243.2h-3.8v-24.9h7c2.9,0,5.1.7,6.6,2.1,1.6,1.4,2.3,3.3,2.3,5.7s-.5,3.2-1.3,4.5c-.9,1.2-2.1,2.1-3.6,2.6l6.5,10.1h-4.6l-5.8-9.5h-3.3v9.5h0ZM-1153.1,221.4h-3.3v9.1h3.4c1.6,0,2.8-.4,3.6-1.2s1.2-1.9,1.2-3.3c0-3-1.7-4.6-5-4.6h.1Z"/>
      <path class="st7" d="M-1124,243.2h-3.6v-3.2c-1,2.3-2.9,3.4-5.8,3.4s-3.3-.5-4.4-1.6c-1.1-1.1-1.6-2.6-1.6-4.5v-12.8h3.7v11.9c0,1.3.3,2.3.9,2.9s1.5,1,2.6,1,2.5-.5,3.4-1.5,1.3-2.4,1.3-4.2v-10.2h3.6v18.8h-.1Z"/>
      <path class="st7" d="M-1107.2,238c0,1.7-.6,3-1.8,3.9-1.2.9-2.8,1.4-4.8,1.4s-4.1-.4-5.5-1.1v-3.4c1.7,1.1,3.5,1.6,5.4,1.6s1.7-.2,2.2-.6c.5-.4.8-.9.8-1.6s-.2-1-.6-1.5c-.4-.4-.8-.8-1.3-1-.4-.2-1.2-.5-2.2-1-2.9-1.2-4.4-3-4.4-5.3s.6-2.9,1.8-3.9,2.8-1.4,4.6-1.4,3.6.3,4.7.8v3.3c-1.2-.7-2.8-1.1-4.7-1.1s-1.5.2-2.1.6c-.5.4-.8.9-.8,1.6s0,.3,0,.5,0,.3.2.5c0,.2.2.3.3.4,0,.1.2.2.4.4.2.1.4.2.5.3,0,0,.3.2.6.3.3.1.4.2.6.3,0,0,.3.2.6.3.3.1.5.2.6.3,1.5.6,2.6,1.4,3.4,2.2s1.2,1.9,1.2,3.2h.3Z"/>
      <path class="st7" d="M-1091.7,238c0,1.7-.6,3-1.8,3.9-1.2.9-2.8,1.4-4.8,1.4s-4.1-.4-5.5-1.1v-3.4c1.7,1.1,3.5,1.6,5.4,1.6s1.7-.2,2.2-.6c.5-.4.8-.9.8-1.6s-.2-1-.6-1.5c-.4-.4-.8-.8-1.3-1-.4-.2-1.2-.5-2.2-1-2.9-1.2-4.4-3-4.4-5.3s.6-2.9,1.8-3.9,2.8-1.4,4.6-1.4,3.6.3,4.7.8v3.3c-1.2-.7-2.8-1.1-4.7-1.1s-1.5.2-2.1.6c-.5.4-.8.9-.8,1.6s0,.3,0,.5,0,.3.2.5c0,.2.2.3.3.4,0,.1.2.2.4.4.2.1.4.2.5.3,0,0,.3.2.6.3.3.1.4.2.6.3,0,0,.3.2.6.3.3.1.5.2.6.3,1.5.6,2.6,1.4,3.4,2.2s1.2,1.9,1.2,3.2h.3Z"/>
      <path class="st7" d="M-1084.1,243.2h-3.7v-26.2h3.7v26.2Z"/>
      <path class="st7" d="M-1068.8,241c-1,1.6-2.7,2.4-5.1,2.4s-3.2-.5-4.3-1.5c-1.1-1-1.6-2.3-1.6-3.9s.7-3.2,2-4.2,3.3-1.5,5.7-1.5h3.1v-1.1c0-1.3-.3-2.3-.9-2.9-.6-.7-1.6-1-3.1-1s-3.8.6-5.4,1.7v-3.5c1.5-.8,3.4-1.3,5.8-1.3,4.9,0,7.4,2.4,7.4,7.1v11.9h-3.6v-2.2ZM-1072.8,240.5c1.2,0,2.1-.3,2.8-1,.7-.7,1-1.5,1-2.6v-2.1h-2.8c-1.4,0-2.4.3-3.1.8s-1.1,1.2-1.1,2.1.3,1.5.8,2,1.3.7,2.4.7h0Z"/>
      <path class="st7" d="M-1044.9,243.2h-3.6v-11.8c0-1.3-.3-2.3-1-3s-1.5-1-2.6-1-2.4.5-3.3,1.5c-.9,1-1.4,2.4-1.4,4.2v10.2h-3.6v-18.8h3.6v3.2c1.1-2.3,3.1-3.5,5.8-3.5s3.3.6,4.4,1.7,1.6,2.7,1.6,4.6v12.7h.1Z"/>
      <path class="st7" d="M-1023.6,243.2h-3.7v-2.8c-1.3,2.1-3.2,3.1-5.7,3.1s-4.4-.9-5.8-2.8-2.1-4.1-2.1-6.8.8-5.3,2.3-7.1,3.4-2.7,5.8-2.7,4.3,1,5.7,3.1v-10.2h3.7v26.2h-.2ZM-1037.3,234c0,1.9.5,3.4,1.4,4.6.9,1.2,2.1,1.7,3.5,1.7s2.6-.5,3.6-1.6,1.5-2.7,1.5-5-.5-3.7-1.5-4.8c-1-1-2.2-1.6-3.5-1.6s-2.7.6-3.6,1.7c-.9,1.1-1.4,2.8-1.4,4.9h0Z"/>
      <path class="st7" d="M-1104.7,287.6h-2.9v-21l-5.6,3.4v-3.1l5.7-3.5h2.7v24.2h.1Z"/>
      <path class="st7" d="M-1083.9,281.3c0,2-.8,3.6-2.3,4.8-1.6,1.2-3.5,1.8-5.8,1.8s-4.1-.6-5.6-1.7c-1.5-1.2-2.3-2.7-2.3-4.7s.4-2.7,1.2-3.7c.8-1,1.8-1.8,3.2-2.2-2.6-1-4-2.9-4-5.6s.7-3.8,2.2-5,3.2-1.8,5.3-1.8,3.9.6,5.4,1.8,2.2,2.9,2.2,5.1-.3,2.4-1,3.3c-.7,1-1.6,1.7-2.8,2.2,3,.9,4.5,2.9,4.5,5.8h-.2ZM-1097,281.3c0,1.1.4,2.1,1.3,2.8.9.8,2.1,1.1,3.7,1.1s2.9-.4,3.8-1.2c.9-.8,1.3-1.8,1.3-3s-.4-2.2-1.3-3-2.1-1.2-3.8-1.2-2.9.5-3.7,1.3c-.8.9-1.2,1.9-1.2,3.2h-.1ZM-1096.6,269.9c0,1.4.4,2.5,1.3,3.2s2,1.1,3.3,1.1,2.4-.4,3.2-1.1c.8-.8,1.3-1.8,1.3-3.2s-.4-2.2-1.2-3c-.8-.8-1.9-1.2-3.4-1.2s-2.5.4-3.3,1.2-1.2,1.8-1.2,3Z"/>
      <path class="st7" d="M-1072.9,287.6h-2.9v-21l-5.6,3.4v-3.1l5.7-3.5h2.7v24.2h.1Z"/>
    </g>
    <g>
      <path class="st7" d="M-964.8,76.7h-14.4v-24.9h14.2v3.2h-10.4v7.7h9.2v3.2h-9.2v7.7h10.6v3.2h0Z"/>
      <path class="st7" d="M-945.4,69.9c0,2.2-.8,3.9-2.3,5.2s-3.6,1.9-6,1.9-5-.5-6.8-1.6v-4c1.9,1.5,4.2,2.2,6.8,2.2s2.4-.3,3.2-.9c.8-.6,1.2-1.5,1.2-2.6s-.2-1.3-.7-1.8c-.5-.6-1-1-1.5-1.3s-1.4-.7-2.4-1.2c-.6-.3-1.1-.5-1.4-.6-.3,0-.7-.3-1.3-.7-.6-.3-1-.6-1.3-.8s-.6-.5-1.1-.9c-.4-.4-.7-.8-.9-1.2s-.4-.9-.5-1.4c-.2-.5-.2-1.1-.2-1.7,0-2.1.8-3.8,2.3-5s3.5-1.8,6-1.8,4.2.4,5.7,1.2v3.8c-1.7-1-3.5-1.6-5.6-1.6s-2.4.3-3.2.9c-.8.6-1.2,1.4-1.2,2.4s.4,1.8,1.1,2.4c.8.6,1.9,1.2,3.5,1.9,1,.4,1.8.8,2.4,1.1.6.3,1.2.8,2,1.4.8.6,1.3,1.3,1.7,2.1s.5,1.7.5,2.8v-.2Z"/>
      <path class="st7" d="M-938.4,76.7h-4l8.6-24.9h5l8.5,24.9h-4.1l-2-6.1h-10.1l-2,6.1h.1ZM-935,66.2l-.4,1.3h8l-.4-1.3c-.9-2.9-1.7-5.3-2.3-7.2-.6-1.9-1-3.1-1.1-3.6l-.2-.7c-.3,1.2-1.5,5-3.6,11.5Z"/>
      <path class="st7" d="M-950.8,113.2c0,2.5-.7,4.5-2.1,6s-3.2,2.3-5.5,2.3-4.9-1-6.4-3.1-2.2-4.8-2.2-8.2,1-7.4,3-10,4.7-4,8.1-4,2.2.2,3.4.6v2.8c-1.1-.5-2.2-.7-3.4-.7-2.3,0-4.2.9-5.5,2.6-1.4,1.7-2.2,3.9-2.6,6.6,1.6-1.7,3.6-2.6,6-2.6s4,.7,5.2,2.1,1.9,3.3,1.9,5.6h.1ZM-958.4,118.8c1.4,0,2.5-.5,3.3-1.6.8-1,1.2-2.4,1.2-4.1s-.4-2.8-1.2-3.7c-.8-.9-1.9-1.4-3.2-1.4-2.2,0-4.1.9-5.8,2.7,0,2.6.7,4.6,1.7,5.9s2.4,2,4,2v.2Z"/>
      <path class="st7" d="M-934.1,114.5c0,2-.7,3.6-2.1,4.9s-3.3,2-5.8,2-4.3-.4-6-1.2v-2.9c1.8,1,3.8,1.4,6,1.4s2.8-.4,3.7-1.2c.9-.8,1.3-1.9,1.3-3.2s-.5-2.3-1.5-3-2.4-1.1-4.2-1.1h-1.6v-2.6h1.6c1.4,0,2.5-.4,3.5-1.2.9-.8,1.4-1.8,1.4-3.1s-.4-2.3-1.2-3-1.9-1-3.4-1-3.3.5-4.9,1.5v-2.8c1.4-.9,3.1-1.4,5-1.4s4.2.6,5.6,1.8c1.3,1.2,2,2.7,2,4.5s-.3,2.5-1,3.5-1.6,1.8-2.9,2.3c1.4.3,2.5,1,3.3,1.9.8,1,1.2,2.2,1.2,3.6v.3Z"/>
    </g>
    <g>
      <path class="st7" d="M-1100.6,100.2c0,2.3-.6,4-1.7,5.1s-2.6,1.6-4.5,1.6-2.8-.3-3.7-.8v-3.5c1,.6,2,.9,3,.9,2,0,3-1.1,3-3.2v-18.4h3.8v18.2h0Z"/>
      <path class="st7" d="M-1085.4,104.7c-1,1.6-2.7,2.4-5.1,2.4s-3.2-.5-4.3-1.5c-1.1-1-1.6-2.3-1.6-3.9s.7-3.2,2-4.2,3.3-1.5,5.7-1.5h3.1v-1.1c0-1.3-.3-2.3-.9-2.9-.6-.7-1.6-1-3.1-1s-3.8.6-5.4,1.7v-3.5c1.5-.8,3.4-1.3,5.8-1.3,4.9,0,7.4,2.4,7.4,7.1v11.9h-3.6v-2.2ZM-1089.3,104.3c1.2,0,2.1-.3,2.8-1,.7-.7,1-1.5,1-2.6v-2.1h-2.8c-1.4,0-2.4.3-3.1.8s-1.1,1.2-1.1,2.1.3,1.5.8,2,1.3.7,2.4.7h0Z"/>
      <path class="st7" d="M-1073.3,114.1h-3.6v-25.9h3.6v2.9c1.3-2.1,3.2-3.1,5.8-3.1s4.4.9,5.8,2.7c1.4,1.8,2.1,4.1,2.1,6.8s-.7,5.2-2.2,7-3.4,2.8-5.9,2.8-4.4-1-5.7-3.1v10h0ZM-1073.3,97.5c0,2.2.5,3.8,1.5,4.9s2.2,1.6,3.5,1.6,2.7-.6,3.6-1.7c.9-1.1,1.4-2.8,1.4-4.8s-.5-3.5-1.4-4.6-2.1-1.7-3.5-1.7-2.6.5-3.6,1.5-1.5,2.6-1.5,4.9h0Z"/>
      <path class="st7" d="M-1045.5,104.7c-1,1.6-2.7,2.4-5.1,2.4s-3.2-.5-4.3-1.5-1.6-2.3-1.6-3.9.7-3.2,2-4.2,3.3-1.5,5.7-1.5h3.1v-1.1c0-1.3-.3-2.3-.9-2.9-.6-.7-1.6-1-3.1-1s-3.8.6-5.4,1.7v-3.5c1.5-.8,3.4-1.3,5.8-1.3,4.9,0,7.4,2.4,7.4,7.1v11.9h-3.6v-2.2h0ZM-1049.4,104.3c1.2,0,2.1-.3,2.8-1s1-1.5,1-2.6v-2.1h-2.8c-1.4,0-2.4.3-3.1.8-.7.5-1.1,1.2-1.1,2.1s.3,1.5.8,2,1.3.7,2.4.7h0Z"/>
      <path class="st7" d="M-1021.5,107h-3.6v-11.8c0-1.3-.3-2.3-1-3s-1.5-1-2.6-1-2.4.5-3.3,1.5c-.9,1-1.4,2.4-1.4,4.2v10.2h-3.6v-18.8h3.6v3.2c1.1-2.3,3.1-3.5,5.8-3.5s3.3.6,4.4,1.7c1.1,1.1,1.6,2.7,1.6,4.6v12.7h.1Z"/>
      <path class="st7" d="M-1065.6,143.5c0,2.5-.7,4.5-2.1,6s-3.2,2.3-5.5,2.3-4.9-1-6.4-3.1-2.2-4.8-2.2-8.2,1-7.4,3-10,4.7-4,8.1-4,2.2.2,3.4.6v2.8c-1.1-.5-2.2-.7-3.4-.7-2.3,0-4.2.9-5.5,2.6-1.4,1.7-2.2,3.9-2.6,6.6,1.6-1.7,3.6-2.6,6-2.6s4,.7,5.2,2.1,1.9,3.3,1.9,5.6h.1ZM-1073.2,149.1c1.4,0,2.5-.5,3.3-1.6.8-1,1.2-2.4,1.2-4.1s-.4-2.8-1.2-3.7-1.9-1.4-3.2-1.4c-2.2,0-4.1.9-5.8,2.7,0,2.6.7,4.6,1.7,5.9,1,1.3,2.4,2,4,2v.2Z"/>
      <path class="st7" d="M-1048.9,144.7c0,2-.7,3.6-2.1,4.9-1.4,1.3-3.3,2-5.8,2s-4.3-.4-6-1.2v-2.9c1.8,1,3.8,1.4,6,1.4s2.8-.4,3.7-1.2,1.3-1.9,1.3-3.2-.5-2.3-1.5-3-2.4-1.1-4.2-1.1h-1.6v-2.6h1.6c1.4,0,2.5-.4,3.5-1.2.9-.8,1.4-1.8,1.4-3.1s-.4-2.3-1.2-3-1.9-1-3.4-1-3.3.5-4.9,1.5v-2.8c1.4-.9,3.1-1.4,5-1.4s4.2.6,5.6,1.8c1.3,1.2,2,2.7,2,4.5s-.3,2.5-1,3.5-1.6,1.8-2.9,2.3c1.4.3,2.5,1,3.3,1.9.8,1,1.2,2.2,1.2,3.6v.3Z"/>
    </g>
    <g>
      <path class="st7" d="M-844.4,41h-4l8.6-24.9h5l8.5,24.9h-4.1l-2-6.1h-10.1l-2,6.1h.1ZM-841,30.5l-.4,1.3h8l-.4-1.3c-.9-2.9-1.7-5.3-2.3-7.2-.6-1.9-1-3.1-1.1-3.6l-.2-.7c-.3,1.2-1.5,5-3.6,11.5Z"/>
      <path class="st7" d="M-807.1,41h-3.6v-11.8c0-1.3-.3-2.3-1-3s-1.5-1-2.6-1-2.4.5-3.3,1.5-1.4,2.4-1.4,4.2v10.2h-3.6v-18.8h3.6v3.2c1.1-2.3,3.1-3.5,5.8-3.5s3.3.6,4.4,1.7,1.6,2.7,1.6,4.6v12.7h.1Z"/>
      <path class="st7" d="M-785.9,41h-3.7v-2.8c-1.3,2.1-3.2,3.1-5.7,3.1s-4.4-.9-5.8-2.8-2.1-4.1-2.1-6.8.8-5.3,2.3-7.1c1.5-1.8,3.4-2.7,5.8-2.7s4.3,1,5.7,3.1v-10.2h3.7v26.2h-.2ZM-799.6,31.8c0,1.9.5,3.4,1.4,4.6.9,1.2,2.1,1.7,3.5,1.7s2.6-.5,3.6-1.6,1.5-2.7,1.5-5-.5-3.7-1.5-4.8c-1-1-2.2-1.6-3.5-1.6s-2.7.6-3.6,1.7-1.4,2.8-1.4,4.9h0Z"/>
      <path class="st7" d="M-766.8,40c-1.4.8-3.2,1.2-5.5,1.2s-5.2-.9-7-2.6c-1.7-1.8-2.6-4-2.6-6.9s.8-5.4,2.4-7.1,3.6-2.6,6-2.6,4.3.7,5.7,2.2c1.4,1.5,2.1,3.6,2.1,6.5s0,1.6-.2,2.4h-12.3c.2,1.6.9,2.9,2.1,3.7s2.6,1.3,4.3,1.3,3.7-.5,5-1.4v3.3ZM-773.4,25c-1.2,0-2.3.5-3.2,1.4-.9.9-1.4,2.2-1.7,3.9h9.1v-.7c0-1.4-.4-2.5-1.1-3.3s-1.7-1.2-3.1-1.2h0Z"/>
      <path class="st7" d="M-757.7,41h-3.6v-18.8h3.6v3.3c.9-2.3,2.6-3.5,4.9-3.5s.7,0,1.1.1v3.6c-.5-.2-1.1-.3-1.7-.3-1.3,0-2.3.6-3.1,1.7-.8,1.1-1.2,2.4-1.2,4v10h0Z"/>
      <path class="st7" d="M-734.8,40c-1.4.8-3.2,1.2-5.5,1.2s-5.2-.9-7-2.6c-1.7-1.8-2.6-4-2.6-6.9s.8-5.4,2.4-7.1,3.6-2.6,6-2.6,4.3.7,5.7,2.2c1.4,1.5,2.1,3.6,2.1,6.5s0,1.6-.2,2.4h-12.3c.2,1.6.9,2.9,2.1,3.7s2.6,1.3,4.3,1.3,3.7-.5,5-1.4v3.3ZM-741.4,25c-1.2,0-2.3.5-3.2,1.4-.9.9-1.4,2.2-1.7,3.9h9.1v-.7c0-1.4-.4-2.5-1.1-3.3s-1.7-1.2-3.1-1.2h0Z"/>
      <path class="st7" d="M-812,85.4h-3.1l10-21.6h-12.7v-2.6h15.8v2.6l-10,21.6h0Z"/>
      <path class="st7" d="M-784.4,71.6c0,4.4-.9,7.8-2.6,10.3-1.8,2.5-4.4,3.8-7.9,3.8s-2.8-.2-4.2-.7v-2.9c1.3.6,2.6.9,4.1.9,4.5,0,7-2.8,7.6-8.4-1.2,1.5-3.1,2.2-5.5,2.2s-3.7-.7-5.1-2.2c-1.4-1.4-2.1-3.3-2.1-5.7s.7-4.2,2-5.7c1.4-1.5,3.2-2.3,5.5-2.3s4.8,1,6.1,3c1.4,2,2.1,4.6,2.1,7.7ZM-792.2,74.2c2,0,3.7-.8,4.9-2.4v-.2c0-2.3-.4-4.3-1.2-5.8-.8-1.5-2.2-2.2-4-2.2s-2.5.5-3.4,1.4c-.8.9-1.3,2.2-1.3,3.8s.4,3,1.3,3.9,2.1,1.4,3.6,1.4h.1Z"/>
      <path class="st7" d="M-764.7,77.5c0,2.5-.7,4.5-2.1,6s-3.2,2.3-5.5,2.3-4.9-1-6.4-3.1-2.2-4.8-2.2-8.2,1-7.4,3-10,4.7-4,8.1-4,2.2.2,3.4.6v2.8c-1.1-.5-2.2-.7-3.4-.7-2.3,0-4.2.9-5.5,2.6-1.4,1.7-2.2,3.9-2.6,6.6,1.6-1.7,3.6-2.6,6-2.6s4,.7,5.2,2.1,1.9,3.3,1.9,5.6h.1ZM-772.3,83.1c1.4,0,2.5-.5,3.3-1.6.8-1,1.2-2.4,1.2-4.1s-.4-2.8-1.2-3.7c-.8-.9-1.9-1.4-3.2-1.4-2.2,0-4.1.9-5.8,2.7,0,2.6.7,4.6,1.7,5.9s2.4,2,4,2v.2Z"/>
    </g>
    <rect class="st3" x="-1081.8" y="160.5" width="33.7" height="3"/>
    <rect class="st1" x="-966.4" y="130.8" width="33.7" height="3"/>
    <g>
      <path class="st5" d="M550,95.1c8,0,16.1.2,24.1.6,8,.4,16,1.1,24,1.9,8,.8,15.9,1.9,23.9,3.2s15.8,2.8,23.7,4.4c7.8,1.7,15.7,3.6,23.4,5.7,7.8,2.1,15.4,4.4,23.1,6.9s15.2,5.2,22.7,8.1c7.5,2.9,14.9,6,22.2,9.3s14.6,6.8,21.7,10.5c7.1,3.7,14.2,7.6,21.1,11.6,6.9,4.1,13.8,8.3,20.5,12.7,6.7,4.4,13.3,9,19.8,13.8s12.8,9.7,19,14.8,12.3,10.4,18.2,15.8c5.9,5.4,11.7,11,17.3,16.7,5.6,5.7,11.1,11.6,16.4,17.6,5.3,6,10.5,12.2,15.5,18.5,5,6.3,9.8,12.7,14.5,19.3,4.7,6.5,9.1,13.2,13.4,20s8.4,13.7,12.3,20.7c3.9,7,7.7,14.1,11.2,21.3s6.9,14.5,10.1,21.9c3.2,7.4,6.1,14.8,8.9,22.4,2.8,7.5,5.3,15.1,7.7,22.8,2.4,7.7,4.5,15.4,6.5,23.2s3.7,15.6,5.3,23.5,2.9,15.8,4,23.8,2,15.9,2.8,23.9,1.2,16,1.5,24c.3,8,.3,16.1.2,24.1-.1,8-.5,16.1-1.1,24.1-.6,8-1.3,16-2.3,24l-225.7-28.1c.5-4,.9-8,1.2-12,.3-4,.5-8,.5-12,0-4,0-8-.1-12-.1-4-.4-8-.7-12s-.8-8-1.4-12c-.6-4-1.2-7.9-2-11.9-.8-3.9-1.7-7.9-2.6-11.8-1-3.9-2.1-7.8-3.3-11.6-1.2-3.8-2.5-7.6-3.9-11.4-1.4-3.8-2.9-7.5-4.5-11.2-1.6-3.7-3.3-7.3-5-10.9-1.8-3.6-3.7-7.2-5.6-10.7-2-3.5-4-6.9-6.2-10.3-2.2-3.4-4.4-6.7-6.7-10-2.3-3.3-4.7-6.5-7.2-9.6-2.5-3.1-5.1-6.2-7.7-9.2-2.7-3-5.4-5.9-8.2-8.8-2.8-2.9-5.7-5.7-8.7-8.4s-6-5.3-9.1-7.9c-3.1-2.6-6.3-5-9.5-7.4-3.2-2.4-6.5-4.7-9.9-6.9s-6.8-4.3-10.2-6.4c-3.5-2-7-4-10.6-5.8-3.6-1.8-7.2-3.6-10.8-5.2s-7.4-3.2-11.1-4.7-7.5-2.8-11.3-4.1c-3.8-1.3-7.7-2.4-11.5-3.5-3.9-1.1-7.8-2-11.7-2.8s-7.9-1.6-11.8-2.2c-4-.6-7.9-1.2-11.9-1.6-4-.4-8-.7-12-1s-8-.3-12-.3V95.1Z"/>
      <path class="st8" d="M1001.5,606.2c-.7,5.8-1.5,11.5-2.5,17.3s-2,11.4-3.1,17.1-2.4,11.4-3.8,17c-1.4,5.6-2.9,11.3-4.4,16.9s-3.3,11.1-5.1,16.7c-1.8,5.5-3.7,11-5.7,16.5-2,5.4-4.1,10.9-6.3,16.2s-4.5,10.7-7,16c-2.4,5.3-4.9,10.5-7.6,15.7s-5.3,10.3-8.2,15.4c-2.8,5.1-5.7,10.1-8.8,15.1-3,5-6.1,9.9-9.3,14.7-3.2,4.8-6.5,9.6-9.9,14.4-3.4,4.7-6.9,9.4-10.4,14-3.6,4.6-7.2,9.1-10.9,13.6s-7.6,8.8-11.5,13.1c-3.9,4.3-7.9,8.5-12,12.7-4.1,4.2-8.2,8.2-12.4,12.2-4.2,4-8.5,7.9-12.9,11.7s-8.8,7.6-13.3,11.2-9.1,7.2-13.8,10.7c-4.7,3.5-9.4,6.9-14.1,10.2-4.8,3.3-9.6,6.5-14.5,9.6-4.9,3.1-9.9,6.1-14.9,9.1-5,2.9-10.1,5.8-15.2,8.5-5.1,2.7-10.3,5.4-15.5,7.9-5.2,2.5-10.5,5-15.8,7.3s-10.7,4.6-16.1,6.7-10.9,4.1-16.3,6.1-11,3.7-16.6,5.4c-5.6,1.7-11.1,3.3-16.8,4.8-5.6,1.5-11.3,2.9-16.9,4.2s-11.4,2.4-17.1,3.5c-5.7,1.1-11.4,2-17.2,2.8s-11.5,1.6-17.3,2.2c-5.8.6-11.6,1.1-17.4,1.5s-11.6.7-17.4.8-11.6.2-17.4.2c-5.8,0-11.6-.2-17.4-.5-5.8-.3-11.6-.7-17.4-1.2s-11.6-1.1-17.3-1.8c-5.8-.7-11.5-1.5-17.3-2.5-5.7-.9-11.4-2-17.1-3.1-5.7-1.2-11.4-2.4-17-3.8-5.6-1.4-11.3-2.8-16.8-4.4s-11.1-3.3-16.7-5.1c-5.5-1.8-11-3.7-16.5-5.7-5.4-2-10.9-4.1-16.2-6.3s-10.7-4.5-16-7c-5.3-2.4-10.5-4.9-15.7-7.6-5.2-2.6-10.3-5.3-15.4-8.2-5.1-2.8-10.1-5.7-15.1-8.7-5-3-9.9-6.1-14.7-9.3-4.9-3.2-9.6-6.5-14.4-9.9-4.7-3.4-9.4-6.9-14-10.4-4.6-3.6-9.1-7.2-13.6-10.9-4.4-3.7-8.8-7.6-13.1-11.5-4.3-3.9-8.5-7.9-12.7-12-4.2-4.1-8.2-8.2-12.2-12.4s-7.9-8.5-11.7-12.9c-3.8-4.4-7.6-8.8-11.2-13.3-3.7-4.5-7.2-9.1-10.7-13.7-3.5-4.7-6.9-9.4-10.2-14.1s-6.5-9.6-9.6-14.5l192-122c3.1,4.9,6.4,9.7,9.9,14.3,3.5,4.7,7.1,9.2,11,13.5,3.8,4.4,7.8,8.6,12,12.7,4.2,4.1,8.5,8,12.9,11.7,4.4,3.7,9,7.3,13.8,10.7,4.7,3.4,9.6,6.6,14.5,9.6,5,3,10,5.8,15.2,8.5s10.5,5,15.8,7.3c5.4,2.2,10.8,4.2,16.3,6s11.1,3.4,16.8,4.8c5.7,1.4,11.3,2.5,17.1,3.5s11.5,1.7,17.3,2.1,11.6.8,17.4.8c5.8,0,11.6-.1,17.4-.5,5.8-.4,11.6-1,17.3-1.8s11.5-1.9,17.1-3.2c5.7-1.3,11.3-2.8,16.8-4.5,5.6-1.7,11-3.6,16.4-5.8,5.4-2.1,10.7-4.5,16-7,5.2-2.5,10.4-5.3,15.4-8.2s9.9-6,14.7-9.3c4.8-3.3,9.4-6.8,13.9-10.4,4.5-3.7,8.9-7.5,13.1-11.5,4.2-4,8.3-8.1,12.2-12.4,3.9-4.3,7.6-8.8,11.2-13.3,3.6-4.6,6.9-9.3,10.2-14.2,3.2-4.9,6.2-9.8,9-14.9,2.8-5.1,5.4-10.3,7.9-15.5,2.4-5.3,4.6-10.6,6.7-16.1,2-5.5,3.8-11,5.4-16.6,1.6-5.6,3-11.2,4.1-16.9,1.2-5.7,2.1-11.4,2.8-17.2l225.7,28.1Z"/>
      <path class="st10" d="M166,794c-6.2-9.8-12.1-19.9-17.6-30.1s-10.5-20.7-15.2-31.4-8.9-21.5-12.8-32.5c-3.8-11-7.3-22.1-10.2-33.3-3-11.2-5.5-22.6-7.6-34-2.1-11.4-3.8-22.9-5-34.5-1.2-11.6-2-23.2-2.4-34.8-.3-11.6-.2-23.3.3-34.9l227.2,10.7c-.5,11.6-.2,23.2,1,34.8s3.3,23,6.3,34.3c3,11.3,6.8,22.2,11.5,32.9,4.7,10.7,10.1,20.9,16.4,30.8l-192,122Z"/>
      <path class="st9" d="M95.6,528.6c.6-13.1,1.8-26.2,3.6-39.2,1.8-13,4.1-25.9,6.9-38.7s6.3-25.5,10.3-38c4-12.5,8.5-24.8,13.5-37,5-12.1,10.6-24,16.6-35.7,6.1-11.6,12.6-23,19.7-34.1,7-11.1,14.6-21.8,22.5-32.3,8-10.4,16.4-20.5,25.2-30.2l168.1,153.3c-4.4,4.8-8.6,9.9-12.6,15.1-4,5.2-7.7,10.6-11.3,16.1-3.5,5.5-6.8,11.2-9.8,17-3,5.8-5.8,11.8-8.3,17.8s-4.8,12.2-6.7,18.5c-2,6.3-3.7,12.6-5.1,19-1.4,6.4-2.6,12.9-3.5,19.4-.9,6.5-1.5,13-1.8,19.6l-227.2-10.7Z"/>
      <path class="st6" d="M213.8,243.5c5.3-5.8,10.8-11.5,16.4-17s11.4-10.9,17.2-16.2,11.9-10.3,18.1-15.3,12.4-9.7,18.8-14.3,12.9-9,19.5-13.3c6.6-4.3,13.4-8.4,20.2-12.3,6.8-3.9,13.8-7.7,20.8-11.2s14.2-6.9,21.4-10.1c7.2-3.2,14.5-6.2,21.9-9,7.4-2.8,14.8-5.4,22.3-7.8s15.1-4.6,22.7-6.7c7.6-2,15.3-3.8,23-5.5,7.7-1.6,15.5-3.1,23.2-4.3s15.6-2.2,23.4-3.1,15.7-1.4,23.6-1.8,15.8-.6,23.6-.6v227.5c-7.9,0-15.7.4-23.6,1.2s-15.6,2-23.3,3.7c-7.7,1.6-15.3,3.7-22.8,6.1-7.5,2.4-14.9,5.2-22.1,8.4-7.2,3.2-14.2,6.7-21.1,10.7-6.8,3.9-13.5,8.2-19.9,12.8-6.4,4.6-12.5,9.5-18.4,14.8-5.9,5.2-11.5,10.8-16.8,16.6l-168.1-153.3Z"/>
    </g>
    <g>
      <path class="st7" d="M859.1,950.4h-6.3v20.9h-4.7v-20.9h-6.3v-3.8h17.2v3.8Z"/>
      <path class="st7" d="M866.8,971.3h-4.4v-18.6h4.4v3.3c.9-2.3,2.4-3.5,4.7-3.5s.9,0,1.2.1v4.3c-.6-.2-1.2-.4-1.9-.4-1.2,0-2.2.5-2.9,1.5-.8,1-1.1,2.2-1.1,3.7v9.6Z"/>
      <path class="st7" d="M891.3,971.3h-4.4v-3.1c-1,2.2-2.9,3.2-5.7,3.2s-3.4-.5-4.4-1.6c-1.1-1.1-1.6-2.6-1.6-4.6v-12.6h4.4v11.6c0,1.2.3,2.1.9,2.7.6.6,1.4.9,2.4.9s2.3-.4,3-1.3c.7-.9,1.1-2.2,1.1-3.9v-10h4.4v18.6ZM881.4,947.8c0,.7-.2,1.3-.7,1.8-.5.5-1.1.7-1.8.7s-1.4-.2-1.9-.7c-.5-.5-.7-1.1-.7-1.8s.2-1.3.7-1.8,1.1-.7,1.9-.7,1.3.2,1.8.7.7,1.1.7,1.8ZM890.4,947.8c0,.7-.2,1.3-.7,1.8-.5.5-1.1.7-1.9.7s-1.4-.2-1.9-.7c-.5-.5-.8-1.1-.8-1.8s.3-1.3.8-1.8,1.1-.7,1.9-.7,1.4.2,1.9.7.7,1.1.7,1.8Z"/>
      <path class="st7" d="M922.5,971.3h-4.4v-11.4c0-2.5-1-3.7-2.9-3.7s-1.8.4-2.6,1.2-1.1,2.1-1.1,3.9v10h-4.4v-11.4c0-2.5-1-3.7-2.9-3.7s-1.8.4-2.6,1.2c-.8.8-1.1,2.1-1.1,3.9v10h-4.4v-18.6h4.4v2.9c1.1-2.1,2.8-3.2,5.3-3.2s4.5,1.2,5.3,3.5c.5-1.1,1.2-2,2.2-2.6,1-.6,2.1-.9,3.3-.9,1.9,0,3.3.6,4.4,1.7,1,1.1,1.5,2.8,1.5,4.9v12.3Z"/>
      <path class="st7" d="M953.5,971.3h-4.4v-11.4c0-2.5-1-3.7-2.9-3.7s-1.8.4-2.6,1.2-1.1,2.1-1.1,3.9v10h-4.4v-11.4c0-2.5-1-3.7-2.9-3.7s-1.8.4-2.6,1.2c-.8.8-1.1,2.1-1.1,3.9v10h-4.4v-18.6h4.4v2.9c1.1-2.1,2.8-3.2,5.3-3.2s4.5,1.2,5.3,3.5c.5-1.1,1.2-2,2.2-2.6,1-.6,2.1-.9,3.3-.9,1.9,0,3.3.6,4.4,1.7,1,1.1,1.5,2.8,1.5,4.9v12.3Z"/>
      <path class="st7" d="M972.3,970.3c-1.3.8-3.2,1.2-5.6,1.2s-5.3-.9-7-2.6c-1.7-1.8-2.6-4-2.6-6.8s.8-5.3,2.4-7,3.6-2.5,6.1-2.5,4.3.7,5.8,2.2c1.4,1.5,2.1,3.6,2.1,6.4s0,1.6-.3,2.6h-11.7c.3,1.3,1,2.4,2,3.1,1,.7,2.3,1.1,3.8,1.1s3.6-.5,5-1.5v3.8ZM965.7,956c-1.1,0-2,.4-2.7,1.2s-1.3,1.9-1.5,3.4h7.8v-.6c0-1.2-.4-2.2-1-2.9-.6-.7-1.5-1.1-2.6-1.1Z"/>
      <path class="st7" d="M981.9,971.3h-4.4v-18.6h4.4v3.3c.9-2.3,2.4-3.5,4.7-3.5s.9,0,1.2.1v4.3c-.6-.2-1.2-.4-1.9-.4-1.2,0-2.2.5-2.9,1.5-.8,1-1.1,2.2-1.1,3.7v9.6Z"/>
      <path class="st7" d="M1000.8,970.9c-.9.4-2,.6-3.3.6-4,0-6-2-6-6.1v-9.4h-2.8v-3.3h2.8v-4.5h4.4v4.5h4.6v3.3h-4.6v9.5c0,.8.2,1.4.6,1.8.4.4,1,.6,1.7.6s1.8-.3,2.6-.8v3.8Z"/>
      <path class="st7" d="M1018.7,970.3c-1.3.8-3.2,1.2-5.6,1.2s-5.3-.9-7-2.6c-1.7-1.8-2.6-4-2.6-6.8s.8-5.3,2.4-7,3.6-2.5,6.1-2.5,4.3.7,5.8,2.2c1.4,1.5,2.1,3.6,2.1,6.4s0,1.6-.3,2.6h-11.7c.3,1.3,1,2.4,2,3.1,1,.7,2.3,1.1,3.8,1.1s3.6-.5,5-1.5v3.8ZM1012,956c-1.1,0-2,.4-2.7,1.2s-1.3,1.9-1.5,3.4h7.8v-.6c0-1.2-.4-2.2-1-2.9-.6-.7-1.5-1.1-2.6-1.1Z"/>
      <path class="st7" d="M1028.9,947.1c0,.8-.3,1.4-.8,1.9s-1.1.8-1.9.8-1.4-.3-1.9-.8-.8-1.2-.8-1.9.3-1.4.8-1.9,1.1-.8,1.9-.8,1.4.3,1.9.8.8,1.1.8,1.9ZM1028.5,971.3h-4.4v-18.6h4.4v18.6Z"/>
      <path class="st7" d="M1038,971.3h-4.4v-26h4.4v26Z"/>
      <path class="st7" d="M1057.2,970.3c-1.3.8-3.2,1.2-5.6,1.2s-5.3-.9-7-2.6c-1.7-1.8-2.6-4-2.6-6.8s.8-5.3,2.4-7,3.6-2.5,6.1-2.5,4.3.7,5.8,2.2c1.4,1.5,2.1,3.6,2.1,6.4s0,1.6-.3,2.6h-11.7c.3,1.3,1,2.4,2,3.1,1,.7,2.3,1.1,3.8,1.1s3.6-.5,5-1.5v3.8ZM1050.6,956c-1.1,0-2,.4-2.7,1.2s-1.3,1.9-1.5,3.4h7.8v-.6c0-1.2-.4-2.2-1-2.9-.6-.7-1.5-1.1-2.6-1.1Z"/>
      <path class="st7" d="M932.3,1008.8c0,2-.7,3.6-2.1,4.9-1.4,1.3-3.3,1.9-5.8,1.9s-4.3-.4-6-1.2v-2.9c1.8,1,3.8,1.4,5.9,1.4s2.8-.4,3.7-1.2c.9-.8,1.3-1.9,1.3-3.2s-.5-2.3-1.5-3-2.4-1-4.2-1h-1.5v-2.5h1.5c1.4,0,2.5-.4,3.5-1.2s1.4-1.8,1.4-3.1-.4-2.3-1.2-2.9c-.8-.7-1.9-1-3.3-1s-3.3.5-4.9,1.5v-2.8c1.4-.9,3.1-1.4,4.9-1.4s4.2.6,5.5,1.8c1.3,1.2,2,2.7,2,4.5s-.3,2.5-1,3.5c-.6,1-1.6,1.8-2.9,2.3,1.4.3,2.5,1,3.3,1.9s1.2,2.2,1.2,3.6Z"/>
      <path class="st7" d="M951.2,1001.7c0,4.4-.9,7.8-2.6,10.3-1.8,2.5-4.4,3.7-7.8,3.7s-2.8-.2-4.2-.7v-2.9c1.3.6,2.6.8,4,.8,4.4,0,7-2.8,7.6-8.3-1.2,1.4-3,2.2-5.4,2.2s-3.7-.7-5.1-2.2c-1.4-1.4-2.1-3.3-2.1-5.7s.7-4.2,2-5.7c1.3-1.5,3.2-2.2,5.5-2.2s4.7,1,6.1,3c1.4,2,2,4.5,2,7.6ZM943.5,1004.3c2,0,3.6-.8,4.9-2.4v-.2c0-2.3-.4-4.2-1.2-5.7-.8-1.5-2.1-2.2-4-2.2s-2.5.5-3.3,1.4c-.8.9-1.2,2.2-1.2,3.8s.4,3,1.3,3.9c.9.9,2.1,1.4,3.6,1.4Z"/>
      <path class="st7" d="M966.2,996.5c0,1.6-.6,3-1.7,4.1-1.2,1.1-2.5,1.7-4.1,1.7s-3-.6-4.1-1.7c-1.1-1.1-1.7-2.5-1.7-4.1s.6-3,1.7-4.1c1.1-1.1,2.5-1.7,4.1-1.7s3,.6,4.1,1.7c1.2,1.1,1.7,2.5,1.7,4.1ZM958,994.2c-.6.6-1,1.4-1,2.3s.3,1.7,1,2.3c.6.6,1.4,1,2.3,1s1.7-.3,2.3-1,1-1.4,1-2.3-.3-1.7-1-2.3c-.6-.6-1.4-1-2.3-1s-1.7.3-2.3,1ZM963,1015.5h-2.8l13.1-24.5h2.8l-13.2,24.5ZM980.3,1005.8c1.1,1.2,1.7,2.5,1.7,4.1s-.6,3-1.7,4.1c-1.1,1.1-2.5,1.7-4.1,1.7s-3-.6-4.1-1.7c-1.1-1.1-1.7-2.5-1.7-4.1s.6-3,1.7-4.1c1.1-1.1,2.5-1.7,4.1-1.7s3,.6,4.1,1.7ZM973.9,1007.6c-.6.6-1,1.4-1,2.3s.3,1.7,1,2.3c.6.6,1.4,1,2.3,1s1.7-.3,2.3-1c.6-.6,1-1.4,1-2.3s-.3-1.7-1-2.3-1.4-1-2.4-1-1.7.3-2.3,1Z"/>
    </g>
  </g>
</svg>